<svg width="4096" height="4096" xmlns="http://www.w3.org/2000/svg"><g style="display:inline"><path fill="#241f31" d="M4160 4155.854H-64V-73.13h4224z"/><path d="M-64-73.13C86.92 1.27 238.06 75.668 383.26 153.983c145.2 78.314 284.46 160.544 421.52 268.618 137.28 107.683 272.14 241.992 375.54 418.983 103.4 176.99 175.12 397.054 311.3 545.46C1627.8 1535.45 1828 1612.2 1885.86 1836.961c58.08 224.371-26.4 596.757 31.9 857.936 58.3 261.178 259.16 411.15 348.48 635.913 89.54 225.154 67.76 525.099 45.76 825.044H-64Z" fill="#30223b"/><path d="M-64 531.067C65.36 594.893 194.94 658.72 319.24 725.678c124.52 67.35 243.98 137.442 361.46 230.245 117.48 92.411 233.2 207.142 321.86 359.072 88.66 151.539 150.26 340.277 266.86 467.538 116.6 127.26 288.42 193.045 337.92 385.698 49.72 192.263-22.66 511.394 27.28 735.374 49.94 223.588 222.2 352.415 298.76 545.069 76.78 192.653 58.08 449.916 39.16 707.18H-64Z" fill="#4e254a"/><path d="M-64 1135.263c107.8 53.254 215.82 106.116 319.44 162.111 103.62 55.995 203.28 114.731 301.18 191.87 97.9 77.14 194.26 172.684 268.18 299.162 73.7 126.478 125.18 283.499 222.42 389.615 97.24 106.116 240.24 160.936 281.6 321.48 41.36 160.154-18.92 426.423 22.66 612.812 41.58 186.388 185.24 293.68 249.04 454.224 64.02 160.545 48.18 375.126 32.56 589.317H-64Z" fill="#70234e"/><path d="M-64 1739.46c86.24 42.29 172.7 84.97 255.64 129.61 82.94 44.64 162.58 91.628 240.9 153.497 78.32 61.476 155.32 138.225 214.5 239.25 58.96 101.418 100.1 227.112 177.98 311.692 77.66 84.971 192.06 128.827 225.28 257.263 33 128.044-15.18 341.06 18.04 490.249 33.44 149.19 148.06 234.943 199.32 363.38 51.04 128.435 38.5 299.944 25.96 471.453H-64Z" fill="#921f48"/><path d="M-64 2343.264c64.68 32.11 129.36 63.827 191.62 97.502 62.26 33.675 121.88 68.917 180.84 115.122 58.74 46.206 116.38 103.767 160.82 179.34 44.22 75.966 75.02 170.335 133.32 234.16 58.52 63.436 144.32 96.328 169.18 192.654 24.64 96.327-11.44 255.697 13.42 367.687 25.08 111.99 111.1 176.208 149.6 272.535 38.28 96.326 28.82 225.154 19.58 353.59H-64Z" fill="#af2438"/><path d="M-64 2947.46c43.12 21.537 86.24 42.682 127.82 65.002 41.36 22.32 81.18 45.814 120.34 76.748 39.16 30.934 77.88 68.917 107.36 119.821 29.48 50.513 50.16 113.165 88.88 155.846 38.94 42.29 96.14 64.218 112.64 128.436 16.72 64.218-7.48 170.334 9.24 245.124 16.5 74.399 73.92 117.472 99.44 181.69 25.74 64.218 19.36 149.972 13.2 235.727H-64Z" fill="#c1381d"/><path d="M-64 3551.657c21.56 10.573 43.12 21.145 63.8 32.5 20.9 11.356 40.7 23.103 60.28 38.375 19.58 15.271 38.94 34.458 53.68 59.91 14.74 25.061 25.08 56.778 44.44 77.923 19.58 21.145 48.18 32.11 56.32 64.218 8.36 32.11-3.74 85.363 4.62 122.562 8.36 37.2 36.96 58.736 49.72 90.845 12.76 32.11 9.68 75.182 6.6 117.863H-64Z" fill="#c64600"/><path d="M4160 4155.854c-165.44 9.006-331.1 17.62-457.16-139.009-126.06-156.237-212.52-478.11-365.42-555.641-152.9-77.14-372.24 90.062-497.42-18.012s-155.98-491.032-237.16-744.771c-81.18-253.74-212.52-377.476-290.4-574.437-77.88-196.57-102.3-465.971-183.04-700.132-80.52-234.16-217.58-433.47-284.68-677.42-66.88-243.558-63.8-531.364-60.72-819.562h2376Z" fill="#30223b"/><path d="M4160 3551.657c-141.9 7.44-283.8 15.271-391.82-119.038-108.02-133.918-182.16-409.976-313.28-476.152-131.12-66.176-319 76.748-426.36-15.663-107.36-92.411-133.76-420.94-203.28-638.263-69.52-217.323-182.16-323.83-248.82-492.207-66.88-168.768-87.78-399.404-156.86-600.28-69.3-200.877-186.56-371.603-243.98-580.702-57.42-208.709-54.78-455.79-52.14-702.481H4160Z" fill="#4e254a"/><path d="M4160 2947.46c-118.14 6.266-236.5 12.531-326.48-99.067-89.98-111.99-151.8-341.843-261.14-397.055-109.12-55.211-265.98 64.218-355.3-12.921-89.32-77.14-111.32-350.85-169.4-531.756-57.86-181.298-151.8-269.793-207.24-410.368-55.66-140.574-73.04-332.837-130.9-500.038-57.64-167.593-155.54-309.734-203.28-483.984-47.74-173.858-45.54-379.825-43.34-585.4H4160Z" fill="#70234e"/><path d="M4160 2343.264c-94.6 5.09-189.2 10.181-261.14-79.097-72.16-89.67-121.44-273.318-208.78-317.566-87.56-44.247-212.96 51.296-284.46-10.572-71.5-61.477-89.1-280.366-135.52-425.248-46.2-144.882-121.44-216.148-165.88-328.53-44.44-112.38-58.3-266.268-104.5-399.795-46.2-133.917-124.52-247.865-162.8-387.265-38.28-139.008-36.3-303.86-34.54-468.32H4160Z" fill="#921f48"/><path d="M4160 1739.46c-70.84 3.524-141.9 7.44-195.8-59.52-54.12-67.35-91.08-205.183-156.64-238.467-65.56-32.892-159.72 38.766-213.18-7.44-53.68-46.597-66.88-210.666-101.64-319.523-34.98-108.466-91.08-161.72-124.52-245.908-33.44-84.188-43.78-199.702-78.54-300.336-34.54-100.242-93.28-185.605-121.88-290.155-28.82-104.55-27.5-227.895-26.18-351.24H4160Z" fill="#af2438"/><path d="M4160 1135.263c-47.3 2.35-94.6 5.09-130.68-39.94-35.86-44.64-60.72-136.659-104.28-158.587-43.78-21.928-106.48 25.452-142.12-5.09-35.86-30.935-44.66-140.575-67.76-213.016-23.32-72.44-60.72-107.682-82.94-164.069-22.44-55.995-29.26-133.134-52.36-200.093-23.1-66.96-62.26-123.737-81.4-193.437-19.14-69.7-18.26-151.93-17.38-234.16H4160Z" fill="#c1381d"/><path d="M4160 531.067c-23.54 1.175-47.3 2.35-65.34-19.97-18.04-22.32-30.36-68.134-52.14-79.49-21.78-10.964-53.24 12.922-71.06-2.349-17.82-15.663-22.22-70.091-33.88-106.508-11.66-36.024-30.36-54.037-41.58-81.838-11-28.194-14.52-66.568-26.18-100.243-11.44-33.284-31.02-61.868-40.48-96.718-9.68-34.85-9.24-75.965-8.8-117.08H4160Z" fill="#c64600"/></g></svg>