<?xml version="1.0" encoding="UTF-8" standalone="no"?>
<svg
   height="4096"
   width="4096"
   version="1.1"
   id="svg13"
   sodipodi:docname="drool-l.svg"
   inkscape:version="1.3.2 (091e20ef0f, 2023-11-25)"
   xmlns:inkscape="http://www.inkscape.org/namespaces/inkscape"
   xmlns:sodipodi="http://sodipodi.sourceforge.net/DTD/sodipodi-0.dtd"
   xmlns:xlink="http://www.w3.org/1999/xlink"
   xmlns="http://www.w3.org/2000/svg"
   xmlns:svg="http://www.w3.org/2000/svg">
  <sodipodi:namedview
     id="namedview13"
     pagecolor="#505050"
     bordercolor="#ffffff"
     borderopacity="1"
     inkscape:showpageshadow="0"
     inkscape:pageopacity="0"
     inkscape:pagecheckerboard="1"
     inkscape:deskcolor="#d1d1d1"
     inkscape:current-layer="svg13" />
  <defs
     id="defs12">
    <linearGradient
       id="a">
      <stop
         style="stop-color:#99c1f1;stop-opacity:1"
         offset="0"
         id="stop1" />
      <stop
         style="stop-color:#62a0ea;stop-opacity:1"
         offset="1"
         id="stop2" />
    </linearGradient>
    <linearGradient
       id="b">
      <stop
         style="stop-color:#1a5fb4;stop-opacity:1"
         offset="0"
         id="stop3" />
      <stop
         style="stop-color:#62a0ea;stop-opacity:1"
         offset="1"
         id="stop4" />
    </linearGradient>
    <linearGradient
       id="c">
      <stop
         style="stop-color:#62a0ea;stop-opacity:1"
         offset="0"
         id="stop5" />
      <stop
         style="stop-color:#2ec27e;stop-opacity:1"
         offset="1"
         id="stop6" />
    </linearGradient>
    <linearGradient
       id="d">
      <stop
         style="stop-color:#a51d2d;stop-opacity:1"
         offset="0"
         id="stop7" />
      <stop
         style="stop-color:#241f31;stop-opacity:1"
         offset="1"
         id="stop8" />
    </linearGradient>
    <linearGradient
       id="e">
      <stop
         style="stop-color:#e01b24;stop-opacity:1"
         offset="0"
         id="stop9" />
      <stop
         style="stop-color:#c64600;stop-opacity:1"
         offset="1"
         id="stop10" />
    </linearGradient>
    <linearGradient
       id="f">
      <stop
         style="stop-color:#c64600;stop-opacity:1"
         offset="0"
         id="stop11" />
      <stop
         style="stop-color:#ff7800;stop-opacity:1"
         offset="1"
         id="stop12" />
    </linearGradient>
    <linearGradient
       xlink:href="#c"
       id="i"
       gradientUnits="userSpaceOnUse"
       gradientTransform="rotate(15 6212.82 64573.478)"
       x1="-13741.31"
       y1="4951.943"
       x2="-13837.719"
       y2="2714.355" />
    <linearGradient
       xlink:href="#a"
       id="g"
       gradientUnits="userSpaceOnUse"
       gradientTransform="translate(10256.713)"
       x1="-7915.413"
       y1="3210.437"
       x2="-7075.002"
       y2="-699.37" />
    <linearGradient
       xlink:href="#b"
       id="h"
       gradientUnits="userSpaceOnUse"
       gradientTransform="rotate(15,5619.1775,64651.633)"
       x1="-13690.896"
       y1="7656.575"
       x2="-13815.409"
       y2="5372.239" />
  </defs>
  <rect
     style="font-variation-settings:normal;opacity:1;vector-effect:none;fill:url(#g);fill-opacity:1;stroke-width:0.0920004;stroke-linecap:round;stroke-linejoin:miter;stroke-miterlimit:4;stroke-dasharray:none;stroke-dashoffset:0;stroke-opacity:1;-inkscape-stroke:none;stop-color:#000000;stop-opacity:1"
     width="5322.8291"
     height="4177.9048"
     x="-500.59799"
     y="-100.636"
     rx="1.454"
     ry="1.454"
     id="rect12" />
  <path
     style="font-variation-settings:normal;opacity:1;vector-effect:none;fill:url(#h);fill-opacity:1;stroke-width:0.0920004;stroke-linecap:round;stroke-linejoin:miter;stroke-miterlimit:4;stroke-dasharray:none;stroke-dashoffset:0;stroke-opacity:1;-inkscape-stroke:none;stop-color:#000000;stop-opacity:1"
     d="m 958.405,2126.139 -114.796,428.424 a 93.502,93.502 0 0 1 -114.517,66.116 93.413,93.413 0 0 1 -65.944,-114.47 L 771.9,2100.343 a 93.502,93.502 0 0 0 -66.117,-114.517 93.413,93.413 0 0 0 -114.344,66.162 l -12.043,44.944 a 93.502,93.502 0 0 1 -114.516,66.117 93.413,93.413 0 0 1 -65.945,-114.471 l 108.751,-405.865 a 93.502,93.502 0 0 0 -66.115,-114.517 93.413,93.413 0 0 0 -114.345,66.162 l -219.277,818.351 a 93.502,93.502 0 0 1 -114.516,66.117 93.413,93.413 0 0 1 -65.944,-114.47 l 62.124,-231.852 a 93.502,93.502 0 0 0 -66.115,-114.518 93.413,93.413 0 0 0 -114.345,66.162 l -49.054,183.075 a 93.502,93.502 0 0 1 -114.518,66.116 93.413,93.413 0 0 0 -114.344,66.162 l -519.016,1936.997 a 93.502,93.502 0 0 0 66.115,114.517 93.413,93.413 0 0 1 65.944,114.47 93.413,93.413 0 0 0 66.163,114.345 93.413,93.413 0 0 1 65.944,114.47 93.413,93.413 0 0 0 66.162,114.345 93.413,93.413 0 0 0 114.345,-66.163 93.413,93.413 0 0 1 114.47,-65.944 l 180.462,48.354 A 147.671,147.671 0 0 0 46.63,4807.085 93.413,93.413 0 0 1 161.101,4741.14 l 180.461,48.355 a 147.67115,147.67115 0 0 1 246.405,162.824 l -96.662,360.75 a 93.502,93.502 0 0 0 66.116,114.516 l 180.46,48.354 180.461,48.355 180.46,48.355 a 113273140,113273140 0 0 0 360.923,96.709 178671150,178671150 0 0 1 180.46,48.353 147.672,147.672 0 0 0 294.806,-17.807 l 48.308,-180.29 a 93.502,93.502 0 0 1 114.517,-66.115 l 180.46,48.353 180.461,48.356 180.462,48.353 180.46,48.355 a 122034640,122034640 0 0 0 360.922,96.709 94697865,94697865 0 0 1 180.46,48.353 93.413,93.413 0 0 0 114.346,-66.16 l 48.308,-180.29 a 93.502,93.502 0 0 1 114.516,-66.116 93.413,93.413 0 0 0 114.345,-66.162 l 773.623,-2887.202 a 93.502,93.502 0 0 0 -66.116,-114.516 93.413,93.413 0 0 0 -114.345,66.162 l -280.151,1045.54 a 93.502,93.502 0 0 1 -114.517,66.116 93.413,93.413 0 0 1 -65.944,-114.47 l 38.38,-143.237 a 93.502,93.502 0 0 0 -66.117,-114.515 93.413,93.413 0 0 0 -114.344,66.16 l -38.398,143.309 a 93.502,93.502 0 0 1 -114.517,66.115 93.413,93.413 0 0 1 -65.945,-114.47 l 21.322,-79.577 a 93.502,93.502 0 0 0 -66.115,-114.517 93.413,93.413 0 0 0 -114.345,66.161 l -97.404,363.515 a 93.502,93.502 0 0 1 -114.516,66.117 97.386,97.386 0 0 1 -69.724,-115.4 l 14.85,-66.355 a 97.478,97.478 0 0 0 -69.897,-115.446 91.843,91.843 0 0 0 -112.81,66.56 l -106.415,425.906 a 91.93,91.93 0 0 1 -112.981,66.513 93.413,93.413 0 0 1 -65.946,-114.471 l 185.06,-690.646 a 93.502,93.502 0 0 0 -66.117,-114.517 93.413,93.413 0 0 0 -114.345,66.163 l -150.81,562.833 a 93.502,93.502 0 0 1 -114.517,66.116 93.413,93.413 0 0 1 -65.944,-114.472 l 75.624,-282.232 a 93.502,93.502 0 0 0 -66.117,-114.515 93.413,93.413 0 0 0 -114.344,66.162 l -8.147,30.404 a 93.502,93.502 0 0 1 -114.516,66.115 93.413,93.413 0 0 1 -65.944,-114.47 l 49.531,-184.854 a 93.502,93.502 0 0 0 -66.116,-114.517 93.413,93.413 0 0 0 -114.345,66.163 l -107.11,399.741 a 93.502,93.502 0 0 1 -114.517,66.116 93.413,93.413 0 0 1 -65.945,-114.47 l 57.594,-214.94 a 93.502,93.502 0 0 0 -66.117,-114.517 93.413,93.413 0 0 0 -114.343,66.162 l -14.24,53.14 a 93.502,93.502 0 0 1 -114.517,66.116 93.413,93.413 0 0 1 -65.944,-114.47 l 131.907,-492.281 a 93.502,93.502 0 0 0 -66.117,-114.517 93.413,93.413 0 0 0 -114.344,66.162 l -144.834,540.526 a 93.502,93.502 0 0 1 -114.516,66.116 93.413,93.413 0 0 1 -65.944,-114.47 l 238.715,-890.9 a 93.502,93.502 0 0 0 -66.115,-114.517 93.413,93.413 0 0 0 -114.345,66.163 z"
     id="path12" />
  <path
     style="font-variation-settings:normal;vector-effect:none;fill:url(#i);fill-opacity:1;stroke-width:.0435118;stroke-linecap:round;stroke-linejoin:miter;stroke-miterlimit:4;stroke-dasharray:none;stroke-dashoffset:0;stroke-opacity:1;-inkscape-stroke:none;stop-color:#000;opacity:1;stop-opacity:1"
     d="m3278.874 1971.84 114.796-428.421a93.502 93.502 0 0 1 114.516-66.117 93.413 93.413 0 0 1 65.944 114.47l-108.75 405.866a93.502 93.502 0 0 0 66.116 114.516 93.413 93.413 0 0 0 114.345-66.162l12.043-44.944a93.502 93.502 0 0 1 114.516-66.115 93.413 93.413 0 0 1 65.944 114.47l-108.75 405.865a93.502 93.502 0 0 0 66.115 114.516 93.413 93.413 0 0 0 114.345-66.162l219.277-818.35a93.502 93.502 0 0 1 114.516-66.116 93.413 93.413 0 0 1 65.944 114.47l-62.124 231.853a93.502 93.502 0 0 0 66.115 114.517 93.413 93.413 0 0 0 114.345-66.163l49.055-183.075a93.502 93.502 0 0 1 114.517-66.116 93.413 93.413 0 0 0 114.345-66.162L5225.06-238.517a93.502 93.502 0 0 0-66.117-114.516A93.413 93.413 0 0 1 5093-467.503a93.413 93.413 0 0 0-66.163-114.345 93.413 93.413 0 0 1-65.944-114.47 93.413 93.413 0 0 0-66.162-114.345 93.413 93.413 0 0 0-114.345 66.162 93.413 93.413 0 0 1-114.47 65.944l-180.46-48.353a147.671 147.671 0 0 0-294.807 17.807 93.413 93.413 0 0 1-114.47 65.944 113273130 113273130 0 0 0-180.461-48.353 103155850 103155850 0 0 1-180.461-48.356 93.413 93.413 0 0 1-65.944-114.47l96.663-360.75a93.502 93.502 0 0 0-66.117-114.516l-180.46-48.354-180.461-48.354-180.46-48.356-180.462-48.353-180.46-48.355a171559980 171559980 0 0 1-360.923-96.709 93.413 93.413 0 0 0-114.344 66.162l-48.308 180.29a93.502 93.502 0 0 1-114.517 66.115l-180.46-48.353-180.461-48.355-180.46-48.353-180.462-48.356a154733790 154733790 0 0 0-360.922-96.709 105032070 105032070 0 0 1-180.46-48.353 93.413 93.413 0 0 0-114.345 66.16l-48.308 180.29a93.502 93.502 0 0 1-114.517 66.116 93.413 93.413 0 0 0-114.345 66.163L-288.9 1571.933a93.502 93.502 0 0 0 66.116 114.517 93.413 93.413 0 0 0 114.345-66.163L171.712 574.75a93.502 93.502 0 0 1 114.517-66.117 93.413 93.413 0 0 1 65.944 114.47l-38.38 143.236a93.502 93.502 0 0 0 66.117 114.517 93.413 93.413 0 0 0 114.345-66.163l38.398-143.307a93.502 93.502 0 0 1 114.517-66.116 93.413 93.413 0 0 1 65.944 114.471l-21.323 79.577a93.502 93.502 0 0 0 66.116 114.516 93.413 93.413 0 0 0 114.345-66.162l97.403-363.515a93.502 93.502 0 0 1 114.517-66.115 97.386 97.386 0 0 1 69.725 115.399l-14.85 66.354a97.478 97.478 0 0 0 69.896 115.446 91.843 91.843 0 0 0 112.81-66.56l106.415-425.905a91.93 91.93 0 0 1 112.982-66.514 93.413 93.413 0 0 1 65.944 114.471l-185.058 690.646a93.502 93.502 0 0 0 66.116 114.517 93.413 93.413 0 0 0 114.345-66.162l150.81-562.832a93.502 93.502 0 0 1 114.517-66.117 93.413 93.413 0 0 1 65.945 114.47l-75.624 282.233a93.502 93.502 0 0 0 66.116 114.517 93.413 93.413 0 0 0 114.345-66.163l8.146-30.405a93.502 93.502 0 0 1 114.517-66.115 93.413 93.413 0 0 1 65.944 114.47l-49.532 184.854a93.502 93.502 0 0 0 66.116 114.517 93.413 93.413 0 0 0 114.345-66.161l107.11-399.743a93.502 93.502 0 0 1 114.517-66.116 93.413 93.413 0 0 1 65.944 114.47l-57.593 214.941a93.502 93.502 0 0 0 66.116 114.517 93.413 93.413 0 0 0 114.345-66.163l14.239-53.14a93.502 93.502 0 0 1 114.516-66.116 93.413 93.413 0 0 1 65.944 114.471l-131.905 492.28a93.502 93.502 0 0 0 66.115 114.517 93.413 93.413 0 0 0 114.345-66.162l144.833-540.525a93.502 93.502 0 0 1 114.517-66.116 93.413 93.413 0 0 1 65.944 114.47l-238.716 890.9a93.502 93.502 0 0 0 66.116 114.517 93.413 93.413 0 0 0 114.345-66.163z"
     id="path13" />
</svg>
