<?xml version="1.0" encoding="UTF-8" standalone="no"?>
<svg
   height="4096"
   width="4096"
   version="1.1"
   id="svg28"
   sodipodi:docname="drool-l.svg"
   inkscape:version="1.1.2 (0a00cf5339, 2022-02-04)"
   xmlns:inkscape="http://www.inkscape.org/namespaces/inkscape"
   xmlns:sodipodi="http://sodipodi.sourceforge.net/DTD/sodipodi-0.dtd"
   xmlns:xlink="http://www.w3.org/1999/xlink"
   xmlns="http://www.w3.org/2000/svg"
   xmlns:svg="http://www.w3.org/2000/svg">
  <sodipodi:namedview
     id="namedview30"
     pagecolor="#505050"
     bordercolor="#ffffff"
     borderopacity="1"
     inkscape:pageshadow="0"
     inkscape:pageopacity="0"
     inkscape:pagecheckerboard="1"
     showgrid="false"
     height="4096px"
     borderlayer="true"
     inkscape:showpageshadow="false"
     inkscape:current-layer="svg28" />
  <defs
     id="defs20">
    <linearGradient
       id="a">
      <stop
         style="stop-color:#99c1f1;stop-opacity:1"
         offset="0"
         id="stop2" />
      <stop
         style="stop-color:#62a0ea;stop-opacity:1"
         offset="1"
         id="stop4" />
    </linearGradient>
    <linearGradient
       id="b">
      <stop
         style="stop-color:#1a5fb4;stop-opacity:1"
         offset="0"
         id="stop7" />
      <stop
         style="stop-color:#62a0ea;stop-opacity:1"
         offset="1"
         id="stop9" />
    </linearGradient>
    <linearGradient
       id="c">
      <stop
         style="stop-color:#62a0ea;stop-opacity:1"
         offset="0"
         id="stop12" />
      <stop
         style="stop-color:#2ec27e;stop-opacity:1"
         offset="1"
         id="stop14" />
    </linearGradient>
    <linearGradient
       xlink:href="#a"
       id="d"
       gradientUnits="userSpaceOnUse"
       x1="2140.9871"
       y1="505.84601"
       x2="1824.49"
       y2="1475.988"
       gradientTransform="translate(10256.713)" />
    <linearGradient
       xlink:href="#b"
       id="e"
       gradientUnits="userSpaceOnUse"
       x1="-3980.2539"
       y1="3248.019"
       x2="-3980.2539"
       y2="1373.9969"
       gradientTransform="rotate(15,6212.8196,64573.478)" />
    <linearGradient
       xlink:href="#c"
       id="f"
       gradientUnits="userSpaceOnUse"
       x1="-4599.856"
       y1="1877.905"
       x2="-4599.856"
       y2="-50.097"
       gradientTransform="rotate(15,6212.8196,64573.478)" />
    <linearGradient
       xlink:href="#c-6"
       id="f-3"
       gradientUnits="userSpaceOnUse"
       gradientTransform="matrix(-1.1278801,-0.30221456,0.30221456,-1.1278801,-9585.7201,846.21452)"
       x1="-10046.468"
       y1="2439.897"
       x2="-10046.468"
       y2="3778.1279" />
    <linearGradient
       id="c-6">
      <stop
         style="stop-color:#a51d2d;stop-opacity:1"
         offset="0"
         id="stop12-7" />
      <stop
         style="stop-color:#241f31;stop-opacity:1"
         offset="1"
         id="stop14-5" />
    </linearGradient>
    <linearGradient
       xlink:href="#a-5"
       id="d-3"
       x1="1389.859"
       y1="2355.7971"
       x2="2306.4839"
       y2="1493.234"
       gradientUnits="userSpaceOnUse"
       gradientTransform="matrix(0.82566554,-0.82566554,0.82566554,0.82566554,-7980.6074,2931.0581)" />
    <linearGradient
       id="a-5">
      <stop
         style="stop-color:#e01b24;stop-opacity:1"
         offset="0"
         id="stop2-6" />
      <stop
         style="stop-color:#c64600;stop-opacity:1"
         offset="1"
         id="stop4-2" />
    </linearGradient>
    <linearGradient
       xlink:href="#b-1"
       id="e-9"
       gradientUnits="userSpaceOnUse"
       gradientTransform="matrix(1.0112296,-0.5838337,0.5838337,1.0112296,-438.26738,1415.5623)"
       x1="963.20502"
       y1="2614.625"
       x2="1645.266"
       y2="1909.375" />
    <linearGradient
       id="b-1">
      <stop
         style="stop-color:#c64600;stop-opacity:1"
         offset="0"
         id="stop7-2" />
      <stop
         style="stop-color:#ff7800;stop-opacity:1"
         offset="1"
         id="stop9-7" />
    </linearGradient>
    <linearGradient
       inkscape:collect="always"
       xlink:href="#c"
       id="linearGradient314"
       gradientUnits="userSpaceOnUse"
       gradientTransform="rotate(15,6212.8196,64573.478)"
       x1="-13741.31"
       y1="4951.9434"
       x2="-13837.719"
       y2="2714.3552" />
    <linearGradient
       inkscape:collect="always"
       xlink:href="#a"
       id="linearGradient634"
       gradientUnits="userSpaceOnUse"
       gradientTransform="translate(10256.713)"
       x1="-7915.4131"
       y1="3210.4373"
       x2="-7075.0015"
       y2="-699.37012" />
    <linearGradient
       inkscape:collect="always"
       xlink:href="#b"
       id="linearGradient1066"
       gradientUnits="userSpaceOnUse"
       gradientTransform="rotate(15,6212.8196,64573.478)"
       x1="-13690.896"
       y1="7656.5752"
       x2="-13815.409"
       y2="5372.2388" />
  </defs>
  <rect
     style="font-variation-settings:normal;vector-effect:none;fill:url(#linearGradient634);fill-opacity:1;stroke-width:0.0920004;stroke-linecap:round;stroke-linejoin:miter;stroke-miterlimit:4;stroke-dasharray:none;stroke-dashoffset:0;stroke-opacity:1;-inkscape-stroke:none;stop-color:#000000;opacity:1;stop-opacity:1"
     width="5322.8291"
     height="3975.842"
     x="-500.59808"
     y="-100.63552"
     rx="1.453746"
     ry="1.453746"
     id="rect22-0" />
  <path
     style="fill:url(#linearGradient1066);fill-opacity:1;stroke-width:0.0920004;stroke-linecap:round;-inkscape-stroke:none;stop-color:#000000;font-variation-settings:normal;opacity:1;vector-effect:none;stroke-linejoin:miter;stroke-miterlimit:4;stroke-dasharray:none;stroke-dashoffset:0;stroke-opacity:1;stop-opacity:1"
     d="m 958.40468,1969.8309 -114.79572,428.423 a 93.502138,93.502138 0 0 1 -114.51665,66.1157 93.413396,93.413396 0 0 1 -65.94402,-114.47 l 108.75187,-405.866 a 93.502138,93.502138 0 0 0 -66.11683,-114.5166 93.413396,93.413396 0 0 0 -114.34384,66.1623 l -12.04332,44.9436 a 93.502138,93.502138 0 0 1 -114.51665,66.1168 93.413396,93.413396 0 0 1 -65.94402,-114.4711 l 108.75071,-405.8649 a 93.502138,93.502138 0 0 0 -66.11567,-114.5167 93.413396,93.413396 0 0 0 -114.345,66.1624 l -219.27627,818.3504 a 93.502138,93.502138 0 0 1 -114.516647,66.1157 93.413396,93.413396 0 0 1 -65.944019,-114.4699 l 62.124579,-231.8521 a 93.502138,93.502138 0 0 0 -66.115666,-114.5178 93.413396,93.413396 0 0 0 -114.345007,66.1624 l -49.05371,183.075 a 93.502138,93.502138 0 0 1 -114.51781,66.1157 93.413396,93.413396 0 0 0 -114.34384,66.1624 l -519.0165,1936.9968 a 93.502138,93.502138 0 0 0 66.11567,114.5167 93.413396,93.413396 0 0 1 65.94401,114.4699 93.413396,93.413396 0 0 0 66.16238,114.345 93.413396,93.413396 0 0 1 65.94402,114.4699 93.413396,93.413396 0 0 0 66.16237,114.345 93.413396,93.413396 0 0 0 114.345,-66.1623 93.413396,93.413396 0 0 1 114.46994,-65.944 l 180.46184,48.3542 a 147.6714,147.6714 0 0 0 294.804504,-17.8069 93.413396,93.413396 0 0 1 114.471106,-65.9452 l 180.46067,48.3543 a 147.6714,147.6714 0 0 1 246.40469,162.8242 L 491.305,5156.7597 a 93.502138,93.502138 0 0 0 66.11567,114.5155 l 180.46067,48.3542 180.46067,48.3543 180.46069,48.3555 a 113273140,113273140 0 0 0 360.9225,96.7085 178671150,178671150 0 0 1 180.4606,48.3531 147.6715,147.6715 0 0 0 294.8057,-17.8069 l 48.3076,-180.289 a 93.502138,93.502138 0 0 1 114.5166,-66.1157 l 180.4607,48.3531 180.4607,48.3555 180.4618,48.3531 180.4607,48.3554 a 122034640,122034640 0 0 0 360.9213,96.7086 94697865,94697865 0 0 1 180.4607,48.3531 93.413396,93.413396 0 0 0 114.345,-66.1601 l 48.3087,-180.2902 a 93.502138,93.502138 0 0 1 114.5155,-66.1156 93.413396,93.413396 0 0 0 114.345,-66.1624 l 773.6229,-2887.2014 a 93.502138,93.502138 0 0 0 -66.1157,-114.5166 93.413396,93.413396 0 0 0 -114.345,66.1623 l -280.1514,1045.54 a 93.502138,93.502138 0 0 1 -114.5167,66.1156 93.413396,93.413396 0 0 1 -65.944,-114.4699 l 38.3801,-143.2366 a 93.502138,93.502138 0 0 0 -66.1169,-114.5155 93.413396,93.413396 0 0 0 -114.3438,66.1612 l -38.3987,143.3079 a 93.502138,93.502138 0 0 1 -114.5167,66.1156 93.413396,93.413396 0 0 1 -65.9452,-114.4711 l 21.3228,-79.5765 a 93.502138,93.502138 0 0 0 -66.1157,-114.5167 93.413396,93.413396 0 0 0 -114.345,66.1624 l -97.4033,363.5147 a 93.502138,93.502138 0 0 1 -114.5166,66.1169 97.3858,97.3858 0 0 1 -69.7238,-115.4006 l 14.8492,-66.3539 a 97.478046,97.478046 0 0 0 -69.8965,-115.4461 91.842883,91.842883 0 0 0 -112.8096,66.5594 l -106.4153,425.9067 a 91.930458,91.930458 0 0 1 -112.9812,66.5127 93.413396,93.413396 0 0 1 -65.9452,-114.4712 l 185.059,-690.6461 a 93.502138,93.502138 0 0 0 -66.1169,-114.5166 93.413396,93.413396 0 0 0 -114.345,66.1624 l -150.8101,562.8332 a 93.502138,93.502138 0 0 1 -114.5166,66.1157 93.413396,93.413396 0 0 1 -65.944,-114.4712 l 75.624,-282.2322 a 93.502138,93.502138 0 0 0 -66.1169,-114.5155 93.413396,93.413396 0 0 0 -114.3438,66.1624 l -8.1468,30.4037 a 93.502138,93.502138 0 0 1 -114.5167,66.1157 93.413396,93.413396 0 0 1 -65.944,-114.4699 l 49.5313,-184.8546 a 93.502138,93.502138 0 0 0 -66.1157,-114.5167 93.413396,93.413396 0 0 0 -114.345,66.1624 l -107.1101,399.7416 a 93.502138,93.502138 0 0 1 -114.5167,66.1157 93.413396,93.413396 0 0 1 -65.9452,-114.47 l 57.5941,-214.9407 a 93.502138,93.502138 0 0 0 -66.1169,-114.5167 93.413396,93.413396 0 0 0 -114.3438,66.1624 l -14.2397,53.1406 a 93.502138,93.502138 0 0 1 -114.5166,66.1156 93.413396,93.413396 0 0 1 -65.9441,-114.4699 l 131.9068,-492.2816 a 93.502138,93.502138 0 0 0 -66.1169,-114.5167 93.413396,93.413396 0 0 0 -114.3438,66.1624 l -144.834,540.525 a 93.502138,93.502138 0 0 1 -114.51663,66.1156 93.413396,93.413396 0 0 1 -65.94402,-114.4699 l 238.71555,-890.8999 a 93.502138,93.502138 0 0 0 -66.1156,-114.5167 93.413396,93.413396 0 0 0 -114.34502,66.1624 z"
     id="path24-9" />
  <path
     style="font-variation-settings:normal;vector-effect:none;fill:url(#linearGradient314);fill-opacity:1;stroke-width:0.0435118;stroke-linecap:round;stroke-linejoin:miter;stroke-miterlimit:4;stroke-dasharray:none;stroke-dashoffset:0;stroke-opacity:1;-inkscape-stroke:none;stop-color:#000000;opacity:1;stop-opacity:1"
     d="m 3278.874,1971.8405 114.7957,-428.4219 a 93.502138,93.502138 0 0 1 114.5167,-66.1169 93.413396,93.413396 0 0 1 65.944,114.4711 l -108.7496,405.8649 a 93.502138,93.502138 0 0 0 66.1157,114.5167 93.413396,93.413396 0 0 0 114.345,-66.1624 l 12.0422,-44.9435 a 93.502138,93.502138 0 0 1 114.5166,-66.1157 93.413396,93.413396 0 0 1 65.944,114.47 l -108.7507,405.8648 a 93.502138,93.502138 0 0 0 66.1157,114.5167 93.413396,93.413396 0 0 0 114.345,-66.1624 l 219.2763,-818.3493 a 93.502138,93.502138 0 0 1 114.5166,-66.1168 93.413396,93.413396 0 0 1 65.944,114.4711 l -62.1245,231.8521 a 93.502138,93.502138 0 0 0 66.1156,114.5166 93.413396,93.413396 0 0 0 114.345,-66.1623 l 49.0549,-183.0751 a 93.502138,93.502138 0 0 1 114.5167,-66.1157 93.413396,93.413396 0 0 0 114.345,-66.1624 l 519.0165,-1936.99683 a 93.502138,93.502138 0 0 0 -66.1169,-114.5166 93.413396,93.413396 0 0 1 -65.944,-114.47 93.413396,93.413396 0 0 0 -66.1624,-114.345 93.413396,93.413396 0 0 1 -65.944,-114.4699 93.413396,93.413396 0 0 0 -66.1624,-114.345 93.413396,93.413396 0 0 0 -114.345,66.1624 93.413396,93.413396 0 0 1 -114.4699,65.944 l -180.4607,-48.3531 a 147.67149,147.67149 0 0 0 -294.8056,17.8069 93.413396,93.413396 0 0 1 -114.47,65.944 113273130,113273130 0 0 0 -180.4618,-48.3531 103155850,103155850 0 0 1 -180.4607,-48.3554 93.413396,93.413396 0 0 1 -65.944,-114.47 l 96.663,-360.75077 a 93.502138,93.502138 0 0 0 -66.1168,-114.5155 l -180.4607,-48.3543 -180.4607,-48.3543 -180.4606,-48.3554 -180.4607,-48.3531 -180.4607,-48.3555 a 171559980,171559980 0 0 1 -360.9225,-96.7085 93.413396,93.413396 0 0 0 -114.3438,66.1624 l -48.3087,180.289 a 93.502138,93.502138 0 0 1 -114.5167,66.1157 l -180.4607,-48.3532 -180.4606,-48.3554 -180.4607,-48.3531 -180.4607,-48.3555 a 154733790,154733790 0 0 0 -360.9225,-96.7085 105032070,105032070 0 0 1 -180.46064,-48.3531 93.413396,93.413396 0 0 0 -114.34384,66.16 l -48.30874,180.2902 a 93.502138,93.502138 0 0 1 -114.51665,66.1157 93.413396,93.413396 0 0 0 -114.345,66.1623 L -288.90002,1571.933 a 93.502138,93.502138 0 0 0 66.11566,114.5166 93.413396,93.413396 0 0 0 114.345,-66.1623 L 171.71209,574.74851 a 93.502138,93.502138 0 0 1 114.51665,-66.11684 93.413396,93.413396 0 0 1 65.94402,114.47111 L 313.7927,766.33821 a 93.502138,93.502138 0 0 0 66.11683,114.51665 93.413396,93.413396 0 0 0 114.345,-66.16237 L 532.65328,671.38466 A 93.502138,93.502138 0 0 1 647.16993,605.269 93.413396,93.413396 0 0 1 713.11395,719.74011 l -21.32278,79.57654 a 93.502138,93.502138 0 0 0 66.11567,114.51664 93.413396,93.413396 0 0 0 114.345,-66.16237 L 969.65515,484.1562 a 93.502138,93.502138 0 0 1 114.51665,-66.11567 97.3858,97.3858 0 0 1 69.7249,115.39941 l -14.8504,66.35387 a 97.478046,97.478046 0 0 0 69.8966,115.44611 91.842883,91.842883 0 0 0 112.8095,-66.55938 l 106.4154,-425.90553 a 91.930458,91.930458 0 0 1 112.9823,-66.51385 93.413396,93.413396 0 0 1 65.9441,114.47112 l -185.0578,690.6461 a 93.502138,93.502138 0 0 0 66.1156,114.51662 93.413396,93.413396 0 0 0 114.345,-66.1623 l 150.8101,-562.8321 a 93.502138,93.502138 0 0 1 114.5167,-66.11684 93.413396,93.413396 0 0 1 65.9452,114.47111 l -75.624,282.23223 a 93.502138,93.502138 0 0 0 66.1157,114.51665 93.413396,93.413396 0 0 0 114.345,-66.16237 l 8.1468,-30.40489 a 93.502138,93.502138 0 0 1 114.5166,-66.11567 93.413396,93.413396 0 0 1 65.944,114.46994 l -49.5324,184.85464 a 93.502138,93.502138 0 0 0 66.1168,114.5166 93.413396,93.413396 0 0 0 114.345,-66.1612 l 107.1102,-399.74277 a 93.502138,93.502138 0 0 1 114.5166,-66.11566 93.413396,93.413396 0 0 1 65.944,114.46994 l -57.5928,214.94072 a 93.502138,93.502138 0 0 0 66.1156,114.51667 93.413396,93.413396 0 0 0 114.345,-66.16239 l 14.2386,-53.14055 a 93.502138,93.502138 0 0 1 114.5166,-66.11567 93.413396,93.413396 0 0 1 65.944,114.47111 l -131.9055,492.2804 a 93.502138,93.502138 0 0 0 66.1157,114.5167 93.413396,93.413396 0 0 0 114.345,-66.1624 l 144.8328,-540.52493 a 93.502138,93.502138 0 0 1 114.5166,-66.11567 93.413396,93.413396 0 0 1 65.944,114.4699 l -238.7156,890.9 a 93.502138,93.502138 0 0 0 66.1157,114.5166 93.413396,93.413396 0 0 0 114.345,-66.1623 z"
     id="path26-3" />
</svg>
