<svg height="4096" width="4096" xmlns:xlink="http://www.w3.org/1999/xlink" xmlns="http://www.w3.org/2000/svg"><defs><linearGradient id="a"><stop style="stop-color:#99c1f1;stop-opacity:1" offset="0"/><stop style="stop-color:#62a0ea;stop-opacity:1" offset="1"/></linearGradient><linearGradient id="b"><stop style="stop-color:#1a5fb4;stop-opacity:1" offset="0"/><stop style="stop-color:#62a0ea;stop-opacity:1" offset="1"/></linearGradient><linearGradient id="c"><stop style="stop-color:#62a0ea;stop-opacity:1" offset="0"/><stop style="stop-color:#2ec27e;stop-opacity:1" offset="1"/></linearGradient><linearGradient id="d"><stop style="stop-color:#a51d2d;stop-opacity:1" offset="0"/><stop style="stop-color:#241f31;stop-opacity:1" offset="1"/></linearGradient><linearGradient id="e"><stop style="stop-color:#e01b24;stop-opacity:1" offset="0"/><stop style="stop-color:#c64600;stop-opacity:1" offset="1"/></linearGradient><linearGradient id="f"><stop style="stop-color:#c64600;stop-opacity:1" offset="0"/><stop style="stop-color:#ff7800;stop-opacity:1" offset="1"/></linearGradient><linearGradient xlink:href="#c" id="i" gradientUnits="userSpaceOnUse" gradientTransform="rotate(15 6212.82 64573.478)" x1="-13741.31" y1="4951.943" x2="-13837.719" y2="2714.355"/><linearGradient xlink:href="#a" id="g" gradientUnits="userSpaceOnUse" gradientTransform="translate(10256.713)" x1="-7915.413" y1="3210.437" x2="-7075.002" y2="-699.37"/><linearGradient xlink:href="#b" id="h" gradientUnits="userSpaceOnUse" gradientTransform="rotate(15 6212.82 64573.478)" x1="-13690.896" y1="7656.575" x2="-13815.409" y2="5372.239"/></defs><rect style="font-variation-settings:normal;vector-effect:none;fill:url(#g);fill-opacity:1;stroke-width:.0920004;stroke-linecap:round;stroke-linejoin:miter;stroke-miterlimit:4;stroke-dasharray:none;stroke-dashoffset:0;stroke-opacity:1;-inkscape-stroke:none;stop-color:#000;opacity:1;stop-opacity:1" width="5322.829" height="3975.842" x="-500.598" y="-100.636" rx="1.454" ry="1.454"/><path style="fill:url(#h);fill-opacity:1;stroke-width:.0920004;stroke-linecap:round;-inkscape-stroke:none;stop-color:#000;font-variation-settings:normal;opacity:1;vector-effect:none;stroke-linejoin:miter;stroke-miterlimit:4;stroke-dasharray:none;stroke-dashoffset:0;stroke-opacity:1;stop-opacity:1" d="m958.405 1969.83-114.796 428.424a93.502 93.502 0 0 1-114.517 66.116 93.413 93.413 0 0 1-65.944-114.47L771.9 1944.034a93.502 93.502 0 0 0-66.117-114.517 93.413 93.413 0 0 0-114.344 66.162l-12.043 44.944a93.502 93.502 0 0 1-114.516 66.117 93.413 93.413 0 0 1-65.945-114.471l108.751-405.865a93.502 93.502 0 0 0-66.115-114.517 93.413 93.413 0 0 0-114.345 66.162L107.949 2256.4a93.502 93.502 0 0 1-114.516 66.117 93.413 93.413 0 0 1-65.944-114.47l62.124-231.852a93.502 93.502 0 0 0-66.115-114.518 93.413 93.413 0 0 0-114.345 66.162l-49.054 183.075a93.502 93.502 0 0 1-114.518 66.116 93.413 93.413 0 0 0-114.344 66.162l-519.016 1936.997a93.502 93.502 0 0 0 66.115 114.517 93.413 93.413 0 0 1 65.944 114.47 93.413 93.413 0 0 0 66.163 114.345 93.413 93.413 0 0 1 65.944 114.47 93.413 93.413 0 0 0 66.162 114.345 93.413 93.413 0 0 0 114.345-66.163 93.413 93.413 0 0 1 114.47-65.944l180.462 48.354a147.671 147.671 0 0 0 294.804-17.807 93.413 93.413 0 0 1 114.471-65.945l180.461 48.355a147.671 147.671 0 0 1 246.405 162.824l-96.662 360.75a93.502 93.502 0 0 0 66.116 114.516l180.46 48.354 180.461 48.355 180.46 48.355a113273140 113273140 0 0 0 360.923 96.709 178671150 178671150 0 0 1 180.46 48.353 147.672 147.672 0 0 0 294.806-17.807l48.308-180.29a93.502 93.502 0 0 1 114.517-66.115l180.46 48.353 180.461 48.356 180.462 48.353 180.46 48.355a122034640 122034640 0 0 0 360.922 96.709 94697865 94697865 0 0 1 180.46 48.353 93.413 93.413 0 0 0 114.346-66.16l48.308-180.29a93.502 93.502 0 0 1 114.516-66.116 93.413 93.413 0 0 0 114.345-66.162l773.623-2887.202a93.502 93.502 0 0 0-66.116-114.516 93.413 93.413 0 0 0-114.345 66.162l-280.151 1045.54a93.502 93.502 0 0 1-114.517 66.116 93.413 93.413 0 0 1-65.944-114.47l38.38-143.237a93.502 93.502 0 0 0-66.117-114.515 93.413 93.413 0 0 0-114.344 66.16l-38.398 143.309a93.502 93.502 0 0 1-114.517 66.115 93.413 93.413 0 0 1-65.945-114.47l21.322-79.577a93.502 93.502 0 0 0-66.115-114.517A93.413 93.413 0 0 0 3365.027 3094l-97.404 363.515a93.502 93.502 0 0 1-114.516 66.117 97.386 97.386 0 0 1-69.724-115.4l14.85-66.355a97.478 97.478 0 0 0-69.897-115.446 91.843 91.843 0 0 0-112.81 66.56l-106.415 425.906a91.93 91.93 0 0 1-112.981 66.513 93.413 93.413 0 0 1-65.946-114.471l185.06-690.646a93.502 93.502 0 0 0-66.117-114.517 93.413 93.413 0 0 0-114.345 66.163l-150.81 562.833a93.502 93.502 0 0 1-114.517 66.116 93.413 93.413 0 0 1-65.944-114.472l75.624-282.232a93.502 93.502 0 0 0-66.117-114.515 93.413 93.413 0 0 0-114.344 66.162l-8.147 30.404a93.502 93.502 0 0 1-114.516 66.115 93.413 93.413 0 0 1-65.944-114.47l49.531-184.854a93.502 93.502 0 0 0-66.116-114.517 93.413 93.413 0 0 0-114.345 66.163l-107.11 399.741a93.502 93.502 0 0 1-114.517 66.116 93.413 93.413 0 0 1-65.945-114.47l57.594-214.94a93.502 93.502 0 0 0-66.117-114.517 93.413 93.413 0 0 0-114.343 66.162l-14.24 53.14a93.502 93.502 0 0 1-114.517 66.116 93.413 93.413 0 0 1-65.944-114.47l131.907-492.281a93.502 93.502 0 0 0-66.117-114.517 93.413 93.413 0 0 0-114.344 66.162L1080.61 2957.44a93.502 93.502 0 0 1-114.516 66.116 93.413 93.413 0 0 1-65.944-114.47l238.715-890.9a93.502 93.502 0 0 0-66.115-114.517 93.413 93.413 0 0 0-114.345 66.163z"/><path style="font-variation-settings:normal;vector-effect:none;fill:url(#i);fill-opacity:1;stroke-width:.0435118;stroke-linecap:round;stroke-linejoin:miter;stroke-miterlimit:4;stroke-dasharray:none;stroke-dashoffset:0;stroke-opacity:1;-inkscape-stroke:none;stop-color:#000;opacity:1;stop-opacity:1" d="m3278.874 1971.84 114.796-428.421a93.502 93.502 0 0 1 114.516-66.117 93.413 93.413 0 0 1 65.944 114.47l-108.75 405.866a93.502 93.502 0 0 0 66.116 114.516 93.413 93.413 0 0 0 114.345-66.162l12.043-44.944a93.502 93.502 0 0 1 114.516-66.115 93.413 93.413 0 0 1 65.944 114.47l-108.75 405.865a93.502 93.502 0 0 0 66.115 114.516 93.413 93.413 0 0 0 114.345-66.162l219.277-818.35a93.502 93.502 0 0 1 114.516-66.116 93.413 93.413 0 0 1 65.944 114.47l-62.124 231.853a93.502 93.502 0 0 0 66.115 114.517 93.413 93.413 0 0 0 114.345-66.163l49.055-183.075a93.502 93.502 0 0 1 114.517-66.116 93.413 93.413 0 0 0 114.345-66.162L5225.06-238.517a93.502 93.502 0 0 0-66.117-114.516A93.413 93.413 0 0 1 5093-467.503a93.413 93.413 0 0 0-66.163-114.345 93.413 93.413 0 0 1-65.944-114.47 93.413 93.413 0 0 0-66.162-114.345 93.413 93.413 0 0 0-114.345 66.162 93.413 93.413 0 0 1-114.47 65.944l-180.46-48.353a147.671 147.671 0 0 0-294.807 17.807 93.413 93.413 0 0 1-114.47 65.944 113273130 113273130 0 0 0-180.461-48.353 103155850 103155850 0 0 1-180.461-48.356 93.413 93.413 0 0 1-65.944-114.47l96.663-360.75a93.502 93.502 0 0 0-66.117-114.516l-180.46-48.354-180.461-48.354-180.46-48.356-180.462-48.353-180.46-48.355a171559980 171559980 0 0 1-360.923-96.709 93.413 93.413 0 0 0-114.344 66.162l-48.308 180.29a93.502 93.502 0 0 1-114.517 66.115l-180.46-48.353-180.461-48.355-180.46-48.353-180.462-48.356a154733790 154733790 0 0 0-360.922-96.709 105032070 105032070 0 0 1-180.46-48.353 93.413 93.413 0 0 0-114.345 66.16l-48.308 180.29a93.502 93.502 0 0 1-114.517 66.116 93.413 93.413 0 0 0-114.345 66.163L-288.9 1571.933a93.502 93.502 0 0 0 66.116 114.517 93.413 93.413 0 0 0 114.345-66.163L171.712 574.75a93.502 93.502 0 0 1 114.517-66.117 93.413 93.413 0 0 1 65.944 114.47l-38.38 143.236a93.502 93.502 0 0 0 66.117 114.517 93.413 93.413 0 0 0 114.345-66.163l38.398-143.307a93.502 93.502 0 0 1 114.517-66.116 93.413 93.413 0 0 1 65.944 114.471l-21.323 79.577a93.502 93.502 0 0 0 66.116 114.516 93.413 93.413 0 0 0 114.345-66.162l97.403-363.515a93.502 93.502 0 0 1 114.517-66.115 97.386 97.386 0 0 1 69.725 115.399l-14.85 66.354a97.478 97.478 0 0 0 69.896 115.446 91.843 91.843 0 0 0 112.81-66.56l106.415-425.905a91.93 91.93 0 0 1 112.982-66.514 93.413 93.413 0 0 1 65.944 114.471l-185.058 690.646a93.502 93.502 0 0 0 66.116 114.517 93.413 93.413 0 0 0 114.345-66.162l150.81-562.832a93.502 93.502 0 0 1 114.517-66.117 93.413 93.413 0 0 1 65.945 114.47l-75.624 282.233a93.502 93.502 0 0 0 66.116 114.517 93.413 93.413 0 0 0 114.345-66.163l8.146-30.405a93.502 93.502 0 0 1 114.517-66.115 93.413 93.413 0 0 1 65.944 114.47l-49.532 184.854a93.502 93.502 0 0 0 66.116 114.517 93.413 93.413 0 0 0 114.345-66.161l107.11-399.743a93.502 93.502 0 0 1 114.517-66.116 93.413 93.413 0 0 1 65.944 114.47l-57.593 214.941a93.502 93.502 0 0 0 66.116 114.517 93.413 93.413 0 0 0 114.345-66.163l14.239-53.14a93.502 93.502 0 0 1 114.516-66.116 93.413 93.413 0 0 1 65.944 114.471l-131.905 492.28a93.502 93.502 0 0 0 66.115 114.517 93.413 93.413 0 0 0 114.345-66.162l144.833-540.525a93.502 93.502 0 0 1 114.517-66.116 93.413 93.413 0 0 1 65.944 114.47l-238.716 890.9a93.502 93.502 0 0 0 66.116 114.517 93.413 93.413 0 0 0 114.345-66.163z"/></svg>