<?xml version="1.0" encoding="UTF-8" standalone="no"?>
<svg
   class="generator__canvas"
   width="4096"
   height="4096"
   version="1.1"
   id="svg16"
   sodipodi:docname="field-d.svg"
   inkscape:version="1.1.2 (0a00cf5339, 2022-02-04)"
   xmlns:inkscape="http://www.inkscape.org/namespaces/inkscape"
   xmlns:sodipodi="http://sodipodi.sourceforge.net/DTD/sodipodi-0.dtd"
   xmlns:xlink="http://www.w3.org/1999/xlink"
   xmlns="http://www.w3.org/2000/svg"
   xmlns:svg="http://www.w3.org/2000/svg">
  <sodipodi:namedview
     id="namedview18"
     pagecolor="#505050"
     bordercolor="#ffffff"
     borderopacity="1"
     inkscape:pageshadow="0"
     inkscape:pageopacity="0"
     inkscape:pagecheckerboard="1"
     showgrid="false"
     height="4096px"
     borderlayer="true"
     inkscape:current-layer="svg16" />
  <defs
     id="defs8">
    <linearGradient
       id="a">
      <stop
         style="stop-color:#e66100;stop-opacity:1"
         offset="0"
         id="stop2" />
      <stop
         style="stop-color:#ffbe6f;stop-opacity:1"
         offset="1"
         id="stop4" />
    </linearGradient>
    <linearGradient
       xlink:href="#a"
       id="b"
       x1="539.117"
       y1="417.28299"
       x2="321.52701"
       y2="641.85602"
       gradientUnits="userSpaceOnUse"
       gradientTransform="matrix(-5.0304646,0.7781891,-0.7781891,-5.0304646,5116.5502,4815.097)" />
  </defs>
  <path
     style="fill:#241f31;fill-opacity:1;stroke-width:39.7908;stroke-linecap:round;-inkscape-stroke:none;stop-color:#000000"
     d="M -285.45081,-66.47531 H 4293.1362 V 4176.6355 H -285.45081 Z"
     id="path10" />
  <path
     d="m 4012.949,4007.1295 -58.0904,-42.5267 z"
     style="fill:#26a269;stroke-width:19.5525"
     id="path12" />
  <path
     style="fill:url(#b);fill-opacity:1;fill-rule:nonzero;stroke:none;stroke-width:20.361;stroke-linecap:round"
     d="M 151.91884,125.06087 88.236378,91.508808 a 10.18062,10.18062 0 1 0 -9.50251,18.007832 l 63.702012,33.55208 a 10.176065,10.176065 0 1 0 9.48296,-18.00785 z m -1.79883,209.6027 -57.230139,-43.69982 A 10.177372,10.177372 0 1 0 80.55225,307.15321 l 57.21059,43.68027 a 10.183302,10.183302 0 1 0 12.35717,-16.18947 z m -2.99153,209.56358 -48.548834,-53.16322 a 10.179344,10.179344 0 1 0 -15.035865,13.72585 l 48.548829,53.18277 a 10.185939,10.185939 0 1 0 15.03587,-13.7454 z m -3.18706,207.99939 -40.33678,-59.63509 A 10.187134,10.187134 0 1 0 86.730837,704.0101 l 40.336783,59.6351 a 10.187136,10.187136 0 1 0 16.8738,-11.41866 z m -2.28764,206.08325 -34.80343,-62.99813 a 10.182106,10.182106 0 1 0 -17.831872,9.83491 l 34.803432,63.01767 a 10.186829,10.186829 0 1 0 17.83187,-9.85445 z m -1.44688,204.96871 -31.44041,-64.7774 a 10.183237,10.183237 0 1 0 -18.32068,8.8964 l 31.42085,64.7774 a 10.183237,10.183237 0 1 0 18.32068,-8.8964 z m -1.81838,205.1056 -27.27573,-66.5762 a 10.181069,10.181069 0 1 0 -18.848599,7.7037 l 27.295279,66.6153 a 10.172022,10.172022 0 1 0 18.82905,-7.7037 z m -3.61722,206.1615 -19.22009,-69.3723 a 10.175252,10.175252 0 1 0 -19.611151,5.4356 l 19.220101,69.3722 a 10.175249,10.175249 0 1 0 19.61114,-5.4355 z m -6.88247,206.8653 -4.77081,-71.8163 a 10.179893,10.179893 0 1 0 -20.31504,1.3491 l 4.77081,71.8359 a 10.1903,10.1903 0 1 0 20.33459,-1.3687 z m -10.79298,205.7509 16.34589,-70.1153 a 10.178066,10.178066 0 1 0 -19.82623,-4.6144 l -16.345881,70.0957 a 10.180287,10.180287 0 1 0 19.826221,4.634 z m -13.58898,201.723 40.49321,-59.5178 a 10.173854,10.173854 0 1 0 -16.81514,-11.4577 l -40.532313,59.4982 a 10.181935,10.181935 0 1 0 16.834693,11.4577 z m -12.963298,196.1115 60.612718,-38.8508 a 10.180196,10.180196 0 1 0 -11.00805,-17.128 l -60.593167,38.8508 a 10.183136,10.183136 0 1 0 10.988499,17.1475 z m -8.6422,192.3574 70.721358,-13.4717 a 10.181171,10.181171 0 1 0 -3.81274,-20.0022 l -70.721354,13.4717 a 10.181171,10.181171 0 1 0 3.812736,20.0022 z m -3.460791,192.983 71.562109,8.0166 a 10.180718,10.180718 0 1 0 2.24854,-20.2369 l -71.54256,-8.0165 a 10.181766,10.181766 0 1 0 -2.268089,20.2368 z m -0.488812,197.7344 69.391791,19.1614 a 10.182066,10.182066 0 1 0 5.41604,-19.6307 l -69.411344,-19.1614 a 10.17947,10.17947 0 1 0 -5.396487,19.6307 z m 0,204.6168 69.900151,17.2844 a 10.181499,10.181499 0 1 0 4.88812,-19.7676 l -69.880596,-17.2844 a 10.1815,10.1815 0 1 0 -4.888123,19.7676 z m 1.192702,211.7534 71.972719,1.5642 a 10.179343,10.179343 0 1 0 0.43015,-20.3541 l -71.953162,-1.5642 a 10.189331,10.189331 0 1 0 -0.449707,20.3737 z m 6.217691,216.5634 67.260568,-25.6528 a 10.183806,10.183806 0 1 0 -7.27353,-19.0246 l -67.260564,25.6529 a 10.183793,10.183793 0 1 0 7.273526,19.0245 z m 14.547053,215.3316 46.437165,-55.0012 a 10.184201,10.184201 0 1 0 -15.56378,-13.1392 l -46.417615,55.0207 a 10.170425,10.170425 0 1 0 15.54423,13.1197 z m 20.960265,206.5329 9.15057,-71.4056 a 10.18098,10.18098 0 1 0 -20.19772,-2.581 l -9.13102,71.4057 a 10.17128,10.17128 0 1 0 20.17817,2.5809 z M 355.90997,123.02741 290.46778,93.033908 A 10.184037,10.184037 0 1 0 281.982,111.5501 l 65.44219,29.99352 a 10.184038,10.184038 0 1 0 8.48578,-18.51621 z m -3.20661,213.98246 -54.08219,-47.51256 a 10.176189,10.176189 0 1 0 -13.43256,15.29005 l 54.06264,47.51255 a 10.182643,10.182643 0 1 0 13.45211,-15.29004 z m -6.19814,212.77019 -37.81452,-61.2384 a 10.179531,10.179531 0 1 0 -17.3235,10.69521 l 37.81451,61.25796 a 10.184673,10.184673 0 1 0 17.32351,-10.71477 z m -7.21487,209.73956 -21.1949,-68.78566 a 10.176978,10.176978 0 1 0 -19.45473,5.98306 l 21.17535,68.80522 a 10.189198,10.189198 0 1 0 19.47428,-6.00262 z m -6.23724,206.86535 -7.95787,-71.56212 a 10.180681,10.180681 0 1 0 -20.23682,2.24854 l 7.95786,71.56211 a 10.180682,10.180682 0 1 0 20.23683,-2.24853 z m -4.71215,205.16423 1.6033,-71.9532 a 10.179775,10.179775 0 1 0 -20.35414,-0.4692 l -1.60331,71.9531 a 10.170002,10.170002 0 1 0 20.33459,0.4693 z m -4.22334,204.4408 9.85445,-71.3079 a 10.17446,10.17446 0 1 0 -20.15861,-2.7765 l -9.87401,71.308 a 10.184145,10.184145 0 1 0 20.17817,2.7764 z m -5.02499,203.9716 19.35696,-69.3331 a 10.180489,10.180489 0 1 0 -19.61114,-5.4747 l -19.35697,69.3331 a 10.18049,10.18049 0 1 0 19.61115,5.4747 z m -6.6283,203.0331 31.32309,-64.8166 a 10.183511,10.183511 0 1 0 -18.34023,-8.8572 l -31.30354,64.8165 a 10.174712,10.174712 0 1 0 18.32068,8.8573 z m -8.09473,201.2146 45.06849,-56.1156 a 10.186802,10.186802 0 1 0 -15.87662,-12.7678 l -45.10759,56.1352 a 10.180672,10.180672 0 1 0 15.87662,12.7482 z m -8.40757,198.6729 58.03179,-42.6049 a 10.175644,10.175644 0 1 0 -12.04433,-16.4045 l -58.03179,42.6244 a 10.173562,10.173562 0 1 0 12.06388,16.385 z m -6.94113,196.5221 67.18235,-25.8289 a 10.181667,10.181667 0 1 0 -7.31263,-19.005 l -67.18235,25.8484 a 10.172558,10.172558 0 1 0 7.31263,18.9855 z m -4.34065,196.1701 71.32748,-9.7763 a 10.184145,10.184145 0 1 0 -2.77645,-20.1781 l -71.30794,9.7762 a 10.182832,10.182832 0 1 0 2.75691,20.1782 z m -1.83794,198.3209 71.95316,0.9776 a 10.178128,10.178128 0 1 0 0.29329,-20.3541 l -71.97271,-0.9777 a 10.17802,10.17802 0 1 0 -0.27374,20.3542 z m -0.23463,202.7007 71.93361,2.7764 a 10.174817,10.174817 0 1 0 0.7821,-20.3346 l -71.95316,-2.7764 a 10.174817,10.174817 0 1 0 -0.7821,20.3346 z m 1.48599,208.3513 71.65988,-6.7847 a 10.173414,10.173414 0 1 0 -1.91615,-20.2564 l -71.65987,6.7652 a 10.183136,10.183136 0 1 0 1.91614,20.2759 z m 5.59201,213.3568 66.41981,-27.7646 a 10.174835,10.174835 0 1 0 -7.8601,-18.7704 l -66.41981,27.7646 a 10.174835,10.174835 0 1 0 7.8601,18.7704 z m 12.9633,214.002 47.84495,-53.7889 a 10.17929,10.17929 0 1 0 -15.21184,-13.5304 l -47.84494,53.7694 a 10.185769,10.185769 0 1 0 15.21183,13.5499 z m 20.09996,207.1586 12.47449,-70.8973 a 10.183621,10.183621 0 1 0 -20.06085,-3.5195 l -12.47449,70.8973 a 10.183621,10.183621 0 1 0 20.06085,3.5195 z m 20.47146,194.8601 -30.01307,-65.4226 a 10.184042,10.184042 0 1 0 -18.51621,8.4858 l 30.03262,65.4421 a 10.179231,10.179231 0 1 0 18.49666,-8.5053 z M 559.80333,120.73977 492.62098,94.891384 a 10.181667,10.181667 0 1 0 -7.31263,19.005016 l 67.18235,25.84839 a 10.181667,10.181667 0 1 0 7.31263,-19.00502 z m -4.22334,217.73653 -51.97051,-49.80019 a 10.171061,10.171061 0 1 0 -14.0778,14.68392 l 51.97052,49.81974 a 10.178118,10.178118 0 1 0 14.07779,-14.70347 z m -9.34609,215.01873 -28.6835,-66.02875 a 10.179743,10.179743 0 1 0 -18.67263,8.11428 l 28.68351,66.02876 a 10.179743,10.179743 0 1 0 18.67262,-8.11429 z m -11.35999,209.95464 -4.30155,-71.8554 a 10.185933,10.185933 0 1 0 -20.33459,1.23181 l 4.30155,71.8554 a 10.185933,10.185933 0 1 0 20.33459,-1.23181 z m -9.95222,205.63354 15.15318,-70.38896 a 10.17991,10.17991 0 1 0 -19.90444,-4.282 l -15.15317,70.38896 a 10.179907,10.179907 0 1 0 19.90443,4.282 z m -7.33218,203.34579 28.60529,-66.0483 a 10.17585,10.17585 0 1 0 -18.67263,-8.0947 l -28.62484,66.0483 a 10.184821,10.184821 0 1 0 18.69218,8.0947 z m -5.4747,202.4661 38.12735,-61.0624 a 10.180417,10.180417 0 1 0 -17.26484,-10.793 l -38.12736,61.0624 a 10.180421,10.180421 0 1 0 17.26485,10.793 z m -4.63394,201.9185 45.83104,-55.529 a 10.174138,10.174138 0 1 0 -15.70065,-12.9438 l -45.83104,55.5291 a 10.174122,10.174122 0 1 0 15.70065,12.9437 z m -4.43842,201.2929 52.83083,-48.8812 a 10.183626,10.183626 0 1 0 -13.82361,-14.9577 l -52.83083,48.8813 a 10.18361,10.18361 0 1 0 13.82361,14.9576 z m -4.3211,200.5108 59.24405,-40.9038 a 10.182863,10.182863 0 1 0 -11.57508,-16.7565 l -59.24404,40.9038 a 10.18286,10.18286 0 1 0 11.57507,16.7565 z m -3.89094,199.9047 64.48411,-32.0075 a 10.182596,10.182596 0 1 0 -9.0528,-18.2424 l -64.48411,32.0074 a 10.182608,10.182608 0 1 0 9.0528,18.2425 z m -2.93288,199.9242 67.98401,-23.639 a 10.171854,10.171854 0 1 0 -6.6674,-19.2201 l -68.00356,23.6194 a 10.184318,10.184318 0 1 0 6.68695,19.2397 z m -1.68151,200.9605 69.72418,-17.8515 a 10.191068,10.191068 0 1 0 -5.04454,-19.748 l -69.74373,17.8906 a 10.174554,10.174554 0 1 0 5.06409,19.7089 z m -0.19552,203.2677 69.9197,-17.1085 a 10.176808,10.176808 0 1 0 -4.84902,-19.7675 l -69.9197,17.0888 a 10.184019,10.184019 0 1 0 4.82946,19.7872 z m 1.79882,206.4938 68.08177,-23.4043 a 10.183948,10.183948 0 1 0 -6.62829,-19.2592 l -68.06222,23.4043 a 10.180771,10.180771 0 1 0 6.60874,19.2592 z m 5.41604,209.7982 61.29706,-37.7167 a 10.17762,10.17762 0 1 0 -10.65611,-17.3431 l -61.31661,37.7363 a 10.174399,10.174399 0 1 0 10.67566,17.3235 z m 11.45776,210.8345 43.85624,-57.0932 A 10.179666,10.179666 0 1 0 536.399,3340.3114 l -43.83668,57.0932 a 10.171909,10.171909 0 1 0 16.1308,12.3963 z m 18.18382,206.0246 11.43821,-71.0928 a 10.178614,10.178614 0 1 0 -20.09996,-3.2262 l -11.43821,71.0733 a 10.189816,10.189816 0 1 0 20.11951,3.2457 z m 19.74801,195.0557 -29.60247,-65.5987 a 10.186477,10.186477 0 1 0 -18.57486,8.3685 l 29.62202,65.6182 a 10.190492,10.190492 0 1 0 18.57487,-8.388 z m 12.12255,184.4386 -62.07916,-36.4459 a 10.17922,10.17922 0 1 0 -10.30416,17.5582 l 62.07916,36.4458 a 10.179193,10.179193 0 1 0 10.30416,-17.5581 z M 763.55983,118.29571 694.83283,96.846634 a 10.179209,10.179209 0 1 0 -6.06127,19.435176 l 68.70745,21.44908 a 10.179209,10.179209 0 1 0 6.06127,-19.43518 z m -4.67304,220.70851 -51.12977,-50.6605 a 10.182742,10.182742 0 1 0 -14.33197,14.46884 l 51.14931,50.64095 a 10.175866,10.175866 0 1 0 14.31243,-14.46884 z m -11.96613,216.62204 -22.15297,-68.49238 a 10.180828,10.180828 0 1 0 -19.37652,6.2568 l 22.17253,68.49237 a 10.171524,10.171524 0 1 0 19.35696,-6.25679 z m -14.74258,209.40716 8.1925,-71.523 a 10.183964,10.183964 0 1 0 -20.23683,-2.3072 l -8.17294,71.52301 a 10.174249,10.174249 0 1 0 20.21727,2.30719 z m -12.5918,203.52187 31.45996,-64.75784 a 10.183239,10.183239 0 1 0 -18.32069,-8.89639 l -31.45995,64.75785 a 10.183235,10.183235 0 1 0 18.32068,8.89638 z m -8.68131,200.94091 46.14388,-55.2554 a 10.189005,10.189005 0 1 0 -15.64199,-13.061 l -46.14388,55.2553 a 10.189016,10.189016 0 1 0 15.64199,13.0611 z m -5.47469,200.589 54.68831,-46.8087 a 10.178616,10.178616 0 1 0 -13.23703,-15.466 l -54.68832,46.8086 a 10.171204,10.171204 0 1 0 13.23704,15.4465 z m -3.44124,201.0191 59.7133,-40.2195 a 10.176189,10.176189 0 1 0 -11.37955,-16.8738 l -59.69375,40.2195 a 10.170727,10.170727 0 1 0 11.36,16.8738 z m -2.20943,201.5862 62.74394,-35.2923 a 10.181216,10.181216 0 1 0 -9.97177,-17.7536 l -62.76349,35.2922 a 10.186024,10.186024 0 1 0 9.99132,17.7537 z m -1.40778,202.1141 64.58187,-31.7924 a 10.187134,10.187134 0 1 0 -8.99414,-18.2815 l -64.58188,31.8119 a 10.178362,10.178362 0 1 0 8.99415,18.262 z m -0.72344,202.7789 65.48129,-29.8958 a 10.179968,10.179968 0 1 0 -8.46623,-18.5162 l -65.48129,29.9153 a 10.171098,10.171098 0 1 0 8.46623,18.4967 z m 0.0782,203.6978 65.38352,-30.1108 a 10.170349,10.170349 0 1 0 -8.50533,-18.4771 l -65.40308,30.1108 a 10.174441,10.174441 0 1 0 8.52489,18.4771 z m 1.17315,204.9492 63.89753,-33.1806 a 10.179395,10.179395 0 1 0 -9.38519,-18.0665 l -63.87799,33.161 a 10.188093,10.188093 0 1 0 9.3852,18.0861 z m 2.93287,206.3961 59.92838,-39.8871 a 10.18147,10.18147 0 1 0 -11.28179,-16.952 l -59.92838,39.8871 a 10.18147,10.18147 0 1 0 11.28179,16.952 z m 5.78754,207.6865 51.34484,-50.465 a 10.183024,10.183024 0 1 0 -14.27332,-14.5275 l -51.34484,50.465 a 10.183024,10.183024 0 1 0 14.27332,14.5275 z m 10.22595,207.5888 34.49059,-63.1936 a 10.171853,10.171853 0 1 0 -17.85142,-9.7567 l -34.51015,63.1936 a 10.180436,10.180436 0 1 0 17.87098,9.7567 z m 15.38781,203.8543 6.13948,-71.7186 a 10.184975,10.184975 0 1 0 -20.29548,-1.7401 l -6.11993,71.7381 a 10.174404,10.174404 0 1 0 20.27593,1.7206 z m 17.49948,195.0947 -30.73652,-65.1098 a 10.176257,10.176257 0 1 0 -18.39889,8.7009 l 30.71696,65.1098 a 10.185099,10.185099 0 1 0 18.41845,-8.7009 z m 11.57507,184.9861 -61.92273,-36.6804 a 10.182216,10.182216 0 1 0 -10.38238,17.519 l 61.94229,36.6805 a 10.177265,10.177265 0 1 0 10.36282,-17.5191 z m -0.97762,181.2516 -71.8163,5.2401 a 10.184656,10.184656 0 1 0 1.48599,20.315 l 71.79674,-5.2596 a 10.174914,10.174914 0 1 0 -1.48599,-20.2955 z M 967.14036,116.16449 897.31841,98.665014 a 10.181463,10.181463 0 1 0 -4.96633,19.748016 l 69.82194,17.51903 a 10.181464,10.181464 0 1 0 4.96634,-19.74802 z m -4.6926,222.89839 -51.032,-50.75827 a 10.182649,10.182649 0 1 0 -14.37108,14.42974 l 51.032,50.75826 a 10.182648,10.182648 0 1 0 14.37108,-14.42973 z m -13.88227,217.77563 -17.91008,-69.72418 a 10.174555,10.174555 0 1 0 -19.70891,5.0641 l 17.89053,69.72418 a 10.174555,10.174555 0 1 0 19.70891,-5.0641 z m -17.20619,208.64462 16.60006,-70.03702 a 10.177484,10.177484 0 1 0 -19.80667,-4.6926 l -16.61962,70.03702 a 10.177488,10.177488 0 1 0 19.80668,4.6926 z m -14.21466,201.46886 41.78367,-58.61837 a 10.175911,10.175911 0 1 0 -16.56096,-11.82925 l -41.80322,58.61836 a 10.183868,10.183868 0 1 0 16.58051,11.82926 z m -9.0528,198.86831 56.07654,-45.1076 a 10.180672,10.180672 0 1 0 -12.74823,-15.8766 l -56.11564,45.1271 a 10.185326,10.185326 0 1 0 12.78733,15.8571 z m -4.90768,199.4354 62.99812,-34.8034 a 10.18684,10.18684 0 1 0 -9.85445,-17.8319 l -62.99812,34.823 a 10.18684,10.18684 0 1 0 9.85445,17.8319 z m -2.26809,201.1365 65.89189,-29.0355 a 10.181428,10.181428 0 1 0 -8.21204,-18.6335 l -65.89189,29.0354 a 10.181462,10.181462 0 1 0 8.21204,18.6336 z m -0.58657,202.8766 66.57623,-27.3735 a 10.179437,10.179437 0 1 0 -7.74279,-18.829 l -66.57623,27.3735 a 10.179437,10.179437 0 1 0 7.74279,18.829 z m 0.64523,204.4017 65.79413,-29.1918 a 10.180404,10.180404 0 1 0 -8.25115,-18.614 l -65.79413,29.1919 a 10.18039,10.18039 0 1 0 8.25115,18.6139 z m 1.81838,205.6336 63.50649,-33.8845 a 10.181672,10.181672 0 1 0 -9.58072,-17.9687 l -63.52604,33.8844 a 10.190303,10.190303 0 1 0 9.58072,17.9883 z m 3.1284,206.5329 59.22449,-40.9429 a 10.174812,10.174812 0 1 0 -11.57507,-16.7369 l -59.22449,40.9233 a 10.18286,10.18286 0 1 0 11.57507,16.7565 z m 4.84902,207.0022 52.00962,-49.7611 a 10.17136,10.17136 0 1 0 -14.05824,-14.7034 l -52.00962,49.7415 a 10.178428,10.178428 0 1 0 14.05824,14.723 z m 7.1171,206.8458 40.55187,-59.4786 a 10.179387,10.179387 0 1 0 -16.81514,-11.4774 l -40.57142,59.4787 a 10.179362,10.179362 0 1 0 16.81514,11.4773 z m 10.01088,205.4967 22.99373,-68.2382 a 10.180414,10.180414 0 1 0 -19.29831,-6.4914 l -22.99373,68.2382 a 10.180414,10.180414 0 1 0 19.29831,6.4914 z m 13.10017,201.9186 -2.15078,-71.9532 a 10.171525,10.171525 0 1 0 -20.33459,0.5866 l 2.11167,71.9531 a 10.181296,10.181296 0 1 0 20.35414,-0.5865 z m 14.35152,195.1925 -33.14147,-63.8976 a 10.179396,10.179396 0 1 0 -18.0665,9.3852 l 33.14147,63.8976 a 10.179396,10.179396 0 1 0 18.0665,-9.3852 z m 10.36282,186.648 -61.19929,-37.8927 a 10.181528,10.181528 0 1 0 -10.73432,17.304 l 61.1993,37.8927 a 10.181525,10.181525 0 1 0 10.73431,-17.304 z m -0.31284,181.9751 -71.95316,2.3463 a 10.172727,10.172727 0 1 0 0.66479,20.3345 l 71.95316,-2.3462 a 10.172732,10.172732 0 1 0 -0.66479,-20.3346 z m -12.06388,185.9246 -58.8921,41.3926 a 10.181878,10.181878 0 1 0 11.71194,16.6587 l 58.8921,-41.3926 a 10.181878,10.181878 0 1 0 -11.71194,-16.6587 z m 217.3455,-3842.22066 -70.4867,-14.58615 a 10.182895,10.182895 0 1 0 -4.1256,19.94354 l 70.4867,14.5666 a 10.182895,10.182895 0 1 0 4.1256,-19.94354 z m -4.5949,224.44304 -51.0515,-50.75827 a 10.189584,10.189584 0 1 0 -14.3711,14.44929 l 51.0516,50.73871 a 10.182648,10.182648 0 1 0 14.371,-14.42973 z m -15.2509,218.53818 -14.9772,-70.40852 a 10.192906,10.192906 0 1 0 -19.9435,4.22334 l 14.9967,70.42807 a 10.175813,10.175813 0 1 0 19.9044,-4.24289 z m -18.8682,207.90162 22.1921,-68.47282 a 10.177555,10.177555 0 1 0 -19.3569,-6.2959 l -22.2117,68.49237 a 10.171541,10.171541 0 1 0 19.357,6.2568 z m -15.0945,199.8069 48.1383,-53.53472 a 10.17621,10.17621 0 1 0 -15.1337,-13.60853 l -48.1382,53.51516 a 10.182723,10.182723 0 1 0 15.1336,13.62809 z m -8.9355,197.44102 61.4731,-37.4431 a 10.187323,10.187323 0 1 0 -10.5975,-17.4017 l -61.473,37.4626 a 10.187316,10.187316 0 1 0 10.5974,17.4017 z m -4.2429,198.9661 66.8891,-26.6109 a 10.184431,10.184431 0 1 0 -7.5277,-18.9268 l -66.8695,26.5913 a 10.189917,10.189917 0 1 0 7.5081,18.9464 z m -1.3491,201.723 68.3946,-22.4267 a 10.183619,10.183619 0 1 0 -6.335,-19.3569 l -68.3946,22.4462 a 10.183635,10.183635 0 1 0 6.335,19.357 z m 0.5866,204.4604 67.7689,-24.3037 a 10.180011,10.180011 0 1 0 -6.8824,-19.1615 l -67.769,24.2842 a 10.180028,10.180028 0 1 0 6.8825,19.1615 z m 2.3267,206.533 64.9925,-30.9516 a 10.180019,10.180019 0 1 0 -8.7595,-18.3794 l -64.9925,30.9516 a 10.180019,10.180019 0 1 0 8.7595,18.3794 z m 4.3016,207.7843 59.2049,-40.9234 a 10.182854,10.182854 0 1 0 -11.575,-16.7565 l -59.205,40.943 a 10.174812,10.174812 0 1 0 11.5751,16.7369 z m 6.511,207.9407 49.4091,-52.3615 a 10.179866,10.179866 0 1 0 -14.8012,-13.9801 l -49.4092,52.3616 a 10.179868,10.179868 0 1 0 14.8013,13.98 z m 8.8377,206.8654 34.7643,-63.0177 a 10.182103,10.182103 0 1 0 -17.8318,-9.8349 l -34.7644,63.0372 a 10.17741,10.17741 0 1 0 17.8319,9.8154 z m 10.8712,204.519 15.0945,-70.389 a 10.179907,10.179907 0 1 0 -19.9044,-4.2819 l -15.0946,70.3889 a 10.179939,10.179939 0 1 0 19.9045,4.282 z m 12.2594,200.6868 -9.131,-71.4057 a 10.180977,10.180977 0 1 0 -20.1977,2.5809 l 9.131,71.4057 a 10.180977,10.180977 0 1 0 20.1977,-2.5809 z m 12.1225,195.3293 -35.9179,-62.4115 a 10.178588,10.178588 0 1 0 -17.6363,10.1673 l 35.8983,62.3724 a 10.173721,10.173721 0 1 0 17.6364,-10.1477 z m 8.8378,188.8771 -60.0066,-39.7698 a 10.17882,10.17882 0 1 0 -11.2427,16.9716 l 60.0066,39.7698 a 10.17882,10.17882 0 1 0 11.2427,-16.9716 z m 0.8798,184.0671 -71.8749,-4.0473 a 10.1831,10.1831 0 1 0 -1.1341,20.3346 l 71.875,4.0473 a 10.183098,10.183098 0 1 0 1.134,-20.3346 z m -9.8544,185.4945 -63.0959,34.6666 a 10.172675,10.172675 0 1 0 9.7958,17.8318 l 63.0959,-34.647 a 10.181245,10.181245 0 1 0 -9.7958,-17.8514 z m -17.128,193.7065 -36.5827,61.9814 a 10.185653,10.185653 0 1 0 17.5386,10.3628 l 36.5827,-61.9814 a 10.185653,10.185653 0 1 0 -17.5386,-10.3628 z m 231.3059,-3836.00292 -70.8191,-12.84599 a 10.174681,10.174681 0 1 0 -3.6367,20.02175 l 70.8386,12.86554 a 10.184302,10.184302 0 1 0 3.6368,-20.0413 z m -4.497,225.362 -51.0711,-50.75827 a 10.182711,10.182711 0 1 0 -14.3516,14.44929 l 51.0516,50.73871 a 10.175751,10.175751 0 1 0 14.3515,-14.42973 z m -16.0722,218.94878 -13.2761,-70.76046 a 10.185352,10.185352 0 1 0 -20.0218,3.75408 l 13.2762,70.76046 a 10.185327,10.185327 0 1 0 20.0217,-3.75408 z m -19.8066,207.37371 25.3595,-67.35833 a 10.175587,10.175587 0 1 0 -19.0441,-7.17576 l -25.3596,67.35832 a 10.175623,10.175623 0 1 0 19.0442,7.17577 z m -15.4856,198.77061 51.5012,-50.289 a 10.176475,10.176475 0 1 0 -14.2146,-14.56661 l -51.5013,50.28901 a 10.176487,10.176487 0 1 0 14.2147,14.5666 z m -8.7204,196.69802 64.0344,-32.9069 a 10.178814,10.178814 0 1 0 -9.307,-18.1056 l -64.0344,32.8873 a 10.178814,10.178814 0 1 0 9.307,18.1056 z m -3.6954,198.9466 68.4337,-22.3485 a 10.180606,10.180606 0 1 0 -6.3155,-19.357 l -68.4337,22.3485 a 10.180606,10.180606 0 1 0 6.3155,19.357 z m -0.6648,202.5442 69.1376,-20.0804 a 10.181774,10.181774 0 1 0 -5.6898,-19.5525 l -69.1376,20.1 a 10.181774,10.181774 0 1 0 5.6898,19.5525 z m 1.6033,205.9659 67.3974,-25.2813 a 10.181305,10.181305 0 1 0 -7.1562,-19.0637 l -67.3974,25.3009 a 10.181305,10.181305 0 1 0 7.1562,19.0637 z m 4.106,208.3123 62.2551,-36.1135 a 10.17991,10.17991 0 1 0 -10.2064,-17.6168 l -62.2747,36.1135 a 10.171449,10.171449 0 1 0 10.2064,17.5972 z m 7.0584,208.9965 51.9901,-49.8002 a 10.178118,10.178118 0 1 0 -14.0778,-14.7034 l -51.9901,49.8002 a 10.178118,10.178118 0 1 0 14.0778,14.7034 z m 10.0891,207.6866 35.4487,-62.6462 a 10.178605,10.178605 0 1 0 -17.7146,-10.0304 l -35.4486,62.6461 a 10.178592,10.178592 0 1 0 17.7145,10.0305 z m 12.2008,204.519 13.3348,-70.7409 a 10.175722,10.175722 0 1 0 -20.0022,-3.7541 l -13.3348,70.7409 a 10.177534,10.177534 0 1 0 20.0022,3.7737 z m 12.7678,200.1198 -12.1226,-70.956 a 10.186571,10.186571 0 1 0 -20.0804,3.4412 l 12.1225,70.956 a 10.186613,10.186613 0 1 0 20.0805,-3.4412 z m 11.36,195.2511 -37.5408,-61.4144 a 10.184101,10.184101 0 1 0 -17.3822,10.6171 l 37.5408,61.4143 a 10.184075,10.184075 0 1 0 17.3822,-10.617 z m 7.8601,190.539 -58.9508,-41.3144 a 10.176259,10.176259 0 1 0 -11.6924,16.6587 l 58.9508,41.3145 a 10.176294,10.176294 0 1 0 11.6924,-16.6588 z m 1.8379,186.9218 -71.0929,-11.3795 a 10.178611,10.178611 0 1 0 -3.2261,20.0999 l 71.0928,11.3796 a 10.178634,10.178634 0 1 0 3.2262,-20.1 z m -6.5305,186.4917 -67.9645,23.7367 a 10.178278,10.178278 0 1 0 6.7065,19.2201 l 67.9645,-23.7367 a 10.178278,10.178278 0 1 0 -6.7065,-19.2201 z m -14.2929,191.4189 -47.8841,53.7693 a 10.185795,10.185795 0 1 0 15.2119,13.5499 l 47.884,-53.7694 a 10.179264,10.179264 0 1 0 -15.2118,-13.5303 z m -17.0498,199.8851 -18.262,69.6068 a 10.179855,10.179855 0 1 0 19.6893,5.1814 l 18.2621,-69.6264 a 10.177385,10.177385 0 1 0 -19.6894,-5.1618 z m 241.5319,-3834.94715 -70.8973,-12.51359 a 10.183621,10.183621 0 1 0 -3.5195,20.06085 l 70.8778,12.5136 a 10.185316,10.185316 0 1 0 3.539,-20.06086 z m -4.497,225.53797 -51.0907,-50.73871 a 10.182685,10.182685 0 1 0 -14.3515,14.44929 l 51.0711,50.73871 a 10.175751,10.175751 0 1 0 14.3515,-14.42973 z m -16.2286,219.027 -12.9242,-70.81912 a 10.18605,10.18605 0 1 0 -20.0413,3.65631 l 12.9242,70.81912 a 10.176432,10.176432 0 1 0 20.0217,-3.65631 z m -20.0022,207.25639 26.0048,-67.10414 a 10.174009,10.174009 0 1 0 -18.9659,-7.37129 l -26.0048,67.12369 a 10.174009,10.174009 0 1 0 18.9659,7.37129 z m -15.5442,198.55554 52.166,-49.60467 A 10.178762,10.178762 0 1 0 1559.659,899.535 l -52.166,49.60467 a 10.178762,10.178762 0 1 0 14.0387,14.74258 z m -8.5836,196.63935 64.3864,-32.1834 a 10.182554,10.182554 0 1 0 -9.0919,-18.2229 l -64.3864,32.1834 a 10.182554,10.182554 0 1 0 9.0919,18.2229 z m -3.3239,199.3572 68.3359,-22.5636 a 10.189733,10.189733 0 1 0 -6.3741,-19.357 l -68.3555,22.5832 a 10.180433,10.180433 0 1 0 6.3741,19.3374 z m -0.039,203.5805 68.375,-22.5245 a 10.180433,10.180433 0 1 0 -6.3741,-19.3374 l -68.3359,22.5636 a 10.186672,10.186672 0 1 0 6.3545,19.357 z m 2.8938,207.3541 64.9924,-30.9515 a 10.180019,10.180019 0 1 0 -8.7595,-18.3794 l -64.9925,30.9516 a 10.179996,10.179996 0 1 0 8.7596,18.3793 z m 6.3741,209.3877 56.1938,-44.9903 a 10.17608,10.17608 0 1 0 -12.7091,-15.8962 l -56.1939,44.9707 a 10.183767,10.183767 0 1 0 12.7092,15.9158 z m 10.2846,208.7619 39.8675,-59.9284 a 10.18147,10.18147 0 1 0 -16.952,-11.2818 l -39.8675,59.948 a 10.176057,10.176057 0 1 0 16.952,11.2622 z m 13.2957,205.3598 16.1699,-70.1348 a 10.173647,10.173647 0 1 0 -19.8262,-4.5753 l -16.2091,70.1348 a 10.183186,10.183186 0 1 0 19.8458,4.5753 z m 13.9213,200.1784 -11.4186,-71.0733 a 10.178634,10.178634 0 1 0 -20.1,3.2262 l 11.4187,71.0733 a 10.178611,10.178611 0 1 0 20.0999,-3.2262 z m 11.8293,194.9383 -37.8536,-61.2188 a 10.179531,10.179531 0 1 0 -17.3235,10.6952 l 37.8536,61.2384 a 10.179531,10.179531 0 1 0 17.3235,-10.6952 z m 7.5864,191.067 -58.4815,-41.9597 a 10.179352,10.179352 0 1 0 -11.8684,16.5414 l 58.4815,41.9597 a 10.179352,10.179352 0 1 0 11.8684,-16.5414 z m 2.1703,188.9161 -70.1934,-15.8962 a 10.184032,10.184032 0 1 0 -4.4971,19.8654 l 70.1934,15.8961 a 10.183995,10.183995 0 1 0 4.4971,-19.8653 z m -3.9692,188.7011 -70.6627,13.8041 a 10.180841,10.180841 0 1 0 3.9105,19.9826 l 70.6432,-13.8041 a 10.180841,10.180841 0 1 0 -3.9105,-19.9826 z m -10.2259,191.1256 -58.2664,42.2725 a 10.184168,10.184168 0 1 0 11.9661,16.4827 l 58.2664,-42.292 a 10.176259,10.176259 0 1 0 -11.9661,-16.4632 z m -14.3711,196.6198 -35.3118,62.744 a 10.181216,10.181216 0 1 0 17.7537,9.9717 l 35.2922,-62.7244 a 10.172694,10.172694 0 1 0 -17.7341,-9.9717 z m -14.2147,202.9549 -9.3265,71.3861 a 10.184736,10.184736 0 1 0 20.1977,2.6396 l 9.3266,-71.3666 a 10.186044,10.186044 0 1 0 -20.1978,-2.6591 z M 1781.482,114.09193 1710.7802,100.54205 a 10.183007,10.183007 0 1 0 -3.8323,20.0022 l 70.7018,13.53032 a 10.173403,10.173403 0 1 0 3.8323,-19.98264 z m -4.5557,224.9905 -51.0516,-50.75826 a 10.182685,10.182685 0 1 0 -14.3515,14.44929 l 51.032,50.73871 a 10.182656,10.182656 0 1 0 14.3711,-14.42974 z m -15.7398,218.79236 -13.9605,-70.62359 a 10.175024,10.175024 0 1 0 -19.963,3.9496 l 13.9409,70.60404 a 10.182723,10.182723 0 1 0 19.9826,-3.93005 z m -19.4351,207.58879 24.1082,-67.84714 a 10.176061,10.176061 0 1 0 -19.181,-6.80427 l -24.1082,67.84714 a 10.176061,10.176061 0 1 0 19.181,6.80427 z m -15.3096,199.20077 50.1521,-51.65768 a 10.17685,10.17685 0 1 0 -14.6057,-14.17556 l -50.1522,51.65768 a 10.176884,10.176884 0 1 0 14.6058,14.17556 z m -8.4858,197.34325 62.5679,-35.5856 a 10.183413,10.183413 0 1 0 -10.0499,-17.7145 l -62.568,35.5855 a 10.183437,10.183437 0 1 0 10.05,17.7146 z m -2.972,200.2957 66.3611,-27.921 a 10.182402,10.182402 0 1 0 -7.8992,-18.7704 l -66.3611,27.9405 a 10.182402,10.182402 0 1 0 7.8992,18.7704 z m 0.9776,204.7732 65.1685,-30.5801 a 10.176752,10.176752 0 1 0 -8.6618,-18.4184 l -65.1684,30.5801 a 10.176752,10.176752 0 1 0 8.6617,18.4184 z m 4.849,208.2927 58.6184,-41.7837 a 10.178193,10.178193 0 1 0 -11.8097,-16.5805 l -58.6184,41.7641 a 10.186171,10.186171 0 1 0 11.8097,16.6001 z m 9.3852,209.0943 44.13,-56.8586 a 10.186331,10.186331 0 1 0 -16.0917,-12.4941 l -44.13,56.8782 a 10.180324,10.180324 0 1 0 16.0917,12.4745 z m 13.4521,206.3374 20.6475,-68.9616 a 10.185171,10.185171 0 1 0 -19.5134,-5.8462 l -20.6474,68.9812 a 10.182362,10.182362 0 1 0 19.5133,5.8266 z m 15.0164,200.7063 -8.6813,-71.4643 a 10.183425,10.183425 0 1 0 -20.2173,2.4636 l 8.6813,71.4644 a 10.183431,10.183431 0 1 0 20.2173,-2.4637 z m 12.8655,194.6646 -37.1888,-61.6294 a 10.183793,10.183793 0 1 0 -17.4409,10.5192 l 37.1889,61.6295 a 10.183776,10.183776 0 1 0 17.4408,-10.5193 z m 7.8992,190.6564 -58.6184,-41.7837 a 10.178193,10.178193 0 1 0 -11.8097,16.5805 l 58.6184,41.7837 a 10.178193,10.178193 0 1 0 11.8097,-16.5805 z m 2.1508,189.4636 -69.9979,-16.7369 a 10.18201,10.18201 0 1 0 -4.7317,19.8066 l 69.9979,16.7565 a 10.182023,10.182023 0 1 0 4.7317,-19.8067 z m -2.972,190.4412 -71.3861,9.2288 a 10.182221,10.182221 0 1 0 2.6004,20.1977 l 71.3862,-9.2287 a 10.182261,10.182261 0 1 0 -2.6005,-20.1978 z m -7.254,192.5725 -63.7411,33.4739 a 10.180166,10.180166 0 1 0 9.4634,18.0274 l 63.7411,-33.4739 a 10.180166,10.180166 0 1 0 -9.4634,-18.0274 z m -10.5974,195.8182 -48.2165,53.4565 a 10.182755,10.182755 0 1 0 15.1337,13.6281 l 48.2164,-53.4565 a 10.182723,10.182723 0 1 0 -15.1336,-13.6281 z m -11.8488,200.022 -28.1165,66.2829 a 10.175826,10.175826 0 1 0 18.7313,7.9579 l 28.1164,-66.283 a 10.171994,10.171994 0 1 0 -18.7312,-7.9383 z m -10.1087,203.7369 -9.3656,71.3666 a 10.184736,10.184736 0 1 0 20.1977,2.6396 l 9.3656,-71.3666 a 10.186008,10.186008 0 1 0 -20.1977,-2.6591 z M 1985.1603,115.32373 1914.9669,99.427564 a 10.183998,10.183998 0 1 0 -4.4971,19.865326 l 70.1934,15.89617 a 10.183998,10.183998 0 1 0 4.4971,-19.86533 z m -4.6339,223.7587 -51.0516,-50.75826 a 10.175751,10.175751 0 1 0 -14.3515,14.42973 l 51.032,50.75827 a 10.182656,10.182656 0 1 0 14.3711,-14.42974 z m -14.6644,218.20579 -16.2677,-70.11523 a 10.17585,10.17585 0 1 0 -19.8262,4.59483 l 16.2677,70.13479 a 10.187584,10.187584 0 1 0 19.8457,-4.61439 z m -18.1056,208.25357 19.7089,-69.21582 a 10.177616,10.177616 0 1 0 -19.572,-5.59201 l -19.7285,69.23537 a 10.18434,10.18434 0 1 0 19.5916,5.57246 z m -14.5471,200.64765 45.0881,-56.11565 a 10.186796,10.186796 0 1 0 -15.8766,-12.76777 l -45.0881,56.11564 a 10.186796,10.186796 0 1 0 15.8766,12.76778 z m -8.0751,198.90746 57.582,-43.1915 a 10.175118,10.175118 0 1 0 -12.2007,-16.2872 l -57.6408,43.1914 a 10.18104,10.18104 0 1 0 12.2204,16.2873 z m -2.2877,201.723 60.8083,-38.538 a 10.186847,10.186847 0 1 0 -10.9103,-17.2061 l -60.8083,38.5379 a 10.186854,10.186854 0 1 0 10.9103,17.2062 z m 2.6005,205.7313 57.0933,-43.8367 a 10.179658,10.179658 0 1 0 -12.3963,-16.1503 l -57.0933,43.8366 a 10.179682,10.179682 0 1 0 12.3963,16.1504 z m 7.6255,207.9994 45.2835,-55.9592 a 10.183849,10.183849 0 1 0 -15.8375,-12.8069 l -45.2835,55.9592 a 10.183849,10.183849 0 1 0 15.8375,12.8069 z m 12.5527,206.572 23.5803,-68.0231 a 10.171854,10.171854 0 1 0 -19.2201,-6.6674 l -23.5999,68.0036 a 10.18431,10.18431 0 1 0 19.2397,6.6869 z m 15.29,201.2929 -5.9439,-71.7576 a 10.173617,10.173617 0 1 0 -20.276,1.7011 l 5.9244,71.738 a 10.182519,10.182519 0 1 0 20.2955,-1.6815 z m 13.7845,194.5669 -36.1916,-62.2161 a 10.176395,10.176395 0 1 0 -17.5973,10.226 l 36.1721,62.2356 a 10.181297,10.181297 0 1 0 17.5973,-10.2455 z m 8.4467,189.8546 -59.0485,-41.1775 a 10.181066,10.181066 0 1 0 -11.6533,16.6978 l 59.0485,41.1776 a 10.181101,10.181101 0 1 0 11.6533,-16.6979 z m 1.9748,188.9162 -70.389,-14.9968 a 10.177883,10.177883 0 1 0 -4.2624,19.9045 l 70.4085,14.9967 a 10.175813,10.175813 0 1 0 4.2429,-19.9044 z m -3.1284,190.9301 -71.2688,10.1086 a 10.181245,10.181245 0 1 0 2.8742,20.1586 l 71.2688,-10.1086 a 10.179869,10.179869 0 1 0 -2.8547,-20.1586 z m -6.159,193.9802 -64.8948,31.1667 a 10.183846,10.183846 0 1 0 8.8182,18.3598 l 64.8947,-31.1667 a 10.179607,10.179607 0 1 0 -8.7986,-18.3598 z m -7.821,196.9131 -53.8867,47.7277 a 10.180916,10.180916 0 1 0 13.4912,15.2509 l 53.8867,-47.7472 a 10.180916,10.180916 0 1 0 -13.4912,-15.2509 z m -8.6813,199.4941 -39.9653,59.8697 a 10.178757,10.178757 0 1 0 16.9324,11.3014 l 39.9653,-59.8698 a 10.178757,10.178757 0 1 0 -16.9324,-11.3013 z m -8.0361,201.9577 -25.9462,67.1432 a 10.188753,10.188753 0 1 0 19.0051,7.3518 l 25.9266,-67.1629 a 10.176061,10.176061 0 1 0 -18.9855,-7.3321 z m -5.3378,203.5023 -16.1308,70.1543 a 10.180982,10.180982 0 1 0 19.8457,4.5557 l 16.1308,-70.1543 a 10.180982,10.180982 0 1 0 -19.8457,-4.5557 z m 242.881,-3831.31037 -69.3331,-19.415626 a 10.18049,10.18049 0 1 0 -5.4747,19.611146 l 69.3135,19.39607 a 10.18049,10.18049 0 1 0 5.4747,-19.61115 z m -4.7122,221.88165 -51.032,-50.77781 a 10.175751,10.175751 0 1 0 -14.3515,14.42973 l 51.032,50.77782 a 10.175751,10.175751 0 1 0 14.3515,-14.42974 z m -13.061,217.26727 -19.7089,-69.23537 a 10.174962,10.174962 0 1 0 -19.5721,5.57246 l 19.7089,69.21582 a 10.17229,10.17229 0 1 0 19.5721,-5.55291 z m -16.0331,209.01612 12.846,-70.83867 a 10.1843,10.1843 0 1 0 -20.0413,-3.63677 l -12.846,70.81912 a 10.174706,10.174706 0 1 0 20.0218,3.63677 z m -12.9633,202.5638 36.309,-62.13782 a 10.191125,10.191125 0 1 0 -17.5972,-10.28461 l -36.2895,62.17692 a 10.177758,10.177758 0 1 0 17.5777,10.26506 z m -6.9607,201.05823 47.845,-53.7694 a 10.179264,10.179264 0 1 0 -15.2118,-13.5303 l -47.845,53.7693 a 10.179275,10.179275 0 1 0 15.2118,13.5304 z m -0.8407,203.1894 49.1941,-52.5375 a 10.181135,10.181135 0 1 0 -14.8599,-13.9214 l -49.2137,52.5376 a 10.181123,10.181123 0 1 0 14.8599,13.9213 z m 4.9468,205.7313 41.1384,-59.068 a 10.183525,10.183525 0 1 0 -16.7174,-11.6338 l -41.158,59.029 a 10.183497,10.183497 0 1 0 16.7174,11.6337 z m 10.5192,205.614 22.72,-68.2968 a 10.189652,10.189652 0 1 0 -19.3374,-6.4328 l -22.7005,68.3164 a 10.177308,10.177308 0 1 0 19.3179,6.4132 z m 14.332,201.4493 -4.9663,-71.8163 a 10.191637,10.191637 0 1 0 -20.3346,1.4078 l 5.0054,71.8163 a 10.172134,10.172134 0 1 0 20.2955,-1.4078 z m 13.98,194.7037 -35.5073,-62.6266 a 10.183437,10.183437 0 1 0 -17.7146,10.05 l 35.5074,62.607 a 10.178592,10.178592 0 1 0 17.7145,-10.0304 z m 8.8573,189.1899 -59.4787,-40.5714 a 10.179362,10.179362 0 1 0 -11.4773,16.8151 l 59.4787,40.5715 a 10.179383,10.179383 0 1 0 11.4773,-16.8152 z m 1.7206,187.8799 -70.9169,-12.3376 a 10.180259,10.180259 0 1 0 -3.4803,20.0608 l 70.9169,12.3181 a 10.170627,10.170627 0 1 0 3.4803,-20.0413 z m -3.8714,190.4608 -70.604,14.0191 a 10.184641,10.184641 0 1 0 3.9496,19.9827 l 70.6236,-14.0192 a 10.186514,10.186514 0 1 0 -3.9692,-19.9826 z m -6.4914,194.5473 -63.3501,34.2168 a 10.183624,10.183624 0 1 0 9.6981,17.9101 l 63.3305,-34.2168 a 10.178962,10.178962 0 1 0 -9.6785,-17.9101 z m -6.8629,198.0471 -53.5543,48.0992 a 10.183455,10.183455 0 1 0 13.6085,15.1531 l 53.5543,-48.0991 a 10.183455,10.183455 0 1 0 -13.6085,-15.1532 z m -6.3546,200.3935 -43.4652,57.3866 a 10.181117,10.181117 0 1 0 16.2286,12.2985 l 43.4652,-57.3866 a 10.181117,10.181117 0 1 0 -16.2286,-12.2985 z m -5.5529,201.9186 -34.0604,63.4283 a 10.173652,10.173652 0 1 0 17.9296,9.6198 l 34.0604,-63.4087 a 10.178278,10.178278 0 1 0 -17.9296,-9.6394 z m -3.7345,202.9939 -27.4713,66.5372 a 10.174122,10.174122 0 1 0 18.8095,7.7623 l 27.4713,-66.5371 a 10.174136,10.174136 0 1 0 -18.8095,-7.7624 z m -0.352,203.561 -26.8455,66.7913 a 10.177164,10.177164 0 1 0 18.8877,7.5864 l 26.8651,-66.7718 a 10.189893,10.189893 0 1 0 -18.9073,-7.6059 z M 2392.3605,119.76215 2324.5133,95.673484 a 10.188541,10.188541 0 1 0 -6.8238,19.200546 l 67.8471,24.06911 a 10.176061,10.176061 0 1 0 6.8043,-19.18099 z m -4.7317,219.4767 -50.7974,-51.01245 a 10.18267,10.18267 0 1 0 -14.4298,14.37108 l 50.7974,51.01245 a 10.18267,10.18267 0 1 0 14.4298,-14.37108 z m -11.0472,215.85949 -23.9127,-67.9058 a 10.187979,10.187979 0 1 0 -19.2201,6.76516 l 23.9323,67.9058 a 10.178757,10.178757 0 1 0 19.2005,-6.76516 z m -13.1979,209.50493 3.6172,-71.89451 a 10.180494,10.180494 0 1 0 -20.3346,-1.03628 l -3.6172,71.89451 a 10.180494,10.180494 0 1 0 20.3346,1.03628 z m -10.4411,204.49949 23.4044,-68.08177 a 10.183948,10.183948 0 1 0 -19.2592,-6.62829 l -23.3848,68.08177 a 10.174704,10.174704 0 1 0 19.2396,6.62829 z m -4.8881,203.01344 32.1639,-64.4059 a 10.182588,10.182588 0 1 0 -18.223,-9.0919 l -32.1638,64.3863 a 10.178202,10.178202 0 1 0 18.2034,9.1115 z m 1.2905,203.8152 29.8762,-65.5009 a 10.171853,10.171853 0 1 0 -18.5162,-8.4271 l -29.8958,65.4813 a 10.184825,10.184825 0 1 0 18.5358,8.4467 z m 7.3322,204.0106 16.5023,-70.0761 a 10.182549,10.182549 0 1 0 -19.8263,-4.6535 l -16.4827,70.0761 a 10.173009,10.173009 0 1 0 19.8067,4.6535 z m 12.0247,201.0583 -7.1171,-71.6403 a 10.178123,10.178123 0 1 0 -20.2563,2.0139 l 7.1171,71.6403 a 10.178123,10.178123 0 1 0 20.2563,-2.0139 z m 12.9829,195.0165 -35.6442,-62.5288 a 10.179743,10.179743 0 1 0 -17.695,10.0695 l 35.6442,62.5484 a 10.184583,10.184583 0 1 0 17.695,-10.0891 z m 8.8573,189.1117 -59.6351,-40.3368 a 10.181658,10.181658 0 1 0 -11.3991,16.8738 l 59.6351,40.3368 a 10.181658,10.181658 0 1 0 11.3991,-16.8738 z m 1.5642,187.0587 -71.2102,-10.4997 a 10.178607,10.178607 0 1 0 -2.972,20.1391 l 71.2102,10.5192 a 10.178607,10.178607 0 1 0 2.972,-20.1391 z m -4.7513,189.62 -69.7242,17.9101 a 10.174554,10.174554 0 1 0 5.0641,19.7089 l 69.7242,-17.9101 a 10.176991,10.176991 0 1 0 -5.0836,-19.7089 z m -7.6255,194.3518 -60.4758,39.0268 a 10.182559,10.182559 0 1 0 11.0472,17.1084 l 60.4758,-39.0268 a 10.177259,10.177259 0 1 0 -11.0276,-17.1084 z m -7.2735,198.5946 -49.6242,52.127 a 10.178769,10.178769 0 1 0 14.7426,14.0387 l 49.6438,-52.127 a 10.185868,10.185868 0 1 0 -14.7622,-14.0387 z m -5.5333,201.2343 -40.6106,59.4395 a 10.179383,10.179383 0 1 0 16.8152,11.4773 l 40.591,-59.4395 a 10.179383,10.179383 0 1 0 -16.8152,-11.4773 z m -3.7737,202.5638 -34.1777,63.35 a 10.182911,10.182911 0 1 0 17.9296,9.6589 l 34.1582,-63.35 a 10.174306,10.174306 0 1 0 -17.9101,-9.6589 z m -2.0725,203.209 -30.541,65.1684 a 10.181447,10.181447 0 1 0 18.438,8.6422 l 30.541,-65.188 a 10.177301,10.177301 0 1 0 -18.438,-8.6226 z m 0.4692,203.6783 -31.3817,64.7969 a 10.187767,10.187767 0 1 0 18.3402,8.8768 l 31.3622,-64.7969 a 10.187767,10.187767 0 1 0 -18.3402,-8.8768 z m 4.2429,204.6168 -38.7139,60.7105 a 10.189085,10.189085 0 1 0 17.1866,10.9494 l 38.6944,-60.7105 a 10.180848,10.180848 0 1 0 -17.1671,-10.9494 z M 2595.5695,123.18383 2530.2446,92.936138 a 10.182653,10.182653 0 1 0 -8.564,18.477102 l 65.3249,30.2477 a 10.182653,10.182653 0 1 0 8.564,-18.47711 z m -4.6926,216.64159 -49.8002,-51.95096 a 10.178127,10.178127 0 1 0 -14.7035,14.07779 l 49.8002,51.97052 a 10.178127,10.178127 0 1 0 14.7035,-14.07779 z m -8.8377,213.86514 -28.0774,-66.28294 a 10.181024,10.181024 0 1 0 -18.7509,7.93831 l 28.0774,66.28294 a 10.181024,10.181024 0 1 0 18.7509,-7.93831 z m -9.7763,209.2703 -6.9998,-71.65988 a 10.176218,10.176218 0 1 0 -20.2564,1.97481 l 6.9803,71.65987 a 10.176217,10.176217 0 1 0 20.2564,-1.9748 z m -7.1171,205.59443 7.2344,-71.62077 a 10.179095,10.179095 0 1 0 -20.2563,-2.03346 l -7.2345,71.62077 a 10.179105,10.179105 0 1 0 20.2564,2.03346 z m -2.1508,203.93241 11.3991,-71.0733 a 10.188264,10.188264 0 1 0 -20.1195,-3.2262 l -11.3795,71.0733 a 10.178611,10.178611 0 1 0 20.0999,3.2262 z m 3.5195,203.0135 4.5557,-71.8358 a 10.187754,10.187754 0 1 0 -20.3346,-1.2905 l -4.5362,71.8554 a 10.187138,10.187138 0 1 0 20.3346,1.2709 z m 8.564,200.6477 -12.846,-70.8192 a 10.172971,10.172971 0 1 0 -20.0218,3.6173 l 12.8265,70.8386 a 10.1843,10.1843 0 1 0 20.0413,-3.6367 z m 10.7538,195.7008 -36.8955,-61.8054 a 10.188805,10.188805 0 1 0 -17.4995,10.441 l 36.9151,61.7859 a 10.175399,10.175399 0 1 0 17.4799,-10.4215 z m 8.2316,189.9329 -59.3222,-40.7865 a 10.179843,10.179843 0 1 0 -11.536,16.7761 l 59.3223,40.7865 a 10.179815,10.179815 0 1 0 11.5359,-16.7761 z m 1.7011,187 -71.1711,-10.9298 a 10.185853,10.185853 0 1 0 -3.0697,20.1391 l 71.1515,10.9102 a 10.187316,10.187316 0 1 0 3.0893,-20.139 z m -5.1423,188.8184 -69.3918,19.1615 a 10.182074,10.182074 0 1 0 5.4161,19.6307 l 69.4113,-19.1615 a 10.184671,10.184671 0 1 0 -5.4356,-19.6307 z m -8.74,193.687 -58.4032,42.0965 a 10.188554,10.188554 0 1 0 11.927,16.5219 l 58.3837,-42.0966 a 10.182822,10.182822 0 1 0 -11.9075,-16.5218 z m -8.5053,198.536 -45.3031,55.9592 a 10.183849,10.183849 0 1 0 15.8375,12.8069 l 45.2836,-55.9397 a 10.182407,10.182407 0 1 0 -15.818,-12.8264 z m -6.1004,201.5862 -35.0576,62.8808 a 10.183974,10.183974 0 1 0 17.7928,9.9131 l 35.0576,-62.8613 a 10.183974,10.183974 0 1 0 -17.7928,-9.9131 z m -3.3239,202.9939 -29.231,65.7746 a 10.17546,10.17546 0 1 0 18.5945,8.2707 l 29.2309,-65.7746 a 10.175423,10.175423 0 1 0 -18.5944,-8.2707 z m -1.0363,203.4632 -27.3735,66.5762 a 10.170401,10.170401 0 1 0 18.8095,7.7428 l 27.3931,-66.5566 a 10.183195,10.183195 0 1 0 -18.8291,-7.7624 z m 1.1341,203.7565 -29.407,65.6964 a 10.178459,10.178459 0 1 0 18.5749,8.3293 l 29.4265,-65.6963 a 10.17848,10.17848 0 1 0 -18.5749,-8.3294 z m 4.106,204.4604 -36.5632,62.0009 a 10.185679,10.185679 0 1 0 17.5386,10.3629 l 36.5632,-62.0401 a 10.184169,10.184169 0 1 0 -17.5582,-10.3237 z m 7.7428,206.5916 -49.3505,52.4007 a 10.180271,10.180271 0 1 0 14.8208,13.9605 l 49.3505,-52.4007 a 10.180271,10.180271 0 1 0 -14.8208,-13.9605 z M 2798.2115,127.68091 2737.0904,89.631768 a 10.17837,10.17837 0 1 0 -10.7539,17.284392 l 61.1016,38.04915 a 10.178362,10.178362 0 1 0 10.7538,-17.2844 z m -4.5948,213.6305 -47.3757,-54.1995 a 10.17803,10.17803 0 1 0 -15.3292,13.39346 l 47.3757,54.1995 a 10.17803,10.17803 0 1 0 15.3292,-13.39346 z m -6.6674,211.30376 -30.9712,-64.97292 a 10.179996,10.179996 0 1 0 -18.3793,8.75951 l 30.9711,64.97293 a 10.180024,10.180024 0 1 0 18.3794,-8.75952 z m -6.335,208.09715 -16.8934,-69.97836 a 10.188878,10.188878 0 1 0 -19.8067,4.79036 l 16.9129,69.97836 a 10.179401,10.179401 0 1 0 19.7872,-4.79036 z m -3.5586,205.37936 -9.3852,-71.36659 a 10.184736,10.184736 0 1 0 -20.1977,2.63959 l 9.3852,71.36658 a 10.184736,10.184736 0 1 0 20.1977,-2.63958 z m 0.6648,203.30672 -10.7539,-71.1711 a 10.184388,10.184388 0 1 0 -20.1391,3.0502 l 10.7539,71.1711 a 10.184388,10.184388 0 1 0 20.1391,-3.0502 z m 4.9663,200.8823 -21.41,-68.727 a 10.179207,10.179207 0 1 0 -19.4351,6.0613 l 21.4099,68.727 a 10.179223,10.179223 0 1 0 19.4352,-6.0613 z m 7.7428,196.8936 -39.2614,-60.339 a 10.182103,10.182103 0 1 0 -17.0693,11.1058 l 39.2614,60.339 a 10.182103,10.182103 0 1 0 17.0693,-11.1058 z m 6.9998,191.7317 -58.4424,-42.0183 a 10.177109,10.177109 0 1 0 -11.8879,16.5218 l 58.4619,42.0379 a 10.179352,10.179352 0 1 0 11.8684,-16.5414 z m 2.1508,188.0949 -70.5454,-14.3906 a 10.176991,10.176991 0 1 0 -4.0669,19.9435 l 70.5258,14.3907 a 10.177019,10.177019 0 1 0 4.0669,-19.9436 z m -4.458,188.486 -70.1934,15.9353 a 10.183995,10.183995 0 1 0 4.497,19.8653 l 70.1935,-15.9548 a 10.174474,10.174474 0 1 0 -4.4971,-19.8458 z m -9.0137,192.6703 -59.244,40.9038 a 10.177302,10.177302 0 1 0 11.5555,16.7565 l 59.244,-40.9038 a 10.177302,10.177302 0 1 0 -11.5555,-16.7565 z m -9.698,197.8125 -44.3255,56.7218 a 10.175193,10.175193 0 1 0 16.033,12.5331 l 44.3255,-56.7022 a 10.181216,10.181216 0 1 0 -16.033,-12.5527 z m -7.4495,201.4298 -31.6751,64.6601 a 10.18732,10.18732 0 1 0 18.3012,8.955 l 31.6554,-64.6601 a 10.178517,10.178517 0 1 0 -18.2815,-8.955 z m -4.1843,203.0917 -24.1864,67.808 a 10.173403,10.173403 0 1 0 19.1614,6.8434 l 24.206,-67.808 a 10.182619,10.182619 0 1 0 -19.181,-6.8434 z m -1.1731,203.5414 -22.0357,68.551 a 10.174836,10.174836 0 1 0 19.3765,6.2177 l 22.0357,-68.5315 a 10.184145,10.184145 0 1 0 -19.3961,-6.2176 z m 1.2318,203.6783 -24.3038,67.7689 a 10.176719,10.176719 0 1 0 19.1615,6.8629 l 24.3037,-67.7493 a 10.179996,10.179996 0 1 0 -19.1614,-6.8825 z m 3.6563,204.0498 -30.8538,65.0316 a 10.184623,10.184623 0 1 0 18.3989,8.7399 l 30.8538,-65.0511 a 10.171599,10.171599 0 1 0 -18.3793,-8.7204 z m 6.7261,205.3989 -42.3507,58.2077 a 10.182018,10.182018 0 1 0 16.4632,11.9857 l 42.3507,-58.2077 a 10.182018,10.182018 0 1 0 -16.4632,-11.9857 z m 9.7762,208.9966 -57.6407,43.1132 a 10.177099,10.177099 0 1 0 12.1812,16.3068 l 57.6603,-43.1133 a 10.182944,10.182944 0 1 0 -12.2008,-16.3067 z M 2999.7195,133.17516 2945.3244,86.014559 a 10.180884,10.180884 0 1 0 -13.3348,15.387801 l 54.3951,47.16061 a 10.180884,10.180884 0 1 0 13.3348,-15.38781 z m -4.3016,210.65852 -42.7222,-57.95358 a 10.179363,10.179363 0 1 0 -16.385,12.08344 l 42.7027,57.95358 a 10.179363,10.179363 0 1 0 16.385,-12.08344 z m -4.6926,208.62507 -31.4013,-64.7774 a 10.178975,10.178975 0 1 0 -18.3207,8.87683 l 31.3818,64.7774 a 10.178975,10.178975 0 1 0 18.3207,-8.87683 z m -3.2848,206.22011 -23.9714,-67.88624 a 10.18201,10.18201 0 1 0 -19.2005,6.78471 l 23.9713,67.8667 a 10.178784,10.178784 0 1 0 19.2006,-6.76517 z m -0.4497,203.93248 -22.9742,-68.23819 a 10.180414,10.180414 0 1 0 -19.2983,6.49142 l 22.9742,68.23819 a 10.183535,10.183535 0 1 0 19.2983,-6.51098 z m 2.796,201.46876 -29.2701,-65.7745 a 10.1794,10.1794 0 1 0 -18.5944,8.2902 l 29.2701,65.7746 a 10.179401,10.179401 0 1 0 18.5944,-8.2903 z m 5.2792,198.2623 -41.8424,-58.5988 a 10.170232,10.170232 0 1 0 -16.5609,11.8097 l 41.8032,58.5988 a 10.178193,10.178193 0 1 0 16.5805,-11.8097 z m 5.5138,194.1171 -57.0151,-43.9344 a 10.183834,10.183834 0 1 0 -12.4354,16.1308 l 57.0151,43.9344 a 10.183834,10.183834 0 1 0 12.4354,-16.1308 z m 2.6787,190.3826 -68.903,-20.843 a 10.184301,10.184301 0 1 0 -5.9049,19.4939 l 68.903,20.8429 a 10.184262,10.184262 0 1 0 5.9049,-19.4938 z m -2.6201,189.1508 -71.6207,7.2931 a 10.180076,10.180076 0 1 0 2.053,20.2563 l 71.6207,-7.293 a 10.180085,10.180085 0 1 0 -2.053,-20.2564 z m -7.6841,191.6144 -63.6825,33.5325 a 10.184724,10.184724 0 1 0 9.483,18.0274 l 63.702,-33.5521 a 10.18062,10.18062 0 1 0 -9.5025,-18.0078 z m -9.8154,196.2092 -49.37,52.4007 a 10.167295,10.167295 0 1 0 14.8012,13.9409 l 49.3896,-52.3811 a 10.180271,10.180271 0 1 0 -14.8208,-13.9605 z m -8.7204,200.3739 -34.9207,62.9591 a 10.169721,10.169721 0 1 0 17.7928,9.8544 l 34.9207,-62.9395 a 10.174473,10.174473 0 1 0 -17.7928,-9.874 z m -5.7484,202.7203 -24.7535,67.5929 a 10.181643,10.181643 0 1 0 19.1224,6.9998 l 24.7534,-67.593 a 10.181611,10.181611 0 1 0 -19.1223,-6.9997 z m -2.4832,203.5023 -20.2172,69.0789 a 10.187246,10.187246 0 1 0 19.5524,5.7289 l 20.2173,-69.0789 a 10.187254,10.187254 0 1 0 -19.5525,-5.7289 z m 0.3715,203.6196 -20.882,68.8834 a 10.174923,10.174923 0 1 0 19.4743,5.9049 l 20.882,-68.8834 a 10.174923,10.174923 0 1 0 -19.4743,-5.9049 z m 2.796,203.7565 -25.9852,67.1433 a 10.179588,10.179588 0 1 0 18.9854,7.3517 l 25.9853,-67.1433 a 10.179596,10.179596 0 1 0 -18.9855,-7.3517 z m 5.2206,204.4799 -35.1945,62.7831 a 10.181216,10.181216 0 1 0 17.7536,9.9718 l 35.1945,-62.8026 a 10.176432,10.176432 0 1 0 -17.7536,-9.9523 z m 8.0751,206.5525 -48.6075,53.1046 a 10.178756,10.178756 0 1 0 15.0164,13.7454 l 48.6074,-53.085 a 10.185339,10.185339 0 1 0 -15.0163,-13.765 z m 10.226,211.1669 -63.5847,33.7476 a 10.181123,10.181123 0 1 0 9.5416,17.9883 l 63.5847,-33.728 a 10.181123,10.181123 0 1 0 -9.5416,-17.9883 z M 3199.7023,139.31464 3155.24,82.690636 a 10.179559,10.179559 0 1 0 -16.0135,12.572248 l 44.4623,56.624006 a 10.179559,10.179559 0 1 0 16.0135,-12.57225 z m -3.8518,208.1167 -34.9599,-62.93946 a 10.179207,10.179207 0 1 0 -17.7927,9.89356 l 34.9403,62.91991 a 10.17446,10.17446 0 1 0 17.7927,-9.87401 z m -2.8938,206.18101 -28.2533,-66.20473 a 10.183481,10.183481 0 1 0 -18.7313,7.99697 l 28.2533,66.20473 a 10.183481,10.183481 0 1 0 18.7313,-7.99697 z m -0.7234,204.18665 -26.5914,-66.86951 a 10.180822,10.180822 0 1 0 -18.9268,7.50815 l 26.5914,66.88907 a 10.184431,10.184431 0 1 0 18.9268,-7.52771 z m 1.9357,202.01633 -31.0298,-64.95337 a 10.184233,10.184233 0 1 0 -18.3794,8.77907 l 31.0298,64.95337 a 10.184233,10.184233 0 1 0 18.3794,-8.77907 z m 4.1451,199.33757 -40.9429,-59.2049 a 10.182854,10.182854 0 1 0 -16.7565,11.575 l 40.9429,59.205 a 10.182868,10.182868 0 1 0 16.7565,-11.5751 z m 4.8295,196.0724 -53.8476,-47.7863 a 10.187396,10.187396 0 1 0 -13.5108,15.2509 l 53.8476,47.7668 a 10.187428,10.187428 0 1 0 13.5108,-15.251 z m 3.3239,192.8657 -65.6182,-29.622 a 10.190504,10.190504 0 1 0 -8.388,18.5749 l 65.6182,29.6024 a 10.190492,10.190492 0 1 0 8.388,-18.5748 z m -0.2738,190.9692 -71.738,-6.0808 a 10.174404,10.174404 0 1 0 -1.7207,20.2759 l 71.7381,6.1004 a 10.184152,10.184152 0 1 0 1.7206,-20.2955 z m -4.673,191.458 -69.4504,18.8681 a 10.181189,10.181189 0 1 0 5.3378,19.6503 l 69.4504,-18.8877 a 10.171735,10.171735 0 1 0 -5.3378,-19.6307 z m -7.9188,194.2735 -59.6546,40.2977 a 10.176188,10.176188 0 1 0 11.3795,16.8738 l 59.6547,-40.2781 a 10.184329,10.184329 0 1 0 -11.3796,-16.8934 z m -8.6617,198.145 -46.4958,54.9425 a 10.183047,10.183047 0 1 0 15.5442,13.1588 l 46.4958,-54.9425 a 10.183047,10.183047 0 1 0 -15.5442,-13.1588 z m -6.9802,201.2342 -34.8035,63.0177 a 10.173544,10.173544 0 1 0 17.8123,9.8349 l 34.8035,-63.0177 a 10.173544,10.173544 0 1 0 -17.8123,-9.8349 z m -4.2038,202.8766 -27.4126,66.5763 a 10.179437,10.179437 0 1 0 18.829,7.7427 l 27.4126,-66.5762 a 10.179437,10.179437 0 1 0 -18.829,-7.7428 z m -1.3687,203.4828 -24.949,67.5147 a 10.173389,10.173389 0 1 0 19.0832,7.0585 l 24.9686,-67.5148 a 10.173413,10.173413 0 1 0 -19.0833,-7.0584 z m 1.1927,203.7174 -27.0998,66.674 a 10.186442,10.186442 0 1 0 18.8682,7.6841 l 27.0997,-66.6935 a 10.182742,10.182742 0 1 0 -18.8681,-7.6646 z m 3.4999,204.1671 -33.2783,63.8193 a 10.179757,10.179757 0 1 0 18.0469,9.4243 l 33.2783,-63.8389 a 10.175235,10.175235 0 1 0 -18.0469,-9.4047 z m 5.6702,205.262 -42.9373,57.7776 a 10.181098,10.181098 0 1 0 16.3459,12.1421 l 42.9373,-57.758 a 10.179084,10.179084 0 1 0 -16.3263,-12.1617 z m 8.0165,207.8234 -55.5486,45.792 a 10.187884,10.187884 0 1 0 12.9633,15.7202 l 55.5291,-45.8115 a 10.180363,10.180363 0 1 0 -12.9633,-15.7007 z m 9.1897,212.692 -67.808,24.1669 a 10.173403,10.173403 0 1 0 6.8433,19.1614 l 67.7885,-24.1473 a 10.18261,10.18261 0 1 0 -6.8433,-19.181 z M 3397.769,145.37591 3366.7588,80.402994 a 10.184206,10.184206 0 1 0 -18.3793,8.779064 l 31.0102,64.953372 a 10.179996,10.179996 0 1 0 18.3793,-8.75952 z m -3.3239,206.20056 -23.5216,-68.04266 a 10.177915,10.177915 0 1 0 -19.2397,6.64784 l 23.5217,68.04267 a 10.187134,10.187134 0 1 0 19.2592,-6.64785 z m -1.2513,204.46039 -20.7257,-68.94208 a 10.187981,10.187981 0 1 0 -19.5134,5.86575 l 20.7257,68.92252 a 10.187979,10.187979 0 1 0 19.5134,-5.86574 z m 1.3882,202.66156 -23.8149,-67.92535 a 10.1723,10.1723 0 1 0 -19.2006,6.72605 l 23.8149,67.94491 a 10.175538,10.175538 0 1 0 19.2006,-6.74561 z m 3.8714,200.49123 -32.594,-64.19083 a 10.187151,10.187151 0 1 0 -18.1643,9.22878 l 32.594,64.19082 a 10.187149,10.187149 0 1 0 18.1643,-9.22877 z m 5.1618,197.73425 -45.2444,-55.9983 a 10.177705,10.177705 0 1 0 -15.8375,12.7873 l 45.2444,55.9983 a 10.177705,10.177705 0 1 0 15.8375,-12.7873 z m 4.5949,194.821 -58.3642,-42.1356 a 10.180616,10.180616 0 1 0 -11.927,16.5023 l 58.3837,42.1356 a 10.180616,10.180616 0 1 0 11.927,-16.5023 z m 2.2094,192.7485 -68.1404,-23.1893 a 10.180569,10.180569 0 1 0 -6.5501,19.2788 l 68.1404,23.1892 a 10.180545,10.180545 0 1 0 6.5501,-19.2787 z m -1.134,192.2987 -71.9532,-1.6619 a 10.179775,10.179775 0 1 0 -0.4693,20.3541 l 71.9532,1.662 a 10.170007,10.170007 0 1 0 0.4693,-20.3346 z m -4.2234,193.5697 -69.3918,19.1614 a 10.172675,10.172675 0 1 0 5.4161,19.6112 l 69.3918,-19.1419 a 10.182074,10.182074 0 1 0 -5.4161,-19.6307 z m -6.1395,195.955 -62.0205,36.5436 a 10.175747,10.175747 0 1 0 10.3238,17.5386 l 62.0205,-36.524 a 10.184194,10.184194 0 1 0 -10.3238,-17.5582 z m -6.3545,198.7315 -52.8113,48.9008 a 10.176432,10.176432 0 1 0 13.8236,14.9381 l 52.8113,-48.9008 a 10.176432,10.176432 0 1 0 -13.8236,-14.9381 z m -5.0446,201.0387 -44.8338,56.3112 a 10.18528,10.18528 0 1 0 15.9353,12.6896 l 44.8338,-56.3308 a 10.179178,10.179178 0 1 0 -15.9353,-12.67 z m -2.9719,202.5052 -39.8871,59.9088 a 10.173333,10.173333 0 1 0 16.9324,11.2818 l 39.8871,-59.9088 a 10.173333,10.173333 0 1 0 -16.9324,-11.2818 z m -0.7821,203.3459 -38.5771,60.7887 a 10.178592,10.178592 0 1 0 17.1866,10.9102 l 38.5771,-60.7691 a 10.178592,10.178592 0 1 0 -17.1866,-10.9103 z m 1.3491,204.0498 -40.8647,59.2831 a 10.179808,10.179808 0 1 0 16.776,11.536 l 40.8647,-59.2636 a 10.179808,10.179808 0 1 0 -16.776,-11.536 z m 3.2653,204.91 -46.2221,55.1772 a 10.180282,10.180282 0 1 0 15.6029,13.0806 l 46.222,-55.1967 a 10.180282,10.180282 0 1 0 -15.6028,-13.0806 z m 4.8881,206.2593 -53.9062,47.708 a 10.173596,10.173596 0 1 0 13.4912,15.2314 l 53.9257,-47.708 a 10.180932,10.180932 0 1 0 -13.4912,-15.251 z m 6.4718,208.8597 -63.1349,34.5883 a 10.176545,10.176545 0 1 0 9.7762,17.8514 l 63.1545,-34.6079 a 10.167972,10.167972 0 1 0 -9.7762,-17.8318 z m 6.8825,213.2785 -70.78,13.0611 a 10.178193,10.178193 0 1 0 3.6759,20.0217 l 70.78,-13.061 a 10.178221,10.178221 0 1 0 -3.6759,-20.0218 z M 3593.9392,150.45956 3579.353,79.97284 a 10.180916,10.180916 0 1 0 -19.9435,4.106023 l 14.6057,70.506267 a 10.182892,10.182892 0 1 0 19.9435,-4.12557 z m -2.9329,204.96875 -8.4271,-71.4839 a 10.188466,10.188466 0 1 0 -20.2368,2.3854 l 8.4466,71.4839 a 10.178769,10.178769 0 1 0 20.2173,-2.3854 z m 0.02,203.60008 -8.4858,-71.4839 a 10.179919,10.179919 0 1 0 -20.2173,2.40495 l 8.4858,71.48391 a 10.17992,10.17992 0 1 0 20.2173,-2.40496 z m 3.1675,202.11409 -15.1337,-70.38897 a 10.181967,10.181967 0 1 0 -19.9044,4.30155 l 15.1336,70.38897 a 10.181999,10.181999 0 1 0 19.9045,-4.30155 z m 5.5724,200.00242 -27.3539,-66.59578 a 10.175747,10.175747 0 1 0 -18.8291,7.72323 l 27.354,66.59578 a 10.175723,10.175723 0 1 0 18.829,-7.72323 z m 6.3741,197.2259 -42.4875,-58.11 a 10.171975,10.171975 0 1 0 -16.4241,12.0052 l 42.468,58.11 a 10.171975,10.171975 0 1 0 16.4241,-12.0052 z m 5.1814,194.6646 -56.7608,-44.2668 a 10.169175,10.169175 0 1 0 -12.5136,16.033 l 56.7413,44.2864 a 10.1692,10.1692 0 1 0 12.5136,-16.0331 z m 2.5419,193.3937 -66.8304,-26.6892 a 10.182632,10.182632 0 1 0 -7.5669,18.9073 l 66.8696,26.6891 a 10.178968,10.178968 0 1 0 7.5472,-18.9072 z m -0.2542,193.7847 -71.5035,-8.3685 a 10.176497,10.176497 0 1 0 -2.3463,20.2173 l 71.4839,8.3685 a 10.176497,10.176497 0 1 0 2.3463,-20.2173 z m -2.3268,195.3489 -71.523,8.1534 a 10.174262,10.174262 0 1 0 2.3072,20.2173 l 71.523,-8.1338 a 10.183998,10.183998 0 1 0 -2.3072,-20.2369 z m -3.3434,197.2651 -68.6488,21.6642 a 10.178653,10.178653 0 1 0 6.1199,19.4156 l 68.6488,-21.6642 a 10.178653,10.178653 0 1 0 -6.1199,-19.4156 z m -3.4999,199.0835 -64.5428,31.8705 a 10.178362,10.178362 0 1 0 8.9941,18.262 l 64.5624,-31.8705 a 10.178363,10.178363 0 1 0 -8.9942,-18.262 z m -2.8743,200.7454 -60.7104,38.6748 a 10.175587,10.175587 0 1 0 10.9298,17.1671 l 60.7105,-38.6748 a 10.175609,10.175609 0 1 0 -10.9299,-17.1671 z m -1.7792,202.1141 -58.2078,42.3702 a 10.182018,10.182018 0 1 0 11.9857,16.4632 l 58.2077,-42.3702 a 10.18201,10.18201 0 1 0 -11.9856,-16.4632 z m -0.4888,203.2481 -57.4844,43.2892 a 10.173173,10.173173 0 1 0 12.2203,16.2677 l 57.5235,-43.2892 a 10.184927,10.184927 0 1 0 -12.2594,-16.2677 z m 0.9385,204.3235 -58.853,41.4708 a 10.187538,10.187538 0 1 0 11.7315,16.6588 l 58.853,-41.4709 a 10.187504,10.187504 0 1 0 -11.7315,-16.6587 z m 2.1508,205.4967 -61.8446,36.8564 a 10.183813,10.183813 0 1 0 10.4215,17.4995 l 61.8445,-36.876 a 10.180409,10.180409 0 1 0 -10.441,-17.4799 z m 3.0501,206.8653 -65.7941,29.231 a 10.184369,10.184369 0 1 0 8.2707,18.614 l 65.7941,-29.231 a 10.184369,10.184369 0 1 0 -8.2707,-18.614 z m 3.7932,209.1139 -69.9392,17.0302 a 10.181667,10.181667 0 1 0 4.8099,19.7871 l 69.9588,-17.0106 a 10.193496,10.193496 0 1 0 -4.8295,-19.8067 z m 3.6759,212.692 -71.9727,-1.7011 a 10.180034,10.180034 0 1 0 -0.4888,20.3542 l 71.9727,1.701 a 10.170237,10.170237 0 1 0 0.4888,-20.3346 z m 175.8746,-3822.80503 3.324,-71.914049 a 10.178123,10.178123 0 1 0 -20.3346,-0.938519 l -3.3239,71.914048 a 10.178118,10.178118 0 1 0 20.3345,0.93852 z m -2.9915,204.1671 9.1897,-71.38614 a 10.182221,10.182221 0 1 0 -20.1977,-2.60048 l -9.1897,71.40569 a 10.180977,10.180977 0 1 0 20.1977,2.58093 z m 0.7626,203.50232 7.7232,-71.56212 a 10.187213,10.187213 0 1 0 -20.2564,-2.18987 l -7.7232,71.56211 a 10.187214,10.187214 0 1 0 20.2564,2.18988 z m 4.3406,202.58335 -0.8603,-71.97272 a 10.187643,10.187643 0 1 0 -20.3737,0.25418 l 0.8799,71.97272 a 10.177865,10.177865 0 1 0 20.3541,-0.25418 z m 6.9802,200.76496 -15.29,-70.34985 a 10.174492,10.174492 0 1 0 -19.8849,4.3211 l 15.2901,70.34985 a 10.184037,10.184037 0 1 0 19.9044,-4.3211 z m 7.7624,198.0862 -32.5549,-64.1908 a 10.178315,10.178315 0 1 0 -18.1643,9.1897 l 32.5745,64.2103 a 10.169569,10.169569 0 1 0 18.1447,-9.1896 z m 6.511,195.7204 -48.7248,-52.9872 a 10.184749,10.184749 0 1 0 -14.9968,13.7845 l 48.7248,52.9873 a 10.184783,10.184783 0 1 0 14.9968,-13.7846 z m 3.9496,194.8015 -60.6714,-38.753 a 10.180848,10.180848 0 1 0 -10.9494,17.1671 l 60.6714,38.7334 a 10.1726,10.1726 0 1 0 10.9494,-17.1475 z m 1.486,195.564 -67.6517,-24.6361 a 10.184093,10.184093 0 1 0 -6.9606,19.1419 l 67.6516,24.6361 a 10.193281,10.193281 0 1 0 6.9607,-19.1614 z m -0.078,197.2846 -70.8191,-12.9046 a 10.1843,10.1843 0 1 0 -3.6367,20.0413 l 70.7995,12.9046 a 10.176432,10.176432 0 1 0 3.6563,-20.0217 z m -0.7234,199.0444 -71.8749,-4.0669 a 10.1831,10.1831 0 1 0 -1.1341,20.3346 l 71.8554,4.0669 a 10.184208,10.184208 0 1 0 1.1732,-20.3346 z m -0.8994,200.2761 -71.9532,2.6005 a 10.174085,10.174085 0 1 0 0.743,20.3346 l 71.9532,-2.5809 a 10.183878,10.183878 0 1 0 -0.743,-20.3542 z m -0.8603,201.2343 -71.6012,7.4299 a 10.183082,10.183082 0 1 0 2.1116,20.2564 l 71.6013,-7.43 a 10.183075,10.183075 0 1 0 -2.1117,-20.2563 z m -0.5866,202.2314 -71.2297,10.2846 a 10.172952,10.172952 0 1 0 2.8938,20.139 l 71.2492,-10.265 a 10.172965,10.172965 0 1 0 -2.8937,-20.1391 z m -0.1369,203.2677 -71.1515,11.008 a 10.190317,10.190317 0 1 0 3.1284,20.1391 l 71.132,-11.0276 a 10.190317,10.190317 0 1 0 -3.1284,-20.1391 z m 0.2933,204.3039 -71.347,9.5807 a 10.170541,10.170541 0 1 0 2.7178,20.1587 l 71.347,-9.5808 a 10.1705,10.1705 0 1 0 -2.7178,-20.1586 z m 0.7039,205.3012 -71.7381,6.0612 a 10.173617,10.173617 0 1 0 1.7011,20.276 l 71.7576,-6.0417 a 10.174437,10.174437 0 1 0 -1.7206,-20.276 z m 0.8994,206.3569 -71.9727,0.5084 a 10.17733,10.17733 0 1 0 0.1369,20.3542 l 71.9727,-0.5084 a 10.17733,10.17733 0 1 0 -0.1369,-20.3542 z m 0.9777,207.9408 -71.5231,-8.0361 a 10.172058,10.172058 0 1 0 -2.268,20.2173 l 71.523,8.0556 a 10.182859,10.182859 0 1 0 2.2876,-20.2368 z m 0.5083,210.5412 -68.8247,-21.1363 a 10.174156,10.174156 0 1 0 -5.9636,19.4548 l 68.8053,21.1558 a 10.186322,10.186322 0 1 0 5.983,-19.4743 z m 165.5314,-3831.9947 20.8234,-68.922523 a 10.172083,10.172083 0 1 0 -19.4743,-5.8853 l -20.8234,68.902963 a 10.174917,10.174917 0 1 0 19.4743,5.90486 z m -3.4803,203.36544 27.1779,-66.65443 a 10.186425,10.186425 0 1 0 -18.8681,-7.68413 l -27.178,66.67399 a 10.182762,10.182762 0 1 0 18.8682,7.66457 z m 0.7821,203.69785 25.7701,-67.22147 a 10.187288,10.187288 0 1 0 -19.0245,-7.29307 l -25.7507,67.22146 a 10.178198,10.178198 0 1 0 19.0051,7.29308 z m 4.7121,203.73694 17.0889,-69.93926 a 10.174499,10.174499 0 1 0 -19.7676,-4.82946 l -17.0889,69.97836 a 10.1745,10.1745 0 1 0 19.7676,4.82947 z m 7.6841,202.52469 2.3072,-71.95316 a 10.172417,10.172417 0 1 0 -20.3346,-0.64523 l -2.3463,71.95316 a 10.191957,10.191957 0 1 0 20.3737,0.64523 z m 8.7987,200.19788 -15.7985,-70.2325 a 10.179696,10.179696 0 1 0 -19.8653,4.4579 l 15.818,70.2326 a 10.179696,10.179696 0 1 0 19.8653,-4.458 z m 7.8796,197.9103 -33.3565,-63.7998 a 10.179779,10.179779 0 1 0 -18.047,9.4243 l 33.3566,63.7998 a 10.179757,10.179757 0 1 0 18.0469,-9.4243 z m 5.5138,197.0109 -47.0237,-54.4928 a 10.175505,10.175505 0 1 0 -15.4074,13.2957 l 47.0238,54.5123 a 10.175489,10.175489 0 1 0 15.4073,-13.2956 z m 3.1284,197.8712 -55.8223,-45.4791 a 10.179604,10.179604 0 1 0 -12.8656,15.7789 l 55.8224,45.4791 a 10.18717,10.18717 0 1 0 12.8655,-15.7985 z m 1.4469,199.6309 -60.5932,-38.8899 a 10.183164,10.183164 0 1 0 -10.9885,17.1476 l 60.5932,38.8703 a 10.174914,10.174914 0 1 0 10.9885,-17.128 z m 0.6061,201.332 -62.9003,-34.9989 a 10.179207,10.179207 0 1 0 -9.8936,17.7927 l 62.9004,34.999 a 10.179208,10.179208 0 1 0 9.8935,-17.7928 z m 0.2933,202.3096 -64.1322,-32.7308 a 10.182854,10.182854 0 1 0 -9.2483,18.1447 l 64.1322,32.7113 a 10.174158,10.174158 0 1 0 9.2483,-18.1252 z m 0.176,202.6616 -64.9143,-31.0885 a 10.188446,10.188446 0 1 0 -8.7986,18.3794 l 64.9143,31.0884 a 10.188423,10.188423 0 1 0 8.7986,-18.3793 z m 0.098,203.0526 -65.3835,-30.1108 a 10.192198,10.192198 0 1 0 -8.5249,18.5162 l 65.3836,30.1108 a 10.192198,10.192198 0 1 0 8.5248,-18.5162 z m 0,203.4632 -65.5008,-29.8371 a 10.180765,10.180765 0 1 0 -8.4271,18.5358 l 65.5008,29.8371 a 10.184825,10.184825 0 1 0 8.4467,-18.5358 z m -0.019,203.8934 -65.2858,-30.3455 a 10.177911,10.177911 0 1 0 -8.5835,18.4576 l 65.2857,30.365 a 10.186773,10.186773 0 1 0 8.5836,-18.4771 z m -0.1173,204.3039 -64.7188,-31.5577 a 10.178719,10.178719 0 1 0 -8.9159,18.3011 l 64.7187,31.5578 a 10.178764,10.178764 0 1 0 8.916,-18.3012 z m -0.1955,204.6755 -63.7607,-33.4348 a 10.188844,10.188844 0 1 0 -9.4634,18.047 l 63.7411,33.4348 a 10.188844,10.188844 0 1 0 9.4634,-18.047 z m -0.4498,205.4576 -61.9813,-36.6218 a 10.185651,10.185651 0 1 0 -10.3629,17.5385 l 61.9814,36.6023 a 10.177235,10.177235 0 1 0 10.3628,-17.519 z m -1.1144,207.1195 -58.0709,-42.5267 a 10.183548,10.183548 0 1 0 -12.0444,16.4241 l 58.0709,42.5267 a 10.183548,10.183548 0 1 0 12.0444,-16.4241 z"
     id="path14" />
</svg>
