<svg class="generator__canvas" width="4096" height="2160" xmlns="http://www.w3.org/2000/svg"><path style="fill:#26a269;stroke-width:2;stroke-linecap:round;-inkscape-stroke:none;stop-color:#000;fill-opacity:1" d="M-16.952-4.305h234.169V205.29H-16.952z" transform="matrix(19.55249 0 0 19.55249 46.003 -1355.222)"/><path d="m202.887 204.037-2.971-2.175z" style="fill:#26a269" transform="matrix(19.55249 0 0 19.55249 46.003 -1355.222)"/><path style="fill:#2ec27e;fill-opacity:1;fill-rule:nonzero;stroke:none;stroke-width:1.04135;stroke-linecap:round" d="M5.417 5.491 2.16 3.775a.52.52 0 1 0-.486.921l3.258 1.716a.52.52 0 1 0 .485-.921Zm-.092 10.72-2.927-2.235a.52.52 0 1 0-.631.828l2.926 2.234a.52.52 0 1 0 .632-.828zm-.153 10.718L2.689 24.21a.52.52 0 1 0-.769.702l2.483 2.72a.52.52 0 1 0 .769-.703zm-.163 10.638-2.063-3.05a.52.52 0 1 0-.863.584l2.063 3.05a.52.52 0 1 0 .863-.584Zm-.117 10.54-1.78-3.222a.52.52 0 1 0-.912.503l1.78 3.223a.52.52 0 1 0 .912-.504ZM4.818 58.59 3.21 55.277a.52.52 0 1 0-.937.455l1.607 3.313a.52.52 0 1 0 .937-.455Zm-.093 10.49L3.33 65.675a.52.52 0 1 0-.964.394l1.396 3.407a.52.52 0 1 0 .963-.394ZM4.54 79.624l-.983-3.548a.52.52 0 1 0-1.003.278l.983 3.548a.52.52 0 1 0 1.003-.278Zm-.352 10.58-.244-3.673a.52.52 0 1 0-1.039.069l.244 3.674a.52.52 0 1 0 1.04-.07Zm-.552 10.523.836-3.586a.52.52 0 1 0-1.014-.236l-.836 3.585a.52.52 0 1 0 1.014.237zm-.695 10.317L5.012 108a.52.52 0 1 0-.86-.586l-2.073 3.043a.52.52 0 1 0 .861.586zm-.663 10.03 3.1-1.987a.52.52 0 1 0-.563-.876l-3.099 1.987a.52.52 0 1 0 .562.877zm-.442 9.838 3.617-.689a.52.52 0 1 0-.195-1.023l-3.617.689a.52.52 0 1 0 .195 1.023zm-.177 9.87 3.66.41a.52.52 0 1 0 .115-1.035l-3.659-.41a.52.52 0 1 0-.116 1.035zm-.025 10.113 3.549.98a.52.52 0 1 0 .277-1.004l-3.55-.98a.52.52 0 1 0-.276 1.004zm0 10.465 3.575.884a.52.52 0 1 0 .25-1.011l-3.574-.884a.52.52 0 1 0-.25 1.011zm.061 10.83 3.681.08a.52.52 0 1 0 .022-1.041l-3.68-.08a.52.52 0 1 0-.023 1.042zm.318 11.076 3.44-1.312a.52.52 0 1 0-.372-.973l-3.44 1.312a.52.52 0 1 0 .372.973zm.744 11.013 2.375-2.813a.52.52 0 1 0-.796-.672l-2.374 2.814a.52.52 0 1 0 .795.671zm1.072 10.563.468-3.652a.52.52 0 1 0-1.033-.132l-.467 3.652a.52.52 0 1 0 1.032.132zM15.85 5.387l-3.347-1.534a.52.52 0 1 0-.434.947l3.347 1.534a.52.52 0 1 0 .434-.947Zm-.164 10.944-2.766-2.43a.52.52 0 1 0-.687.782l2.765 2.43a.52.52 0 1 0 .688-.782zm-.317 10.882-1.934-3.132a.52.52 0 1 0-.886.547l1.934 3.133a.52.52 0 1 0 .886-.548ZM15 37.94l-1.084-3.518a.52.52 0 1 0-.995.306l1.083 3.519A.52.52 0 1 0 15 37.94zm-.319 10.58-.407-3.66a.52.52 0 1 0-1.035.115l.407 3.66a.52.52 0 1 0 1.035-.115zm-.241 10.493.082-3.68a.52.52 0 1 0-1.041-.024l-.082 3.68a.52.52 0 1 0 1.04.024zm-.216 10.456.504-3.647a.52.52 0 1 0-1.031-.142l-.505 3.647a.52.52 0 1 0 1.032.142zm-.257 10.432.99-3.546a.52.52 0 1 0-1.003-.28l-.99 3.546a.52.52 0 1 0 1.003.28zm-.339 10.384 1.602-3.315a.52.52 0 1 0-.938-.453l-1.601 3.315a.52.52 0 1 0 .937.453zm-.414 10.291 2.305-2.87a.52.52 0 1 0-.812-.653L12.4 99.924a.52.52 0 1 0 .812.652zm-.43 10.161 2.968-2.179a.52.52 0 1 0-.616-.839l-2.968 2.18a.52.52 0 1 0 .617.838zm-.355 10.051 3.436-1.321a.52.52 0 1 0-.374-.972l-3.436 1.322a.52.52 0 1 0 .374.971zm-.222 10.033 3.648-.5a.52.52 0 1 0-.142-1.032l-3.647.5a.52.52 0 1 0 .141 1.032zm-.094 10.143 3.68.05a.52.52 0 1 0 .015-1.041l-3.681-.05a.52.52 0 1 0-.014 1.041zm-.012 10.367 3.679.142a.52.52 0 1 0 .04-1.04l-3.68-.142a.52.52 0 1 0-.04 1.04zm.076 10.656 3.665-.347a.52.52 0 1 0-.098-1.036l-3.665.346a.52.52 0 1 0 .098 1.037zm.286 10.912 3.397-1.42a.52.52 0 1 0-.402-.96l-3.397 1.42a.52.52 0 1 0 .402.96zm.663 10.945 2.447-2.751a.52.52 0 1 0-.778-.692l-2.447 2.75a.52.52 0 1 0 .778.693zm1.028 10.595.638-3.626a.52.52 0 1 0-1.026-.18l-.638 3.626a.52.52 0 1 0 1.026.18zm1.047 9.966-1.535-3.346a.52.52 0 1 0-.947.434l1.536 3.347a.52.52 0 1 0 .946-.435zM26.278 5.27l-3.436-1.322a.52.52 0 1 0-.374.972l3.436 1.322a.52.52 0 1 0 .374-.972Zm-.216 11.136-2.658-2.547a.52.52 0 1 0-.72.751l2.658 2.548a.52.52 0 1 0 .72-.752zm-.478 10.997-1.467-3.377a.52.52 0 1 0-.955.415l1.467 3.377a.52.52 0 1 0 .955-.415zm-.581 10.738-.22-3.675a.52.52 0 1 0-1.04.063l.22 3.675a.52.52 0 1 0 1.04-.063zm-.509 10.517.775-3.6a.52.52 0 1 0-1.018-.219l-.775 3.6a.52.52 0 1 0 1.018.219zm-.375 10.4 1.463-3.378a.52.52 0 1 0-.955-.414l-1.464 3.378a.52.52 0 1 0 .956.414zm-.28 10.355 1.95-3.123a.52.52 0 1 0-.883-.552l-1.95 3.123a.52.52 0 1 0 .883.552zm-.237 10.327 2.344-2.84a.52.52 0 1 0-.803-.662l-2.344 2.84a.52.52 0 1 0 .803.662zm-.227 10.295 2.702-2.5a.52.52 0 1 0-.707-.765l-2.702 2.5a.52.52 0 1 0 .707.765zm-.221 10.255 3.03-2.092a.52.52 0 1 0-.592-.857l-3.03 2.092a.52.52 0 1 0 .592.857zm-.199 10.224 3.298-1.637a.52.52 0 1 0-.463-.933l-3.298 1.637a.52.52 0 1 0 .463.933zm-.15 10.225 3.477-1.209a.52.52 0 1 0-.341-.983l-3.478 1.208a.52.52 0 1 0 .342.984zm-.086 10.278 3.566-.913a.52.52 0 1 0-.258-1.01l-3.567.915a.52.52 0 1 0 .259 1.008zm-.01 10.396 3.576-.875a.52.52 0 1 0-.248-1.011l-3.576.874a.52.52 0 1 0 .247 1.012zm.092 10.561 3.482-1.197a.52.52 0 1 0-.339-.985l-3.481 1.197a.52.52 0 1 0 .338.985zm.277 10.73 3.135-1.929a.52.52 0 1 0-.545-.887l-3.136 1.93a.52.52 0 1 0 .546.886zm.586 10.783 2.243-2.92a.52.52 0 1 0-.826-.634l-2.242 2.92a.52.52 0 1 0 .825.634zm.93 10.537.585-3.636a.52.52 0 1 0-1.028-.165l-.585 3.635a.52.52 0 1 0 1.029.166zm1.01 9.976-1.514-3.355a.52.52 0 1 0-.95.428l1.515 3.356a.52.52 0 1 0 .95-.429zm.62 9.433-3.175-1.864a.52.52 0 1 0-.527.898l3.175 1.864a.52.52 0 1 0 .527-.898zM36.699 5.145l-3.515-1.097a.52.52 0 1 0-.31.994l3.514 1.097a.52.52 0 1 0 .31-.994Zm-.239 11.288-2.615-2.591a.52.52 0 1 0-.733.74l2.616 2.59a.52.52 0 1 0 .732-.74zm-.612 11.079-1.133-3.503a.52.52 0 1 0-.991.32l1.134 3.503a.52.52 0 1 0 .99-.32zm-.754 10.71.419-3.658a.52.52 0 1 0-1.035-.118l-.418 3.658a.52.52 0 1 0 1.034.118zm-.644 10.409 1.609-3.312a.52.52 0 1 0-.937-.455l-1.609 3.312a.52.52 0 1 0 .937.455zm-.444 10.277 2.36-2.826a.52.52 0 1 0-.8-.668l-2.36 2.826a.52.52 0 1 0 .8.668zm-.28 10.259 2.797-2.394a.52.52 0 1 0-.677-.791l-2.797 2.394a.52.52 0 1 0 .677.79zm-.176 10.281 3.054-2.057a.52.52 0 1 0-.582-.863l-3.053 2.057a.52.52 0 1 0 .581.863zm-.113 10.31 3.209-1.805a.52.52 0 1 0-.51-.908l-3.21 1.805a.52.52 0 1 0 .511.908zm-.072 10.337 3.303-1.626a.52.52 0 1 0-.46-.935l-3.303 1.627a.52.52 0 1 0 .46.934zm-.037 10.371 3.349-1.529a.52.52 0 1 0-.433-.947l-3.349 1.53a.52.52 0 1 0 .433.946zm.004 10.418 3.344-1.54a.52.52 0 1 0-.435-.945l-3.345 1.54a.52.52 0 1 0 .436.945zm.06 10.482 3.268-1.697a.52.52 0 1 0-.48-.924l-3.267 1.696a.52.52 0 1 0 .48.925zm.15 10.556 3.065-2.04a.52.52 0 1 0-.577-.867l-3.065 2.04a.52.52 0 1 0 .577.867zm.296 10.622 2.626-2.581a.52.52 0 1 0-.73-.743l-2.626 2.581a.52.52 0 1 0 .73.743zm.523 10.617 1.764-3.232a.52.52 0 1 0-.913-.499l-1.765 3.232a.52.52 0 1 0 .914.499zm.787 10.426.314-3.668a.52.52 0 1 0-1.038-.089l-.313 3.669a.52.52 0 1 0 1.037.088zm.895 9.978-1.572-3.33a.52.52 0 1 0-.941.445l1.571 3.33a.52.52 0 1 0 .942-.445zm.592 9.461-3.167-1.876a.52.52 0 1 0-.531.896l3.168 1.876a.52.52 0 1 0 .53-.896zm-.05 9.27-3.673.268a.52.52 0 1 0 .076 1.039l3.672-.269a.52.52 0 1 0-.076-1.038ZM47.111 5.036l-3.571-.895a.52.52 0 1 0-.254 1.01l3.571.896a.52.52 0 1 0 .254-1.01zm-.24 11.4-2.61-2.596a.52.52 0 1 0-.735.738l2.61 2.596a.52.52 0 1 0 .735-.738zm-.71 11.138-.916-3.566a.52.52 0 1 0-1.008.259l.915 3.566a.52.52 0 1 0 1.008-.259zm-.88 10.671.849-3.582a.52.52 0 1 0-1.013-.24l-.85 3.582a.52.52 0 1 0 1.013.24zm-.727 10.304 2.137-2.998a.52.52 0 1 0-.847-.605l-2.138 2.998a.52.52 0 1 0 .848.605zm-.463 10.171 2.868-2.307a.52.52 0 1 0-.652-.812l-2.87 2.308a.52.52 0 1 0 .654.811zm-.251 10.2 3.222-1.78a.52.52 0 1 0-.504-.912l-3.222 1.781a.52.52 0 1 0 .504.912zm-.116 10.287 3.37-1.485a.52.52 0 1 0-.42-.953l-3.37 1.485a.52.52 0 1 0 .42.953zm-.03 10.376 3.405-1.4a.52.52 0 1 0-.396-.963l-3.405 1.4a.52.52 0 1 0 .396.963zm.033 10.454 3.365-1.493a.52.52 0 1 0-.422-.952l-3.365 1.493a.52.52 0 1 0 .422.952zm.093 10.517 3.248-1.733a.52.52 0 1 0-.49-.919l-3.249 1.733a.52.52 0 1 0 .49.92zm.16 10.563 3.029-2.094a.52.52 0 1 0-.592-.856l-3.029 2.093a.52.52 0 1 0 .592.857zm.248 10.587 2.66-2.545a.52.52 0 1 0-.719-.752l-2.66 2.544a.52.52 0 1 0 .719.753zm.364 10.579 2.074-3.042a.52.52 0 1 0-.86-.587l-2.075 3.042a.52.52 0 1 0 .86.587zm.512 10.51 1.176-3.49a.52.52 0 1 0-.987-.332l-1.176 3.49a.52.52 0 1 0 .987.332zm.67 10.327-.11-3.68a.52.52 0 1 0-1.04.03l.108 3.68a.52.52 0 1 0 1.041-.03zm.734 9.983-1.695-3.268a.52.52 0 1 0-.924.48l1.695 3.268a.52.52 0 1 0 .924-.48zm.53 9.546-3.13-1.938a.52.52 0 1 0-.549.885l3.13 1.938a.52.52 0 1 0 .549-.885zm-.016 9.307-3.68.12a.52.52 0 1 0 .034 1.04l3.68-.12a.52.52 0 1 0-.034-1.04zm-.617 9.509-3.012 2.117a.52.52 0 1 0 .599.852l3.012-2.117a.52.52 0 1 0-.599-.852zM57.521 4.957l-3.605-.746a.52.52 0 1 0-.211 1.02l3.605.745a.52.52 0 1 0 .211-1.02Zm-.235 11.479-2.611-2.596a.52.52 0 1 0-.735.739l2.611 2.595a.52.52 0 1 0 .735-.738zm-.78 11.177-.766-3.601a.52.52 0 1 0-1.02.216l.767 3.602a.52.52 0 1 0 1.018-.217zm-.965 10.633 1.135-3.502a.52.52 0 1 0-.99-.322l-1.136 3.503a.52.52 0 1 0 .99.32zm-.772 10.219 2.462-2.738a.52.52 0 1 0-.774-.696l-2.462 2.737a.52.52 0 1 0 .774.697zm-.457 10.098 3.144-1.915a.52.52 0 1 0-.542-.89l-3.144 1.916a.52.52 0 1 0 .542.89zm-.217 10.176 3.421-1.361a.52.52 0 1 0-.385-.968l-3.42 1.36a.52.52 0 1 0 .384.969zm-.069 10.317 3.498-1.147a.52.52 0 1 0-.324-.99l-3.498 1.148a.52.52 0 1 0 .324.99zm.03 10.457 3.466-1.243a.52.52 0 1 0-.352-.98l-3.466 1.242a.52.52 0 1 0 .352.98zm.119 10.563 3.324-1.583a.52.52 0 1 0-.448-.94l-3.324 1.583a.52.52 0 1 0 .448.94zm.22 10.627 3.028-2.093a.52.52 0 1 0-.592-.857l-3.028 2.094a.52.52 0 1 0 .592.856zm.333 10.635 2.527-2.678a.52.52 0 1 0-.757-.715l-2.527 2.678a.52.52 0 1 0 .757.715zm.452 10.58 1.778-3.223a.52.52 0 1 0-.912-.503l-1.778 3.224a.52.52 0 1 0 .912.502zm.556 10.46.772-3.6a.52.52 0 1 0-1.018-.219l-.772 3.6a.52.52 0 1 0 1.018.219zm.627 10.264-.467-3.652a.52.52 0 1 0-1.033.132l.467 3.652a.52.52 0 1 0 1.033-.132zm.62 9.99-1.837-3.192a.52.52 0 1 0-.902.52l1.836 3.19a.52.52 0 1 0 .902-.519zm.452 9.66-3.069-2.034a.52.52 0 1 0-.575.868l3.069 2.034a.52.52 0 1 0 .575-.868zm.045 9.414-3.676-.207a.52.52 0 1 0-.058 1.04l3.676.207a.52.52 0 1 0 .058-1.04zm-.504 9.487-3.227 1.773a.52.52 0 1 0 .501.912l3.227-1.772a.52.52 0 1 0-.501-.913zM56.1 201.1l-1.871 3.17a.52.52 0 1 0 .897.53l1.871-3.17a.52.52 0 1 0-.897-.53zM67.93 4.91l-3.622-.657a.52.52 0 1 0-.186 1.024l3.623.658a.52.52 0 1 0 .186-1.025Zm-.23 11.526-2.612-2.596a.52.52 0 1 0-.734.739l2.611 2.595a.52.52 0 1 0 .734-.738zm-.822 11.198-.679-3.619a.52.52 0 1 0-1.024.192l.679 3.619a.52.52 0 1 0 1.024-.192ZM65.865 38.24l1.297-3.445a.52.52 0 1 0-.974-.367l-1.297 3.445a.52.52 0 1 0 .974.367zm-.792 10.166 2.634-2.572a.52.52 0 1 0-.727-.745l-2.634 2.572a.52.52 0 1 0 .727.745zm-.446 10.06 3.275-1.683a.52.52 0 1 0-.476-.926l-3.275 1.682a.52.52 0 1 0 .476.926zm-.189 10.175 3.5-1.143a.52.52 0 1 0-.323-.99l-3.5 1.143a.52.52 0 1 0 .323.99zM64.404 79l3.536-1.027a.52.52 0 1 0-.291-1l-3.536 1.028a.52.52 0 1 0 .291 1zm.082 10.534 3.447-1.293a.52.52 0 1 0-.366-.975L64.12 88.56a.52.52 0 1 0 .366.975zm.21 10.654 3.184-1.847a.52.52 0 1 0-.522-.901l-3.185 1.847a.52.52 0 1 0 .522.9zm.361 10.689 2.659-2.547a.52.52 0 1 0-.72-.752l-2.659 2.547a.52.52 0 1 0 .72.752zm.516 10.622 1.813-3.204a.52.52 0 1 0-.906-.513l-1.813 3.204a.52.52 0 1 0 .906.513zm.624 10.46.682-3.618a.52.52 0 1 0-1.023-.192l-.682 3.618a.52.52 0 1 0 1.023.193zm.653 10.235-.62-3.629a.52.52 0 1 0-1.027.176l.62 3.629a.52.52 0 1 0 1.027-.176zm.581 9.986-1.92-3.141a.52.52 0 1 0-.889.543l1.92 3.141a.52.52 0 1 0 .889-.543zm.402 9.745-3.015-2.113a.52.52 0 1 0-.598.852l3.015 2.113a.52.52 0 1 0 .598-.852zm.094 9.56-3.636-.582a.52.52 0 1 0-.165 1.028l3.636.582a.52.52 0 1 0 .165-1.028zm-.334 9.538-3.476 1.214a.52.52 0 1 0 .343.983l3.476-1.214a.52.52 0 1 0-.343-.983zm-.731 9.79-2.449 2.75a.52.52 0 1 0 .778.693l2.449-2.75a.52.52 0 1 0-.778-.692zm-.872 10.223-.934 3.56a.52.52 0 1 0 1.007.265l.934-3.561a.52.52 0 1 0-1.007-.264ZM78.343 4.9l-3.626-.64a.52.52 0 1 0-.18 1.026l3.625.64a.52.52 0 1 0 .181-1.026Zm-.23 11.535L75.5 13.84a.52.52 0 1 0-.734.739l2.612 2.595a.52.52 0 1 0 .734-.738zm-.83 11.202-.661-3.622a.52.52 0 1 0-1.025.187l.661 3.622a.52.52 0 1 0 1.024-.187zm-1.023 10.6 1.33-3.432a.52.52 0 1 0-.97-.377l-1.33 3.433a.52.52 0 1 0 .97.377zm-.795 10.155 2.668-2.537a.52.52 0 1 0-.718-.754l-2.668 2.537a.52.52 0 1 0 .718.754zm-.439 10.057 3.293-1.646a.52.52 0 1 0-.465-.932l-3.293 1.646a.52.52 0 1 0 .465.932zm-.17 10.196 3.495-1.154a.52.52 0 1 0-.326-.99l-3.496 1.155a.52.52 0 1 0 .326.989zm-.002 10.412 3.497-1.152a.52.52 0 1 0-.326-.989L74.53 78.07a.52.52 0 1 0 .325.99zm.148 10.605 3.324-1.583a.52.52 0 1 0-.448-.94l-3.324 1.583a.52.52 0 1 0 .448.94zm.326 10.709 2.874-2.301a.52.52 0 1 0-.65-.813l-2.874 2.3a.52.52 0 1 0 .65.814zm.526 10.677 2.039-3.065a.52.52 0 1 0-.867-.577l-2.039 3.066a.52.52 0 1 0 .867.576zm.68 10.503.827-3.587a.52.52 0 1 0-1.014-.234l-.829 3.587a.52.52 0 1 0 1.015.234zm.712 10.238-.584-3.635a.52.52 0 1 0-1.028.165l.584 3.635a.52.52 0 1 0 1.028-.165zm.605 9.97-1.936-3.131a.52.52 0 1 0-.886.547l1.936 3.132a.52.52 0 1 0 .886-.547zm.388 9.772-2.991-2.146a.52.52 0 1 0-.607.846l2.991 2.146a.52.52 0 1 0 .607-.846zm.111 9.662-3.59-.813a.52.52 0 1 0-.23 1.016l3.59.813a.52.52 0 1 0 .23-1.016zm-.203 9.651-3.614.706a.52.52 0 1 0 .2 1.022l3.613-.706a.52.52 0 1 0-.2-1.022zm-.523 9.775-2.98 2.162a.52.52 0 1 0 .612.843l2.98-2.163a.52.52 0 1 0-.612-.842zm-.735 10.056-1.806 3.209a.52.52 0 1 0 .908.51l1.805-3.208a.52.52 0 1 0-.907-.51zm-.727 10.38-.477 3.651a.52.52 0 1 0 1.033.135l.477-3.65a.52.52 0 1 0-1.033-.136zM88.76 4.93l-3.616-.693a.52.52 0 1 0-.196 1.023l3.616.692a.52.52 0 1 0 .196-1.022Zm-.233 11.507-2.611-2.596a.52.52 0 1 0-.734.739l2.61 2.595a.52.52 0 1 0 .735-.738zm-.805 11.19-.714-3.612a.52.52 0 1 0-1.021.202l.713 3.611a.52.52 0 1 0 1.022-.201zm-.994 10.617 1.233-3.47a.52.52 0 1 0-.981-.348l-1.233 3.47a.52.52 0 1 0 .981.348zm-.783 10.188 2.565-2.642a.52.52 0 1 0-.747-.725l-2.565 2.642a.52.52 0 1 0 .747.725zm-.434 10.093 3.2-1.82a.52.52 0 1 0-.514-.906l-3.2 1.82a.52.52 0 1 0 .514.906zm-.152 10.244 3.394-1.428a.52.52 0 1 0-.404-.96l-3.394 1.429a.52.52 0 1 0 .404.96zm.05 10.473 3.333-1.564a.52.52 0 1 0-.443-.942l-3.333 1.564a.52.52 0 1 0 .443.942zm.248 10.653 2.998-2.137a.52.52 0 1 0-.604-.848l-2.998 2.136a.52.52 0 1 0 .604.849zm.48 10.694 2.257-2.908a.52.52 0 1 0-.823-.639l-2.257 2.909a.52.52 0 1 0 .823.638zm.688 10.553 1.056-3.527a.52.52 0 1 0-.998-.299l-1.056 3.528a.52.52 0 1 0 .998.298zm.768 10.265-.444-3.655a.52.52 0 1 0-1.034.126l.444 3.655a.52.52 0 1 0 1.034-.126zm.658 9.956-1.902-3.152a.52.52 0 1 0-.892.538l1.902 3.152a.52.52 0 1 0 .892-.538zm.404 9.751-2.998-2.137a.52.52 0 1 0-.604.848l2.998 2.137a.52.52 0 1 0 .604-.848zm.11 9.69-3.58-.856a.52.52 0 1 0-.242 1.013l3.58.857a.52.52 0 1 0 .242-1.013zm-.152 9.74-3.651.472a.52.52 0 1 0 .133 1.033l3.651-.472a.52.52 0 1 0-.133-1.033zm-.371 9.849-3.26 1.712a.52.52 0 1 0 .484.922l3.26-1.712a.52.52 0 1 0-.484-.922zm-.542 10.015-2.466 2.734a.52.52 0 1 0 .774.697l2.466-2.734a.52.52 0 1 0-.774-.697zm-.606 10.23-1.438 3.39a.52.52 0 1 0 .958.407l1.438-3.39a.52.52 0 1 0-.958-.406zm-.517 10.42-.479 3.65a.52.52 0 1 0 1.033.135l.479-3.65a.52.52 0 1 0-1.033-.136zm12.6-196.065-3.59-.813a.52.52 0 1 0-.23 1.016l3.59.813a.52.52 0 1 0 .23-1.016zm-.237 11.444-2.611-2.596a.52.52 0 1 0-.734.738l2.61 2.596a.52.52 0 1 0 .735-.738zm-.75 11.16-.832-3.586a.52.52 0 1 0-1.014.235l.832 3.587a.52.52 0 1 0 1.015-.236zm-.926 10.651 1.008-3.54a.52.52 0 1 0-1.001-.286l-1.009 3.541a.52.52 0 1 0 1.002.285zm-.744 10.262 2.306-2.87a.52.52 0 1 0-.812-.653l-2.306 2.87a.52.52 0 1 0 .812.653zm-.413 10.173 2.945-2.209a.52.52 0 1 0-.624-.833L95.48 57.85a.52.52 0 1 0 .625.833zM95.99 69l3.11-1.971a.52.52 0 1 0-.558-.88l-3.11 1.971a.52.52 0 1 0 .558.88zm.133 10.522 2.92-2.242a.52.52 0 1 0-.634-.826l-2.92 2.242a.52.52 0 1 0 .634.826zm.39 10.638 2.316-2.862a.52.52 0 1 0-.81-.655l-2.316 2.862a.52.52 0 1 0 .81.655zm.642 10.565 1.206-3.479a.52.52 0 1 0-.983-.341l-1.207 3.478a.52.52 0 1 0 .984.342zm.782 10.295-.304-3.67a.52.52 0 1 0-1.037.087l.303 3.669a.52.52 0 1 0 1.038-.086zm.705 9.951-1.851-3.182a.52.52 0 1 0-.9.523l1.85 3.183a.52.52 0 1 0 .9-.524zm.432 9.71-3.02-2.106a.52.52 0 1 0-.596.854l3.02 2.106a.52.52 0 1 0 .596-.854zm.101 9.662-3.6-.767a.52.52 0 1 0-.218 1.018l3.601.767a.52.52 0 1 0 .217-1.018zm-.16 9.765-3.645.517a.52.52 0 1 0 .147 1.031l3.645-.517a.52.52 0 1 0-.146-1.031zm-.315 9.921-3.319 1.594a.52.52 0 1 0 .451.939l3.319-1.594a.52.52 0 1 0-.45-.939zM98.3 170.1l-2.756 2.441a.52.52 0 1 0 .69.78l2.756-2.442a.52.52 0 1 0-.69-.78zm-.444 10.203-2.044 3.062a.52.52 0 1 0 .866.578l2.044-3.062a.52.52 0 1 0-.866-.578zm-.411 10.329-1.327 3.434a.52.52 0 1 0 .972.376l1.326-3.435a.52.52 0 1 0-.971-.375zm-.273 10.408-.825 3.588a.52.52 0 1 0 1.015.233l.825-3.588a.52.52 0 1 0-1.015-.233zm12.422-195.95-3.546-.993a.52.52 0 1 0-.28 1.003l3.545.992a.52.52 0 1 0 .28-1.003zm-.241 11.348-2.61-2.597a.52.52 0 1 0-.734.738l2.61 2.597a.52.52 0 1 0 .734-.738zm-.668 11.112-1.008-3.541a.52.52 0 1 0-1.001.285l1.008 3.54a.52.52 0 1 0 1.001-.284zm-.82 10.69.657-3.623a.52.52 0 1 0-1.025-.186l-.657 3.622a.52.52 0 1 0 1.024.186zm-.663 10.36 1.857-3.178a.52.52 0 1 0-.9-.526l-1.856 3.18a.52.52 0 1 0 .899.525zm-.356 10.283 2.447-2.75a.52.52 0 1 0-.778-.692l-2.447 2.75a.52.52 0 1 0 .778.692zm-.043 10.392 2.516-2.687a.52.52 0 1 0-.76-.712l-2.517 2.687a.52.52 0 1 0 .76.712zm.253 10.522 2.104-3.021a.52.52 0 1 0-.855-.595L106.2 79.2a.52.52 0 1 0 .855.595zm.538 10.516 1.162-3.493a.52.52 0 1 0-.989-.329l-1.161 3.494a.52.52 0 1 0 .988.328zm.733 10.303-.254-3.673a.52.52 0 1 0-1.04.072l.256 3.673a.52.52 0 1 0 1.038-.072zm.715 9.958-1.816-3.203a.52.52 0 1 0-.906.514l1.816 3.202a.52.52 0 1 0 .906-.513zm.453 9.676-3.042-2.075a.52.52 0 1 0-.587.86l3.042 2.075a.52.52 0 1 0 .587-.86zm.088 9.609-3.627-.631a.52.52 0 1 0-.178 1.026l3.627.63a.52.52 0 1 0 .178-1.025zm-.198 9.741-3.611.717a.52.52 0 1 0 .202 1.022l3.612-.717a.52.52 0 1 0-.203-1.022zm-.332 9.95-3.24 1.75a.52.52 0 1 0 .496.916l3.239-1.75a.52.52 0 1 0-.495-.916zm-.351 10.129-2.739 2.46a.52.52 0 1 0 .696.775l2.739-2.46a.52.52 0 1 0-.696-.775zm-.325 10.249-2.223 2.935a.52.52 0 1 0 .83.629l2.223-2.935a.52.52 0 1 0-.83-.629zm-.284 10.327-1.742 3.244a.52.52 0 1 0 .917.492l1.742-3.243a.52.52 0 1 0-.917-.493zm-.191 10.382-1.405 3.403a.52.52 0 1 0 .962.397l1.405-3.403a.52.52 0 1 0-.962-.397zm-.018 10.411-1.373 3.416a.52.52 0 1 0 .966.388l1.374-3.415a.52.52 0 1 0-.967-.389zM120.003 5.22l-3.47-1.232a.52.52 0 1 0-.349.982l3.47 1.231a.52.52 0 1 0 .348-.981zm-.242 11.225-2.598-2.609a.52.52 0 1 0-.738.735l2.598 2.609a.52.52 0 1 0 .738-.735zm-.565 11.04-1.223-3.473a.52.52 0 1 0-.983.346l1.224 3.473a.52.52 0 1 0 .982-.346zm-.675 10.715.185-3.677a.52.52 0 1 0-1.04-.053l-.185 3.677a.52.52 0 1 0 1.04.053zm-.534 10.459 1.197-3.482a.52.52 0 1 0-.985-.339l-1.196 3.482a.52.52 0 1 0 .984.339zm-.25 10.383 1.645-3.294a.52.52 0 1 0-.932-.465l-1.645 3.293a.52.52 0 1 0 .931.466zm.066 10.424 1.528-3.35a.52.52 0 1 0-.947-.431l-1.529 3.349a.52.52 0 1 0 .948.432zm.375 10.434.844-3.584a.52.52 0 1 0-1.014-.238l-.843 3.584a.52.52 0 1 0 1.013.238zm.615 10.283-.364-3.664a.52.52 0 1 0-1.036.103l.364 3.664a.52.52 0 1 0 1.036-.103zm.664 9.974-1.823-3.198a.52.52 0 1 0-.905.515l1.823 3.199a.52.52 0 1 0 .905-.516zm.453 9.672-3.05-2.063a.52.52 0 1 0-.583.863l3.05 2.063a.52.52 0 1 0 .583-.863zm.08 9.567-3.642-.537a.52.52 0 1 0-.152 1.03l3.642.538a.52.52 0 1 0 .152-1.03zm-.243 9.698-3.566.916a.52.52 0 1 0 .259 1.008l3.566-.916a.52.52 0 1 0-.26-1.008zm-.39 9.94-3.093 1.996a.52.52 0 1 0 .565.875l3.093-1.996a.52.52 0 1 0-.564-.875zm-.372 10.157-2.538 2.666a.52.52 0 1 0 .754.718l2.539-2.666a.52.52 0 1 0-.755-.718zm-.283 10.292-2.077 3.04a.52.52 0 1 0 .86.587l2.076-3.04a.52.52 0 1 0-.86-.587zm-.193 10.36-1.748 3.24a.52.52 0 1 0 .917.494l1.747-3.24a.52.52 0 1 0-.916-.494zm-.106 10.393-1.562 3.333a.52.52 0 1 0 .943.442l1.562-3.334a.52.52 0 1 0-.943-.441zm.024 10.417-1.605 3.314a.52.52 0 1 0 .938.454l1.604-3.314a.52.52 0 1 0-.938-.454zm.217 10.465-1.98 3.105a.52.52 0 1 0 .879.56l1.979-3.105a.52.52 0 1 0-.878-.56zM130.396 5.395l-3.341-1.547a.52.52 0 1 0-.438.945l3.341 1.547a.52.52 0 1 0 .438-.945zm-.24 11.08-2.547-2.657a.52.52 0 1 0-.752.72l2.547 2.658a.52.52 0 1 0 .752-.72zm-.452 10.938-1.436-3.39a.52.52 0 1 0-.959.406l1.436 3.39a.52.52 0 1 0 .959-.406zm-.5 10.703-.358-3.665a.52.52 0 1 0-1.036.101l.357 3.665a.52.52 0 1 0 1.036-.101zm-.364 10.515.37-3.663a.52.52 0 1 0-1.036-.104l-.37 3.663a.52.52 0 1 0 1.036.104zm-.11 10.43.583-3.635a.52.52 0 1 0-1.029-.165l-.582 3.635a.52.52 0 1 0 1.028.165zm.18 10.383.233-3.674a.52.52 0 1 0-1.04-.066l-.232 3.675a.52.52 0 1 0 1.04.065zm.438 10.262-.657-3.622a.52.52 0 1 0-1.024.185l.656 3.623a.52.52 0 1 0 1.025-.186zm.55 10.009-1.887-3.161a.52.52 0 1 0-.895.534l1.888 3.16a.52.52 0 1 0 .894-.533zm.421 9.714-3.034-2.086a.52.52 0 1 0-.59.858l3.034 2.086a.52.52 0 1 0 .59-.858zm.087 9.564-3.64-.559a.52.52 0 1 0-.157 1.03l3.639.558a.52.52 0 1 0 .158-1.03zm-.263 9.657-3.549.98a.52.52 0 1 0 .277 1.004l3.55-.98a.52.52 0 1 0-.278-1.004zm-.447 9.906-2.987 2.153a.52.52 0 1 0 .61.845l2.986-2.153a.52.52 0 1 0-.609-.845zm-.435 10.154-2.317 2.862a.52.52 0 1 0 .81.655l2.316-2.861a.52.52 0 1 0-.809-.656zm-.312 10.31-1.793 3.216a.52.52 0 1 0 .91.507l1.793-3.215a.52.52 0 1 0-.91-.507zm-.17 10.382-1.495 3.364a.52.52 0 1 0 .951.423l1.495-3.364a.52.52 0 1 0-.951-.423zm-.053 10.406-1.4 3.405a.52.52 0 1 0 .962.396l1.401-3.404a.52.52 0 1 0-.963-.397zm.058 10.421-1.504 3.36a.52.52 0 1 0 .95.426l1.505-3.36a.52.52 0 1 0-.95-.426zm.21 10.457-1.87 3.171a.52.52 0 1 0 .897.53l1.87-3.173a.52.52 0 1 0-.898-.528zm.396 10.566-2.524 2.68a.52.52 0 1 0 .758.714l2.524-2.68a.52.52 0 1 0-.758-.714zM140.76 5.625l-3.126-1.946a.52.52 0 1 0-.55.884l3.125 1.946a.52.52 0 1 0 .55-.884zm-.235 10.926-2.423-2.772a.52.52 0 1 0-.784.685l2.423 2.772a.52.52 0 1 0 .784-.685zm-.341 10.807-1.584-3.323a.52.52 0 1 0-.94.448l1.584 3.323a.52.52 0 1 0 .94-.448zm-.324 10.643-.864-3.579a.52.52 0 1 0-1.013.245l.865 3.579a.52.52 0 1 0 1.012-.245zm-.182 10.504-.48-3.65a.52.52 0 1 0-1.033.135l.48 3.65a.52.52 0 1 0 1.033-.135zm.034 10.398-.55-3.64a.52.52 0 1 0-1.03.156l.55 3.64a.52.52 0 1 0 1.03-.156zm.254 10.274-1.095-3.515a.52.52 0 1 0-.994.31l1.095 3.515a.52.52 0 1 0 .994-.31zm.396 10.07-2.008-3.086a.52.52 0 1 0-.873.568l2.008 3.086a.52.52 0 1 0 .873-.568zm.358 9.806-2.989-2.149a.52.52 0 1 0-.608.845l2.99 2.15a.52.52 0 1 0 .607-.846zm.11 9.62-3.608-.736a.52.52 0 1 0-.208 1.02l3.607.736a.52.52 0 1 0 .208-1.02zm-.228 9.64-3.59.815a.52.52 0 1 0 .23 1.016l3.59-.816a.52.52 0 1 0-.23-1.015zm-.461 9.854-3.03 2.092a.52.52 0 1 0 .591.857l3.03-2.092a.52.52 0 1 0-.591-.857zm-.496 10.117-2.267 2.901a.52.52 0 1 0 .82.641l2.267-2.9a.52.52 0 1 0-.82-.642zm-.381 10.302-1.62 3.307a.52.52 0 1 0 .936.458l1.619-3.307a.52.52 0 1 0-.935-.458zm-.214 10.387-1.237 3.468a.52.52 0 1 0 .98.35l1.238-3.468a.52.52 0 1 0-.981-.35zm-.06 10.41-1.127 3.506a.52.52 0 1 0 .991.318l1.127-3.505a.52.52 0 1 0-.992-.318zm.063 10.417-1.243 3.466a.52.52 0 1 0 .98.351l1.243-3.465a.52.52 0 1 0-.98-.352zm.187 10.436-1.578 3.326a.52.52 0 1 0 .941.447l1.578-3.327a.52.52 0 1 0-.94-.446zm.344 10.505-2.166 2.977a.52.52 0 1 0 .842.613l2.166-2.977a.52.52 0 1 0-.842-.613zm.5 10.689-2.948 2.205a.52.52 0 1 0 .623.834l2.949-2.205a.52.52 0 1 0-.624-.834zM151.066 5.906l-2.782-2.412a.52.52 0 1 0-.682.787l2.782 2.412a.52.52 0 1 0 .682-.787zm-.22 10.774-2.185-2.964a.52.52 0 1 0-.838.618l2.184 2.964a.52.52 0 1 0 .838-.618zm-.24 10.67L149 24.037a.52.52 0 1 0-.937.454l1.605 3.313a.52.52 0 1 0 .937-.454zm-.168 10.547-1.226-3.472a.52.52 0 1 0-.982.347l1.226 3.471a.52.52 0 1 0 .982-.346zm-.023 10.43-1.175-3.49a.52.52 0 1 0-.987.332l1.175 3.49a.52.52 0 1 0 .987-.333zm.143 10.304-1.497-3.364a.52.52 0 1 0-.951.424l1.497 3.364a.52.52 0 1 0 .951-.424zm.27 10.14-2.14-2.997a.52.52 0 1 0-.847.604l2.138 2.997a.52.52 0 1 0 .848-.604zm.282 9.928-2.916-2.247a.52.52 0 1 0-.636.825l2.916 2.247a.52.52 0 1 0 .636-.825zm.137 9.737-3.524-1.066a.52.52 0 1 0-.302.997l3.524 1.066a.52.52 0 1 0 .302-.997zm-.134 9.674-3.663.373a.52.52 0 1 0 .105 1.036l3.663-.373a.52.52 0 1 0-.105-1.036zm-.393 9.8-3.257 1.715a.52.52 0 1 0 .485.922l3.258-1.716a.52.52 0 1 0-.486-.921zm-.502 10.035-2.525 2.68a.52.52 0 1 0 .757.713l2.526-2.679a.52.52 0 1 0-.758-.714zm-.446 10.248-1.786 3.22a.52.52 0 1 0 .91.504l1.786-3.219a.52.52 0 1 0-.91-.505zm-.294 10.368-1.266 3.457a.52.52 0 1 0 .978.358l1.266-3.457a.52.52 0 1 0-.978-.358zm-.127 10.408-1.034 3.533a.52.52 0 1 0 1 .293l1.034-3.533a.52.52 0 1 0-1-.293zm.019 10.414-1.068 3.523a.52.52 0 1 0 .996.302l1.068-3.523a.52.52 0 1 0-.996-.302zm.143 10.421-1.329 3.434a.52.52 0 1 0 .971.376l1.329-3.434a.52.52 0 1 0-.971-.376zm.267 10.458-1.8 3.211a.52.52 0 1 0 .908.51l1.8-3.212a.52.52 0 1 0-.908-.509zm.413 10.564-2.486 2.716a.52.52 0 1 0 .768.703l2.486-2.715a.52.52 0 1 0-.768-.704zm.523 10.8-3.252 1.726a.52.52 0 1 0 .488.92l3.252-1.725a.52.52 0 1 0-.488-.92zM161.294 6.22l-2.274-2.896a.52.52 0 1 0-.819.643l2.274 2.896a.52.52 0 1 0 .819-.643zm-.197 10.644-1.788-3.219a.52.52 0 1 0-.91.506l1.787 3.218a.52.52 0 1 0 .91-.505zm-.148 10.545-1.445-3.386a.52.52 0 1 0-.958.409l1.445 3.386a.52.52 0 1 0 .958-.409zm-.037 10.443-1.36-3.42a.52.52 0 1 0-.968.384l1.36 3.421a.52.52 0 1 0 .968-.385zm.099 10.332-1.587-3.322a.52.52 0 1 0-.94.449l1.587 3.322a.52.52 0 1 0 .94-.449zm.212 10.195-2.094-3.028a.52.52 0 1 0-.857.592l2.094 3.028a.52.52 0 1 0 .857-.592zm.247 10.028-2.754-2.444a.52.52 0 1 0-.691.78l2.754 2.443a.52.52 0 1 0 .691-.78zm.17 9.864-3.356-1.515a.52.52 0 1 0-.429.95l3.356 1.514a.52.52 0 1 0 .429-.95zm-.014 9.767-3.669-.311a.52.52 0 1 0-.088 1.037l3.669.312a.52.52 0 1 0 .088-1.038zm-.239 9.792-3.552.965a.52.52 0 1 0 .273 1.005l3.552-.966a.52.52 0 1 0-.273-1.004zm-.405 9.936-3.051 2.061a.52.52 0 1 0 .582.863l3.051-2.06a.52.52 0 1 0-.582-.864zm-.443 10.134-2.378 2.81a.52.52 0 1 0 .795.673l2.378-2.81a.52.52 0 1 0-.795-.673zm-.357 10.292-1.78 3.223a.52.52 0 1 0 .911.503l1.78-3.223a.52.52 0 1 0-.911-.503zm-.215 10.376-1.402 3.405a.52.52 0 1 0 .963.396l1.402-3.405a.52.52 0 1 0-.963-.396zm-.07 10.407-1.276 3.453a.52.52 0 1 0 .976.361l1.277-3.453a.52.52 0 1 0-.976-.361zm.061 10.419-1.386 3.41a.52.52 0 1 0 .965.393l1.386-3.411a.52.52 0 1 0-.965-.392zm.179 10.442-1.702 3.264a.52.52 0 1 0 .923.482l1.702-3.265a.52.52 0 1 0-.923-.481zm.29 10.498-2.196 2.955a.52.52 0 1 0 .836.621l2.196-2.954a.52.52 0 1 0-.835-.622zm.41 10.629-2.841 2.342a.52.52 0 1 0 .663.804l2.84-2.343a.52.52 0 1 0-.663-.803zm.47 10.878-3.468 1.236a.52.52 0 1 0 .35.98l3.467-1.235a.52.52 0 1 0-.35-.981zM171.424 6.53l-1.586-3.323a.52.52 0 1 0-.94.449l1.586 3.322a.52.52 0 1 0 .94-.448zm-.17 10.546-1.203-3.48a.52.52 0 1 0-.984.34l1.203 3.48a.52.52 0 1 0 .985-.34zm-.064 10.457-1.06-3.526a.52.52 0 1 0-.998.3l1.06 3.525a.52.52 0 1 0 .998-.3zm.071 10.365-1.218-3.474a.52.52 0 1 0-.982.344l1.218 3.475a.52.52 0 1 0 .982-.345zm.198 10.254-1.667-3.283a.52.52 0 1 0-.929.472l1.667 3.283a.52.52 0 1 0 .929-.472zm.264 10.113-2.314-2.864a.52.52 0 1 0-.81.654l2.314 2.864a.52.52 0 1 0 .81-.654zm.235 9.964-2.985-2.155a.52.52 0 1 0-.61.844l2.986 2.155a.52.52 0 1 0 .61-.844zm.113 9.858-3.485-1.186a.52.52 0 1 0-.335.986l3.485 1.186a.52.52 0 1 0 .335-.986zm-.058 9.835-3.68-.085a.52.52 0 1 0-.024 1.041l3.68.085a.52.52 0 1 0 .024-1.04zm-.216 9.9-3.549.98a.52.52 0 1 0 .277 1.003l3.549-.979a.52.52 0 1 0-.277-1.004zm-.314 10.022-3.172 1.869a.52.52 0 1 0 .528.897l3.172-1.868a.52.52 0 1 0-.528-.898zm-.325 10.164-2.701 2.501a.52.52 0 1 0 .707.764l2.701-2.501a.52.52 0 1 0-.707-.764zm-.258 10.282-2.293 2.88a.52.52 0 1 0 .815.649l2.293-2.881a.52.52 0 1 0-.815-.648zm-.152 10.357-2.04 3.064a.52.52 0 1 0 .866.577l2.04-3.064a.52.52 0 1 0-.866-.577zm-.04 10.4-1.973 3.109a.52.52 0 1 0 .879.558l1.973-3.108a.52.52 0 1 0-.879-.558zm.069 10.436-2.09 3.032a.52.52 0 1 0 .858.59l2.09-3.031a.52.52 0 1 0-.858-.59zm.167 10.48-2.364 2.822a.52.52 0 1 0 .798.669l2.364-2.823a.52.52 0 1 0-.798-.669zm.25 10.549-2.757 2.44a.52.52 0 1 0 .69.779l2.758-2.44a.52.52 0 1 0-.69-.78zm.331 10.682-3.229 1.769a.52.52 0 1 0 .5.913l3.23-1.77a.52.52 0 1 0-.5-.912zm.352 10.908-3.62.668a.52.52 0 1 0 .188 1.024l3.62-.668a.52.52 0 1 0-.188-1.024zm9.58-195.312-.746-3.605a.52.52 0 1 0-1.02.21l.747 3.606a.52.52 0 1 0 1.02-.211zm-.15 10.483-.431-3.656a.52.52 0 1 0-1.035.122l.432 3.656a.52.52 0 1 0 1.034-.122zm.001 10.413-.434-3.656a.52.52 0 1 0-1.034.123l.434 3.656a.52.52 0 1 0 1.034-.123zm.162 10.337-.774-3.6a.52.52 0 1 0-1.018.22l.774 3.6a.52.52 0 1 0 1.018-.22zm.285 10.229-1.399-3.406a.52.52 0 1 0-.963.395l1.399 3.406a.52.52 0 1 0 .963-.395zm.326 10.087-2.173-2.972a.52.52 0 1 0-.84.614l2.172 2.972a.52.52 0 1 0 .84-.614zm.265 9.956-2.903-2.264a.52.52 0 1 0-.64.82l2.902 2.265a.52.52 0 1 0 .64-.82zm.13 9.891-3.418-1.365a.52.52 0 1 0-.387.967l3.42 1.365a.52.52 0 1 0 .386-.967zm-.013 9.911-3.657-.428a.52.52 0 1 0-.12 1.034l3.656.428a.52.52 0 1 0 .12-1.034zm-.119 9.991-3.658.417a.52.52 0 1 0 .118 1.034l3.658-.416a.52.52 0 1 0-.118-1.035zm-.171 10.089-3.511 1.108a.52.52 0 1 0 .313.993l3.511-1.108a.52.52 0 1 0-.313-.993zm-.179 10.182-3.301 1.63a.52.52 0 1 0 .46.934l3.302-1.63a.52.52 0 1 0-.46-.934zm-.147 10.267-3.105 1.978a.52.52 0 1 0 .559.878l3.105-1.978a.52.52 0 1 0-.559-.878zm-.091 10.337-2.977 2.167a.52.52 0 1 0 .613.842l2.977-2.167a.52.52 0 1 0-.613-.842zm-.025 10.395-2.94 2.214a.52.52 0 1 0 .625.832l2.942-2.214a.52.52 0 1 0-.627-.832zm.048 10.45-3.01 2.121a.52.52 0 1 0 .6.852l3.01-2.121a.52.52 0 1 0-.6-.852zm.11 10.51-3.163 1.885a.52.52 0 1 0 .533.895l3.163-1.886a.52.52 0 1 0-.534-.894zm.156 10.58-3.365 1.495a.52.52 0 1 0 .423.952l3.365-1.495a.52.52 0 1 0-.423-.952zm.194 10.695-3.577.871a.52.52 0 1 0 .246 1.012l3.578-.87a.52.52 0 1 0-.247-1.013zm.188 10.878-3.681-.087a.52.52 0 1 0-.025 1.041l3.681.087a.52.52 0 1 0 .025-1.04zm8.995-195.515.17-3.678a.52.52 0 1 0-1.04-.048l-.17 3.678a.52.52 0 1 0 1.04.048zm-.153 10.442.47-3.651a.52.52 0 1 0-1.033-.133l-.47 3.652a.52.52 0 1 0 1.033.132zm.039 10.408.395-3.66a.52.52 0 1 0-1.036-.112l-.395 3.66a.52.52 0 1 0 1.036.112zm.222 10.361-.044-3.681a.52.52 0 1 0-1.042.013l.045 3.681a.52.52 0 1 0 1.041-.013zm.357 10.268-.782-3.598a.52.52 0 1 0-1.017.221l.782 3.598a.52.52 0 1 0 1.018-.221zm.397 10.131-1.665-3.283a.52.52 0 1 0-.929.47l1.666 3.284a.52.52 0 1 0 .928-.47zm.333 10.01-2.492-2.71a.52.52 0 1 0-.767.705l2.492 2.71a.52.52 0 1 0 .767-.705zm.202 9.963-3.103-1.982a.52.52 0 1 0-.56.878l3.103 1.981a.52.52 0 1 0 .56-.877zm.076 10.002-3.46-1.26a.52.52 0 1 0-.356.979l3.46 1.26a.52.52 0 1 0 .356-.98zm-.004 10.09-3.622-.66a.52.52 0 1 0-.186 1.025l3.621.66a.52.52 0 1 0 .187-1.024zm-.037 10.18-3.676-.208a.52.52 0 1 0-.058 1.04l3.675.208a.52.52 0 1 0 .06-1.04zm-.046 10.243-3.68.133a.52.52 0 1 0 .038 1.04l3.68-.132a.52.52 0 1 0-.038-1.041zm-.044 10.292-3.662.38a.52.52 0 1 0 .108 1.036l3.662-.38a.52.52 0 1 0-.108-1.036zm-.03 10.343-3.643.526a.52.52 0 1 0 .148 1.03l3.644-.525a.52.52 0 1 0-.148-1.03zm-.007 10.396-3.639.563a.52.52 0 1 0 .16 1.03l3.638-.564a.52.52 0 1 0-.16-1.03zm.015 10.449-3.649.49a.52.52 0 1 0 .139 1.031l3.649-.49a.52.52 0 1 0-.139-1.031zm.036 10.5-3.669.31a.52.52 0 1 0 .087 1.037l3.67-.309a.52.52 0 1 0-.088-1.037zm.046 10.554-3.681.026a.52.52 0 1 0 .007 1.041l3.681-.026a.52.52 0 1 0-.007-1.041zm.05 10.635-3.658-.411a.52.52 0 1 0-.116 1.034l3.658.412a.52.52 0 1 0 .117-1.035zm.026 10.768-3.52-1.081a.52.52 0 1 0-.305.995l3.519 1.082a.52.52 0 1 0 .306-.996zm8.466-195.985 1.065-3.525a.52.52 0 1 0-.996-.301l-1.065 3.524a.52.52 0 1 0 .996.302zm-.178 10.401 1.39-3.409a.52.52 0 1 0-.965-.393l-1.39 3.41a.52.52 0 1 0 .965.392zm.04 10.418 1.318-3.438a.52.52 0 1 0-.973-.373l-1.317 3.438a.52.52 0 1 0 .972.373zm.241 10.42.874-3.577a.52.52 0 1 0-1.011-.247L200.458 38a.52.52 0 1 0 1.011.247zm.393 10.358.118-3.68a.52.52 0 1 0-1.04-.033l-.12 3.68a.52.52 0 1 0 1.042.033zm.45 10.239-.808-3.592a.52.52 0 1 0-1.016.228l.809 3.592a.52.52 0 1 0 1.016-.228zm.403 10.122-1.706-3.263a.52.52 0 1 0-.923.482l1.706 3.263a.52.52 0 1 0 .923-.482zm.282 10.076-2.405-2.787a.52.52 0 1 0-.788.68l2.405 2.788a.52.52 0 1 0 .788-.68zm.16 10.12-2.855-2.326a.52.52 0 1 0-.658.807l2.855 2.326a.52.52 0 1 0 .658-.808zm.074 10.21-3.099-1.989a.52.52 0 1 0-.562.877l3.099 1.988a.52.52 0 1 0 .562-.876zm.031 10.297-3.217-1.79a.52.52 0 1 0-.506.91l3.217 1.79a.52.52 0 1 0 .506-.91zm.015 10.347-3.28-1.674a.52.52 0 1 0-.473.928l3.28 1.673a.52.52 0 1 0 .473-.927zm.009 10.365-3.32-1.59a.52.52 0 1 0-.45.94l3.32 1.59a.52.52 0 1 0 .45-.94zm.005 10.385-3.344-1.54a.52.52 0 1 0-.436.947l3.344 1.54a.52.52 0 1 0 .436-.947zm0 10.406-3.35-1.526a.52.52 0 1 0-.431.948l3.35 1.526a.52.52 0 1 0 .432-.948zm-.001 10.428-3.339-1.552a.52.52 0 1 0-.439.944l3.339 1.553a.52.52 0 1 0 .439-.945zm-.006 10.449-3.31-1.614a.52.52 0 1 0-.456.936l3.31 1.614a.52.52 0 1 0 .456-.936zm-.01 10.468-3.261-1.71a.52.52 0 1 0-.484.923l3.26 1.71a.52.52 0 1 0 .484-.923zm-.023 10.508-3.17-1.873a.52.52 0 1 0-.53.897l3.17 1.872a.52.52 0 1 0 .53-.896zm-.057 10.593-2.97-2.175a.52.52 0 1 0-.616.84l2.97 2.175a.52.52 0 1 0 .616-.84z" transform="matrix(19.55249 0 0 19.55249 46.003 -1355.222)"/></svg>