<svg class="generator__canvas" width="4096" height="4096" xmlns:xlink="http://www.w3.org/1999/xlink" xmlns="http://www.w3.org/2000/svg"><defs><linearGradient id="a"><stop style="stop-color:#e66100;stop-opacity:1" offset="0"/><stop style="stop-color:#ffbe6f;stop-opacity:1" offset="1"/></linearGradient><linearGradient xlink:href="#a" id="b" x1="539.117" y1="417.283" x2="321.527" y2="641.856" gradientUnits="userSpaceOnUse" gradientTransform="rotate(171.206 2373.158 2604.255) scale(5.0903)"/></defs><path style="fill:#241f31;fill-opacity:1;stroke-width:39.7908;stroke-linecap:round;-inkscape-stroke:none;stop-color:#000" d="M-285.45-66.475h4578.586v4243.11H-285.45Z"/><path d="m4012.949 4007.13-58.09-42.527z" style="fill:#26a269;stroke-width:19.5525"/><path style="fill:url(#b);fill-opacity:1;fill-rule:nonzero;stroke:none;stroke-width:20.361;stroke-linecap:round" d="M151.919 125.06 88.236 91.51a10.18 10.18 0 1 0-9.502 18.008l63.702 33.552a10.176 10.176 0 1 0 9.483-18.008zm-1.799 209.604-57.23-43.7a10.177 10.177 0 1 0-12.338 16.19l57.21 43.68a10.183 10.183 0 1 0 12.358-16.19zm-2.992 209.563L98.58 491.064a10.18 10.18 0 1 0-15.036 13.726l48.549 53.183a10.186 10.186 0 1 0 15.035-13.746zm-3.187 208-40.336-59.636a10.187 10.187 0 1 0-16.874 11.42l40.337 59.634a10.187 10.187 0 1 0 16.873-11.418zm-2.287 206.083-34.804-62.998a10.182 10.182 0 1 0-17.832 9.835l34.804 63.017a10.187 10.187 0 1 0 17.832-9.854zm-1.447 204.968-31.44-64.777a10.183 10.183 0 1 0-18.321 8.896l31.42 64.778a10.183 10.183 0 1 0 18.321-8.896zm-1.818 205.106-27.276-66.576a10.181 10.181 0 1 0-18.849 7.704l27.295 66.615a10.172 10.172 0 1 0 18.83-7.704zm-3.618 206.162-19.22-69.373a10.175 10.175 0 1 0-19.61 5.436l19.22 69.372a10.175 10.175 0 1 0 19.61-5.435zm-6.882 206.865-4.771-71.816a10.18 10.18 0 1 0-20.315 1.349l4.77 71.836a10.19 10.19 0 1 0 20.335-1.37zm-10.793 205.75 16.346-70.115a10.178 10.178 0 1 0-19.826-4.614l-16.346 70.096a10.18 10.18 0 1 0 19.826 4.634zm-13.59 201.724L144 2129.367a10.174 10.174 0 1 0-16.815-11.458l-40.532 59.498a10.182 10.182 0 1 0 16.834 11.458zm-12.962 196.111 60.612-38.85a10.18 10.18 0 1 0-11.008-17.129l-60.593 38.851a10.183 10.183 0 1 0 10.989 17.148zM81.9 2577.354l70.722-13.472a10.181 10.181 0 1 0-3.813-20.002l-70.721 13.471a10.181 10.181 0 1 0 3.812 20.003zm-3.46 192.983 71.562 8.016a10.18 10.18 0 1 0 2.248-20.237L80.71 2750.1a10.182 10.182 0 1 0-2.268 20.237zm-.49 197.734 69.393 19.161a10.182 10.182 0 1 0 5.416-19.63l-69.412-19.162a10.18 10.18 0 1 0-5.396 19.631zm0 204.617 69.9 17.284a10.181 10.181 0 1 0 4.889-19.767l-69.88-17.285a10.181 10.181 0 1 0-4.889 19.768zm1.193 211.753 71.973 1.565a10.18 10.18 0 1 0 .43-20.355l-71.953-1.564a10.19 10.19 0 1 0-.45 20.374zm6.218 216.564 67.26-25.653a10.184 10.184 0 1 0-7.273-19.025l-67.26 25.653a10.184 10.184 0 1 0 7.273 19.025zm14.547 215.331 46.437-55a10.184 10.184 0 1 0-15.563-13.14l-46.418 55.02a10.17 10.17 0 1 0 15.544 13.12zm20.96 206.533 9.151-71.405a10.181 10.181 0 1 0-20.198-2.581l-9.13 71.405a10.171 10.171 0 1 0 20.177 2.581zM355.91 123.027l-65.442-29.993a10.184 10.184 0 1 0-8.486 18.516l65.442 29.994a10.184 10.184 0 1 0 8.486-18.517zm-3.207 213.983-54.082-47.513a10.176 10.176 0 1 0-13.432 15.29L339.25 352.3a10.183 10.183 0 1 0 13.452-15.29zm-6.198 212.77-37.814-61.238a10.18 10.18 0 1 0-17.324 10.695l37.815 61.258a10.185 10.185 0 1 0 17.323-10.715zm-7.215 209.74-21.195-68.786a10.177 10.177 0 1 0-19.454 5.983l21.175 68.805a10.19 10.19 0 1 0 19.474-6.002zm-6.237 206.865-7.958-71.562a10.18 10.18 0 1 0-20.237 2.248l7.958 71.563a10.18 10.18 0 1 0 20.237-2.249zm-4.712 205.164 1.603-71.953a10.18 10.18 0 1 0-20.354-.47l-1.603 71.954a10.17 10.17 0 1 0 20.334.47zm-4.223 204.441 9.854-71.308a10.174 10.174 0 1 0-20.159-2.776l-9.874 71.308a10.184 10.184 0 1 0 20.179 2.776zm-5.025 203.972 19.357-69.333a10.18 10.18 0 1 0-19.612-5.475l-19.357 69.333a10.18 10.18 0 1 0 19.612 5.475zm-6.629 203.033 31.323-64.817a10.184 10.184 0 1 0-18.34-8.857l-31.303 64.816a10.175 10.175 0 1 0 18.32 8.858zm-8.094 201.214 45.068-56.115a10.187 10.187 0 1 0-15.877-12.768l-45.107 56.135a10.18 10.18 0 1 0 15.876 12.748zm-8.408 198.673 58.032-42.605a10.176 10.176 0 1 0-12.045-16.404l-58.031 42.624a10.174 10.174 0 1 0 12.064 16.385zm-6.941 196.522 67.182-25.829a10.182 10.182 0 1 0-7.312-19.005l-67.183 25.849a10.173 10.173 0 1 0 7.313 18.985zm-4.34 196.17 71.327-9.776a10.184 10.184 0 1 0-2.777-20.178l-71.308 9.776a10.183 10.183 0 1 0 2.757 20.178zm-1.839 198.321 71.953.978a10.178 10.178 0 1 0 .294-20.354l-71.973-.978a10.178 10.178 0 1 0-.274 20.354zm-.234 202.701 71.933 2.776a10.175 10.175 0 1 0 .782-20.334l-71.953-2.777a10.175 10.175 0 1 0-.782 20.335zm1.486 208.351 71.66-6.784a10.173 10.173 0 1 0-1.917-20.257l-71.66 6.765a10.183 10.183 0 1 0 1.917 20.276zm5.592 213.357 66.42-27.765a10.175 10.175 0 1 0-7.86-18.77l-66.42 27.765a10.175 10.175 0 1 0 7.86 18.77zm12.963 214.002 47.845-53.789a10.18 10.18 0 1 0-15.212-13.53l-47.845 53.77a10.186 10.186 0 1 0 15.212 13.55zm20.1 207.159 12.474-70.898a10.184 10.184 0 1 0-20.06-3.52l-12.475 70.898a10.184 10.184 0 1 0 20.06 3.52zm20.471 194.86-30.013-65.423a10.184 10.184 0 1 0-18.516 8.486l30.033 65.442a10.18 10.18 0 1 0 18.496-8.505zM559.803 120.74 492.621 94.89a10.182 10.182 0 1 0-7.313 19.005l67.183 25.849a10.182 10.182 0 1 0 7.312-19.005zm-4.223 217.736-51.97-49.8a10.171 10.171 0 1 0-14.078 14.684l51.97 49.82a10.178 10.178 0 1 0 14.078-14.704zm-9.346 215.019-28.684-66.029a10.18 10.18 0 1 0-18.672 8.115l28.683 66.028a10.18 10.18 0 1 0 18.673-8.114zm-11.36 209.955-4.302-71.856a10.186 10.186 0 1 0-20.334 1.232l4.301 71.855a10.186 10.186 0 1 0 20.335-1.231zm-9.952 205.633 15.153-70.389a10.18 10.18 0 1 0-19.905-4.282l-15.153 70.39a10.18 10.18 0 1 0 19.905 4.281zm-7.332 203.346 28.605-66.048a10.176 10.176 0 1 0-18.673-8.095l-28.625 66.048a10.185 10.185 0 1 0 18.693 8.095zm-5.475 202.466 38.127-61.062a10.18 10.18 0 1 0-17.265-10.793l-38.127 61.062a10.18 10.18 0 1 0 17.265 10.793zm-4.634 201.919 45.83-55.53a10.174 10.174 0 1 0-15.7-12.943l-45.83 55.529a10.174 10.174 0 1 0 15.7 12.944zm-4.439 201.293 52.831-48.882a10.184 10.184 0 1 0-13.823-14.957l-52.831 48.88a10.184 10.184 0 1 0 13.823 14.959zm-4.32 200.51 59.243-40.903a10.183 10.183 0 1 0-11.575-16.757l-59.244 40.904a10.183 10.183 0 1 0 11.575 16.756zm-3.892 199.905 64.485-32.007a10.183 10.183 0 1 0-9.053-18.243l-64.484 32.008a10.183 10.183 0 1 0 9.052 18.242zm-2.932 199.924 67.984-23.639a10.172 10.172 0 1 0-6.668-19.22l-68.003 23.62a10.184 10.184 0 1 0 6.687 19.24zm-1.682 200.96 69.724-17.85a10.191 10.191 0 1 0-5.044-19.749l-69.744 17.89a10.175 10.175 0 1 0 5.064 19.71zm-.196 203.268 69.92-17.108a10.177 10.177 0 1 0-4.849-19.768l-69.92 17.09a10.184 10.184 0 1 0 4.83 19.786zm1.8 206.494 68.081-23.404a10.184 10.184 0 1 0-6.628-19.26l-68.062 23.405a10.18 10.18 0 1 0 6.608 19.26zm5.415 209.798 61.297-37.716a10.178 10.178 0 1 0-10.656-17.343l-61.316 37.736a10.174 10.174 0 1 0 10.675 17.323zm11.458 210.835 43.856-57.093a10.18 10.18 0 1 0-16.15-12.397l-43.837 57.094a10.172 10.172 0 1 0 16.131 12.396zm18.184 206.025 11.438-71.093a10.179 10.179 0 1 0-20.1-3.226l-11.438 71.073a10.19 10.19 0 1 0 20.12 3.246zm19.748 195.055-29.603-65.598a10.186 10.186 0 1 0-18.574 8.368l29.622 65.618a10.19 10.19 0 1 0 18.575-8.388zm12.122 184.439-62.079-36.446a10.18 10.18 0 1 0-10.304 17.558l62.08 36.446a10.18 10.18 0 1 0 10.303-17.558zM763.56 118.296l-68.727-21.45a10.18 10.18 0 1 0-6.061 19.436l68.707 21.449a10.18 10.18 0 1 0 6.061-19.435zm-4.673 220.708-51.13-50.66a10.183 10.183 0 1 0-14.332 14.469l51.15 50.64a10.176 10.176 0 1 0 14.312-14.468zM746.92 555.626l-22.153-68.492a10.18 10.18 0 1 0-19.377 6.257l22.173 68.492a10.172 10.172 0 1 0 19.357-6.257zm-14.743 209.407 8.193-71.523a10.184 10.184 0 1 0-20.237-2.307l-8.173 71.523a10.174 10.174 0 1 0 20.217 2.307zm-12.592 203.522 31.46-64.758a10.183 10.183 0 1 0-18.32-8.896l-31.46 64.758a10.183 10.183 0 1 0 18.32 8.896zm-8.681 200.941 46.144-55.255a10.189 10.189 0 1 0-15.642-13.061l-46.144 55.255a10.189 10.189 0 1 0 15.642 13.061zm-5.475 200.59 54.689-46.81a10.179 10.179 0 1 0-13.237-15.466l-54.689 46.81a10.171 10.171 0 1 0 13.237 15.446zm-3.441 201.018 59.713-40.22a10.176 10.176 0 1 0-11.38-16.873l-59.693 40.22a10.17 10.17 0 1 0 11.36 16.873zm-2.21 201.586 62.745-35.292a10.181 10.181 0 1 0-9.972-17.753l-62.764 35.292a10.186 10.186 0 1 0 9.992 17.753zm-1.407 202.115 64.582-31.793a10.187 10.187 0 1 0-8.994-18.281l-64.582 31.812a10.178 10.178 0 1 0 8.994 18.262zm-.724 202.778 65.482-29.895a10.18 10.18 0 1 0-8.467-18.517l-65.48 29.916a10.171 10.171 0 1 0 8.465 18.497zm.079 203.698 65.383-30.11a10.17 10.17 0 1 0-8.505-18.478l-65.403 30.111a10.174 10.174 0 1 0 8.525 18.477zm1.173 204.95 63.897-33.181a10.18 10.18 0 1 0-9.385-18.067l-63.878 33.161a10.188 10.188 0 1 0 9.385 18.086zm2.933 206.396 59.928-39.888a10.181 10.181 0 1 0-11.282-16.952l-59.928 39.888a10.181 10.181 0 1 0 11.282 16.952zm5.787 207.686 51.345-50.465a10.183 10.183 0 1 0-14.273-14.527l-51.345 50.465a10.183 10.183 0 1 0 14.273 14.527zm10.226 207.589 34.49-63.194a10.172 10.172 0 1 0-17.85-9.756l-34.51 63.193a10.18 10.18 0 1 0 17.87 9.757zm15.388 203.854 6.14-71.718a10.185 10.185 0 1 0-20.296-1.74l-6.12 71.738a10.174 10.174 0 1 0 20.276 1.72zm17.5 195.095-30.737-65.11a10.176 10.176 0 1 0-18.399 8.701l30.717 65.11a10.185 10.185 0 1 0 18.418-8.701zm11.574 184.986-61.922-36.68a10.182 10.182 0 1 0-10.383 17.519l61.943 36.68a10.177 10.177 0 1 0 10.362-17.519zm-.977 181.252-71.816 5.24a10.185 10.185 0 1 0 1.486 20.315l71.796-5.26a10.175 10.175 0 1 0-1.486-20.295zM967.14 116.164l-69.823-17.499a10.181 10.181 0 1 0-4.966 19.748l69.822 17.52a10.181 10.181 0 1 0 4.966-19.749zm-4.693 222.899-51.032-50.758a10.183 10.183 0 1 0-14.371 14.43l51.032 50.758a10.183 10.183 0 1 0 14.37-14.43zm-13.883 217.776-17.91-69.725a10.175 10.175 0 1 0-19.708 5.064l17.89 69.725a10.175 10.175 0 1 0 19.709-5.064zM931.36 765.483l16.6-70.037a10.177 10.177 0 1 0-19.806-4.692l-16.62 70.037a10.177 10.177 0 1 0 19.807 4.692zm-14.214 201.469 41.783-58.618a10.176 10.176 0 1 0-16.56-11.83l-41.804 58.619a10.184 10.184 0 1 0 16.58 11.829zm-9.053 198.868 56.076-45.107a10.18 10.18 0 1 0-12.748-15.877l-56.115 45.127a10.185 10.185 0 1 0 12.787 15.857zm-4.908 199.436 62.998-34.804a10.187 10.187 0 1 0-9.854-17.832l-62.998 34.823a10.187 10.187 0 1 0 9.854 17.832zm-2.268 201.136 65.892-29.035a10.181 10.181 0 1 0-8.212-18.634l-65.892 29.036a10.181 10.181 0 1 0 8.212 18.633zm-.587 202.877 66.577-27.374a10.18 10.18 0 1 0-7.743-18.829l-66.576 27.374a10.18 10.18 0 1 0 7.742 18.829zm.646 204.402 65.794-29.192a10.18 10.18 0 1 0-8.251-18.614l-65.794 29.192a10.18 10.18 0 1 0 8.25 18.614zm1.818 205.633 63.507-33.884a10.182 10.182 0 1 0-9.581-17.97l-63.526 33.885a10.19 10.19 0 1 0 9.58 17.989zm3.129 206.533 59.224-40.943a10.175 10.175 0 1 0-11.575-16.737l-59.225 40.924a10.183 10.183 0 1 0 11.576 16.756zm4.849 207.002 52.01-49.76a10.171 10.171 0 1 0-14.06-14.704l-52.009 49.741a10.178 10.178 0 1 0 14.059 14.723zm7.117 206.846 40.552-59.479a10.18 10.18 0 1 0-16.816-11.477l-40.571 59.479a10.18 10.18 0 1 0 16.815 11.477zm10.01 205.497 22.994-68.238a10.18 10.18 0 1 0-19.298-6.492L908.6 2998.69a10.18 10.18 0 1 0 19.299 6.492zm13.1 201.918-2.15-71.953a10.172 10.172 0 1 0-20.335.587l2.112 71.953a10.181 10.181 0 1 0 20.354-.587zm14.352 195.193-33.141-63.898a10.18 10.18 0 1 0-18.067 9.385l33.142 63.898a10.18 10.18 0 1 0 18.066-9.385zm10.363 186.648-61.2-37.893a10.182 10.182 0 1 0-10.734 17.304l61.2 37.893a10.182 10.182 0 1 0 10.734-17.304zm-.313 181.975-71.953 2.346a10.173 10.173 0 1 0 .665 20.335l71.953-2.346a10.173 10.173 0 1 0-.665-20.335zm-12.064 185.925-58.892 41.392a10.182 10.182 0 1 0 11.712 16.659l58.892-41.393a10.182 10.182 0 1 0-11.712-16.658zM1170.682 114.62l-70.487-14.586a10.183 10.183 0 1 0-4.125 19.943l70.486 14.567a10.183 10.183 0 1 0 4.126-19.944zm-4.595 224.443-51.052-50.758a10.19 10.19 0 1 0-14.37 14.449l51.05 50.739a10.183 10.183 0 1 0 14.372-14.43zM1150.836 557.6l-14.977-70.408a10.193 10.193 0 1 0-19.944 4.223l14.997 70.428a10.176 10.176 0 1 0 19.904-4.243zm-18.868 207.902 22.192-68.473a10.178 10.178 0 1 0-19.357-6.296l-22.212 68.492a10.172 10.172 0 1 0 19.357 6.257zm-15.095 199.807 48.139-53.535a10.176 10.176 0 1 0-15.134-13.609l-48.138 53.515a10.183 10.183 0 1 0 15.133 13.629zm-8.935 197.44 61.473-37.442a10.187 10.187 0 1 0-10.598-17.402l-61.473 37.462a10.187 10.187 0 1 0 10.598 17.402zm-4.243 198.967 66.889-26.611a10.184 10.184 0 1 0-7.528-18.927l-66.87 26.591a10.19 10.19 0 1 0 7.509 18.947zm-1.35 201.723 68.395-22.427a10.184 10.184 0 1 0-6.335-19.357l-68.394 22.446a10.184 10.184 0 1 0 6.335 19.357zm.587 204.46 67.77-24.304a10.18 10.18 0 1 0-6.883-19.161l-67.77 24.284a10.18 10.18 0 1 0 6.883 19.162zm2.327 206.533 64.993-30.951a10.18 10.18 0 1 0-8.76-18.38l-64.992 30.952a10.18 10.18 0 1 0 8.76 18.38zm4.302 207.784 59.205-40.923a10.183 10.183 0 1 0-11.575-16.756l-59.205 40.943a10.175 10.175 0 1 0 11.575 16.736zm6.51 207.941 49.41-52.361a10.18 10.18 0 1 0-14.801-13.98l-49.41 52.361a10.18 10.18 0 1 0 14.802 13.98zm8.838 206.866 34.765-63.018a10.182 10.182 0 1 0-17.832-9.835l-34.764 63.037a10.177 10.177 0 1 0 17.831 9.816zm10.872 204.519 15.094-70.39a10.18 10.18 0 1 0-19.904-4.281l-15.095 70.389a10.18 10.18 0 1 0 19.905 4.282zm12.259 200.686-9.131-71.405a10.181 10.181 0 1 0-20.198 2.58l9.131 71.406a10.181 10.181 0 1 0 20.198-2.58zm12.123 195.33-35.918-62.412a10.179 10.179 0 1 0-17.637 10.167l35.899 62.373a10.174 10.174 0 1 0 17.636-10.148zm8.837 188.877-60.006-39.77a10.179 10.179 0 1 0-11.243 16.972l60.007 39.77a10.179 10.179 0 1 0 11.242-16.972zm.88 184.067-71.875-4.047a10.183 10.183 0 1 0-1.134 20.334l71.875 4.047a10.183 10.183 0 1 0 1.134-20.334zm-9.854 185.494-63.096 34.667a10.173 10.173 0 1 0 9.796 17.832l63.096-34.647a10.181 10.181 0 1 0-9.796-17.852zm-17.128 193.707-36.583 61.981a10.186 10.186 0 1 0 17.539 10.363l36.582-61.981a10.186 10.186 0 1 0-17.538-10.363zM1374.204 113.7l-70.82-12.846a10.175 10.175 0 1 0-3.636 20.022l70.838 12.865a10.184 10.184 0 1 0 3.637-20.041zm-4.497 225.362-51.071-50.758a10.183 10.183 0 1 0-14.352 14.449l51.052 50.739a10.176 10.176 0 1 0 14.351-14.43zm-16.073 218.949-13.276-70.76a10.185 10.185 0 1 0-20.021 3.753l13.276 70.76a10.185 10.185 0 1 0 20.021-3.753zm-19.806 207.373 25.36-67.358a10.176 10.176 0 1 0-19.045-7.176l-25.36 67.359a10.176 10.176 0 1 0 19.045 7.175zm-15.486 198.771 51.501-50.289a10.176 10.176 0 1 0-14.214-14.567l-51.501 50.29a10.176 10.176 0 1 0 14.214 14.566zm-8.72 196.698 64.034-32.907a10.179 10.179 0 1 0-9.307-18.105l-64.034 32.887a10.179 10.179 0 1 0 9.307 18.105zm-3.696 198.947 68.434-22.349a10.18 10.18 0 1 0-6.315-19.357l-68.434 22.349a10.18 10.18 0 1 0 6.315 19.357zm-.664 202.544 69.137-20.08a10.182 10.182 0 1 0-5.69-19.553l-69.137 20.1a10.182 10.182 0 1 0 5.69 19.552zm1.603 205.966 67.397-25.282a10.181 10.181 0 1 0-7.156-19.063l-67.397 25.3a10.181 10.181 0 1 0 7.156 19.064zm4.106 208.312 62.255-36.113a10.18 10.18 0 1 0-10.206-17.617l-62.275 36.113a10.171 10.171 0 1 0 10.206 17.597zm7.058 208.997 51.99-49.8a10.178 10.178 0 1 0-14.077-14.704l-51.99 49.8a10.178 10.178 0 1 0 14.077 14.704zm10.09 207.686 35.448-62.646a10.179 10.179 0 1 0-17.715-10.03l-35.448 62.646a10.179 10.179 0 1 0 17.714 10.03zm12.2 204.52 13.335-70.742a10.176 10.176 0 1 0-20.002-3.754l-13.335 70.741a10.178 10.178 0 1 0 20.002 3.774zm12.768 200.119-12.123-70.956a10.187 10.187 0 1 0-20.08 3.441l12.123 70.956a10.187 10.187 0 1 0 20.08-3.441zm11.36 195.251-37.54-61.414a10.184 10.184 0 1 0-17.383 10.617l37.54 61.414a10.184 10.184 0 1 0 17.383-10.617zm7.86 190.539-58.95-41.314a10.176 10.176 0 1 0-11.693 16.658l58.95 41.315a10.176 10.176 0 1 0 11.693-16.659zm1.838 186.922-71.093-11.38a10.179 10.179 0 1 0-3.226 20.1l71.093 11.38a10.179 10.179 0 1 0 3.226-20.1zm-6.53 186.492-67.965 23.736a10.178 10.178 0 1 0 6.707 19.22l67.964-23.736a10.178 10.178 0 1 0-6.706-19.22zm-14.293 191.418-47.884 53.77a10.186 10.186 0 1 0 15.211 13.55l47.884-53.77a10.18 10.18 0 1 0-15.211-13.53zm-17.05 199.886-18.262 69.606a10.18 10.18 0 1 0 19.69 5.182l18.261-69.627a10.177 10.177 0 1 0-19.69-5.161zm241.532-3834.948-70.898-12.513a10.184 10.184 0 1 0-3.52 20.06l70.879 12.514a10.185 10.185 0 1 0 3.539-20.06zm-4.497 225.538-51.091-50.738a10.183 10.183 0 1 0-14.351 14.449l51.07 50.739a10.176 10.176 0 1 0 14.352-14.43zm-16.229 219.027-12.924-70.819a10.186 10.186 0 1 0-20.041 3.657l12.924 70.819a10.176 10.176 0 1 0 20.022-3.657zm-20.002 207.257 26.005-67.104a10.174 10.174 0 1 0-18.966-7.372l-26.005 67.124a10.174 10.174 0 1 0 18.966 7.371zm-15.544 198.555 52.166-49.604a10.179 10.179 0 1 0-14.039-14.743l-52.166 49.605a10.179 10.179 0 1 0 14.039 14.742zm-8.584 196.64 64.387-32.184a10.183 10.183 0 1 0-9.092-18.223l-64.387 32.184a10.183 10.183 0 1 0 9.092 18.223zm-3.324 199.357 68.336-22.564a10.19 10.19 0 1 0-6.374-19.357l-68.355 22.583a10.18 10.18 0 1 0 6.374 19.338zm-.039 203.58 68.375-22.524a10.18 10.18 0 1 0-6.374-19.338l-68.336 22.564a10.187 10.187 0 1 0 6.355 19.357zm2.894 207.354 64.992-30.951a10.18 10.18 0 1 0-8.76-18.38l-64.992 30.952a10.18 10.18 0 1 0 8.76 18.38zm6.374 209.388 56.194-44.99a10.176 10.176 0 1 0-12.71-15.896l-56.193 44.97a10.184 10.184 0 1 0 12.71 15.916zm10.285 208.762 39.867-59.928a10.181 10.181 0 1 0-16.952-11.282l-39.867 59.948a10.176 10.176 0 1 0 16.952 11.262zm13.295 205.36 16.17-70.135a10.174 10.174 0 1 0-19.826-4.575l-16.209 70.135a10.183 10.183 0 1 0 19.846 4.575zm13.922 200.178-11.419-71.073a10.179 10.179 0 1 0-20.1 3.226l11.419 71.073a10.179 10.179 0 1 0 20.1-3.226zm11.829 194.939-37.854-61.22a10.18 10.18 0 1 0-17.323 10.696l37.854 61.238a10.18 10.18 0 1 0 17.323-10.695zm7.586 191.067-58.481-41.96a10.18 10.18 0 1 0-11.868 16.541l58.481 41.96a10.18 10.18 0 1 0 11.868-16.541zm2.17 188.916-70.193-15.897a10.184 10.184 0 1 0-4.497 19.866l70.194 15.896a10.184 10.184 0 1 0 4.497-19.865zm-3.968 188.7-70.663 13.805a10.18 10.18 0 1 0 3.91 19.982l70.643-13.804a10.18 10.18 0 1 0-3.91-19.982zm-10.226 191.126-58.267 42.273a10.184 10.184 0 1 0 11.966 16.483l58.267-42.293a10.176 10.176 0 1 0-11.966-16.463zm-14.371 196.62-35.312 62.744a10.181 10.181 0 1 0 17.753 9.972l35.293-62.725a10.173 10.173 0 1 0-17.734-9.971zm-14.215 202.955-9.327 71.386a10.185 10.185 0 1 0 20.198 2.64l9.327-71.367a10.186 10.186 0 1 0-20.198-2.659zm246.322-3834.732-70.702-13.55a10.183 10.183 0 1 0-3.832 20.002l70.702 13.53a10.173 10.173 0 1 0 3.832-19.982zm-4.556 224.99-51.051-50.758a10.183 10.183 0 1 0-14.352 14.45l51.032 50.738a10.183 10.183 0 1 0 14.371-14.43zm-15.74 218.793-13.96-70.624a10.175 10.175 0 1 0-19.963 3.95l13.94 70.604a10.183 10.183 0 1 0 19.984-3.93zm-19.435 207.589 24.109-67.848a10.176 10.176 0 1 0-19.181-6.804l-24.109 67.847a10.176 10.176 0 1 0 19.181 6.805zm-15.31 199.2 50.153-51.657a10.177 10.177 0 1 0-14.606-14.176l-50.152 51.658a10.177 10.177 0 1 0 14.606 14.175zm-8.485 197.344 62.568-35.586a10.183 10.183 0 1 0-10.05-17.715l-62.568 35.586a10.183 10.183 0 1 0 10.05 17.715zm-2.972 200.295 66.361-27.92a10.182 10.182 0 1 0-7.9-18.771l-66.36 27.94a10.182 10.182 0 1 0 7.899 18.77zm.978 204.773 65.168-30.58a10.177 10.177 0 1 0-8.662-18.418l-65.168 30.58a10.177 10.177 0 1 0 8.662 18.419zm4.849 208.293 58.618-41.783a10.178 10.178 0 1 0-11.81-16.581l-58.618 41.764a10.186 10.186 0 1 0 11.81 16.6zm9.385 209.095 44.13-56.86a10.186 10.186 0 1 0-16.092-12.493l-44.13 56.878a10.18 10.18 0 1 0 16.092 12.475zm13.452 206.337 20.647-68.962a10.185 10.185 0 1 0-19.513-5.846l-20.647 68.981a10.182 10.182 0 1 0 19.513 5.827zm15.016 200.706-8.681-71.464a10.183 10.183 0 1 0-20.217 2.463l8.681 71.465a10.183 10.183 0 1 0 20.217-2.464zm12.866 194.665-37.189-61.63a10.184 10.184 0 1 0-17.44 10.52l37.188 61.63a10.184 10.184 0 1 0 17.44-10.52zm7.899 190.656-58.618-41.784a10.178 10.178 0 1 0-11.81 16.581l58.618 41.784a10.178 10.178 0 1 0 11.81-16.58zm2.15 189.464-69.997-16.737a10.182 10.182 0 1 0-4.732 19.807l69.998 16.756a10.182 10.182 0 1 0 4.732-19.807zm-2.971 190.441-71.386 9.229a10.182 10.182 0 1 0 2.6 20.198l71.386-9.23a10.182 10.182 0 1 0-2.6-20.197zm-7.254 192.572-63.741 33.474a10.18 10.18 0 1 0 9.463 18.028l63.741-33.474a10.18 10.18 0 1 0-9.463-18.027zm-10.598 195.819-48.216 53.456a10.183 10.183 0 1 0 15.134 13.628l48.216-53.456a10.183 10.183 0 1 0-15.134-13.628zm-11.848 200.022-28.117 66.283a10.176 10.176 0 1 0 18.731 7.958l28.117-66.283a10.172 10.172 0 1 0-18.731-7.939zm-10.11 203.737-9.365 71.366a10.185 10.185 0 1 0 20.198 2.64l9.366-71.367a10.186 10.186 0 1 0-20.198-2.659zm246.362-3833.56-70.193-15.895a10.184 10.184 0 1 0-4.497 19.865l70.193 15.896a10.184 10.184 0 1 0 4.497-19.865zm-4.634 223.76-51.051-50.759a10.176 10.176 0 1 0-14.352 14.43l51.032 50.758a10.183 10.183 0 1 0 14.371-14.43zm-14.664 218.205-16.268-70.115a10.176 10.176 0 1 0-19.826 4.595l16.268 70.135a10.188 10.188 0 1 0 19.846-4.615zm-18.106 208.254 19.71-69.216a10.178 10.178 0 1 0-19.573-5.592l-19.728 69.235a10.184 10.184 0 1 0 19.591 5.573zm-14.547 200.647 45.088-56.115a10.187 10.187 0 1 0-15.876-12.768l-45.088 56.116a10.187 10.187 0 1 0 15.876 12.767zm-8.075 198.908 57.582-43.192a10.175 10.175 0 1 0-12.2-16.287l-57.641 43.192a10.181 10.181 0 1 0 12.22 16.287zm-2.288 201.723 60.809-38.538a10.187 10.187 0 1 0-10.91-17.206l-60.809 38.538a10.187 10.187 0 1 0 10.91 17.206zm2.601 205.731 57.093-43.837a10.18 10.18 0 1 0-12.396-16.15l-57.093 43.837a10.18 10.18 0 1 0 12.396 16.15zm7.625 208 45.284-55.96a10.184 10.184 0 1 0-15.838-12.807l-45.283 55.96a10.184 10.184 0 1 0 15.838 12.807zm12.553 206.572 23.58-68.024a10.172 10.172 0 1 0-19.22-6.667l-23.6 68.004a10.184 10.184 0 1 0 19.24 6.687zm15.29 201.292-5.944-71.757a10.174 10.174 0 1 0-20.276 1.701l5.925 71.738a10.183 10.183 0 1 0 20.295-1.682zm13.785 194.567-36.192-62.216a10.176 10.176 0 1 0-17.597 10.226l36.172 62.236a10.181 10.181 0 1 0 17.597-10.246zm8.446 189.855-59.048-41.178a10.181 10.181 0 1 0-11.653 16.698l59.048 41.178a10.181 10.181 0 1 0 11.653-16.698zm1.975 188.916-70.389-14.997a10.178 10.178 0 1 0-4.262 19.905l70.408 14.997a10.176 10.176 0 1 0 4.243-19.905zm-3.128 190.93-71.269 10.109a10.181 10.181 0 1 0 2.874 20.158l71.269-10.108a10.18 10.18 0 1 0-2.855-20.159zm-6.16 193.98-64.894 31.167a10.184 10.184 0 1 0 8.818 18.36l64.895-31.167a10.18 10.18 0 1 0-8.799-18.36zm-7.82 196.914-53.887 47.727a10.18 10.18 0 1 0 13.491 15.251l53.887-47.747a10.18 10.18 0 1 0-13.491-15.25zm-8.682 199.494-39.965 59.87a10.179 10.179 0 1 0 16.933 11.3l39.965-59.869a10.179 10.179 0 1 0-16.933-11.301zm-8.036 201.957-25.946 67.144a10.189 10.189 0 1 0 19.005 7.351l25.927-67.163a10.176 10.176 0 1 0-18.986-7.332zm-5.337 203.503-16.131 70.154a10.181 10.181 0 1 0 19.845 4.556l16.131-70.155a10.181 10.181 0 1 0-19.845-4.555zm242.88-3831.31-69.333-19.416a10.18 10.18 0 1 0-5.474 19.61l69.313 19.397a10.18 10.18 0 1 0 5.475-19.611zm-4.712 221.881-51.032-50.778a10.176 10.176 0 1 0-14.351 14.43l51.032 50.778a10.176 10.176 0 1 0 14.351-14.43zm-13.06 217.267-19.71-69.235a10.175 10.175 0 1 0-19.572 5.572l19.71 69.216a10.172 10.172 0 1 0 19.571-5.553zm-16.034 209.016 12.846-70.838a10.184 10.184 0 1 0-20.041-3.637l-12.846 70.819a10.175 10.175 0 1 0 20.022 3.637zM2142.07 967.95l36.309-62.138a10.191 10.191 0 1 0-17.597-10.284l-36.29 62.177a10.178 10.178 0 1 0 17.578 10.265zm-6.96 201.058 47.844-53.769a10.18 10.18 0 1 0-15.212-13.53l-47.845 53.769a10.18 10.18 0 1 0 15.212 13.53zm-.841 203.19 49.194-52.538a10.181 10.181 0 1 0-14.86-13.921l-49.214 52.537a10.181 10.181 0 1 0 14.86 13.922zm4.946 205.731 41.139-59.068a10.184 10.184 0 1 0-16.718-11.634l-41.158 59.03a10.183 10.183 0 1 0 16.718 11.633zm10.52 205.614 22.72-68.297a10.19 10.19 0 1 0-19.338-6.433l-22.7 68.317a10.177 10.177 0 1 0 19.318 6.413zm14.332 201.45-4.967-71.817a10.192 10.192 0 1 0-20.334 1.408l5.005 71.816a10.172 10.172 0 1 0 20.296-1.408zm13.98 194.703-35.508-62.627a10.183 10.183 0 1 0-17.714 10.05l35.507 62.607a10.179 10.179 0 1 0 17.715-10.03zm8.857 189.19-59.479-40.571a10.18 10.18 0 1 0-11.477 16.815l59.479 40.571a10.18 10.18 0 1 0 11.477-16.815zm1.72 187.88-70.916-12.338a10.18 10.18 0 1 0-3.48 20.061l70.916 12.318a10.17 10.17 0 1 0 3.48-20.041zm-3.87 190.46-70.605 14.02a10.185 10.185 0 1 0 3.95 19.982l70.623-14.019a10.187 10.187 0 1 0-3.969-19.982zm-6.492 194.548-63.35 34.217a10.184 10.184 0 1 0 9.698 17.91l63.33-34.217a10.179 10.179 0 1 0-9.678-17.91zm-6.863 198.047-53.555 48.1a10.183 10.183 0 1 0 13.609 15.152l53.554-48.099a10.183 10.183 0 1 0-13.608-15.153zm-6.355 200.394-43.465 57.386a10.181 10.181 0 1 0 16.229 12.299l43.465-57.387a10.181 10.181 0 1 0-16.229-12.298zm-5.553 201.918-34.06 63.428a10.174 10.174 0 1 0 17.93 9.62l34.06-63.408a10.178 10.178 0 1 0-17.93-9.64zm-3.734 202.994-27.472 66.537a10.174 10.174 0 1 0 18.81 7.763l27.471-66.538a10.174 10.174 0 1 0-18.81-7.762zm-.352 203.561-26.846 66.791a10.177 10.177 0 1 0 18.888 7.587l26.865-66.772a10.19 10.19 0 1 0-18.907-7.606zM2392.36 119.762l-67.847-24.089a10.189 10.189 0 1 0-6.823 19.201l67.847 24.07a10.176 10.176 0 1 0 6.804-19.182zm-4.731 219.477-50.798-51.013a10.183 10.183 0 1 0-14.43 14.371l50.798 51.013a10.183 10.183 0 1 0 14.43-14.371zm-11.047 215.86-23.913-67.906a10.188 10.188 0 1 0-19.22 6.765l23.932 67.905a10.179 10.179 0 1 0 19.2-6.765zm-13.198 209.504L2367 692.71a10.18 10.18 0 1 0-20.335-1.037l-3.617 71.895a10.18 10.18 0 1 0 20.335 1.036zm-10.441 204.5 23.404-68.082a10.184 10.184 0 1 0-19.26-6.628l-23.384 68.081a10.175 10.175 0 1 0 19.24 6.629zm-4.889 203.013 32.164-64.406a10.183 10.183 0 1 0-18.223-9.092l-32.163 64.387a10.178 10.178 0 1 0 18.203 9.111zm1.291 203.815 29.876-65.5a10.172 10.172 0 1 0-18.516-8.428l-29.896 65.482a10.185 10.185 0 1 0 18.536 8.446zm7.332 204.011 16.502-70.076a10.183 10.183 0 1 0-19.826-4.654l-16.483 70.077a10.173 10.173 0 1 0 19.807 4.653zM2368.702 1781l-7.117-71.64a10.178 10.178 0 1 0-20.257 2.014l7.118 71.64a10.178 10.178 0 1 0 20.256-2.014zm12.983 195.017-35.644-62.529a10.18 10.18 0 1 0-17.695 10.07l35.644 62.548a10.185 10.185 0 1 0 17.695-10.09zm8.857 189.112-59.635-40.337a10.182 10.182 0 1 0-11.4 16.874l59.636 40.336a10.182 10.182 0 1 0 11.4-16.873zm1.564 187.058-71.21-10.5a10.179 10.179 0 1 0-2.972 20.14l71.21 10.519a10.179 10.179 0 1 0 2.972-20.14zm-4.751 189.62-69.724 17.91a10.175 10.175 0 1 0 5.064 19.71l69.724-17.91a10.177 10.177 0 1 0-5.084-19.71zm-7.626 194.352-60.475 39.027a10.183 10.183 0 1 0 11.047 17.108l60.476-39.027a10.177 10.177 0 1 0-11.028-17.108zm-7.273 198.595-49.624 52.127a10.179 10.179 0 1 0 14.742 14.038l49.644-52.127a10.186 10.186 0 1 0-14.762-14.038zm-5.533 201.234-40.61 59.44a10.18 10.18 0 1 0 16.814 11.477l40.591-59.44a10.18 10.18 0 1 0-16.815-11.477zm-3.774 202.564-34.178 63.35a10.183 10.183 0 1 0 17.93 9.659l34.158-63.35a10.174 10.174 0 1 0-17.91-9.66zm-2.073 203.209-30.54 65.168a10.181 10.181 0 1 0 18.437 8.642l30.541-65.188a10.177 10.177 0 1 0-18.438-8.622zm.47 203.678-31.382 64.797a10.188 10.188 0 1 0 18.34 8.877l31.362-64.797a10.188 10.188 0 1 0-18.34-8.877zm4.243 204.617-38.714 60.71a10.19 10.19 0 1 0 17.186 10.95l38.695-60.71a10.18 10.18 0 1 0-17.167-10.95zm229.78-3826.872-65.324-30.248a10.183 10.183 0 1 0-8.564 18.477l65.325 30.248a10.183 10.183 0 1 0 8.564-18.477zm-4.692 216.641-49.8-51.95a10.178 10.178 0 1 0-14.704 14.077l49.8 51.97a10.178 10.178 0 1 0 14.704-14.077zm-8.838 213.866-28.077-66.283a10.181 10.181 0 1 0-18.751 7.938l28.077 66.283a10.181 10.181 0 1 0 18.751-7.938zm-9.776 209.27-7-71.66a10.176 10.176 0 1 0-20.256 1.975l6.98 71.66a10.176 10.176 0 1 0 20.256-1.975zm-7.117 205.594 7.234-71.62a10.18 10.18 0 1 0-20.256-2.034l-7.235 71.62a10.18 10.18 0 1 0 20.257 2.034zm-2.151 203.933 11.4-71.074a10.188 10.188 0 1 0-20.12-3.226l-11.38 71.073a10.179 10.179 0 1 0 20.1 3.227zm3.52 203.013 4.555-71.836a10.188 10.188 0 1 0-20.334-1.29l-4.537 71.855a10.187 10.187 0 1 0 20.335 1.271zm8.564 200.648-12.847-70.82a10.173 10.173 0 1 0-20.021 3.618l12.826 70.839a10.184 10.184 0 1 0 20.042-3.637zm10.753 195.7-36.895-61.805a10.189 10.189 0 1 0-17.5 10.441l36.915 61.786a10.175 10.175 0 1 0 17.48-10.421zm8.232 189.934-59.322-40.787a10.18 10.18 0 1 0-11.536 16.776l59.322 40.787a10.18 10.18 0 1 0 11.536-16.776zm1.701 187-71.171-10.93a10.186 10.186 0 1 0-3.07 20.139l71.152 10.91a10.187 10.187 0 1 0 3.089-20.139zm-5.142 188.818-69.392 19.162a10.182 10.182 0 1 0 5.416 19.63l69.411-19.161a10.185 10.185 0 1 0-5.435-19.631zm-8.74 193.687-58.403 42.097a10.189 10.189 0 1 0 11.927 16.521l58.383-42.096a10.183 10.183 0 1 0-11.907-16.522zm-8.506 198.536-45.303 55.96a10.184 10.184 0 1 0 15.838 12.806l45.283-55.94a10.182 10.182 0 1 0-15.818-12.826zm-6.1 201.586-35.058 62.881a10.184 10.184 0 1 0 17.793 9.913l35.058-62.861a10.184 10.184 0 1 0-17.793-9.913zm-3.324 202.994-29.23 65.775a10.175 10.175 0 1 0 18.594 8.27l29.23-65.774a10.175 10.175 0 1 0-18.594-8.27zm-1.036 203.463-27.374 66.577a10.17 10.17 0 1 0 18.81 7.742l27.393-66.556a10.183 10.183 0 1 0-18.83-7.763zm1.134 203.757-29.407 65.696a10.178 10.178 0 1 0 18.575 8.33l29.426-65.697a10.178 10.178 0 1 0-18.575-8.33zm4.106 204.46-36.563 62.001a10.186 10.186 0 1 0 17.538 10.363l36.564-62.04a10.184 10.184 0 1 0-17.559-10.324zm7.743 206.592-49.35 52.4a10.18 10.18 0 1 0 14.82 13.961l49.35-52.4a10.18 10.18 0 1 0-14.82-13.961zM2798.21 127.68l-61.12-38.05a10.178 10.178 0 1 0-10.754 17.285l61.101 38.05a10.178 10.178 0 1 0 10.754-17.285zm-4.594 213.63-47.376-54.2a10.178 10.178 0 1 0-15.33 13.394l47.376 54.2a10.178 10.178 0 1 0 15.33-13.394zm-6.668 211.304-30.97-64.973a10.18 10.18 0 1 0-18.38 8.76l30.97 64.973a10.18 10.18 0 1 0 18.38-8.76zm-6.335 208.097-16.893-69.978a10.189 10.189 0 1 0-19.807 4.79l16.913 69.979a10.18 10.18 0 1 0 19.787-4.79zm-3.558 205.38-9.385-71.367a10.185 10.185 0 1 0-20.198 2.64l9.385 71.366a10.185 10.185 0 1 0 20.198-2.64zm.665 203.306-10.754-71.17a10.184 10.184 0 1 0-20.14 3.05l10.754 71.17a10.184 10.184 0 1 0 20.14-3.05zm4.966 200.883-21.41-68.727a10.18 10.18 0 1 0-19.435 6.061l21.41 68.727a10.18 10.18 0 1 0 19.435-6.061zm7.743 196.893-39.262-60.339a10.182 10.182 0 1 0-17.07 11.106l39.262 60.34a10.182 10.182 0 1 0 17.07-11.107zm7 191.732-58.443-42.018a10.177 10.177 0 1 0-11.888 16.522l58.462 42.037a10.18 10.18 0 1 0 11.868-16.541zm2.15 188.095-70.545-14.39a10.177 10.177 0 1 0-4.067 19.943l70.526 14.39a10.177 10.177 0 1 0 4.067-19.943zm-4.458 188.486-70.193 15.935a10.184 10.184 0 1 0 4.497 19.866l70.193-15.955a10.174 10.174 0 1 0-4.497-19.846zm-9.013 192.67-59.244 40.904a10.177 10.177 0 1 0 11.555 16.757l59.244-40.904a10.177 10.177 0 1 0-11.556-16.757zm-9.698 197.813-44.326 56.722a10.175 10.175 0 1 0 16.033 12.533l44.326-56.703a10.181 10.181 0 1 0-16.033-12.552zm-7.45 201.43-31.675 64.66a10.187 10.187 0 1 0 18.301 8.955l31.656-64.66a10.179 10.179 0 1 0-18.282-8.955zm-4.184 203.091-24.187 67.808a10.173 10.173 0 1 0 19.162 6.844l24.206-67.808a10.183 10.183 0 1 0-19.181-6.844zm-1.173 203.542-22.036 68.55a10.175 10.175 0 1 0 19.376 6.218l22.036-68.531a10.184 10.184 0 1 0-19.396-6.218zm1.231 203.678-24.303 67.769a10.177 10.177 0 1 0 19.161 6.863l24.304-67.75a10.18 10.18 0 1 0-19.162-6.882zm3.657 204.05-30.854 65.031a10.185 10.185 0 1 0 18.399 8.74l30.854-65.05a10.172 10.172 0 1 0-18.38-8.721zm6.726 205.399-42.35 58.207a10.182 10.182 0 1 0 16.462 11.986l42.351-58.208a10.182 10.182 0 1 0-16.463-11.985zm9.776 208.996-57.64 43.113a10.177 10.177 0 1 0 12.18 16.307l57.66-43.113a10.183 10.183 0 1 0-12.2-16.307zm214.726-3822.98-54.396-47.161a10.18 10.18 0 1 0-13.334 15.387l54.395 47.161a10.18 10.18 0 1 0 13.334-15.388zm-4.302 210.658-42.722-57.954a10.18 10.18 0 1 0-16.385 12.084l42.702 57.953a10.18 10.18 0 1 0 16.385-12.083zm-4.693 208.625-31.401-64.778a10.179 10.179 0 1 0-18.32 8.877l31.381 64.778a10.179 10.179 0 1 0 18.32-8.877zm-3.284 206.22-23.972-67.886a10.182 10.182 0 1 0-19.2 6.784l23.97 67.867a10.179 10.179 0 1 0 19.202-6.765zm-.45 203.932-22.974-68.238a10.18 10.18 0 1 0-19.299 6.492l22.975 68.238a10.184 10.184 0 1 0 19.298-6.511zm2.796 201.47-29.27-65.775a10.18 10.18 0 1 0-18.595 8.29l29.27 65.774a10.18 10.18 0 1 0 18.595-8.29zm5.279 198.261-41.842-58.598a10.17 10.17 0 1 0-16.561 11.81l41.803 58.598a10.178 10.178 0 1 0 16.58-11.81zm5.514 194.118-57.015-43.935a10.184 10.184 0 1 0-12.436 16.13l57.015 43.935a10.184 10.184 0 1 0 12.436-16.13zm2.679 190.382L2934.356 1726a10.184 10.184 0 1 0-5.905 19.494l68.903 20.843a10.184 10.184 0 1 0 5.905-19.494zm-2.62 189.15-71.621 7.294a10.18 10.18 0 1 0 2.053 20.256l71.62-7.293a10.18 10.18 0 1 0-2.053-20.256zm-7.685 191.615-63.682 33.533a10.185 10.185 0 1 0 9.483 18.027l63.702-33.552a10.18 10.18 0 1 0-9.503-18.008zm-9.815 196.21-49.37 52.4a10.167 10.167 0 1 0 14.801 13.941l49.39-52.381a10.18 10.18 0 1 0-14.821-13.96zm-8.72 200.373-34.921 62.96a10.17 10.17 0 1 0 17.793 9.854l34.92-62.94a10.174 10.174 0 1 0-17.792-9.874zm-5.749 202.72-24.753 67.594a10.182 10.182 0 1 0 19.122 7l24.753-67.594a10.182 10.182 0 1 0-19.122-7zm-2.483 203.503-20.217 69.079a10.187 10.187 0 1 0 19.552 5.729l20.217-69.08a10.187 10.187 0 1 0-19.552-5.728zm.371 203.62-20.882 68.883a10.175 10.175 0 1 0 19.475 5.905l20.882-68.883a10.175 10.175 0 1 0-19.475-5.905zm2.796 203.756-25.985 67.143a10.18 10.18 0 1 0 18.986 7.352l25.985-67.143a10.18 10.18 0 1 0-18.986-7.352zm5.221 204.48-35.194 62.783a10.181 10.181 0 1 0 17.753 9.972l35.195-62.803a10.176 10.176 0 1 0-17.754-9.952zm8.075 206.553-48.607 53.104a10.179 10.179 0 1 0 15.016 13.746l48.607-53.086a10.185 10.185 0 1 0-15.016-13.764zm10.226 211.166-63.585 33.748a10.181 10.181 0 1 0 9.542 17.988l63.585-33.728a10.181 10.181 0 1 0-9.542-17.988zm206.826-3820.673L3155.24 82.69a10.18 10.18 0 1 0-16.014 12.572l44.463 56.624a10.18 10.18 0 1 0 16.013-12.572zm-3.852 208.116-34.96-62.94a10.18 10.18 0 1 0-17.792 9.894l34.94 62.92a10.174 10.174 0 1 0 17.793-9.874zm-2.893 206.181-28.254-66.204a10.183 10.183 0 1 0-18.73 7.997l28.252 66.204a10.183 10.183 0 1 0 18.732-7.997zm-.724 204.187-26.591-66.87a10.18 10.18 0 1 0-18.927 7.509l26.592 66.889a10.184 10.184 0 1 0 18.926-7.528zm1.936 202.016-31.03-64.953a10.184 10.184 0 1 0-18.38 8.779l31.03 64.953a10.184 10.184 0 1 0 18.38-8.779zm4.145 199.338-40.943-59.205a10.183 10.183 0 1 0-16.756 11.575l40.943 59.205a10.183 10.183 0 1 0 16.756-11.575zm4.83 196.072-53.848-47.786a10.187 10.187 0 1 0-13.51 15.25l53.847 47.768a10.187 10.187 0 1 0 13.51-15.251zm3.324 192.866-65.619-29.622a10.19 10.19 0 1 0-8.388 18.575l65.619 29.602a10.19 10.19 0 1 0 8.388-18.574zm-.274 190.97-71.738-6.082a10.174 10.174 0 1 0-1.721 20.276l71.738 6.1a10.184 10.184 0 1 0 1.72-20.295zm-4.673 191.457-69.45 18.868a10.181 10.181 0 1 0 5.337 19.65l69.45-18.887a10.172 10.172 0 1 0-5.337-19.63zm-7.92 194.274-59.654 40.297a10.176 10.176 0 1 0 11.38 16.874l59.655-40.278a10.184 10.184 0 1 0-11.38-16.893zm-8.66 198.145-46.497 54.942a10.183 10.183 0 1 0 15.545 13.159l46.495-54.942a10.183 10.183 0 1 0-15.544-13.16zm-6.981 201.234-34.803 63.018a10.174 10.174 0 1 0 17.812 9.835l34.803-63.018a10.174 10.174 0 1 0-17.812-9.835zm-4.204 202.877-27.412 66.576a10.18 10.18 0 1 0 18.829 7.743l27.412-66.577a10.18 10.18 0 1 0-18.829-7.742zm-1.368 203.482-24.95 67.515a10.173 10.173 0 1 0 19.084 7.059l24.968-67.515a10.173 10.173 0 1 0-19.083-7.059zm1.192 203.718-27.1 66.674a10.186 10.186 0 1 0 18.869 7.684l27.1-66.694a10.183 10.183 0 1 0-18.869-7.664zm3.5 204.167-33.278 63.82a10.18 10.18 0 1 0 18.047 9.423l33.278-63.838a10.175 10.175 0 1 0-18.047-9.405zm5.67 205.262-42.937 57.777a10.181 10.181 0 1 0 16.346 12.143l42.937-57.758a10.18 10.18 0 1 0-16.326-12.162zm8.017 207.823-55.549 45.792a10.188 10.188 0 1 0 12.964 15.72l55.529-45.811a10.18 10.18 0 1 0-12.964-15.7zm9.19 212.692-67.808 24.167a10.173 10.173 0 1 0 6.843 19.162l67.788-24.148a10.183 10.183 0 1 0-6.843-19.18zm197.812-3818.816-31.01-64.973a10.184 10.184 0 1 0-18.38 8.78l31.01 64.952a10.18 10.18 0 1 0 18.38-8.76zm-3.324 206.2-23.522-68.042a10.178 10.178 0 1 0-19.24 6.648l23.522 68.042a10.187 10.187 0 1 0 19.26-6.648zm-1.251 204.46-20.726-68.941a10.188 10.188 0 1 0-19.513 5.866l20.725 68.922a10.188 10.188 0 1 0 19.514-5.866zm1.388 202.662-23.815-67.925a10.172 10.172 0 1 0-19.2 6.726l23.814 67.945a10.176 10.176 0 1 0 19.201-6.746zm3.871 200.492-32.594-64.191a10.187 10.187 0 1 0-18.164 9.229l32.594 64.19a10.187 10.187 0 1 0 18.164-9.228zm5.162 197.734-45.244-55.998a10.178 10.178 0 1 0-15.838 12.787l45.245 55.998a10.178 10.178 0 1 0 15.837-12.787zm4.595 194.82-58.364-42.135a10.18 10.18 0 1 0-11.927 16.503l58.384 42.135a10.18 10.18 0 1 0 11.927-16.502zm2.21 192.75-68.14-23.19a10.18 10.18 0 1 0-6.551 19.279l68.14 23.19a10.18 10.18 0 1 0 6.55-19.28zm-1.135 192.298-71.953-1.662a10.18 10.18 0 1 0-.469 20.354l71.953 1.662a10.17 10.17 0 1 0 .47-20.334zm-4.223 193.57-69.392 19.161a10.173 10.173 0 1 0 5.416 19.611l69.392-19.141a10.182 10.182 0 1 0-5.416-19.631zm-6.14 195.955-62.02 36.543a10.176 10.176 0 1 0 10.324 17.539l62.02-36.524a10.184 10.184 0 1 0-10.323-17.558zm-6.354 198.731-52.811 48.901a10.176 10.176 0 1 0 13.823 14.938l52.812-48.9a10.176 10.176 0 1 0-13.824-14.939zm-5.045 201.039-44.833 56.311a10.185 10.185 0 1 0 15.935 12.69l44.834-56.331a10.18 10.18 0 1 0-15.935-12.67zm-2.971 202.505-39.888 59.909a10.173 10.173 0 1 0 16.933 11.282l39.887-59.909a10.173 10.173 0 1 0-16.932-11.282zm-.783 203.346-38.577 60.789a10.179 10.179 0 1 0 17.187 10.91l38.577-60.77a10.179 10.179 0 1 0-17.187-10.91zm1.35 204.05-40.865 59.283a10.18 10.18 0 1 0 16.776 11.536l40.865-59.264a10.18 10.18 0 1 0-16.776-11.536zm3.265 204.91-46.222 55.177a10.18 10.18 0 1 0 15.603 13.08l46.222-55.196a10.18 10.18 0 1 0-15.603-13.08zm4.888 206.26-53.906 47.707a10.174 10.174 0 1 0 13.491 15.232l53.926-47.708a10.18 10.18 0 1 0-13.492-15.251zm6.472 208.859-63.135 34.588a10.177 10.177 0 1 0 9.776 17.852l63.155-34.608a10.168 10.168 0 1 0-9.777-17.832zm6.882 213.278-70.78 13.061a10.178 10.178 0 1 0 3.676 20.022l70.78-13.06a10.178 10.178 0 1 0-3.676-20.023zM3593.94 150.46l-14.586-70.487a10.18 10.18 0 1 0-19.944 4.106l14.606 70.506a10.183 10.183 0 1 0 19.944-4.125zm-2.933 204.968-8.427-71.484a10.188 10.188 0 1 0-20.237 2.386l8.447 71.484a10.179 10.179 0 1 0 20.217-2.386zm.02 203.6-8.485-71.484a10.18 10.18 0 1 0-20.218 2.405l8.486 71.484a10.18 10.18 0 1 0 20.217-2.405zm3.168 202.114-15.134-70.388a10.182 10.182 0 1 0-19.904 4.301l15.133 70.389a10.182 10.182 0 1 0 19.905-4.302zm5.572 200.003-27.354-66.596a10.176 10.176 0 1 0-18.829 7.723l27.354 66.596a10.176 10.176 0 1 0 18.83-7.723zm6.374 197.226-42.487-58.11a10.172 10.172 0 1 0-16.424 12.005l42.468 58.11a10.172 10.172 0 1 0 16.424-12.005zm5.182 194.664-56.761-44.266a10.17 10.17 0 1 0-12.514 16.033l56.742 44.286a10.17 10.17 0 1 0 12.513-16.033zm2.542 193.394-66.83-26.69a10.183 10.183 0 1 0-7.568 18.908l66.87 26.69a10.179 10.179 0 1 0 7.547-18.908zm-.255 193.785-71.503-8.369a10.176 10.176 0 1 0-2.346 20.218l71.484 8.368a10.176 10.176 0 1 0 2.346-20.217zm-2.326 195.349-71.523 8.153a10.174 10.174 0 1 0 2.307 20.217l71.523-8.133a10.184 10.184 0 1 0-2.307-20.237zm-3.344 197.265-68.649 21.664a10.179 10.179 0 1 0 6.12 19.416l68.65-21.665a10.179 10.179 0 1 0-6.12-19.415zm-3.5 199.083-64.542 31.87a10.178 10.178 0 1 0 8.994 18.263l64.562-31.87a10.178 10.178 0 1 0-8.994-18.263zm-2.874 200.746-60.71 38.674a10.176 10.176 0 1 0 10.93 17.168l60.71-38.675a10.176 10.176 0 1 0-10.93-17.167zm-1.78 202.114-58.207 42.37a10.182 10.182 0 1 0 11.986 16.463l58.207-42.37a10.182 10.182 0 1 0-11.985-16.463zm-.488 203.248-57.484 43.29a10.173 10.173 0 1 0 12.22 16.267l57.523-43.29a10.185 10.185 0 1 0-12.259-16.267zm.939 204.323-58.853 41.471a10.188 10.188 0 1 0 11.731 16.659l58.853-41.47a10.188 10.188 0 1 0-11.731-16.66zm2.15 205.497-61.844 36.857a10.184 10.184 0 1 0 10.421 17.499l61.845-36.876a10.18 10.18 0 1 0-10.441-17.48zm3.05 206.865-65.794 29.231a10.184 10.184 0 1 0 8.271 18.614l65.794-29.23a10.184 10.184 0 1 0-8.27-18.615zm3.794 209.114-69.94 17.03a10.182 10.182 0 1 0 4.81 19.788l69.96-17.011a10.193 10.193 0 1 0-4.83-19.807zm3.676 212.692-71.973-1.7a10.18 10.18 0 1 0-.489 20.353l71.973 1.701a10.17 10.17 0 1 0 .489-20.334zM3788.78 153.705l3.324-71.914a10.178 10.178 0 1 0-20.334-.938l-3.324 71.914a10.178 10.178 0 1 0 20.334.938zm-2.991 204.167 9.19-71.386a10.182 10.182 0 1 0-20.198-2.6l-9.19 71.405a10.181 10.181 0 1 0 20.198 2.581zm.762 203.503 7.723-71.562a10.187 10.187 0 1 0-20.256-2.19l-7.723 71.562a10.187 10.187 0 1 0 20.256 2.19zm4.34 202.583-.86-71.973a10.188 10.188 0 1 0-20.373.254l.88 71.973a10.178 10.178 0 1 0 20.354-.254zm6.981 200.765-15.29-70.35a10.174 10.174 0 1 0-19.885 4.321l15.29 70.35a10.184 10.184 0 1 0 19.905-4.321zm7.762 198.086-32.554-64.19a10.178 10.178 0 1 0-18.165 9.19l32.575 64.21a10.17 10.17 0 1 0 18.144-9.19zm6.511 195.72-48.724-52.987a10.185 10.185 0 1 0-14.997 13.785l48.725 52.987a10.185 10.185 0 1 0 14.996-13.784zm3.95 194.802-60.671-38.753a10.18 10.18 0 1 0-10.95 17.167l60.672 38.734a10.173 10.173 0 1 0 10.949-17.148zm1.486 195.564-67.652-24.636a10.184 10.184 0 1 0-6.96 19.142l67.651 24.636a10.193 10.193 0 1 0 6.961-19.161zm-.078 197.285-70.82-12.905a10.184 10.184 0 1 0-3.636 20.041l70.8 12.905a10.176 10.176 0 1 0 3.656-20.022zm-.723 199.044-71.875-4.067a10.183 10.183 0 1 0-1.134 20.335l71.855 4.067a10.184 10.184 0 1 0 1.173-20.335zm-.9 200.276-71.953 2.6a10.174 10.174 0 1 0 .743 20.335l71.953-2.58a10.184 10.184 0 1 0-.743-20.355zm-.86 201.234-71.601 7.43a10.183 10.183 0 1 0 2.111 20.257l71.602-7.43a10.183 10.183 0 1 0-2.112-20.256zm-.587 202.232-71.23 10.285a10.173 10.173 0 1 0 2.894 20.138l71.25-10.264a10.173 10.173 0 1 0-2.894-20.14zm-.137 203.268-71.151 11.008a10.19 10.19 0 1 0 3.128 20.139l71.132-11.028a10.19 10.19 0 1 0-3.128-20.139zm.294 204.304-71.347 9.58a10.17 10.17 0 1 0 2.718 20.159l71.347-9.58a10.17 10.17 0 1 0-2.718-20.16zm.704 205.3-71.738 6.062a10.174 10.174 0 1 0 1.7 20.276l71.758-6.042a10.174 10.174 0 1 0-1.72-20.276zm.899 206.358-71.973.508a10.177 10.177 0 1 0 .137 20.354l71.973-.508a10.177 10.177 0 1 0-.137-20.354zm.978 207.94-71.523-8.036a10.172 10.172 0 1 0-2.268 20.218l71.523 8.055a10.183 10.183 0 1 0 2.287-20.237zm.508 210.542-68.825-21.137a10.174 10.174 0 1 0-5.963 19.455l68.805 21.156a10.186 10.186 0 1 0 5.983-19.474zM3983.21 154.683l20.824-68.923a10.172 10.172 0 1 0-19.474-5.885l-20.824 68.903a10.175 10.175 0 1 0 19.474 5.905zm-3.48 203.365 27.178-66.654a10.186 10.186 0 1 0-18.868-7.684l-27.178 66.674a10.183 10.183 0 1 0 18.868 7.664zm.782 203.698 25.77-67.221a10.187 10.187 0 1 0-19.024-7.293l-25.75 67.221a10.178 10.178 0 1 0 19.004 7.293zm4.712 203.737 17.09-69.94a10.174 10.174 0 1 0-19.768-4.829l-17.09 69.979a10.175 10.175 0 1 0 19.768 4.83zm7.684 202.525 2.308-71.953a10.172 10.172 0 1 0-20.335-.646l-2.346 71.954a10.192 10.192 0 1 0 20.373.645zm8.8 200.198-15.8-70.233a10.18 10.18 0 1 0-19.865 4.458l15.818 70.233a10.18 10.18 0 1 0 19.866-4.458zm7.879 197.91-33.357-63.8a10.18 10.18 0 1 0-18.047 9.424l33.357 63.8a10.18 10.18 0 1 0 18.047-9.424zm5.514 197.01-47.024-54.492a10.176 10.176 0 1 0-15.408 13.296l47.024 54.512a10.175 10.175 0 1 0 15.407-13.296zm3.128 197.872-55.822-45.479a10.18 10.18 0 1 0-12.866 15.779l55.822 45.479a10.187 10.187 0 1 0 12.866-15.799zm1.447 199.631-60.593-38.89a10.183 10.183 0 1 0-10.989 17.148l60.593 38.87a10.175 10.175 0 1 0 10.989-17.128zm.606 201.332-62.9-34.999a10.18 10.18 0 1 0-9.894 17.793l62.9 34.999a10.18 10.18 0 1 0 9.894-17.793zm.293 202.31-64.132-32.731a10.183 10.183 0 1 0-9.248 18.145l64.132 32.71a10.174 10.174 0 1 0 9.248-18.124zm.176 202.661-64.914-31.088a10.188 10.188 0 1 0-8.799 18.38l64.915 31.087a10.188 10.188 0 1 0 8.798-18.379zm.098 203.053-65.383-30.111a10.192 10.192 0 1 0-8.525 18.516l65.383 30.111a10.192 10.192 0 1 0 8.525-18.516zm0 203.463-65.5-29.837a10.18 10.18 0 1 0-8.428 18.536l65.501 29.837a10.185 10.185 0 1 0 8.447-18.536zm-.019 203.893-65.286-30.345a10.178 10.178 0 1 0-8.583 18.457l65.286 30.366a10.187 10.187 0 1 0 8.583-18.478zm-.117 204.304-64.719-31.557a10.179 10.179 0 1 0-8.916 18.3l64.719 31.559a10.179 10.179 0 1 0 8.916-18.302zm-.196 204.676-63.76-33.435a10.189 10.189 0 1 0-9.464 18.047l63.741 33.435a10.189 10.189 0 1 0 9.464-18.047zm-.45 205.457-61.98-36.621a10.186 10.186 0 1 0-10.364 17.538l61.982 36.602a10.177 10.177 0 1 0 10.363-17.519zm-1.114 207.12-58.07-42.527a10.184 10.184 0 1 0-12.045 16.424l58.07 42.527a10.184 10.184 0 1 0 12.045-16.424z"/></svg>