<?xml version="1.0" encoding="UTF-8" standalone="no"?>
<svg
   class="generator__canvas"
   viewBox="0 0 4096 2160"
   version="1.1"
   id="svg802"
   sodipodi:docname="field-d.svg"
   inkscape:version="1.1.2 (0a00cf5339, 2022-02-04)"
   width="4096"
   height="2160"
   xmlns:inkscape="http://www.inkscape.org/namespaces/inkscape"
   xmlns:sodipodi="http://sodipodi.sourceforge.net/DTD/sodipodi-0.dtd"
   xmlns:xlink="http://www.w3.org/1999/xlink"
   xmlns="http://www.w3.org/2000/svg"
   xmlns:svg="http://www.w3.org/2000/svg">
  <defs
     id="defs806">
    <linearGradient
       inkscape:collect="always"
       id="linearGradient2018">
      <stop
         style="stop-color:#e66100;stop-opacity:1;"
         offset="0"
         id="stop2014" />
      <stop
         style="stop-color:#ffbe6f;stop-opacity:1"
         offset="1"
         id="stop2016" />
    </linearGradient>
    <inkscape:path-effect
       effect="join_type"
       id="path-effect1576"
       is_visible="true"
       lpeversion="1"
       linecap_type="round"
       line_width="1.0413447"
       linejoin_type="extrp_arc"
       miter_limit="100"
       attempt_force_join="true" />
    <inkscape:path-effect
       effect="fill_between_many"
       method="bsplinespiro"
       linkedpaths="#line800,0,1"
       id="path-effect1578" />
    <linearGradient
       inkscape:collect="always"
       xlink:href="#linearGradient2018"
       id="linearGradient2020"
       x1="539.117"
       y1="417.28336"
       x2="321.5267"
       y2="641.85596"
       gradientUnits="userSpaceOnUse"
       gradientTransform="matrix(-0.25727731,0.03979078,-0.03979078,-0.25727731,259.32957,245.3591)" />
  </defs>
  <sodipodi:namedview
     id="namedview804"
     pagecolor="#505050"
     bordercolor="#ffffff"
     borderopacity="1"
     inkscape:pageshadow="0"
     inkscape:pageopacity="0"
     inkscape:pagecheckerboard="1"
     showgrid="false"
     inkscape:current-layer="g1825"
     width="4096px"
     borderlayer="true"
     inkscape:showpageshadow="false" />
  <g
     id="g1825"
     transform="matrix(19.552487,0,0,19.552487,46.002749,-1355.2219)">
    <rect
       style="fill:#241f31;stroke-width:2;stroke-linecap:round;-inkscape-stroke:none;stop-color:#000000;fill-opacity:1"
       id="rect830"
       width="234.16898"
       height="209.59532"
       x="-16.951696"
       y="-4.3052115" />
    <path
       inkscape:original-d="M 0,0"
       inkscape:path-effect="#path-effect1578"
       d="m 202.88663,204.03667 -2.97068,-2.17487 z"
       id="path1580"
       style="fill:#26a269" />
    <path
       id="line800"
       style="fill:url(#linearGradient2020);fill-opacity:1;fill-rule:nonzero;stroke:none;stroke-width:1.04135;stroke-linecap:round"
       d="M 5.4171722,5.4910456 2.1597983,3.7751088 A 0.52067235,0.52067235 0 1 0 1.6744569,4.6964354 L 4.9318308,6.4123722 A 0.52067235,0.52067235 0 1 0 5.4171722,5.4910456 Z M 5.3250475,16.210151 2.3983762,13.976426 a 0.52067235,0.52067235 0 1 0 -0.631794,0.82779 l 2.9266713,2.233725 a 0.52067235,0.52067235 0 1 0 0.631794,-0.82779 z M 5.1715706,26.928984 2.6890685,24.210131 a 0.52067235,0.52067235 0 1 0 -0.769008,0.702158 l 2.4825021,2.718853 a 0.52067235,0.52067235 0 1 0 0.769008,-0.702158 z M 5.0085564,37.56706 2.9455888,34.517611 A 0.52067235,0.52067235 0 1 0 2.083074,35.101107 l 2.0629676,3.049449 A 0.52067235,0.52067235 0 1 0 5.0085564,37.56706 Z M 4.8919736,48.106834 3.1110691,44.884512 A 0.52067235,0.52067235 0 1 0 2.1996587,45.388228 L 3.9805632,48.61055 A 0.52067235,0.52067235 0 1 0 4.8919736,48.106834 Z M 4.817686,58.590029 3.2108837,55.277452 a 0.52067235,0.52067235 0 1 0 -0.9369384,0.454472 l 1.6068023,3.312577 A 0.52067235,0.52067235 0 1 0 4.817686,58.590029 Z M 4.7254494,69.080517 3.3298095,65.673586 A 0.52067235,0.52067235 0 1 0 2.3661841,66.068332 L 3.761824,69.475263 A 0.52067235,0.52067235 0 1 0 4.7254494,69.080517 Z M 4.5390762,79.622887 3.5560997,76.074826 a 0.52067235,0.52067235 0 1 0 -1.0035434,0.278028 l 0.9829765,3.548061 A 0.52067235,0.52067235 0 1 0 4.5390762,79.622887 Z M 4.187435,90.203582 3.94325,86.529978 a 0.52067235,0.52067235 0 1 0 -1.0390518,0.06907 l 0.244185,3.673604 A 0.52067235,0.52067235 0 1 0 4.187435,90.203582 Z M 3.6349298,100.7258 4.4708511,97.140236 A 0.52067235,0.52067235 0 1 0 3.4567023,96.903802 L 2.620781,100.48936 a 0.52067235,0.52067235 0 1 0 1.0141488,0.23644 z m -0.6948141,10.3171 2.0721516,-3.04321 a 0.52067235,0.52067235 0 1 0 -0.8607512,-0.5861 l -2.0721516,3.04321 a 0.52067235,0.52067235 0 1 0 0.8607512,0.5861 z m -0.6628013,10.03083 3.0991568,-1.98751 a 0.52067235,0.52067235 0 1 0 -0.562153,-0.87658 l -3.0991568,1.98751 a 0.52067235,0.52067235 0 1 0 0.562153,0.87658 z m -0.4425195,9.83713 3.6167663,-0.68846 a 0.52067235,0.52067235 0 1 0 -0.194726,-1.02298 l -3.6167663,0.68846 a 0.52067235,0.52067235 0 1 0 0.194726,1.02298 z m -0.1763156,9.87047 3.6588754,0.4094 a 0.52067235,0.52067235 0 1 0 0.1157958,-1.03488 l -3.6588754,-0.4094 a 0.52067235,0.52067235 0 1 0 -0.1157958,1.03488 z m -0.025697,10.11295 3.5490722,0.97932 a 0.52067235,0.52067235 0 1 0 0.2769936,-1.00382 l -3.5490722,-0.97932 a 0.52067235,0.52067235 0 1 0 -0.2769936,1.00382 z m 0.00102,10.46474 3.5740507,0.88382 a 0.52067235,0.52067235 0 1 0 0.2499822,-1.0109 l -3.5740507,-0.88382 a 0.52067235,0.52067235 0 1 0 -0.2499822,1.0109 z m 0.060376,10.83079 3.6808547,0.0793 a 0.52067235,0.52067235 0 1 0 0.022429,-1.0411 l -3.6808547,-0.0793 a 0.52067235,0.52067235 0 1 0 -0.022429,1.0411 z m 0.3173559,11.07525 3.4398065,-1.31253 a 0.52067235,0.52067235 0 1 0 -0.3712392,-0.97292 l -3.4398065,1.31253 a 0.52067235,0.52067235 0 1 0 0.3712392,0.97292 z m 0.7449062,11.01335 2.3745694,-2.8136 a 0.52067235,0.52067235 0 1 0 -0.795808,-0.67164 l -2.3745694,2.8136 a 0.52067235,0.52067235 0 1 0 0.795808,0.67164 z m 1.0720032,10.5629 0.4676619,-3.65188 a 0.52067235,0.52067235 0 1 0 -1.0329096,-0.13228 l -0.4676619,3.65188 a 0.52067235,0.52067235 0 1 0 1.0329096,0.13228 z M 15.849661,5.3874883 12.502751,3.8534686 a 0.52067235,0.52067235 0 1 0 -0.433886,0.9466478 l 3.34691,1.5340197 A 0.52067235,0.52067235 0 1 0 15.849661,5.3874883 Z M 15.685684,16.331419 12.920315,13.90083 a 0.52067235,0.52067235 0 1 0 -0.687474,0.782164 l 2.765369,2.430589 a 0.52067235,0.52067235 0 1 0 0.687474,-0.782164 z M 15.36943,27.213427 13.435144,24.080773 a 0.52067235,0.52067235 0 1 0 -0.886048,0.547098 l 1.934286,3.132654 A 0.52067235,0.52067235 0 1 0 15.36943,27.213427 Z M 14.998568,37.940236 13.915193,34.42153 a 0.52067235,0.52067235 0 1 0 -0.99524,0.306424 l 1.083375,3.518706 a 0.52067235,0.52067235 0 1 0 0.99524,-0.306424 z m -0.318437,10.579363 -0.406768,-3.659168 a 0.52067235,0.52067235 0 1 0 -1.03497,0.115052 l 0.406768,3.659168 a 0.52067235,0.52067235 0 1 0 1.03497,-0.115052 z m -0.241517,10.493434 0.08238,-3.680789 a 0.52067235,0.52067235 0 1 0 -1.041084,-0.0233 l -0.08238,3.680789 a 0.52067235,0.52067235 0 1 0 1.041084,0.0233 z m -0.215974,10.456258 0.504756,-3.646946 a 0.52067235,0.52067235 0 1 0 -1.031512,-0.142766 l -0.504756,3.646946 a 0.52067235,0.52067235 0 1 0 1.031512,0.142766 z m -0.256652,10.431651 0.989573,-3.546226 a 0.52067235,0.52067235 0 1 0 -1.003024,-0.279894 l -0.989573,3.546226 a 0.52067235,0.52067235 0 1 0 1.003024,0.279894 z m -0.33872,10.384432 1.601635,-3.31508 a 0.52067235,0.52067235 0 1 0 -0.937646,-0.45301 l -1.601635,3.31508 a 0.52067235,0.52067235 0 1 0 0.937646,0.45301 z m -0.414366,10.290876 2.304779,-2.871058 a 0.52067235,0.52067235 0 1 0 -0.812058,-0.65189 l -2.304779,2.871053 a 0.52067235,0.52067235 0 1 0 0.812058,0.651895 z m -0.429293,10.16118 2.96763,-2.17903 a 0.52067235,0.52067235 0 1 0 -0.616322,-0.83938 l -2.96763,2.17903 a 0.52067235,0.52067235 0 1 0 0.616322,0.83938 z m -0.355586,10.05105 3.436303,-1.32168 a 0.52067235,0.52067235 0 1 0 -0.373828,-0.97194 l -3.436303,1.32168 a 0.52067235,0.52067235 0 1 0 0.373828,0.97194 z m -0.221778,10.03264 3.647554,-0.50034 a 0.52067235,0.52067235 0 1 0 -0.141518,-1.03168 l -3.647554,0.50034 a 0.52067235,0.52067235 0 1 0 0.141518,1.03168 z m -0.09474,10.14305 3.681368,0.05 a 0.52067235,0.52067235 0 1 0 0.01414,-1.04124 l -3.681368,-0.05 a 0.52067235,0.52067235 0 1 0 -0.01414,1.04124 z m -0.01185,10.36697 3.67896,0.14226 a 0.52067235,0.52067235 0 1 0 0.04024,-1.04056 l -3.67896,-0.14226 a 0.52067235,0.52067235 0 1 0 -0.04024,1.04056 z m 0.07596,10.65603 3.665346,-0.34674 a 0.52067235,0.52067235 0 1 0 -0.09807,-1.03672 l -3.665346,0.34674 a 0.52067235,0.52067235 0 1 0 0.09807,1.03672 z m 0.285886,10.91192 3.397021,-1.41958 a 0.52067235,0.52067235 0 1 0 -0.401518,-0.96082 l -3.397021,1.41958 a 0.52067235,0.52067235 0 1 0 0.401518,0.96082 z m 0.663488,10.94483 2.446668,-2.75115 a 0.52067235,0.52067235 0 1 0 -0.778142,-0.69202 l -2.446668,2.75115 a 0.52067235,0.52067235 0 1 0 0.778142,0.69202 z m 1.028071,10.59509 0.637976,-3.62601 a 0.52067235,0.52067235 0 1 0 -1.025592,-0.18044 l -0.637976,3.62601 a 0.52067235,0.52067235 0 1 0 1.025592,0.18044 z m 1.047009,9.96632 -1.535128,-3.34639 a 0.52067235,0.52067235 0 1 0 -0.946504,0.4342 l 1.535128,3.34639 a 0.52067235,0.52067235 0 1 0 0.946504,-0.4342 z M 26.277743,5.2689475 22.841669,3.9466865 a 0.52067235,0.52067235 0 1 0 -0.373992,0.9718688 l 3.436074,1.322261 A 0.52067235,0.52067235 0 1 0 26.277743,5.2689475 Z M 26.062076,16.404903 23.403824,13.857617 a 0.52067235,0.52067235 0 1 0 -0.720482,0.751868 l 2.658252,2.547286 a 0.52067235,0.52067235 0 1 0 0.720482,-0.751868 z m -0.478417,10.996765 -1.466762,-3.376923 a 0.52067235,0.52067235 0 1 0 -0.955138,0.414862 l 1.466762,3.376923 a 0.52067235,0.52067235 0 1 0 0.955138,-0.414862 z m -0.58088,10.738754 -0.220668,-3.675091 a 0.52067235,0.52067235 0 1 0 -1.039472,0.06241 l 0.220668,3.675091 a 0.52067235,0.52067235 0 1 0 1.039472,-0.06241 z m -0.508319,10.516303 0.774537,-3.599317 a 0.52067235,0.52067235 0 1 0 -1.01804,-0.219072 l -0.774537,3.599317 a 0.52067235,0.52067235 0 1 0 1.01804,0.219072 z m -0.37587,10.400373 1.463747,-3.378231 a 0.52067235,0.52067235 0 1 0 -0.955508,-0.41401 l -1.463747,3.378231 a 0.52067235,0.52067235 0 1 0 0.955508,0.41401 z m -0.279504,10.354468 1.950454,-3.122612 a 0.52067235,0.52067235 0 1 0 -0.883208,-0.551672 l -1.950454,3.122612 a 0.52067235,0.52067235 0 1 0 0.883208,0.551672 z m -0.236723,10.32742 2.343774,-2.839313 a 0.52067235,0.52067235 0 1 0 -0.80308,-0.66292 l -2.343774,2.839313 a 0.52067235,0.52067235 0 1 0 0.80308,0.66292 z m -0.227139,10.294774 2.702239,-2.500578 a 0.52067235,0.52067235 0 1 0 -0.70727,-0.764308 l -2.702239,2.500578 a 0.52067235,0.52067235 0 1 0 0.70727,0.764308 z m -0.221687,10.25527 3.029923,-2.091543 a 0.52067235,0.52067235 0 1 0 -0.591578,-0.856992 l -3.029923,2.091545 a 0.52067235,0.52067235 0 1 0 0.591578,0.85699 z m -0.198317,10.22392 3.297907,-1.6367 a 0.52067235,0.52067235 0 1 0 -0.462928,-0.93278 l -3.297907,1.6367 a 0.52067235,0.52067235 0 1 0 0.462928,0.93278 z m -0.150577,10.22461 3.477841,-1.20813 a 0.52067235,0.52067235 0 1 0 -0.341712,-0.98368 l -3.477841,1.20813 a 0.52067235,0.52067235 0 1 0 0.341712,0.98368 z m -0.08594,10.27885 3.566489,-0.91386 a 0.52067235,0.52067235 0 1 0 -0.258478,-1.00876 l -3.566489,0.91386 a 0.52067235,0.52067235 0 1 0 0.258478,1.00876 z m -0.01052,10.39512 3.57637,-0.87439 a 0.52067235,0.52067235 0 1 0 -0.247314,-1.01156 l -3.57637,0.87439 a 0.52067235,0.52067235 0 1 0 0.247314,1.01156 z m 0.09308,10.56152 3.481566,-1.19736 a 0.52067235,0.52067235 0 1 0 -0.338664,-0.98474 l -3.481566,1.19736 a 0.52067235,0.52067235 0 1 0 0.338664,0.98474 z m 0.276336,10.73041 3.135861,-1.92908 a 0.52067235,0.52067235 0 1 0 -0.545626,-0.88696 l -3.135861,1.92908 a 0.52067235,0.52067235 0 1 0 0.545626,0.88696 z m 0.58684,10.78256 2.242453,-2.92 a 0.52067235,0.52067235 0 1 0 -0.8259,-0.63426 l -2.242453,2.92 a 0.52067235,0.52067235 0 1 0 0.8259,0.63426 z m 0.930175,10.53648 0.584344,-3.63504 a 0.52067235,0.52067235 0 1 0 -1.028144,-0.16528 l -0.584344,3.63504 a 0.52067235,0.52067235 0 1 0 1.028144,0.16528 z m 1.009993,9.97694 -1.514643,-3.35572 a 0.52067235,0.52067235 0 1 0 -0.94914,0.4284 l 1.514643,3.35572 a 0.52067235,0.52067235 0 1 0 0.94914,-0.4284 z m 0.619191,9.43284 -3.174919,-1.86409 a 0.52067235,0.52067235 0 1 0 -0.527246,0.898 l 3.174919,1.86409 a 0.52067235,0.52067235 0 1 0 0.527246,-0.898 z M 36.698531,5.1452859 33.184094,4.0481555 a 0.52067235,0.52067235 0 1 0 -0.310316,0.9940338 l 3.514437,1.0971304 A 0.52067235,0.52067235 0 1 0 36.698531,5.1452859 Z M 36.460411,16.432776 33.844744,13.841787 A 0.52067235,0.52067235 0 1 0 33.1119,14.581611 l 2.615667,2.590989 a 0.52067235,0.52067235 0 1 0 0.732844,-0.739824 z m -0.612039,11.078943 -1.133685,-3.502818 a 0.52067235,0.52067235 0 1 0 -0.990746,0.320654 l 1.133685,3.502818 a 0.52067235,0.52067235 0 1 0 0.990746,-0.320654 z m -0.75401,10.710445 0.418193,-3.65788 a 0.52067235,0.52067235 0 1 0 -1.034606,-0.118282 l -0.418193,3.65788 a 0.52067235,0.52067235 0 1 0 1.034606,0.118282 z M 34.450127,48.63086 36.058861,45.319218 A 0.52067235,0.52067235 0 1 0 35.122187,44.8642 l -1.608734,3.311642 a 0.52067235,0.52067235 0 1 0 0.936674,0.455018 z m -0.444088,10.276904 2.359596,-2.826179 a 0.52067235,0.52067235 0 1 0 -0.799364,-0.667394 l -2.359596,2.826179 a 0.52067235,0.52067235 0 1 0 0.799364,0.667394 z m -0.280068,10.259096 2.797396,-2.393651 a 0.52067235,0.52067235 0 1 0 -0.677026,-0.791222 l -2.797396,2.393651 a 0.52067235,0.52067235 0 1 0 0.677026,0.791222 z m -0.175603,10.281378 3.053411,-2.057099 a 0.52067235,0.52067235 0 1 0 -0.581836,-0.863636 l -3.053411,2.057099 a 0.52067235,0.52067235 0 1 0 0.581836,0.863636 z m -0.113375,10.3094 3.208868,-1.805038 a 0.52067235,0.52067235 0 1 0 -0.510542,-0.907604 l -3.208868,1.805038 a 0.52067235,0.52067235 0 1 0 0.510542,0.907604 z m -0.0723,10.337472 3.302968,-1.626468 a 0.52067235,0.52067235 0 1 0 -0.460034,-0.93422 l -3.302968,1.626464 a 0.52067235,0.52067235 0 1 0 0.460034,0.934224 z m -0.03687,10.37128 3.349165,-1.52908 a 0.52067235,0.52067235 0 1 0 -0.43249,-0.94728 l -3.349165,1.52908 a 0.52067235,0.52067235 0 1 0 0.43249,0.94728 z m 0.0039,10.418 3.34438,-1.53952 a 0.52067235,0.52067235 0 1 0 -0.435442,-0.94594 l -3.34438,1.53952 a 0.52067235,0.52067235 0 1 0 0.435442,0.94594 z m 0.06068,10.48113 3.267466,-1.69666 a 0.52067235,0.52067235 0 1 0 -0.479888,-0.92418 l -3.267466,1.69666 a 0.52067235,0.52067235 0 1 0 0.479888,0.92418 z m 0.149724,10.55635 3.065049,-2.03972 a 0.52067235,0.52067235 0 1 0 -0.57692,-0.86692 l -3.065049,2.03972 a 0.52067235,0.52067235 0 1 0 0.57692,0.86692 z m 0.296258,10.6219 2.625607,-2.58091 a 0.52067235,0.52067235 0 1 0 -0.729994,-0.74264 l -2.625607,2.58091 a 0.52067235,0.52067235 0 1 0 0.729994,0.74264 z m 0.522489,10.61687 1.764583,-3.2313 a 0.52067235,0.52067235 0 1 0 -0.913948,-0.4991 l -1.764583,3.2313 a 0.52067235,0.52067235 0 1 0 0.913948,0.4991 z m 0.78746,10.42672 0.313283,-3.66835 a 0.52067235,0.52067235 0 1 0 -1.037568,-0.0886 l -0.313283,3.66835 a 0.52067235,0.52067235 0 1 0 1.037568,0.0886 z m 0.894432,9.9775 -1.571424,-3.32951 a 0.52067235,0.52067235 0 1 0 -0.941726,0.44446 l 1.571424,3.32951 a 0.52067235,0.52067235 0 1 0 0.941726,-0.44446 z m 0.592612,9.46118 -3.167628,-1.87646 a 0.52067235,0.52067235 0 1 0 -0.530744,0.89594 l 3.167628,1.87646 a 0.52067235,0.52067235 0 1 0 0.530744,-0.89594 z m -0.05114,9.26983 -3.671931,0.26814 a 0.52067235,0.52067235 0 1 0 0.07584,1.03858 l 3.671931,-0.26814 A 0.52067235,0.52067235 0 1 0 36.5842,202.29587 Z M 47.111824,5.0367162 43.540806,4.1407205 A 0.52067235,0.52067235 0 1 0 43.28738,5.1507571 l 3.571018,0.8959957 a 0.52067235,0.52067235 0 1 0 0.253426,-1.0100366 z m -0.239826,11.3994078 -2.610481,-2.59623 a 0.52067235,0.52067235 0 1 0 -0.734324,0.738354 l 2.610481,2.59623 a 0.52067235,0.52067235 0 1 0 0.734324,-0.738354 z m -0.710624,11.138242 -0.914876,-3.566227 a 0.52067235,0.52067235 0 1 0 -1.008682,0.258766 l 0.914876,3.566227 a 0.52067235,0.52067235 0 1 0 1.008682,-0.258766 z m -0.87993,10.671039 0.84956,-3.58235 a 0.52067235,0.52067235 0 1 0 -1.013242,-0.240292 l -0.84956,3.58235 a 0.52067235,0.52067235 0 1 0 1.013242,0.240292 z m -0.726759,10.303216 2.137672,-2.997558 a 0.52067235,0.52067235 0 1 0 -0.847838,-0.604624 l -2.137672,2.997558 a 0.52067235,0.52067235 0 1 0 0.847838,0.604624 z m -0.463154,10.171853 2.868818,-2.307567 a 0.52067235,0.52067235 0 1 0 -0.652678,-0.811424 l -2.868818,2.307567 a 0.52067235,0.52067235 0 1 0 0.652678,0.811424 z m -0.251002,10.200338 3.222017,-1.781455 a 0.52067235,0.52067235 0 1 0 -0.503872,-0.911324 l -3.222017,1.781455 a 0.52067235,0.52067235 0 1 0 0.503872,0.911324 z m -0.115419,10.285957 3.368981,-1.484908 a 0.52067235,0.52067235 0 1 0 -0.419996,-0.952892 l -3.368981,1.484908 a 0.52067235,0.52067235 0 1 0 0.419996,0.952892 z m -0.03,10.376218 3.405037,-1.400249 a 0.52067235,0.52067235 0 1 0 -0.39605,-0.96309 l -3.405037,1.400249 a 0.52067235,0.52067235 0 1 0 0.39605,0.96309 z m 0.033,10.454303 3.365317,-1.493195 a 0.52067235,0.52067235 0 1 0 -0.422338,-0.951856 l -3.365317,1.493193 a 0.52067235,0.52067235 0 1 0 0.422338,0.951858 z m 0.09242,10.51682 3.248316,-1.73304 a 0.52067235,0.52067235 0 1 0 -0.490178,-0.91876 l -3.248316,1.73304 a 0.52067235,0.52067235 0 1 0 0.490178,0.91876 z m 0.160636,10.56243 3.028873,-2.09307 a 0.52067235,0.52067235 0 1 0 -0.592008,-0.8567 l -3.028873,2.09307 a 0.52067235,0.52067235 0 1 0 0.592008,0.8567 z m 0.247804,10.58711 2.660945,-2.54448 a 0.52067235,0.52067235 0 1 0 -0.719688,-0.75262 l -2.660945,2.54448 a 0.52067235,0.52067235 0 1 0 0.719688,0.75262 z m 0.36383,10.5792 2.073995,-3.04197 a 0.52067235,0.52067235 0 1 0 -0.860398,-0.58662 l -2.073995,3.04197 a 0.52067235,0.52067235 0 1 0 0.860398,0.58662 z m 0.512484,10.50989 1.17547,-3.48902 a 0.52067235,0.52067235 0 1 0 -0.986844,-0.33248 l -1.17547,3.48902 a 0.52067235,0.52067235 0 1 0 0.986844,0.33248 z m 0.66898,10.32742 -0.108445,-3.68012 a 0.52067235,0.52067235 0 1 0 -1.040892,0.0307 l 0.108445,3.68012 a 0.52067235,0.52067235 0 1 0 1.040892,-0.0307 z m 0.735159,9.98307 -1.695267,-3.26818 a 0.52067235,0.52067235 0 1 0 -0.924382,0.4795 l 1.695267,3.26818 a 0.52067235,0.52067235 0 1 0 0.924382,-0.4795 z m 0.529399,9.5455 -3.130257,-1.93816 a 0.52067235,0.52067235 0 1 0 -0.548194,0.88538 l 3.130257,1.93816 a 0.52067235,0.52067235 0 1 0 0.548194,-0.88538 z m -0.01622,9.30698 -3.679774,0.11935 a 0.52067235,0.52067235 0 1 0 0.03376,1.0408 l 3.679774,-0.11935 a 0.52067235,0.52067235 0 1 0 -0.03376,-1.0408 z m -0.616359,9.50898 -3.012105,2.11712 a 0.52067235,0.52067235 0 1 0 0.598812,0.85196 l 3.012105,-2.11712 a 0.52067235,0.52067235 0 1 0 -0.598812,-0.85196 z M 57.521197,4.9565659 53.915738,4.211153 a 0.52067235,0.52067235 0 1 0 -0.210834,1.0197782 l 3.605459,0.7454129 A 0.52067235,0.52067235 0 1 0 57.521197,4.9565659 Z M 57.285645,16.435775 54.674621,13.840097 a 0.52067235,0.52067235 0 1 0 -0.734168,0.738508 l 2.611024,2.595678 a 0.52067235,0.52067235 0 1 0 0.734168,-0.738508 z m -0.780496,11.177199 -0.765621,-3.601223 a 0.52067235,0.52067235 0 1 0 -1.01858,0.21655 l 0.765621,3.601223 a 0.52067235,0.52067235 0 1 0 1.01858,-0.21655 z m -0.964527,10.632811 1.135441,-3.502252 a 0.52067235,0.52067235 0 1 0 -0.990586,-0.321152 l -1.135441,3.502252 a 0.52067235,0.52067235 0 1 0 0.990586,0.321152 z m -0.771188,10.218764 2.461596,-2.737794 a 0.52067235,0.52067235 0 1 0 -0.774366,-0.696244 l -2.461596,2.737794 a 0.52067235,0.52067235 0 1 0 0.774366,0.696244 z m -0.457693,10.098726 3.14433,-1.915247 a 0.52067235,0.52067235 0 1 0 -0.541714,-0.88935 l -3.14433,1.915247 a 0.52067235,0.52067235 0 1 0 0.541714,0.88935 z M 54.094952,68.738567 57.516,67.377899 a 0.52067235,0.52067235 0 1 0 -0.384854,-0.967618 l -3.421048,1.360668 a 0.52067235,0.52067235 0 1 0 0.384854,0.967618 z m -0.0689,10.31762 3.498441,-1.147123 A 0.52067235,0.52067235 0 1 0 57.200041,76.919556 L 53.7016,78.066679 a 0.52067235,0.52067235 0 1 0 0.324456,0.989508 z m 0.02978,10.456402 3.465796,-1.242268 a 0.52067235,0.52067235 0 1 0 -0.351366,-0.980276 l -3.465796,1.242268 a 0.52067235,0.52067235 0 1 0 0.351366,0.980276 z m 0.119167,10.563861 3.323902,-1.583232 a 0.52067235,0.52067235 0 1 0 -0.447806,-0.940142 l -3.323902,1.583234 a 0.52067235,0.52067235 0 1 0 0.447806,0.94014 z m 0.219705,10.62672 3.028748,-2.09325 a 0.52067235,0.52067235 0 1 0 -0.59206,-0.85666 l -3.028748,2.09325 a 0.52067235,0.52067235 0 1 0 0.59206,0.85666 z m 0.333771,10.63477 2.526579,-2.67795 a 0.52067235,0.52067235 0 1 0 -0.757438,-0.71462 l -2.526579,2.67795 a 0.52067235,0.52067235 0 1 0 0.757438,0.71462 z m 0.451341,10.58055 1.77828,-3.22378 a 0.52067235,0.52067235 0 1 0 -0.91182,-0.50298 l -1.77828,3.22378 a 0.52067235,0.52067235 0 1 0 0.91182,0.50298 z m 0.556348,10.45916 0.771965,-3.59987 a 0.52067235,0.52067235 0 1 0 -1.018196,-0.21834 l -0.771965,3.59987 a 0.52067235,0.52067235 0 1 0 1.018196,0.21834 z m 0.626652,10.26437 -0.466592,-3.65203 a 0.52067235,0.52067235 0 1 0 -1.032948,0.13198 l 0.466592,3.65203 a 0.52067235,0.52067235 0 1 0 1.032948,-0.13198 z m 0.61953,9.98941 -1.835969,-3.19127 a 0.52067235,0.52067235 0 1 0 -0.902628,0.5193 l 1.835969,3.19127 a 0.52067235,0.52067235 0 1 0 0.902628,-0.5193 z m 0.452763,9.66051 -3.068799,-2.03408 a 0.52067235,0.52067235 0 1 0 -0.575324,0.86798 l 3.068799,2.03408 a 0.52067235,0.52067235 0 1 0 0.575324,-0.86798 z m 0.04522,9.41436 -3.675851,-0.20761 a 0.52067235,0.52067235 0 1 0 -0.05872,1.03968 l 3.675851,0.20761 a 0.52067235,0.52067235 0 1 0 0.05872,-1.03968 z m -0.504517,9.48683 -3.226898,1.7726 a 0.52067235,0.52067235 0 1 0 0.501368,0.9127 l 3.226898,-1.7726 a 0.52067235,0.52067235 0 1 0 -0.501368,-0.9127 z m -0.875522,9.90611 -1.871297,3.17069 a 0.52067235,0.52067235 0 1 0 0.896806,0.52928 l 1.871297,-3.17069 a 0.52067235,0.52067235 0 1 0 -0.896806,-0.52928 z M 67.930734,4.910112 64.308189,4.2527461 a 0.52067235,0.52067235 0 1 0 -0.185932,1.0246114 l 3.622545,0.6573659 A 0.52067235,0.52067235 0 1 0 67.930734,4.910112 Z m -0.231525,11.525457 -2.611342,-2.595356 a 0.52067235,0.52067235 0 1 0 -0.734078,0.7386 l 2.611342,2.595356 a 0.52067235,0.52067235 0 1 0 0.734078,-0.7386 z M 66.87752,27.634 66.198986,24.015355 a 0.52067235,0.52067235 0 1 0 -1.023506,0.191918 l 0.678534,3.618645 A 0.52067235,0.52067235 0 1 0 66.87752,27.634 Z m -1.012442,10.606334 1.29739,-3.445543 a 0.52067235,0.52067235 0 1 0 -0.974546,-0.366958 l -1.29739,3.445543 a 0.52067235,0.52067235 0 1 0 0.974546,0.366958 z m -0.791901,10.165816 2.634168,-2.572186 a 0.52067235,0.52067235 0 1 0 -0.727524,-0.745056 l -2.634168,2.572186 a 0.52067235,0.52067235 0 1 0 0.727524,0.745056 z m -0.446093,10.059232 3.274742,-1.682573 a 0.52067235,0.52067235 0 1 0 -0.475904,-0.926236 l -3.274742,1.682573 a 0.52067235,0.52067235 0 1 0 0.475904,0.926236 z m -0.18899,10.175251 3.499959,-1.142479 a 0.52067235,0.52067235 0 1 0 -0.323142,-0.989938 l -3.499959,1.142479 a 0.52067235,0.52067235 0 1 0 0.323142,0.989938 z m -0.03406,10.360875 3.535486,-1.027287 a 0.52067235,0.52067235 0 1 0 -0.29056,-0.999986 l -3.535486,1.027287 a 0.52067235,0.52067235 0 1 0 0.29056,0.999986 z m 0.08175,10.533845 3.447168,-1.293066 A 0.52067235,0.52067235 0 1 0 67.56722,87.267281 l -3.447168,1.293066 a 0.52067235,0.52067235 0 1 0 0.365734,0.975006 z m 0.209476,10.653327 3.184893,-1.847016 A 0.52067235,0.52067235 0 1 0 67.357741,97.44084 l -3.184893,1.847014 a 0.52067235,0.52067235 0 1 0 0.522414,0.900826 z m 0.362202,10.68902 2.658491,-2.54704 a 0.52067235,0.52067235 0 1 0 -0.720412,-0.75194 l -2.658491,2.54704 a 0.52067235,0.52067235 0 1 0 0.720412,0.75194 z m 0.515376,10.62247 1.813567,-3.20405 a 0.52067235,0.52067235 0 1 0 -0.906242,-0.51296 l -1.813567,3.20405 a 0.52067235,0.52067235 0 1 0 0.906242,0.51296 z m 0.624564,10.46035 0.681545,-3.61808 a 0.52067235,0.52067235 0 1 0 -1.023346,-0.19276 l -0.681545,3.61808 a 0.52067235,0.52067235 0 1 0 1.023346,0.19276 z m 0.65225,10.23495 -0.619832,-3.62915 a 0.52067235,0.52067235 0 1 0 -1.026482,0.17532 l 0.619832,3.62915 a 0.52067235,0.52067235 0 1 0 1.026482,-0.17532 z m 0.581343,9.98545 -1.920571,-3.14108 a 0.52067235,0.52067235 0 1 0 -0.888432,0.54322 l 1.920571,3.14108 a 0.52067235,0.52067235 0 1 0 0.888432,-0.54322 z m 0.401798,9.74469 -3.014926,-2.1131 a 0.52067235,0.52067235 0 1 0 -0.597676,0.85276 l 3.014926,2.1131 a 0.52067235,0.52067235 0 1 0 0.597676,-0.85276 z m 0.09371,9.5601 -3.635433,-0.58191 a 0.52067235,0.52067235 0 1 0 -0.164588,1.02826 l 3.635433,0.58191 a 0.52067235,0.52067235 0 1 0 0.164588,-1.02826 z m -0.333921,9.5379 -3.475655,1.21441 a 0.52067235,0.52067235 0 1 0 0.343488,0.98306 l 3.475655,-1.21441 a 0.52067235,0.52067235 0 1 0 -0.343488,-0.98306 z m -0.730559,9.79119 -2.44868,2.74935 a 0.52067235,0.52067235 0 1 0 0.777634,0.6926 l 2.44868,-2.74935 a 0.52067235,0.52067235 0 1 0 -0.777634,-0.6926 z m -0.871797,10.2217 -0.934686,3.5611 a 0.52067235,0.52067235 0 1 0 1.007228,0.26436 l 0.934686,-3.5611 A 0.52067235,0.52067235 0 1 0 65.990224,201.0365 Z M 78.34324,4.9006173 74.717457,4.2613495 a 0.52067235,0.52067235 0 1 0 -0.180812,1.025527 l 3.625783,0.6392678 A 0.52067235,0.52067235 0 1 0 78.34324,4.9006173 Z M 78.112676,16.435528 75.501268,13.840237 a 0.52067235,0.52067235 0 1 0 -0.73406,0.738618 l 2.611408,2.595291 a 0.52067235,0.52067235 0 1 0 0.73406,-0.738618 z M 77.282477,27.638187 76.62185,24.016233 a 0.52067235,0.52067235 0 1 0 -1.024444,0.186854 l 0.660627,3.621954 a 0.52067235,0.52067235 0 1 0 1.024444,-0.186854 z m -1.022172,10.600515 1.330268,-3.432983 a 0.52067235,0.52067235 0 1 0 -0.970994,-0.376256 l -1.330268,3.432983 a 0.52067235,0.52067235 0 1 0 0.970994,0.376256 z m -0.79552,10.154705 2.667931,-2.537149 a 0.52067235,0.52067235 0 1 0 -0.717614,-0.754604 l -2.667931,2.537149 a 0.52067235,0.52067235 0 1 0 0.717614,0.754604 z m -0.438779,10.056225 3.293377,-1.645803 a 0.52067235,0.52067235 0 1 0 -0.465504,-0.931508 l -3.293377,1.645803 a 0.52067235,0.52067235 0 1 0 0.465504,0.931508 z m -0.170879,10.196333 3.496102,-1.154237 a 0.52067235,0.52067235 0 1 0 -0.326468,-0.988846 l -3.496102,1.154237 a 0.52067235,0.52067235 0 1 0 0.326468,0.988846 z m -6.66e-4,10.412464 3.496817,-1.152069 a 0.52067235,0.52067235 0 1 0 -0.325854,-0.989048 l -3.496817,1.152069 a 0.52067235,0.52067235 0 1 0 0.325854,0.989048 z m 0.147445,10.60459 3.323891,-1.583268 a 0.52067235,0.52067235 0 1 0 -0.447816,-0.940138 l -3.323891,1.583268 a 0.52067235,0.52067235 0 1 0 0.447816,0.940138 z m 0.326438,10.708721 2.874037,-2.301064 a 0.52067235,0.52067235 0 1 0 -0.65084,-0.8129 l -2.874037,2.301065 a 0.52067235,0.52067235 0 1 0 0.65084,0.812899 z m 0.525841,10.67766 2.038647,-3.06576 a 0.52067235,0.52067235 0 1 0 -0.867128,-0.57662 l -2.038647,3.06576 a 0.52067235,0.52067235 0 1 0 0.867128,0.57662 z m 0.678905,10.50306 0.82835,-3.5873 a 0.52067235,0.52067235 0 1 0 -1.014646,-0.2343 l -0.82835,3.5873 a 0.52067235,0.52067235 0 1 0 1.014646,0.2343 z m 0.712844,10.23765 -0.583814,-3.63513 a 0.52067235,0.52067235 0 1 0 -1.02817,0.16512 l 0.583814,3.63513 a 0.52067235,0.52067235 0 1 0 1.02817,-0.16512 z m 0.604765,9.97057 -1.935724,-3.13176 a 0.52067235,0.52067235 0 1 0 -0.885796,0.5475 l 1.935724,3.13176 a 0.52067235,0.52067235 0 1 0 0.885796,-0.5475 z m 0.388576,9.77112 -2.991748,-2.1458 a 0.52067235,0.52067235 0 1 0 -0.606924,0.8462 l 2.991748,2.1458 a 0.52067235,0.52067235 0 1 0 0.606924,-0.8462 z m 0.111043,9.66212 -3.590911,-0.81261 a 0.52067235,0.52067235 0 1 0 -0.22984,1.01566 l 3.590911,0.81261 a 0.52067235,0.52067235 0 1 0 0.22984,-1.01566 z m -0.203481,9.65105 -3.613422,0.70581 a 0.52067235,0.52067235 0 1 0 0.199634,1.02204 l 3.613422,-0.70581 a 0.52067235,0.52067235 0 1 0 -0.199634,-1.02204 z m -0.523025,9.7746 -2.97947,2.1628 a 0.52067235,0.52067235 0 1 0 0.611734,0.84272 l 2.97947,-2.1628 a 0.52067235,0.52067235 0 1 0 -0.611734,-0.84272 z m -0.734867,10.05659 -1.805543,3.20858 a 0.52067235,0.52067235 0 1 0 0.907524,0.51068 l 1.805543,-3.20858 a 0.52067235,0.52067235 0 1 0 -0.907524,-0.51068 z m -0.726877,10.38028 -0.47682,3.65071 a 0.52067235,0.52067235 0 1 0 1.032574,0.13486 l 0.47682,-3.65071 a 0.52067235,0.52067235 0 1 0 -1.032574,-0.13486 z M 88.759323,4.9286709 85.143353,4.2360683 a 0.52067235,0.52067235 0 1 0 -0.195898,1.0227526 l 3.61597,0.6926026 A 0.52067235,0.52067235 0 1 0 88.759323,4.9286709 Z M 88.526048,16.435651 85.914833,13.840167 a 0.52067235,0.52067235 0 1 0 -0.734114,0.738564 l 2.611215,2.595484 a 0.52067235,0.52067235 0 1 0 0.734114,-0.738564 z m -0.805158,11.190062 -0.7134,-3.61193 a 0.52067235,0.52067235 0 1 0 -1.021608,0.20178 l 0.7134,3.61193 a 0.52067235,0.52067235 0 1 0 1.021608,-0.20178 z m -0.993758,10.617312 1.232955,-3.469123 A 0.52067235,0.52067235 0 1 0 86.978871,34.42517 l -1.232955,3.469123 a 0.52067235,0.52067235 0 1 0 0.981216,0.348732 z m -0.782827,10.188003 2.56455,-2.641606 a 0.52067235,0.52067235 0 1 0 -0.747158,-0.725364 l -2.56455,2.641606 a 0.52067235,0.52067235 0 1 0 0.747158,0.725364 z m -0.433806,10.092873 3.199987,-1.820733 a 0.52067235,0.52067235 0 1 0 -0.514982,-0.905092 l -3.199987,1.820733 a 0.52067235,0.52067235 0 1 0 0.514982,0.905092 z m -0.152176,10.244595 3.393352,-1.428333 a 0.52067235,0.52067235 0 1 0 -0.403994,-0.959786 l -3.393352,1.428333 a 0.52067235,0.52067235 0 1 0 0.403994,0.959786 z m 0.04936,10.472745 3.333001,-1.564 a 0.52067235,0.52067235 0 1 0 -0.442366,-0.942714 l -3.333001,1.564 a 0.52067235,0.52067235 0 1 0 0.442366,0.942714 z m 0.248133,10.652265 2.998587,-2.136226 a 0.52067235,0.52067235 0 1 0 -0.604216,-0.848128 l -2.998587,2.136226 a 0.52067235,0.52067235 0 1 0 0.604216,0.848128 z m 0.479709,10.694704 2.257554,-2.908339 a 0.52067235,0.52067235 0 1 0 -0.822602,-0.638534 l -2.257554,2.908336 a 0.52067235,0.52067235 0 1 0 0.822602,0.638537 z m 0.688534,10.55286 1.055516,-3.52716 a 0.52067235,0.52067235 0 1 0 -0.997632,-0.29854 l -1.055516,3.52716 a 0.52067235,0.52067235 0 1 0 0.997632,0.29854 z m 0.767783,10.26523 -0.443939,-3.65484 a 0.52067235,0.52067235 0 1 0 -1.033746,0.12556 l 0.443939,3.65484 a 0.52067235,0.52067235 0 1 0 1.033746,-0.12556 z m 0.657923,9.95605 -1.901887,-3.15243 a 0.52067235,0.52067235 0 1 0 -0.891642,0.53794 l 1.901887,3.15243 a 0.52067235,0.52067235 0 1 0 0.891642,-0.53794 z m 0.404474,9.75072 -2.998038,-2.137 a 0.52067235,0.52067235 0 1 0 -0.604434,0.84798 l 2.998038,2.137 a 0.52067235,0.52067235 0 1 0 0.604434,-0.84798 z m 0.110235,9.69077 -3.580709,-0.85645 a 0.52067235,0.52067235 0 1 0 -0.24224,1.01278 l 3.580709,0.85645 a 0.52067235,0.52067235 0 1 0 0.24224,-1.01278 z m -0.152658,9.739 -3.651266,0.47249 a 0.52067235,0.52067235 0 1 0 0.13364,1.03274 l 3.651266,-0.47249 a 0.52067235,0.52067235 0 1 0 -0.13364,-1.03274 z m -0.371168,9.84913 -3.259494,1.71193 a 0.52067235,0.52067235 0 1 0 0.484206,0.92192 l 3.259494,-1.71193 a 0.52067235,0.52067235 0 1 0 -0.484206,-0.92192 z m -0.541401,10.01466 -2.465796,2.73401 a 0.52067235,0.52067235 0 1 0 0.773296,0.69744 l 2.465796,-2.73401 a 0.52067235,0.52067235 0 1 0 -0.773296,-0.69744 z m -0.606445,10.23118 -1.438205,3.38918 a 0.52067235,0.52067235 0 1 0 0.958606,0.40678 l 1.438205,-3.38918 a 0.52067235,0.52067235 0 1 0 -0.958606,-0.40678 z m -0.516737,10.41851 -0.478635,3.65047 a 0.52067235,0.52067235 0 1 0 1.032508,0.13538 l 0.478635,-3.65047 a 0.52067235,0.52067235 0 1 0 -1.032508,-0.13538 z M 99.176841,4.9924134 95.586009,4.1794599 a 0.52067235,0.52067235 0 1 0 -0.229938,1.0156412 l 3.590832,0.8129535 a 0.52067235,0.52067235 0 1 0 0.229938,-1.0156412 z m -0.23811,11.4435486 -2.610774,-2.595923 a 0.52067235,0.52067235 0 1 0 -0.734238,0.73844 l 2.610774,2.595923 a 0.52067235,0.52067235 0 1 0 0.734238,-0.73844 z M 98.189632,27.596129 97.35721,24.009761 a 0.52067235,0.52067235 0 1 0 -1.014378,0.235444 l 0.832422,3.586368 a 0.52067235,0.52067235 0 1 0 1.014378,-0.235444 z m -0.92686,10.651054 1.008393,-3.540921 a 0.52067235,0.52067235 0 1 0 -1.001524,-0.285216 l -1.008393,3.540921 a 0.52067235,0.52067235 0 1 0 1.001524,0.285216 z m -0.743836,10.261466 2.306262,-2.869867 a 0.52067235,0.52067235 0 1 0 -0.811722,-0.65231 l -2.306262,2.869867 a 0.52067235,0.52067235 0 1 0 0.811722,0.65231 z m -0.413204,10.173263 2.94565,-2.208651 a 0.52067235,0.52067235 0 1 0 -0.6247,-0.833156 l -2.94565,2.208651 a 0.52067235,0.52067235 0 1 0 0.6247,0.833156 z m -0.115622,10.317819 3.109675,-1.971006 a 0.52067235,0.52067235 0 1 0 -0.557486,-0.87955 l -3.109675,1.971006 a 0.52067235,0.52067235 0 1 0 0.557486,0.87955 z m 0.133245,10.52236 2.919972,-2.242485 a 0.52067235,0.52067235 0 1 0 -0.63427,-0.825894 l -2.919972,2.242485 a 0.52067235,0.52067235 0 1 0 0.63427,0.825894 z m 0.389635,10.637802 2.315953,-2.86205 a 0.52067235,0.52067235 0 1 0 -0.80951,-0.65505 l -2.315953,2.86205 a 0.52067235,0.52067235 0 1 0 0.80951,0.65505 z m 0.641861,10.564727 1.206548,-3.478395 a 0.52067235,0.52067235 0 1 0 -0.983838,-0.341264 l -1.206548,3.478399 a 0.52067235,0.52067235 0 1 0 0.983838,0.34126 z m 0.781906,10.29533 -0.303295,-3.66919 a 0.52067235,0.52067235 0 1 0 -1.037806,0.0858 l 0.303295,3.66919 a 0.52067235,0.52067235 0 1 0 1.037806,-0.0858 z m 0.705089,9.9512 -1.851133,-3.1825 a 0.52067235,0.52067235 0 1 0 -0.900146,0.52358 l 1.851133,3.1825 a 0.52067235,0.52067235 0 1 0 0.900146,-0.52358 z m 0.432203,9.70971 -3.020115,-2.10567 a 0.52067235,0.52067235 0 1 0 -0.595574,0.85422 l 3.020115,2.10567 a 0.52067235,0.52067235 0 1 0 0.595574,-0.85422 z m 0.101095,9.66194 -3.600943,-0.76694 a 0.52067235,0.52067235 0 1 0 -0.216924,1.0185 l 3.600943,0.76694 a 0.52067235,0.52067235 0 1 0 0.216924,-1.0185 z m -0.159556,9.76495 -3.645149,0.51756 a 0.52067235,0.52067235 0 1 0 0.146388,1.031 l 3.645149,-0.51756 a 0.52067235,0.52067235 0 1 0 -0.146388,-1.031 z m -0.31547,9.92133 -3.3187,1.59413 a 0.52067235,0.52067235 0 1 0 0.450888,0.93866 l 3.3187,-1.59413 a 0.52067235,0.52067235 0 1 0 -0.450888,-0.93866 z m -0.40139,10.06933 -2.755644,2.4416 a 0.52067235,0.52067235 0 1 0 0.690588,0.77942 l 2.755644,-2.4416 a 0.52067235,0.52067235 0 1 0 -0.690588,-0.77942 z m -0.443437,10.20384 -2.044244,3.06204 a 0.52067235,0.52067235 0 1 0 0.866074,0.5782 l 2.044244,-3.06204 a 0.52067235,0.52067235 0 1 0 -0.866074,-0.5782 z m -0.411433,10.32876 -1.326672,3.43438 a 0.52067235,0.52067235 0 1 0 0.971388,0.37524 l 1.326672,-3.43438 a 0.52067235,0.52067235 0 1 0 -0.971388,-0.37524 z m -0.272613,10.40754 -0.824945,3.5881 a 0.52067235,0.52067235 0 1 0 1.014868,0.23332 l 0.824945,-3.5881 a 0.52067235,0.52067235 0 1 0 -1.014868,-0.23332 z M 109.59271,5.088218 106.04709,4.0964831 a 0.52067235,0.52067235 0 1 0 -0.2805,1.0028538 l 3.54562,0.9917349 a 0.52067235,0.52067235 0 1 0 0.2805,-1.0028538 z m -0.24093,11.348419 -2.60973,-2.596977 a 0.52067235,0.52067235 0 1 0 -0.73454,0.738144 l 2.60973,2.596977 a 0.52067235,0.52067235 0 1 0 0.73454,-0.738144 z m -0.6674,11.112029 -1.00788,-3.541072 a 0.52067235,0.52067235 0 1 0 -1.00156,0.285072 l 1.00788,3.541072 a 0.52067235,0.52067235 0 1 0 1.00156,-0.285072 z m -0.82108,10.689684 0.65732,-3.622556 A 0.52067235,0.52067235 0 1 0 107.496,34.429876 l -0.65732,3.622556 a 0.52067235,0.52067235 0 1 0 1.02462,0.185918 z m -0.66245,10.361395 1.85682,-3.179183 a 0.52067235,0.52067235 0 1 0 -0.8992,-0.525188 l -1.85682,3.179183 a 0.52067235,0.52067235 0 1 0 0.8992,0.525188 z m -0.35599,10.282591 2.44751,-2.750397 a 0.52067235,0.52067235 0 1 0 -0.77792,-0.69226 l -2.44751,2.750397 a 0.52067235,0.52067235 0 1 0 0.77792,0.69226 z m -0.0433,10.391765 2.51634,-2.687565 a 0.52067235,0.52067235 0 1 0 -0.76016,-0.711728 l -2.51634,2.687565 a 0.52067235,0.52067235 0 1 0 0.76016,0.711728 z m 0.25335,10.521982 2.10401,-3.021268 a 0.52067235,0.52067235 0 1 0 -0.85454,-0.595106 l -2.10401,3.021268 a 0.52067235,0.52067235 0 1 0 0.85454,0.595106 z m 0.53794,10.516365 1.16172,-3.493618 a 0.52067235,0.52067235 0 1 0 -0.98814,-0.328584 l -1.16172,3.493618 a 0.52067235,0.52067235 0 1 0 0.98814,0.328584 z m 0.73354,10.302782 -0.25464,-3.672898 a 0.52067235,0.52067235 0 1 0 -1.03886,0.07202 l 0.25464,3.672894 a 0.52067235,0.52067235 0 1 0 1.03886,-0.072 z m 0.71419,9.95751 -1.81604,-3.20266 a 0.52067235,0.52067235 0 1 0 -0.90584,0.51366 l 1.81604,3.20266 a 0.52067235,0.52067235 0 1 0 0.90584,-0.51366 z m 0.4533,9.67591 -3.04178,-2.07427 a 0.52067235,0.52067235 0 1 0 -0.5867,0.86034 l 3.04178,2.07427 a 0.52067235,0.52067235 0 1 0 0.5867,-0.86034 z m 0.0886,9.60907 -3.62721,-0.63111 a 0.52067235,0.52067235 0 1 0 -0.1785,1.02594 l 3.62721,0.63111 a 0.52067235,0.52067235 0 1 0 0.1785,-1.02594 z m -0.19865,9.74164 -3.61122,0.71704 a 0.52067235,0.52067235 0 1 0 0.2028,1.0214 l 3.61122,-0.71704 a 0.52067235,0.52067235 0 1 0 -0.2028,-1.0214 z m -0.33212,9.94954 -3.23917,1.75008 a 0.52067235,0.52067235 0 1 0 0.495,0.91618 l 3.23917,-1.75008 a 0.52067235,0.52067235 0 1 0 -0.495,-0.91618 z m -0.35072,10.12897 -2.7387,2.46059 a 0.52067235,0.52067235 0 1 0 0.69596,0.77462 l 2.7387,-2.46059 a 0.52067235,0.52067235 0 1 0 -0.69596,-0.77462 z m -0.32522,10.24914 -2.22251,2.93521 a 0.52067235,0.52067235 0 1 0 0.8302,0.62862 l 2.22251,-2.93521 a 0.52067235,0.52067235 0 1 0 -0.8302,-0.62862 z m -0.28373,10.32726 -1.7422,3.24342 a 0.52067235,0.52067235 0 1 0 0.91738,0.49276 l 1.7422,-3.24342 a 0.52067235,0.52067235 0 1 0 -0.91738,-0.49276 z m -0.19126,10.38129 -1.40486,3.40315 a 0.52067235,0.52067235 0 1 0 0.96256,0.39736 l 1.40486,-3.40315 a 0.52067235,0.52067235 0 1 0 -0.96256,-0.39736 z m -0.0174,10.41151 -1.3737,3.41583 a 0.52067235,0.52067235 0 1 0 0.96614,0.38854 l 1.3737,-3.41583 a 0.52067235,0.52067235 0 1 0 -0.96614,-0.38854 z M 120.00208,5.2188435 116.53244,3.987341 a 0.52067235,0.52067235 0 1 0 -0.34832,0.9813618 l 3.46964,1.2315025 a 0.52067235,0.52067235 0 1 0 0.34832,-0.9813618 z m -0.24104,11.2253235 -2.598,-2.608716 a 0.52067235,0.52067235 0 1 0 -0.73786,0.734824 l 2.598,2.608716 a 0.52067235,0.52067235 0 1 0 0.73786,-0.734824 z m -0.56529,11.039834 -1.22309,-3.47261 a 0.52067235,0.52067235 0 1 0 -0.9822,0.345942 l 1.22309,3.47261 a 0.52067235,0.52067235 0 1 0 0.9822,-0.345942 z m -0.67521,10.714821 0.18514,-3.677051 a 0.52067235,0.52067235 0 1 0 -1.04002,-0.05237 l -0.18514,3.677051 a 0.52067235,0.52067235 0 1 0 1.04002,0.05237 z m -0.53317,10.458887 1.19631,-3.48193 a 0.52067235,0.52067235 0 1 0 -0.98484,-0.338368 l -1.19631,3.48193 a 0.52067235,0.52067235 0 1 0 0.98484,0.338368 z m -0.25111,10.382795 1.64526,-3.293647 a 0.52067235,0.52067235 0 1 0 -0.93158,-0.46535 l -1.64526,3.293647 a 0.52067235,0.52067235 0 1 0 0.93158,0.46535 z m 0.0663,10.42483 1.52848,-3.349441 a 0.52067235,0.52067235 0 1 0 -0.94736,-0.43232 l -1.52848,3.349441 a 0.52067235,0.52067235 0 1 0 0.94736,0.43232 z m 0.37585,10.433738 0.84309,-3.583877 a 0.52067235,0.52067235 0 1 0 -1.01368,-0.238462 l -0.84309,3.583877 a 0.52067235,0.52067235 0 1 0 1.01368,0.238462 z m 0.61472,10.282679 -0.36379,-3.663693 a 0.52067235,0.52067235 0 1 0 -1.03624,0.102896 l 0.36379,3.663693 a 0.52067235,0.52067235 0 1 0 1.03624,-0.102896 z m 0.66387,9.974559 -1.82304,-3.198671 a 0.52067235,0.52067235 0 1 0 -0.90472,0.515634 l 1.82304,3.198677 a 0.52067235,0.52067235 0 1 0 0.90472,-0.51564 z m 0.45259,9.67216 -3.04944,-2.06298 a 0.52067235,0.52067235 0 1 0 -0.5835,0.86252 l 3.04944,2.06298 a 0.52067235,0.52067235 0 1 0 0.5835,-0.86252 z m 0.0807,9.56699 -3.64223,-0.53773 a 0.52067235,0.52067235 0 1 0 -0.1521,1.03018 l 3.64223,0.53773 a 0.52067235,0.52067235 0 1 0 0.1521,-1.03018 z m -0.24371,9.69741 -3.56597,0.91592 a 0.52067235,0.52067235 0 1 0 0.25906,1.0086 l 3.56597,-0.91592 a 0.52067235,0.52067235 0 1 0 -0.25906,-1.0086 z m -0.38889,9.94019 -3.0937,1.99601 a 0.52067235,0.52067235 0 1 0 0.56456,0.87502 l 3.0937,-1.99601 a 0.52067235,0.52067235 0 1 0 -0.56456,-0.87502 z m -0.37231,10.15672 -2.5387,2.66645 a 0.52067235,0.52067235 0 1 0 0.75418,0.71806 l 2.5387,-2.66645 a 0.52067235,0.52067235 0 1 0 -0.75418,-0.71806 z m -0.28382,10.29196 -2.07674,3.04007 a 0.52067235,0.52067235 0 1 0 0.85986,0.5874 l 2.07674,-3.04007 a 0.52067235,0.52067235 0 1 0 -0.85986,-0.5874 z m -0.19286,10.35979 -1.74769,3.24045 a 0.52067235,0.52067235 0 1 0 0.91654,0.49432 l 1.74769,-3.24045 a 0.52067235,0.52067235 0 1 0 -0.91654,-0.49432 z m -0.106,10.39298 -1.56212,3.33388 a 0.52067235,0.52067235 0 1 0 0.94296,0.44184 l 1.56212,-3.33388 a 0.52067235,0.52067235 0 1 0 -0.94296,-0.44184 z m 0.0238,10.41751 -1.60416,3.31386 a 0.52067235,0.52067235 0 1 0 0.9373,0.45372 l 1.60416,-3.31386 a 0.52067235,0.52067235 0 1 0 -0.9373,-0.45372 z m 0.21712,10.46509 -1.97917,3.10449 a 0.52067235,0.52067235 0 1 0 0.87808,0.5598 l 1.97917,-3.10449 a 0.52067235,0.52067235 0 1 0 -0.87808,-0.5598 z M 130.39577,5.3948462 127.05489,3.8477556 a 0.52067235,0.52067235 0 1 0 -0.43758,0.9449442 l 3.34088,1.5470906 a 0.52067235,0.52067235 0 1 0 0.43758,-0.9449442 z m -0.23954,11.0810808 -2.54757,-2.657977 a 0.52067235,0.52067235 0 1 0 -0.7518,0.720562 l 2.54757,2.657977 a 0.52067235,0.52067235 0 1 0 0.7518,-0.720562 z m -0.45229,10.936743 -1.43592,-3.390147 a 0.52067235,0.52067235 0 1 0 -0.95888,0.40614 l 1.43592,3.390147 a 0.52067235,0.52067235 0 1 0 0.95888,-0.40614 z m -0.50078,10.703178 -0.35678,-3.664381 a 0.52067235,0.52067235 0 1 0 -1.03644,0.100912 l 0.35678,3.664381 a 0.52067235,0.52067235 0 1 0 1.03644,-0.100912 z m -0.3627,10.515529 0.36952,-3.663119 a 0.52067235,0.52067235 0 1 0 -1.03608,-0.104516 l -0.36952,3.663119 a 0.52067235,0.52067235 0 1 0 1.03608,0.104516 z m -0.11042,10.429678 0.58252,-3.635336 a 0.52067235,0.52067235 0 1 0 -1.02822,-0.164762 l -0.58252,3.635336 a 0.52067235,0.52067235 0 1 0 1.02822,0.164762 z m 0.18061,10.383439 0.23232,-3.674373 a 0.52067235,0.52067235 0 1 0 -1.03926,-0.06571 l -0.23232,3.674373 a 0.52067235,0.52067235 0 1 0 1.03926,0.06571 z m 0.43711,10.261916 -0.65649,-3.622706 a 0.52067235,0.52067235 0 1 0 -1.02466,0.185684 l 0.65649,3.622706 a 0.52067235,0.52067235 0 1 0 1.02466,-0.185684 z m 0.55018,10.008571 -1.88741,-3.161115 a 0.52067235,0.52067235 0 1 0 -0.8941,0.53384 l 1.88741,3.161115 a 0.52067235,0.52067235 0 1 0 0.8941,-0.53384 z m 0.42108,9.713878 -3.03363,-2.086175 a 0.52067235,0.52067235 0 1 0 -0.59006,0.858038 l 3.03363,2.086178 a 0.52067235,0.52067235 0 1 0 0.59006,-0.858041 z m 0.0867,9.563991 -3.63909,-0.55852 a 0.52067235,0.52067235 0 1 0 -0.15798,1.0293 l 3.63909,0.55852 a 0.52067235,0.52067235 0 1 0 0.15798,-1.0293 z m -0.26273,9.65688 -3.54884,0.98015 a 0.52067235,0.52067235 0 1 0 0.27722,1.00376 l 3.54884,-0.98015 a 0.52067235,0.52067235 0 1 0 -0.27722,-1.00376 z m -0.44685,9.90665 -2.98679,2.1527 a 0.52067235,0.52067235 0 1 0 0.60888,0.8448 l 2.98679,-2.1527 a 0.52067235,0.52067235 0 1 0 -0.60888,-0.8448 z m -0.43508,10.15393 -2.31701,2.8612 a 0.52067235,0.52067235 0 1 0 0.80926,0.65534 l 2.31701,-2.8612 a 0.52067235,0.52067235 0 1 0 -0.80926,-0.65534 z m -0.312,10.31037 -1.79323,3.21549 a 0.52067235,0.52067235 0 1 0 0.90948,0.5072 l 1.79323,-3.21549 a 0.52067235,0.52067235 0 1 0 -0.90948,-0.5072 z m -0.17019,10.38111 -1.495,3.36451 a 0.52067235,0.52067235 0 1 0 0.95162,0.42286 l 1.495,-3.36451 a 0.52067235,0.52067235 0 1 0 -0.95162,-0.42286 z m -0.0526,10.40665 -1.4012,3.40464 a 0.52067235,0.52067235 0 1 0 0.96298,0.39632 l 1.4012,-3.40464 a 0.52067235,0.52067235 0 1 0 -0.96298,-0.39632 z m 0.0581,10.42104 -1.50478,3.36015 a 0.52067235,0.52067235 0 1 0 0.9504,0.42562 l 1.50478,-3.36015 a 0.52067235,0.52067235 0 1 0 -0.9504,-0.42562 z m 0.20879,10.45602 -1.86913,3.17196 a 0.52067235,0.52067235 0 1 0 0.89716,0.52866 l 1.86913,-3.17196 a 0.52067235,0.52067235 0 1 0 -0.89716,-0.52866 z m 0.39699,10.56664 -2.52405,2.68033 a 0.52067235,0.52067235 0 1 0 0.75812,0.7139 l 2.52405,-2.68033 a 0.52067235,0.52067235 0 1 0 -0.75812,-0.7139 z M 140.75852,5.6248239 137.63318,3.6787409 a 0.52067235,0.52067235 0 1 0 -0.55044,0.8839796 l 3.12534,1.946083 a 0.52067235,0.52067235 0 1 0 0.55044,-0.8839796 z m -0.23439,10.9257721 -2.42295,-2.772064 a 0.52067235,0.52067235 0 1 0 -0.78406,0.685312 l 2.42295,2.772064 a 0.52067235,0.52067235 0 1 0 0.78406,-0.685312 z m -0.34138,10.807735 -1.58425,-3.323422 a 0.52067235,0.52067235 0 1 0 -0.94,0.448094 l 1.58425,3.323422 a 0.52067235,0.52067235 0 1 0 0.94,-0.448094 z m -0.32389,10.642981 -0.86423,-3.578838 a 0.52067235,0.52067235 0 1 0 -1.01224,0.244442 l 0.86423,3.578838 a 0.52067235,0.52067235 0 1 0 1.01224,-0.244442 z m -0.18171,10.503386 -0.4806,-3.650208 a 0.52067235,0.52067235 0 1 0 -1.03244,0.135934 l 0.4806,3.650208 a 0.52067235,0.52067235 0 1 0 1.03244,-0.135934 z m 0.0335,10.398651 -0.55035,-3.640345 a 0.52067235,0.52067235 0 1 0 -1.02964,0.155662 l 0.55035,3.640345 a 0.52067235,0.52067235 0 1 0 1.02964,-0.155662 z m 0.25444,10.273917 -1.09462,-3.515227 a 0.52067235,0.52067235 0 1 0 -0.99426,0.309604 l 1.09462,3.515227 a 0.52067235,0.52067235 0 1 0 0.99426,-0.309604 z m 0.39602,10.069578 -2.00808,-3.085868 a 0.52067235,0.52067235 0 1 0 -0.87282,0.567972 l 2.00808,3.085868 a 0.52067235,0.52067235 0 1 0 0.87282,-0.567972 z m 0.35815,9.80637 -2.98929,-2.149222 a 0.52067235,0.52067235 0 1 0 -0.6079,0.845498 l 2.98929,2.149222 a 0.52067235,0.52067235 0 1 0 0.6079,-0.845498 z m 0.10916,9.619145 -3.6075,-0.735482 a 0.52067235,0.52067235 0 1 0 -0.20802,1.020354 l 3.6075,0.735482 a 0.52067235,0.52067235 0 1 0 0.20802,-1.020354 z m -0.22786,9.640601 -3.59035,0.81506 a 0.52067235,0.52067235 0 1 0 0.23054,1.0155 l 3.59035,-0.81506 a 0.52067235,0.52067235 0 1 0 -0.23054,-1.0155 z m -0.46073,9.85446 -3.02991,2.09155 a 0.52067235,0.52067235 0 1 0 0.59158,0.85698 l 3.02991,-2.09155 a 0.52067235,0.52067235 0 1 0 -0.59158,-0.85698 z m -0.49604,10.11657 -2.26683,2.90112 a 0.52067235,0.52067235 0 1 0 0.82056,0.64116 l 2.26683,-2.90112 a 0.52067235,0.52067235 0 1 0 -0.82056,-0.64116 z m -0.38118,10.30233 -1.61916,3.30655 a 0.52067235,0.52067235 0 1 0 0.93524,0.45796 l 1.61916,-3.30655 a 0.52067235,0.52067235 0 1 0 -0.93524,-0.45796 z m -0.21385,10.38693 -1.23702,3.46767 a 0.52067235,0.52067235 0 1 0 0.9808,0.34988 l 1.23702,-3.46767 a 0.52067235,0.52067235 0 1 0 -0.9808,-0.34988 z m -0.0606,10.41035 -1.12638,3.50517 a 0.52067235,0.52067235 0 1 0 0.99142,0.31858 l 1.12638,-3.50517 a 0.52067235,0.52067235 0 1 0 -0.99142,-0.31858 z m 0.064,10.41678 -1.24318,3.46547 a 0.52067235,0.52067235 0 1 0 0.98018,0.35162 l 1.24318,-3.46547 a 0.52067235,0.52067235 0 1 0 -0.98018,-0.35162 z m 0.18718,10.43564 -1.57818,3.32631 a 0.52067235,0.52067235 0 1 0 0.94082,0.44638 l 1.57818,-3.32631 a 0.52067235,0.52067235 0 1 0 -0.94082,-0.44638 z m 0.34325,10.50488 -2.16593,2.9772 a 0.52067235,0.52067235 0 1 0 0.84208,0.61262 l 2.16593,-2.9772 a 0.52067235,0.52067235 0 1 0 -0.84208,-0.61262 z m 0.50064,10.68906 -2.94869,2.20459 a 0.52067235,0.52067235 0 1 0 0.62356,0.83402 l 2.94869,-2.20459 a 0.52067235,0.52067235 0 1 0 -0.62356,-0.83402 z M 151.066,5.9063379 148.28433,3.4944322 a 0.52067235,0.52067235 0 1 0 -0.6822,0.7867754 l 2.78167,2.4119057 a 0.52067235,0.52067235 0 1 0 0.6822,-0.7867754 z m -0.22087,10.7741521 -2.18371,-2.964189 a 0.52067235,0.52067235 0 1 0 -0.8384,0.617646 l 2.18371,2.964189 a 0.52067235,0.52067235 0 1 0 0.8384,-0.617646 z m -0.23984,10.669802 -1.60531,-3.313301 a 0.52067235,0.52067235 0 1 0 -0.93714,0.45405 l 1.60531,3.313301 a 0.52067235,0.52067235 0 1 0 0.93714,-0.45405 z m -0.16727,10.546236 -1.22598,-3.471589 a 0.52067235,0.52067235 0 1 0 -0.98192,0.34676 l 1.22598,3.471589 a 0.52067235,0.52067235 0 1 0 0.98192,-0.34676 z m -0.0233,10.42963 -1.17441,-3.489371 a 0.52067235,0.52067235 0 1 0 -0.98694,0.332174 l 1.17441,3.489371 a 0.52067235,0.52067235 0 1 0 0.98694,-0.332174 z m 0.14336,10.305081 -1.49665,-3.36378 a 0.52067235,0.52067235 0 1 0 -0.95142,0.423316 l 1.49665,3.36378 a 0.52067235,0.52067235 0 1 0 0.95142,-0.423316 z m 0.26905,10.139261 -2.13851,-2.996955 a 0.52067235,0.52067235 0 1 0 -0.84766,0.604862 l 2.13851,2.996955 a 0.52067235,0.52067235 0 1 0 0.84766,-0.604862 z m 0.28281,9.92875 -2.91611,-2.247501 a 0.52067235,0.52067235 0 1 0 -0.63568,0.824802 l 2.91611,2.247501 a 0.52067235,0.52067235 0 1 0 0.63568,-0.824802 z m 0.13686,9.736755 -3.52399,-1.066051 a 0.52067235,0.52067235 0 1 0 -0.30152,0.996736 l 3.52399,1.066051 a 0.52067235,0.52067235 0 1 0 0.30152,-0.996736 z m -0.13411,9.674338 -3.66278,0.372914 a 0.52067235,0.52067235 0 1 0 0.10548,1.03599 l 3.66278,-0.372914 a 0.52067235,0.52067235 0 1 0 -0.10548,-1.03599 z m -0.39227,9.799637 -3.25784,1.71506 a 0.52067235,0.52067235 0 1 0 0.4851,0.92146 l 3.25784,-1.71506 a 0.52067235,0.52067235 0 1 0 -0.4851,-0.92146 z m -0.50273,10.03491 -2.52513,2.67929 a 0.52067235,0.52067235 0 1 0 0.75782,0.71422 l 2.52513,-2.67929 a 0.52067235,0.52067235 0 1 0 -0.75782,-0.71422 z m -0.44578,10.24792 -1.78631,3.21932 a 0.52067235,0.52067235 0 1 0 0.91056,0.50524 l 1.78631,-3.21932 a 0.52067235,0.52067235 0 1 0 -0.91056,-0.50524 z m -0.29405,10.36808 -1.26554,3.45736 a 0.52067235,0.52067235 0 1 0 0.9779,0.35794 l 1.26554,-3.45736 a 0.52067235,0.52067235 0 1 0 -0.9779,-0.35794 z m -0.12638,10.4081 -1.03429,3.53345 a 0.52067235,0.52067235 0 1 0 0.9994,0.29254 l 1.03429,-3.53345 a 0.52067235,0.52067235 0 1 0 -0.9994,-0.29254 z m 0.0182,10.41369 -1.06779,3.52347 a 0.52067235,0.52067235 0 1 0 0.99658,0.30202 l 1.06779,-3.52347 a 0.52067235,0.52067235 0 1 0 -0.99658,-0.30202 z m 0.14308,10.42149 -1.32855,3.43364 a 0.52067235,0.52067235 0 1 0 0.97118,0.37578 l 1.32855,-3.43364 a 0.52067235,0.52067235 0 1 0 -0.97118,-0.37578 z m 0.26773,10.45789 -1.80105,3.21111 a 0.52067235,0.52067235 0 1 0 0.90824,0.50942 l 1.80105,-3.21111 a 0.52067235,0.52067235 0 1 0 -0.90824,-0.50942 z m 0.4126,10.56434 -2.48612,2.71556 a 0.52067235,0.52067235 0 1 0 0.76808,0.70318 l 2.48612,-2.71556 a 0.52067235,0.52067235 0 1 0 -0.76808,-0.70318 z m 0.52332,10.80032 -3.25258,1.72504 a 0.52067235,0.52067235 0 1 0 0.48792,0.91996 l 3.25258,-1.72504 a 0.52067235,0.52067235 0 1 0 -0.48792,-0.91996 z M 161.2937,6.2203056 159.02048,3.3241971 a 0.52067235,0.52067235 0 1 0 -0.81914,0.642964 l 2.27322,2.8961085 a 0.52067235,0.52067235 0 1 0 0.81914,-0.642964 z m -0.19716,10.6433304 -1.78771,-3.218552 a 0.52067235,0.52067235 0 1 0 -0.91034,0.50564 l 1.78771,3.218552 a 0.52067235,0.52067235 0 1 0 0.91034,-0.50564 z m -0.14773,10.545855 -1.44479,-3.386379 a 0.52067235,0.52067235 0 1 0 -0.95782,0.408648 l 1.44479,3.386379 a 0.52067235,0.52067235 0 1 0 0.95782,-0.408648 z m -0.0373,10.442782 -1.36035,-3.421168 a 0.52067235,0.52067235 0 1 0 -0.96766,0.384766 l 1.36035,3.421168 a 0.52067235,0.52067235 0 1 0 0.96766,-0.384766 z m 0.0992,10.331935 -1.58682,-3.322199 a 0.52067235,0.52067235 0 1 0 -0.93966,0.44882 l 1.58682,3.322199 a 0.52067235,0.52067235 0 1 0 0.93966,-0.44882 z m 0.2119,10.194884 -2.09369,-3.028438 a 0.52067235,0.52067235 0 1 0 -0.85658,0.592186 l 2.09369,3.028438 a 0.52067235,0.52067235 0 1 0 0.85658,-0.592186 z m 0.24745,10.027515 -2.75409,-2.443361 a 0.52067235,0.52067235 0 1 0 -0.69108,0.778974 l 2.75409,2.443361 a 0.52067235,0.52067235 0 1 0 0.69108,-0.778974 z m 0.1695,9.863945 -3.35577,-1.514537 a 0.52067235,0.52067235 0 1 0 -0.42838,0.949154 l 3.35577,1.514537 a 0.52067235,0.52067235 0 1 0 0.42838,-0.949154 z m -0.0138,9.767624 -3.66852,-0.311351 a 0.52067235,0.52067235 0 1 0 -0.0881,1.037614 l 3.66852,0.311351 a 0.52067235,0.52067235 0 1 0 0.0881,-1.037614 z m -0.23839,9.791394 -3.55287,0.965462 a 0.52067235,0.52067235 0 1 0 0.27308,1.004902 l 3.55287,-0.965462 a 0.52067235,0.52067235 0 1 0 -0.27308,-1.004902 z m -0.40584,9.93681 -3.05098,2.0607 a 0.52067235,0.52067235 0 1 0 0.58286,0.86294 l 3.05098,-2.0607 a 0.52067235,0.52067235 0 1 0 -0.58286,-0.86294 z m -0.44222,10.13376 -2.37855,2.81025 a 0.52067235,0.52067235 0 1 0 0.79486,0.67276 l 2.37855,-2.81025 a 0.52067235,0.52067235 0 1 0 -0.79486,-0.67276 z m -0.35777,10.29178 -1.77974,3.22296 a 0.52067235,0.52067235 0 1 0 0.9116,0.50338 l 1.77974,-3.22296 a 0.52067235,0.52067235 0 1 0 -0.9116,-0.50338 z m -0.21499,10.37613 -1.40112,3.40468 a 0.52067235,0.52067235 0 1 0 0.96298,0.3963 l 1.40112,-3.40468 a 0.52067235,0.52067235 0 1 0 -0.96298,-0.3963 z m -0.069,10.40676 -1.27691,3.45319 a 0.52067235,0.52067235 0 1 0 0.9767,0.36116 l 1.27691,-3.45319 a 0.52067235,0.52067235 0 1 0 -0.9767,-0.36116 z m 0.0604,10.41918 -1.38581,3.41093 a 0.52067235,0.52067235 0 1 0 0.96476,0.39196 l 1.38581,-3.41093 a 0.52067235,0.52067235 0 1 0 -0.96476,-0.39196 z m 0.17901,10.44189 -1.70241,3.26448 a 0.52067235,0.52067235 0 1 0 0.92334,0.48152 l 1.70241,-3.26448 a 0.52067235,0.52067235 0 1 0 -0.92334,-0.48152 z m 0.29076,10.49842 -2.19635,2.95483 a 0.52067235,0.52067235 0 1 0 0.83576,0.62122 l 2.19635,-2.95483 a 0.52067235,0.52067235 0 1 0 -0.83576,-0.62122 z m 0.40852,10.62847 -2.84024,2.34266 a 0.52067235,0.52067235 0 1 0 0.6626,0.80334 l 2.84024,-2.34266 a 0.52067235,0.52067235 0 1 0 -0.6626,-0.80334 z m 0.47035,10.87792 -3.46797,1.23618 a 0.52067235,0.52067235 0 1 0 0.34964,0.9809 l 3.46797,-1.23618 a 0.52067235,0.52067235 0 1 0 -0.34964,-0.9809 z M 171.42389,6.5306899 169.83778,3.2081554 a 0.52067235,0.52067235 0 1 0 -0.93976,0.4486198 l 1.58611,3.3225345 a 0.52067235,0.52067235 0 1 0 0.93976,-0.4486198 z m -0.16926,10.5461081 -1.2032,-3.479554 a 0.52067235,0.52067235 0 1 0 -0.98416,0.340316 l 1.2032,3.479554 a 0.52067235,0.52067235 0 1 0 0.98416,-0.340316 z m -0.0649,10.456764 -1.06023,-3.525749 a 0.52067235,0.52067235 0 1 0 -0.99724,0.299878 l 1.06023,3.525749 a 0.52067235,0.52067235 0 1 0 0.99724,-0.299878 z m 0.0717,10.365423 -1.21812,-3.47436 a 0.52067235,0.52067235 0 1 0 -0.9827,0.344536 l 1.21812,3.47436 a 0.52067235,0.52067235 0 1 0 0.9827,-0.344536 z m 0.19739,10.254073 -1.66715,-3.282619 a 0.52067235,0.52067235 0 1 0 -0.92846,0.471542 l 1.66715,3.282619 a 0.52067235,0.52067235 0 1 0 0.92846,-0.471542 z m 0.26396,10.112773 -2.31345,-2.864074 a 0.52067235,0.52067235 0 1 0 -0.81008,0.654342 l 2.31345,2.864074 a 0.52067235,0.52067235 0 1 0 0.81008,-0.654342 z m 0.23551,9.964066 -2.98494,-2.15524 a 0.52067235,0.52067235 0 1 0 -0.6096,0.84427 l 2.98494,2.15524 a 0.52067235,0.52067235 0 1 0 0.6096,-0.84427 z m 0.11319,9.857854 -3.48556,-1.18565 a 0.52067235,0.52067235 0 1 0 -0.33536,0.985868 l 3.48556,1.18565 a 0.52067235,0.52067235 0 1 0 0.33536,-0.985868 z m -0.0581,9.835522 -3.68073,-0.085 a 0.52067235,0.52067235 0 1 0 -0.024,1.041068 l 3.68073,0.085 a 0.52067235,0.52067235 0 1 0 0.024,-1.041068 z m -0.21634,9.899942 -3.54909,0.979243 a 0.52067235,0.52067235 0 1 0 0.27698,1.003836 l 3.54909,-0.979243 a 0.52067235,0.52067235 0 1 0 -0.27698,-1.003836 z m -0.31418,10.022045 -3.17226,1.86861 a 0.52067235,0.52067235 0 1 0 0.52852,0.89726 l 3.17226,-1.86861 a 0.52067235,0.52067235 0 1 0 -0.52852,-0.89726 z m -0.32502,10.16355 -2.70125,2.50163 a 0.52067235,0.52067235 0 1 0 0.70756,0.76404 l 2.70125,-2.50163 a 0.52067235,0.52067235 0 1 0 -0.70756,-0.76404 z m -0.25787,10.2817 -2.29273,2.88068 a 0.52067235,0.52067235 0 1 0 0.81478,0.64848 l 2.29273,-2.88068 a 0.52067235,0.52067235 0 1 0 -0.81478,-0.64848 z m -0.15174,10.35732 -2.04114,3.06409 a 0.52067235,0.52067235 0 1 0 0.86666,0.57732 l 2.04114,-3.06409 a 0.52067235,0.52067235 0 1 0 -0.86666,-0.57732 z m -0.04,10.40102 -1.97359,3.10805 a 0.52067235,0.52067235 0 1 0 0.87908,0.55822 l 1.97359,-3.10805 a 0.52067235,0.52067235 0 1 0 -0.87908,-0.55822 z m 0.0683,10.43527 -2.08874,3.03186 a 0.52067235,0.52067235 0 1 0 0.85754,0.59078 l 2.08874,-3.03186 a 0.52067235,0.52067235 0 1 0 -0.85754,-0.59078 z m 0.16703,10.4791 -2.36368,2.82277 a 0.52067235,0.52067235 0 1 0 0.7984,0.66854 l 2.36368,-2.82277 a 0.52067235,0.52067235 0 1 0 -0.7984,-0.66854 z m 0.25111,10.54938 -2.75749,2.43951 a 0.52067235,0.52067235 0 1 0 0.69,0.77994 l 2.75749,-2.43951 a 0.52067235,0.52067235 0 1 0 -0.69,-0.77994 z m 0.33051,10.68203 -3.22887,1.76902 a 0.52067235,0.52067235 0 1 0 0.50036,0.91326 l 3.22887,-1.76902 a 0.52067235,0.52067235 0 1 0 -0.50036,-0.91326 z m 0.3516,10.90858 -3.62061,0.66795 a 0.52067235,0.52067235 0 1 0 0.18892,1.02406 l 3.62061,-0.66795 a 0.52067235,0.52067235 0 1 0 -0.18892,-1.02406 z M 181.45787,6.7905966 180.71062,3.1855147 a 0.52067235,0.52067235 0 1 0 -1.01968,0.2113542 l 0.74725,3.6050819 a 0.52067235,0.52067235 0 1 0 1.01968,-0.2113542 z m -0.15054,10.4836904 -0.43168,-3.656314 a 0.52067235,0.52067235 0 1 0 -1.03416,0.122098 l 0.43168,3.656314 a 0.52067235,0.52067235 0 1 0 1.03416,-0.122098 z m 0.001,10.412863 -0.43459,-3.65597 a 0.52067235,0.52067235 0 1 0 -1.03406,0.12292 l 0.43459,3.65597 a 0.52067235,0.52067235 0 1 0 1.03406,-0.12292 z m 0.16178,10.337142 -0.77415,-3.599401 a 0.52067235,0.52067235 0 1 0 -1.01806,0.218962 l 0.77415,3.599401 a 0.52067235,0.52067235 0 1 0 1.01806,-0.218962 z m 0.28483,10.228295 -1.39859,-3.405718 a 0.52067235,0.52067235 0 1 0 -0.96328,0.395582 l 1.39859,3.405718 a 0.52067235,0.52067235 0 1 0 0.96328,-0.395582 z m 0.32577,10.087234 -2.17272,-2.97225 a 0.52067235,0.52067235 0 1 0 -0.84068,0.614538 l 2.17272,2.97225 a 0.52067235,0.52067235 0 1 0 0.84068,-0.614538 z m 0.26495,9.956459 -2.90274,-2.264751 a 0.52067235,0.52067235 0 1 0 -0.64056,0.821018 l 2.90274,2.264751 a 0.52067235,0.52067235 0 1 0 0.64056,-0.821018 z m 0.13102,9.890826 -3.41909,-1.365558 a 0.52067235,0.52067235 0 1 0 -0.38624,0.967066 l 3.41909,1.365558 a 0.52067235,0.52067235 0 1 0 0.38624,-0.967066 z m -0.0138,9.911056 -3.65675,-0.427996 a 0.52067235,0.52067235 0 1 0 -0.12106,1.034284 l 3.65675,0.427996 a 0.52067235,0.52067235 0 1 0 0.12106,-1.034284 z m -0.11876,9.991003 -3.65807,0.416519 a 0.52067235,0.52067235 0 1 0 0.1178,1.03466 l 3.65807,-0.416519 a 0.52067235,0.52067235 0 1 0 -0.1178,-1.03466 z m -0.17129,10.088535 -3.51106,1.10791 a 0.52067235,0.52067235 0 1 0 0.31336,0.99308 l 3.51106,-1.10791 a 0.52067235,0.52067235 0 1 0 -0.31336,-0.99308 z m -0.17878,10.18206 -3.3012,1.63005 a 0.52067235,0.52067235 0 1 0 0.46104,0.93372 l 3.3012,-1.63005 a 0.52067235,0.52067235 0 1 0 -0.46104,-0.93372 z m -0.14698,10.26736 -3.10551,1.97758 a 0.52067235,0.52067235 0 1 0 0.55934,0.87836 l 3.10551,-1.97758 a 0.52067235,0.52067235 0 1 0 -0.55934,-0.87836 z m -0.0915,10.33685 -2.97616,2.16736 a 0.52067235,0.52067235 0 1 0 0.61302,0.84178 l 2.97616,-2.16736 a 0.52067235,0.52067235 0 1 0 -0.61302,-0.84178 z m -0.0241,10.39485 -2.94134,2.21439 a 0.52067235,0.52067235 0 1 0 0.62632,0.83194 l 2.94134,-2.21439 a 0.52067235,0.52067235 0 1 0 -0.62632,-0.83194 z m 0.0472,10.45053 -3.0094,2.12098 a 0.52067235,0.52067235 0 1 0 0.5999,0.85118 l 3.0094,-2.12098 a 0.52067235,0.52067235 0 1 0 -0.5999,-0.85118 z m 0.10971,10.50955 -3.16224,1.88554 a 0.52067235,0.52067235 0 1 0 0.53332,0.89442 l 3.16224,-1.88554 a 0.52067235,0.52067235 0 1 0 -0.53332,-0.89442 z m 0.15641,10.58015 -3.36455,1.49493 a 0.52067235,0.52067235 0 1 0 0.42282,0.95164 l 3.36455,-1.49493 a 0.52067235,0.52067235 0 1 0 -0.42282,-0.95164 z m 0.19458,10.69539 -3.57723,0.87087 a 0.52067235,0.52067235 0 1 0 0.24632,1.0118 l 3.57723,-0.87087 a 0.52067235,0.52067235 0 1 0 -0.24632,-1.0118 z m 0.18718,10.87771 -3.68069,-0.0869 a 0.52067235,0.52067235 0 1 0 -0.0246,1.04106 l 3.68069,0.0869 a 0.52067235,0.52067235 0 1 0 0.0246,-1.04106 z m 8.99572,-195.5154172 0.17042,-3.6777617 a 0.52067235,0.52067235 0 1 0 -1.04022,-0.048202 l -0.17042,3.6777617 a 0.52067235,0.52067235 0 1 0 1.04022,0.048202 z m -0.1534,10.4427142 0.46982,-3.65161 a 0.52067235,0.52067235 0 1 0 -1.03284,-0.132886 l -0.46982,3.65161 a 0.52067235,0.52067235 0 1 0 1.03284,0.132886 z m 0.0387,10.407287 0.39497,-3.660463 a 0.52067235,0.52067235 0 1 0 -1.03534,-0.111714 l -0.39497,3.660463 a 0.52067235,0.52067235 0 1 0 1.03534,0.111714 z m 0.22289,10.361726 -0.0449,-3.681435 a 0.52067235,0.52067235 0 1 0 -1.04126,0.0127 l 0.0449,3.681435 a 0.52067235,0.52067235 0 1 0 1.04126,-0.0127 z m 0.35665,10.267362 -0.78191,-3.597722 a 0.52067235,0.52067235 0 1 0 -1.01758,0.221158 L 190.87,48.65698 a 0.52067235,0.52067235 0 1 0 1.01758,-0.221158 z m 0.39724,10.131462 -1.66523,-3.283595 a 0.52067235,0.52067235 0 1 0 -0.92874,0.470998 l 1.66523,3.283595 a 0.52067235,0.52067235 0 1 0 0.92874,-0.470998 z m 0.33224,10.009905 -2.49183,-2.71031 a 0.52067235,0.52067235 0 1 0 -0.7666,0.704796 l 2.49183,2.71031 a 0.52067235,0.52067235 0 1 0 0.7666,-0.704796 z m 0.20252,9.962549 -3.10306,-1.981397 a 0.52067235,0.52067235 0 1 0 -0.56042,0.87768 l 3.10306,1.981397 a 0.52067235,0.52067235 0 1 0 0.56042,-0.87768 z m 0.0762,10.0021 -3.45956,-1.259536 a 0.52067235,0.52067235 0 1 0 -0.35626,0.978512 l 3.45956,1.259536 a 0.52067235,0.52067235 0 1 0 0.35626,-0.978512 z m -0.004,10.090993 -3.62196,-0.66056 a 0.52067235,0.52067235 0 1 0 -0.18684,1.024446 l 3.62196,0.66056 a 0.52067235,0.52067235 0 1 0 0.18684,-1.024446 z m -0.0371,10.179509 -3.67584,-0.20793 a 0.52067235,0.52067235 0 1 0 -0.0588,1.03968 l 3.67584,0.20793 a 0.52067235,0.52067235 0 1 0 0.0588,-1.03968 z m -0.0465,10.24252 -3.67931,0.13295 a 0.52067235,0.52067235 0 1 0 0.0376,1.04066 l 3.67931,-0.13295 a 0.52067235,0.52067235 0 1 0 -0.0376,-1.04066 z m -0.0435,10.29252 -3.66208,0.37967 a 0.52067235,0.52067235 0 1 0 0.10738,1.0358 l 3.66208,-0.37967 a 0.52067235,0.52067235 0 1 0 -0.10738,-1.0358 z m -0.0297,10.34288 -3.64395,0.52594 a 0.52067235,0.52067235 0 1 0 0.14876,1.03066 l 3.64395,-0.52594 a 0.52067235,0.52067235 0 1 0 -0.14876,-1.03066 z m -0.008,10.3956 -3.63836,0.56325 a 0.52067235,0.52067235 0 1 0 0.15932,1.02908 l 3.63836,-0.56325 a 0.52067235,0.52067235 0 1 0 -0.15932,-1.02908 z m 0.0158,10.44888 -3.64903,0.48941 a 0.52067235,0.52067235 0 1 0 0.13842,1.0321 l 3.64903,-0.48941 a 0.52067235,0.52067235 0 1 0 -0.13842,-1.0321 z m 0.0354,10.5009 -3.66873,0.30891 a 0.52067235,0.52067235 0 1 0 0.0874,1.03768 l 3.66873,-0.30891 a 0.52067235,0.52067235 0 1 0 -0.0874,-1.03768 z m 0.0465,10.55312 -3.68162,0.0259 a 0.52067235,0.52067235 0 1 0 0.007,1.04132 l 3.68162,-0.0259 a 0.52067235,0.52067235 0 1 0 -0.007,-1.04132 z m 0.0504,10.63537 -3.65865,-0.4115 a 0.52067235,0.52067235 0 1 0 -0.11638,1.03482 l 3.65865,0.4115 a 0.52067235,0.52067235 0 1 0 0.11638,-1.03482 z m 0.0251,10.76824 -3.51923,-1.08167 a 0.52067235,0.52067235 0 1 0 -0.30594,0.99538 l 3.51923,1.08167 a 0.52067235,0.52067235 0 1 0 0.30594,-0.99538 z m 8.46677,-195.9858575 1.065,-3.5243104 a 0.52067235,0.52067235 0 1 0 -0.99682,-0.3012274 l -1.065,3.5243104 a 0.52067235,0.52067235 0 1 0 0.99682,0.3012274 z m -0.1786,10.4018915 1.38969,-3.409363 a 0.52067235,0.52067235 0 1 0 -0.96432,-0.393064 l -1.38969,3.409363 a 0.52067235,0.52067235 0 1 0 0.96432,0.393064 z m 0.0402,10.417511 1.31742,-3.437935 a 0.52067235,0.52067235 0 1 0 -0.9724,-0.372622 l -1.31742,3.437935 a 0.52067235,0.52067235 0 1 0 0.9724,0.372622 z m 0.24132,10.420005 0.87394,-3.576482 a 0.52067235,0.52067235 0 1 0 -1.01158,-0.247188 l -0.87394,3.576482 a 0.52067235,0.52067235 0 1 0 1.01158,0.247188 z m 0.39223,10.358297 0.11871,-3.679796 a 0.52067235,0.52067235 0 1 0 -1.0408,-0.03358 l -0.11871,3.679796 a 0.52067235,0.52067235 0 1 0 1.0408,0.03358 z m 0.45113,10.238364 -0.80841,-3.591861 a 0.52067235,0.52067235 0 1 0 -1.01594,0.228652 l 0.80841,3.591861 a 0.52067235,0.52067235 0 1 0 1.01594,-0.228652 z m 0.40194,10.122151 -1.70533,-3.262954 a 0.52067235,0.52067235 0 1 0 -0.9229,0.48234 l 1.70533,3.262954 a 0.52067235,0.52067235 0 1 0 0.9229,-0.48234 z m 0.28269,10.076733 -2.40519,-2.787478 a 0.52067235,0.52067235 0 1 0 -0.78842,0.68029 l 2.40519,2.787478 a 0.52067235,0.52067235 0 1 0 0.78842,-0.68029 z m 0.15931,10.118728 -2.85458,-2.325153 a 0.52067235,0.52067235 0 1 0 -0.65766,0.807398 l 2.85458,2.325153 a 0.52067235,0.52067235 0 1 0 0.65766,-0.807398 z m 0.0744,10.210505 -3.09865,-1.988291 a 0.52067235,0.52067235 0 1 0 -0.56238,0.876432 l 3.09865,1.988291 a 0.52067235,0.52067235 0 1 0 0.56238,-0.876432 z m 0.0312,10.297732 -3.21709,-1.79035 a 0.52067235,0.52067235 0 1 0 -0.50638,0.90992 l 3.21709,1.79035 a 0.52067235,0.52067235 0 1 0 0.50638,-0.90992 z m 0.0146,10.34615 -3.27944,-1.6734 a 0.52067235,0.52067235 0 1 0 -0.4733,0.92756 l 3.27944,1.6734 a 0.52067235,0.52067235 0 1 0 0.4733,-0.92756 z m 0.009,10.36588 -3.3207,-1.58994 a 0.52067235,0.52067235 0 1 0 -0.4497,0.93924 l 3.3207,1.58994 a 0.52067235,0.52067235 0 1 0 0.4497,-0.93924 z m 0.005,10.38489 -3.34437,-1.53953 a 0.52067235,0.52067235 0 1 0 -0.43544,0.94594 l 3.34437,1.53953 a 0.52067235,0.52067235 0 1 0 0.43544,-0.94594 z m 0.001,10.40612 -3.35033,-1.52656 a 0.52067235,0.52067235 0 1 0 -0.43178,0.94762 l 3.35033,1.52656 a 0.52067235,0.52067235 0 1 0 0.43178,-0.94762 z m -0.002,10.42792 -3.33853,-1.55217 a 0.52067235,0.52067235 0 1 0 -0.43902,0.94428 l 3.33853,1.55217 a 0.52067235,0.52067235 0 1 0 0.43902,-0.94428 z m -0.006,10.4486 -3.30901,-1.61413 a 0.52067235,0.52067235 0 1 0 -0.45654,0.93594 l 3.30901,1.61413 a 0.52067235,0.52067235 0 1 0 0.45654,-0.93594 z m -0.0106,10.46796 -3.26078,-1.7095 a 0.52067235,0.52067235 0 1 0 -0.48352,0.92228 l 3.26078,1.7095 a 0.52067235,0.52067235 0 1 0 0.48352,-0.92228 z m -0.0224,10.50786 -3.1699,-1.87262 a 0.52067235,0.52067235 0 1 0 -0.52966,0.89658 l 3.1699,1.87262 a 0.52067235,0.52067235 0 1 0 0.52966,-0.89658 z m -0.0569,10.59274 -2.97068,-2.17487 a 0.52067235,0.52067235 0 1 0 -0.61514,0.84024 l 2.97068,2.17487 a 0.52067235,0.52067235 0 1 0 0.61514,-0.84024 z"
       inkscape:path-effect="#path-effect1576"
       inkscape:original-d="m 202.88663,204.03667 -2.97068,-2.17487 m 3.07029,-8.3897 -3.1699,-1.87262 m 3.21534,-8.62239 -3.26078,-1.7095 m 3.2849,-8.75163 -3.30901,-1.61413 m 3.32377,-8.8303 -3.33853,-1.55217 m 3.34443,-8.87408 -3.35033,-1.52656 m 3.34735,-8.8804 -3.34437,-1.53953 m 3.33253,-8.84871 -3.3207,-1.58994 m 3.30008,-8.78178 -3.27944,-1.6734 m 3.24826,-8.68157 -3.21709,-1.79035 m 3.15787,-8.524126 -3.09865,-1.988291 m 2.97661,-8.256731 -2.85458,-2.325153 m 2.62989,-7.857129 -2.40519,-2.787478 m 2.05526,-7.38823 -1.70533,-3.262954 m 1.25687,-6.986041 -0.80841,-3.591861 m 0.34485,-6.777617 0.11871,-3.679796 m -0.49633,-6.785307 0.87394,-3.576482 m -1.09567,-6.90624 1.31742,-3.437935 m -1.35357,-6.989797 1.38969,-3.409363 m -1.22734,-6.9466102 1.065,-3.5243104 m -9.18633,200.1584716 -3.51923,-1.08167 m 3.58894,-9.66685 -3.65865,-0.4115 m 3.67014,-10.22062 -3.68162,0.0259 m 3.67517,-10.58084 -3.66873,0.30891 m 3.65888,-10.8126 -3.64903,0.48941 m 3.6437,-10.9398 -3.63836,0.56325 m 3.64115,-10.95806 -3.64395,0.52594 m 3.65301,-10.86625 -3.66208,0.37967 m 3.67069,-10.66976 -3.67931,0.13295 m 3.67758,-10.37596 -3.67584,-0.20793 m 3.6489,-9.979196 -3.62196,-0.66056 m 3.54076,-9.4534 -3.45956,-1.259536 m 3.28131,-8.79298 -3.10306,-1.981397 m 2.79745,-8.067594 -2.49183,-2.71031 m 2.07852,-7.416494 -1.66523,-3.283595 m 1.22357,-6.972787 -0.78191,-3.597722 m 0.41342,-6.773869 -0.0449,-3.681435 m -0.17503,-6.742498 0.39497,-3.660463 m -0.4324,-6.75741 0.46982,-3.65161 m -0.32011,-6.7487622 0.17042,-3.6777617 m -8.65832,199.7378099 -3.68069,-0.0869 m 3.62896,-10.80544 -3.57723,0.87087 m 3.4709,-11.59634 -3.36455,1.49493 m 3.26339,-12.10369 -3.16224,1.88554 m 3.08582,-12.41671 -3.0094,2.12098 m 2.97536,-12.58113 -2.94134,2.21439 m 2.95876,-12.60432 -2.97616,2.16736 m 3.04084,-12.48592 -3.10551,1.97758 m 3.20334,-12.21726 -3.3012,1.63005 m 3.40614,-11.78243 -3.51106,1.10791 m 3.58457,-11.175655 -3.65807,0.416519 m 3.6574,-10.40771 -3.65675,-0.427996 m 3.53793,-9.516669 -3.41909,-1.365558 m 3.16091,-8.598292 -2.90274,-2.264751 m 2.53773,-7.794948 -2.17272,-2.97225 m 1.78565,-7.224462 -1.39859,-3.405718 m 1.08637,-6.910887 -0.77415,-3.599401 m 0.60437,-6.785762 -0.43459,-3.65597 m 0.43314,-6.757304 -0.43168,-3.656314 m 0.58946,-6.7827483 -0.74725,-3.6050819 m -8.22951,199.3240482 -3.62061,0.66795 m 3.42473,-11.63193 -3.22887,1.76902 m 2.99318,-12.51771 -2.75749,2.43951 m 2.56058,-13.04459 -2.36368,2.82277 m 2.22622,-13.34075 -2.08874,3.03186 m 2.03117,-13.48341 -1.97359,3.10805 m 2.00736,-13.49952 -2.04114,3.06409 m 2.16694,-13.38583 -2.29273,2.88068 m 2.49699,-13.1046 -2.70125,2.50163 m 2.93675,-12.59857 -3.17226,1.86861 m 3.36067,-11.837367 -3.54909,0.979243 m 3.61492,-10.860569 -3.68073,-0.085 m 3.58314,-9.778122 -3.48556,-1.18565 m 3.23525,-8.743003 -2.98494,-2.15524 m 2.64919,-7.90379 -2.31345,-2.864074 m 1.9903,-7.340099 -1.66715,-3.282619 m 1.44264,-7.034957 -1.21812,-3.47436 m 1.13918,-6.913392 -1.06023,-3.525749 m 1.1317,-6.910796 -1.2032,-3.479554 m 1.39466,-7.0124022 -1.58611,-3.3225345 m -7.8864,198.8986747 -3.46797,1.23618 m 3.1541,-12.20288 -2.84024,2.34266 m 2.5183,-13.06219 -2.19635,2.95483 m 1.94938,-13.5231 -1.70241,3.26448 m 1.54411,-13.75115 -1.38581,3.41093 m 1.33136,-13.84551 -1.27691,3.45319 m 1.33902,-13.84238 -1.40112,3.40468 m 1.59042,-13.72727 -1.77974,3.22296 m 2.07914,-13.43005 -2.37855,2.81025 m 2.71477,-12.84892 -3.05098,2.0607 m 3.30193,-11.926529 -3.55287,0.965462 m 3.61069,-10.7405 -3.66852,-0.311351 m 3.51216,-9.500503 -3.35577,-1.514537 m 3.05492,-8.434498 -2.75409,-2.443361 m 2.42389,-7.677548 -2.09369,-3.028438 m 1.84025,-7.238129 -1.58682,-3.322199 m 1.47359,-7.041763 -1.36035,-3.421168 m 1.40256,-7.009673 -1.44479,-3.386379 m 1.61626,-7.11098 -1.78771,-3.218552 m 2.03047,-7.3561164 -2.27322,-2.8961085 m -7.65055,198.4410209 -3.25258,1.72504 m 2.86934,-12.63375 -2.48612,2.71556 m 2.1436,-13.37678 -1.80105,3.21111 m 1.56479,-13.73582 -1.32855,3.43364 m 1.19817,-13.89201 -1.06779,3.52347 m 1.05104,-13.9419 -1.03429,3.53345 m 1.14992,-13.90885 -1.26554,3.45736 m 1.52592,-13.75179 -1.78631,3.21932 m 2.15572,-13.36275 -2.52513,2.67929 m 2.8915,-12.61058 -3.25784,1.71506 m 3.4603,-11.457432 -3.66278,0.372914 m 3.59339,-10.066879 -3.52399,-1.066051 m 3.22005,-8.756671 -2.91611,-2.247501 m 2.52731,-7.791219 -2.13851,-2.996955 m 1.81758,-7.233079 -1.49665,-3.36378 m 1.33553,-6.986872 -1.17441,-3.489371 m 1.20019,-6.932966 -1.22598,-3.471589 m 1.41564,-7.021002 -1.60531,-3.313301 m 1.89452,-7.274703 -2.18371,-2.964189 m 2.48268,-7.7253984 -2.78167,-2.4119057 m -7.54826,197.9591501 -2.94869,2.20459 m 2.55731,-13.00435 -2.16593,2.9772 m 1.87205,-13.5652 -1.57818,3.32631 m 1.41068,-13.80933 -1.24318,3.46547 m 1.18478,-13.89877 -1.12638,3.50517 m 1.1817,-13.89987 -1.23702,3.46767 m 1.42809,-13.80056 -1.61916,3.30655 m 1.943,-13.51728 -2.26683,2.90112 m 2.64838,-12.90978 -3.02991,2.09155 m 3.31012,-11.86675 -3.59035,0.81506 m 3.59893,-10.453234 -3.6075,-0.735482 m 3.2984,-8.971091 -2.98929,-2.149222 m 2.49868,-7.795911 -2.00808,-3.085868 m 1.55134,-7.112894 -1.09462,-3.515227 m 0.82249,-6.835661 -0.55035,-3.640345 m 0.51548,-6.76817 -0.4806,-3.650208 m 0.67241,-6.798924 -0.86423,-3.578838 m 1.22424,-6.962317 -1.58425,-3.323422 m 2.0036,-7.365704 -2.42295,-2.772064 m 2.77415,-8.0543743 -3.12534,-1.946083 m -7.58875,197.4883593 -2.52405,2.68033 m 2.19658,-13.33959 -1.86913,3.17196 m 1.68696,-13.6795 -1.50478,3.36015 m 1.45299,-13.79584 -1.4012,3.40464 m 1.4481,-13.79802 -1.495,3.36451 m 1.64412,-13.70345 -1.79323,3.21549 m 2.05512,-13.45179 -2.31701,2.8612 m 2.6519,-12.9204 -2.98679,2.1527 m 3.26781,-11.97987 -3.54884,0.98015 m 3.59397,-10.62426 -3.63909,-0.55852 m 3.33635,-9.091102 -3.03363,-2.086175 m 2.46053,-7.789802 -1.88741,-3.161115 m 1.27195,-7.021534 -0.65649,-3.622706 m 0.21208,-6.764907 0.23232,-3.674373 m -0.40741,-6.758592 0.58252,-3.635336 m -0.47603,-6.764219 0.36952,-3.663119 m -0.007,-6.749696 -0.35678,-3.664381 m 0.89634,-6.886183 -1.43592,-3.390147 m 1.99175,-7.389385 -2.54757,-2.657977 m 2.94422,-8.3109127 -3.34088,-1.5470906 m -7.75341,197.0767823 -1.97917,3.10449 m 1.79166,-13.62262 -1.60416,3.31386 m 1.58314,-13.73731 -1.56212,3.33388 m 1.65491,-13.70062 -1.74769,3.24045 m 1.91221,-13.5537 -2.07674,3.04007 m 2.30772,-13.2667 -2.5387,2.66645 m 2.8162,-12.74469 -3.0937,1.99601 m 3.32984,-11.86941 -3.56597,0.91592 m 3.6041,-10.60254 -3.64223,-0.53773 m 3.34583,-9.11309 -3.04944,-2.06298 m 2.43624,-7.78262 -1.82304,-3.198674 m 1.09341,-6.982257 -0.36379,-3.663693 m -0.23965,-6.789665 0.84309,-3.583877 m -1.18578,-6.94679 1.52848,-3.349441 m -1.58687,-7.091904 1.64526,-3.293647 m -1.42078,-7.025657 1.19631,-3.48193 m -0.69073,-6.833956 0.18514,-3.677051 m 0.51898,-6.838616 -1.22309,-3.47261 m 1.91055,-7.372783 -2.598,-2.608716 m 3.03381,-8.4933386 -3.46964,-1.2315025 m -7.99178,196.7633181 -1.3737,3.41583 m 1.38929,-13.82293 -1.40486,3.40315 m 1.57353,-13.73674 -1.7422,3.24342 m 1.98234,-13.50275 -2.22251,2.93521 m 2.48061,-13.11135 -2.7387,2.46059 m 2.98894,-12.51878 -3.23917,1.75008 m 3.42519,-11.64701 -3.61122,0.71704 m 3.61922,-10.45641 -3.62721,-0.63111 m 3.33449,-9.06076 -3.04178,-2.07427 m 2.42891,-7.77498 -1.81604,-3.20266 m 1.03534,-6.97567 -0.25464,-3.672896 m -0.45354,-6.830188 1.16172,-3.493618 m -1.63286,-7.156008 2.10401,-3.021268 m -2.31017,-7.559025 2.51634,-2.687565 m -2.48193,-7.694466 2.44751,-2.750397 m -2.15216,-7.448658 1.85682,-3.179183 m -1.25708,-7.012577 0.65732,-3.622556 m 0.17529,-6.831633 -1.00788,-3.541072 m 1.80879,-7.344421 -2.60973,-2.596977 M 109.45246,5.5896449 105.90684,4.59791 m -8.228161,196.5573 -0.824945,3.5881 m 1.075818,-13.92468 -1.326672,3.43438 m 1.685448,-13.66166 -2.044244,3.06204 m 2.399938,-13.16527 -2.755644,2.4416 m 3.037184,-12.43131 -3.3187,1.59413 m 3.48192,-11.46929 -3.645149,0.51756 m 3.623049,-10.28876 -3.600943,-0.76694 m 3.310523,-8.97714 -3.020115,-2.10567 m 2.435626,-7.76936 -1.851133,-3.1825 m 1.077214,-6.9876 -0.303295,-3.66919 m -0.451627,-6.83966 1.206548,-3.478397 m -1.761245,-7.243225 2.315953,-2.86205 m -2.617968,-7.861174 2.919972,-2.242485 m -3.014825,-8.306703 3.109675,-1.971006 m -3.02766,-8.323616 2.94565,-2.208651 m -2.625957,-7.874189 2.306262,-2.869867 m -1.657327,-7.208052 1.008393,-3.540921 m -0.08796,-6.849803 -0.832422,-3.586368 m 1.721591,-7.322301 -2.610774,-2.595923 M 99.061872,5.500234 95.47104,4.6872805 m -8.37872,196.4367295 -0.478635,3.65047 m 0.958421,-13.93328 -1.438205,3.38918 m 1.951995,-13.47503 -2.465796,2.73401 m 2.862652,-12.63643 -3.259494,1.71193 m 3.455379,-11.50565 -3.651266,0.47249 m 3.615984,-10.22147 -3.580709,-0.85645 m 3.289377,-8.91672 -2.998038,-2.137 m 2.44996,-7.76874 -1.901887,-3.15243 m 1.172912,-7.00981 -0.443939,-3.65484 m -0.305787,-6.82244 1.055516,-3.52716 m -1.656535,-7.1957 2.257554,-2.908336 m -2.62807,-7.891162 2.998587,-2.136226 m -3.165795,-8.563332 3.333001,-1.564 m -3.363176,-8.917281 3.393352,-1.428333 m -3.29667,-8.788915 3.199987,-1.820733 m -2.882269,-8.182276 2.56455,-2.641606 m -1.898752,-7.358081 1.232955,-3.469123 m -0.259393,-6.872933 -0.7134,-3.61193 m 1.662305,-7.30974 -2.611215,-2.595484 m 3.113598,-8.7694018 -3.61597,-0.6926026 m -8.367049,196.3764254 -0.47682,3.65071 m 1.141172,-13.84308 -1.805543,3.20858 m 2.392515,-13.09915 -2.97947,2.1628 m 3.296445,-11.84774 -3.613422,0.70581 m 3.602166,-10.36005 -3.590911,-0.81261 m 3.291326,-8.93424 -2.991748,-2.1458 m 2.463736,-7.77467 -1.935724,-3.13176 m 1.259772,-7.03 -0.583814,-3.63513 m -0.122268,-6.80223 0.82835,-3.5873 m -1.433496,-7.08692 2.038647,-3.06576 m -2.456344,-7.730039 2.874037,-2.301065 m -3.098963,-8.471276 3.323891,-1.583268 m -3.410355,-9.045777 3.496817,-1.152069 m -3.496458,-9.260294 3.496102,-1.154237 m -3.394741,-9.013427 3.293377,-1.645803 m -2.980653,-8.32197 2.667931,-2.537149 m -1.999101,-7.428382 1.330268,-3.432983 M 76.770255,27.731614 76.109628,24.10966 m 1.636018,-7.304823 -2.611408,-2.595291 M 78.252834,5.4133808 74.627051,4.774113 m -8.133213,196.394567 -0.934686,3.5611 m 1.691686,-13.56868 -2.44868,2.74935 m 2.962166,-12.39531 -3.475655,1.21441 m 3.555538,-10.72971 -3.635433,-0.58191 m 3.325183,-9.06594 -3.014926,-2.1131 m 2.46775,-7.78636 -1.920571,-3.14108 m 1.270203,-7.02832 -0.619832,-3.62915 m -0.03085,-6.78984 0.681545,-3.61808 m -1.247557,-7.00237 1.813567,-3.20405 m -2.236028,-7.53791 2.658491,-2.54704 m -2.921694,-8.216424 3.184893,-1.847014 m -3.316029,-8.843402 3.447168,-1.293066 m -3.491328,-9.253269 3.535486,-1.027287 m -3.517722,-9.328564 3.499959,-1.142479 m -3.38735,-9.000921 3.274742,-1.682573 m -2.954459,-8.286069 2.634168,-2.572186 m -1.965778,-7.404581 1.29739,-3.445543 m -0.309428,-6.881353 -0.678534,-3.618645 m 1.644937,-7.306445 -2.611342,-2.595356 m 3.11694,-8.7870953 -3.622545,-0.6573659 m -7.666525,196.5988282 -1.871297,3.17069 m 2.5491,-12.88509 -3.226898,1.7726 m 3.451371,-11.19594 -3.675851,-0.20761 m 3.372326,-9.2926 -3.068799,-2.03408 m 2.452384,-7.80077 -1.835969,-3.19127 m 1.151279,-6.9918 -0.466592,-3.65203 m -0.152684,-6.7875 0.771965,-3.59987 m -1.275125,-7.00161 1.77828,-3.22378 m -2.15243,-7.46259 2.526579,-2.67795 m -2.777661,-8.02784 3.028748,-2.09325 M 53.951098,99.606381 57.275,98.023147 m -3.394849,-9.000696 3.465796,-1.242268 m -3.482119,-9.21875 3.498441,-1.147123 m -3.459744,-9.159552 3.421048,-1.360668 m -3.282689,-8.77549 3.14433,-1.915247 m -2.802963,-8.086926 2.461596,-2.737794 m -1.798518,-7.293424 1.135441,-3.502252 m -0.184911,-6.861708 -0.765621,-3.601223 m 1.688323,-7.314997 -2.611024,-2.595678 M 57.41578,5.466455 53.810321,4.7210421 m -7.104664,197.1696279 -3.012105,2.11712 m 3.345937,-11.53168 -3.679774,0.11935 m 3.405015,-9.50404 -3.130257,-1.93816 m 2.412764,-7.81028 -1.695267,-3.26818 m 0.901853,-6.9393 -0.108445,-3.68012 m -0.533511,-6.82888 1.17547,-3.48902 m -1.624731,-7.14794 2.073995,-3.04197 m -2.36747,-7.62023 2.660945,-2.54448 m -2.844909,-8.09467 3.028873,-2.09307 m -3.138594,-8.50039 3.248316,-1.73304 m -3.306817,-8.80033 3.365317,-1.493193 m -3.385178,-8.966725 3.405037,-1.400249 m -3.387009,-8.97087 3.368981,-1.484908 m -3.2955,-8.780265 3.222017,-1.781455 m -3.045418,-8.368933 2.868818,-2.307567 m -2.503244,-7.760886 2.137672,-2.997558 m -1.493615,-7.123492 0.84956,-3.58235 m 0.03265,-6.83916 -0.914876,-3.566227 m 1.762679,-7.332221 -2.610481,-2.59623 M 46.985111,5.5417345 43.414093,4.6457388 M 36.622121,202.81516 32.95019,203.0833 m 3.41978,-9.60929 -3.167628,-1.87646 m 2.369525,-7.81046 -1.571424,-3.32951 m 0.629071,-6.91452 0.313283,-3.66835 m -1.038933,-6.96362 1.764583,-3.2313 m -2.195095,-7.50734 2.625607,-2.58091 m -2.845328,-8.10313 3.065049,-2.03972 m -3.166257,-8.54526 3.267466,-1.69666 m -3.305924,-8.79535 3.34438,-1.53952 m -3.346772,-8.87915 3.349165,-1.52908 m -3.326066,-8.835674 3.302968,-1.626464 m -3.255918,-8.697696 3.208868,-1.805038 m -3.13114,-8.482378 3.053411,-2.057099 m -2.925403,-8.188072 2.797396,-2.393651 m -2.578497,-7.803531 2.359596,-2.826179 m -1.984163,-7.344537 1.608734,-3.311642 m -1.013465,-6.928686 0.418193,-3.65788 m 0.357747,-6.833097 -1.133685,-3.502818 m 1.874675,-7.36654 -2.615667,-2.590989 M 36.543373,5.6423028 33.028936,4.5451724 M 25.960169,203.88128 22.78525,202.01719 m 2.344781,-7.80355 -1.514643,-3.35572 m 0.465148,-6.91806 0.584344,-3.63504 m -1.413397,-7.13593 2.242453,-2.92 m -2.689156,-7.98891 3.135861,-1.92908 m -3.308716,-8.85022 3.481566,-1.19736 m -3.528967,-9.37757 3.57637,-0.87439 m -3.571429,-9.51933 3.566489,-0.91386 m -3.522167,-9.35245 3.477841,-1.20813 m -3.387872,-8.99103 3.297907,-1.6367 m -3.163915,-8.549324 3.029923,-2.091545 m -2.866082,-8.117385 2.702239,-2.500578 m -2.523005,-7.743502 2.343774,-2.839313 m -2.147115,-7.432483 1.950454,-3.122612 m -1.7071,-7.163025 1.463747,-3.378231 m -1.119143,-6.924673 0.774537,-3.599317 m -0.276934,-6.776243 -0.220668,-3.675091 m 0.843715,-6.887439 -1.466762,-3.376923 m 2.062507,-7.451339 -2.658252,-2.547286 M 26.090747,5.7548819 22.654673,4.4326209 M 14.726827,204.62243 13.191699,201.27604 m 0.448575,-6.92725 0.637976,-3.62601 m -1.542322,-7.22487 2.446668,-2.75115 m -2.921844,-8.32808 3.397021,-1.41958 m -3.531184,-9.53029 3.665346,-0.34674 m -3.672153,-10.31121 3.67896,0.14226 m -3.680163,-10.50957 3.681368,0.05 m -3.664461,-10.18827 3.647554,-0.50034 m -3.541931,-9.50243 3.436303,-1.32168 m -3.201964,-8.66309 2.96763,-2.17903 m -2.636205,-7.88841 2.304779,-2.871053 m -1.953207,-7.320378 1.601635,-3.31508 m -1.295604,-6.982794 0.989573,-3.546226 m -0.747165,-6.816861 0.504756,-3.646946 m -0.293568,-6.749579 0.08238,-3.680789 m 0.162194,-6.743469 -0.406768,-3.659168 m 0.74507,-6.824509 -1.083375,-3.518706 m 1.508833,-7.087766 -1.934286,-3.132654 m 2.349827,-7.631821 -2.765369,-2.430589 m 3.05614,-8.4310998 -3.34691,-1.5340197 M 3.3119856,204.77517 3.7796475,201.12329 m -1.4211143,-7.1807 2.3745694,-2.8136 m -2.9071912,-8.35039 3.4398065,-1.31253 m -3.5603281,-9.79681 3.6808547,0.0793 M 1.75879,160.85357 l 3.5740507,0.88382 m -3.5615611,-11.34502 3.5490722,0.97932 m -3.6039746,-11.1078 3.6588754,0.4094 m -3.6378207,-10.27392 3.6167663,-0.68846 m -3.3579603,-9.07547 3.0991568,-1.98751 m -2.5856546,-7.89808 2.0721516,-3.04321 M 3.1278554,100.60758 3.9637767,97.022019 M 3.6679091,90.238115 3.4237241,86.564511 M 4.0373045,79.761901 3.054328,76.21384 M 4.2436367,69.27789 2.8479968,65.870959 m 1.50122,-7.053694 -1.6068023,-3.312577 M 4.4362684,48.358692 2.6553639,45.13637 M 4.577299,37.858808 2.5143314,34.809359 M 4.7870666,27.280063 2.3045645,24.56121 M 5.0091505,16.624046 2.0824792,14.390321 M 5.1745015,5.9517089 1.9171276,4.2357721"
       inkscape:linked-fill="path1580" />
  </g>
</svg>
