<?xml version="1.0" encoding="UTF-8" standalone="no"?>
<svg
   class="generator__canvas"
   width="4096"
   height="4096"
   version="1.1"
   id="svg8"
   sodipodi:docname="field-l.svg"
   inkscape:version="1.1.2 (0a00cf5339, 2022-02-04)"
   xmlns:inkscape="http://www.inkscape.org/namespaces/inkscape"
   xmlns:sodipodi="http://sodipodi.sourceforge.net/DTD/sodipodi-0.dtd"
   xmlns="http://www.w3.org/2000/svg"
   xmlns:svg="http://www.w3.org/2000/svg">
  <defs
     id="defs12" />
  <sodipodi:namedview
     id="namedview10"
     pagecolor="#505050"
     bordercolor="#ffffff"
     borderopacity="1"
     inkscape:pageshadow="0"
     inkscape:pageopacity="0"
     inkscape:pagecheckerboard="1"
     showgrid="false"
     borderlayer="true"
     inkscape:showpageshadow="false"
     height="4096px"
     inkscape:current-layer="svg8" />
  <path
     style="fill:#26a269;fill-opacity:1;stroke-width:39.8611;stroke-linecap:round;-inkscape-stroke:none;stop-color:#000000"
     d="m -241.2935,-81.05725 h 4578.587 V 4177.0572 h -4578.587 z"
     id="path2" />
  <path
     style="fill:#2ec27e;fill-opacity:1;fill-rule:nonzero;stroke:none;stroke-width:20.361;stroke-linecap:round"
     d="M 151.91421,121.60496 88.23175,88.052863 a 10.180645,10.180645 0 1 0 -9.50251,18.007897 l 63.70201,33.5521 a 10.176087,10.176087 0 1 0 9.48296,-18.0079 z m -1.79883,209.6027 -57.230137,-43.6998 a 10.177387,10.177387 0 1 0 -12.337621,16.1895 l 57.210588,43.6802 a 10.1833,10.1833 0 1 0 12.35717,-16.1894 z m -2.99153,209.5636 -48.548833,-53.16322 a 10.179344,10.179344 0 1 0 -15.035864,13.72585 l 48.548837,53.18277 a 10.185937,10.185937 0 1 0 15.03586,-13.7454 z m -3.18706,207.99939 -40.33678,-59.63509 a 10.187134,10.187134 0 1 0 -16.873802,11.41865 l 40.336792,59.6351 a 10.187134,10.187134 0 1 0 16.87379,-11.41866 z m -2.28764,206.08325 -34.80343,-62.99813 a 10.182105,10.182105 0 1 0 -17.83187,9.83491 l 34.80343,63.01767 a 10.186829,10.186829 0 1 0 17.83187,-9.85445 z m -1.44688,204.9688 -31.44041,-64.7774 a 10.183235,10.183235 0 1 0 -18.320678,8.8963 l 31.420848,64.7774 a 10.183237,10.183237 0 1 0 18.32069,-8.8963 z m -1.81838,205.1056 -27.27573,-66.5763 a 10.181066,10.181066 0 1 0 -18.848597,7.7037 l 27.295277,66.6154 a 10.172018,10.172018 0 1 0 18.82905,-7.7037 z m -3.61721,206.1614 -19.2201,-69.3722 a 10.175249,10.175249 0 1 0 -19.611149,5.4356 l 19.220099,69.3722 a 10.175251,10.175251 0 1 0 19.61115,-5.4356 z m -6.88248,206.8654 -4.77081,-71.8163 a 10.179893,10.179893 0 1 0 -20.31503,1.3491 l 4.7708,71.8358 a 10.190299,10.190299 0 1 0 20.33459,-1.3686 z m -10.79297,205.7508 16.34588,-70.1152 a 10.178065,10.178065 0 1 0 -19.82623,-4.6144 l -16.345879,70.0957 a 10.180284,10.180284 0 1 0 19.826229,4.6339 z m -13.58899,201.7231 40.49321,-59.5178 a 10.173854,10.173854 0 1 0 -16.81514,-11.4578 l -40.532312,59.4983 a 10.181935,10.181935 0 1 0 16.834692,11.4577 z m -12.963296,196.1115 60.612716,-38.8509 a 10.180188,10.180188 0 1 0 -11.00805,-17.1279 l -60.593165,38.8508 a 10.183136,10.183136 0 1 0 10.988499,17.1475 z m -8.642201,192.3574 70.721357,-13.4717 a 10.181171,10.181171 0 1 0 -3.81274,-20.0022 l -70.721352,13.4717 a 10.181171,10.181171 0 1 0 3.812735,20.0022 z m -3.46079,192.983 71.562117,8.0166 a 10.180717,10.180717 0 1 0 2.24853,-20.2369 l -71.542558,-8.0165 a 10.181766,10.181766 0 1 0 -2.268089,20.2368 z m -0.488813,197.7344 69.39179,19.1614 a 10.182066,10.182066 0 1 0 5.41604,-19.6307 l -69.411342,-19.1614 a 10.17947,10.17947 0 1 0 -5.396488,19.6307 z m 0,204.6168 69.90015,17.2844 a 10.181499,10.181499 0 1 0 4.88812,-19.7676 l -69.880595,-17.2844 a 10.1815,10.1815 0 1 0 -4.888122,19.7676 z m 1.192702,211.7535 71.972718,1.5642 a 10.179372,10.179372 0 1 0 0.43015,-20.3542 l -71.95316,-1.5642 a 10.189331,10.189331 0 1 0 -0.449708,20.3737 z m 6.217692,216.5633 67.260566,-25.6528 a 10.183806,10.183806 0 1 0 -7.27353,-19.0246 l -67.260562,25.6529 a 10.183793,10.183793 0 1 0 7.273526,19.0245 z m 14.547053,215.3316 46.437163,-55.0011 a 10.184209,10.184209 0 1 0 -15.56378,-13.1393 l -46.417613,55.0207 a 10.170425,10.170425 0 1 0 15.54423,13.1197 z m 20.960273,206.533 9.15056,-71.4057 a 10.18098,10.18098 0 1 0 -20.19772,-2.581 l -9.13101,71.4057 a 10.171284,10.171284 0 1 0 20.17817,2.581 z M 355.90534,119.57156 290.46315,89.577963 a 10.184079,10.184079 0 1 0 -8.48578,18.516297 l 65.44219,29.9935 a 10.184037,10.184037 0 1 0 8.48578,-18.5162 z m -3.20661,213.9824 -54.08219,-47.5125 a 10.176188,10.176188 0 1 0 -13.43256,15.29 l 54.06264,47.5126 a 10.182662,10.182662 0 1 0 13.45211,-15.2901 z m -6.19814,212.77021 -37.81452,-61.2384 a 10.179531,10.179531 0 1 0 -17.3235,10.69521 l 37.81451,61.25795 a 10.184671,10.184671 0 1 0 17.32351,-10.71476 z m -7.21487,209.73956 -21.1949,-68.78566 a 10.176977,10.176977 0 1 0 -19.45472,5.98306 l 21.17534,68.80522 a 10.189198,10.189198 0 1 0 19.47428,-6.00262 z m -6.23724,206.86534 -7.95787,-71.56211 a 10.180681,10.180681 0 1 0 -20.23682,2.24854 l 7.95786,71.56211 a 10.180683,10.180683 0 1 0 20.23683,-2.24854 z m -4.71215,205.16433 1.6033,-71.9532 a 10.179775,10.179775 0 1 0 -20.35414,-0.4693 l -1.6033,71.9532 a 10.170002,10.170002 0 1 0 20.33458,0.4693 z m -4.22334,204.4408 9.85445,-71.3079 a 10.17446,10.17446 0 1 0 -20.15861,-2.7765 l -9.87401,71.3079 a 10.184145,10.184145 0 1 0 20.17817,2.7765 z m -5.02499,203.9716 19.35696,-69.3332 a 10.180489,10.180489 0 1 0 -19.61114,-5.4747 l -19.35697,69.3332 a 10.180489,10.180489 0 1 0 19.61115,5.4747 z m -6.62829,203.033 31.32308,-64.8165 a 10.183511,10.183511 0 1 0 -18.34023,-8.8573 l -31.30354,64.8165 a 10.174712,10.174712 0 1 0 18.32069,8.8573 z m -8.09474,201.2147 45.06849,-56.1156 a 10.186796,10.186796 0 1 0 -15.87662,-12.7678 l -45.10759,56.1352 a 10.180672,10.180672 0 1 0 15.87662,12.7482 z m -8.40757,198.6729 58.03179,-42.6049 a 10.175644,10.175644 0 1 0 -12.04433,-16.4046 l -58.03179,42.6245 a 10.173561,10.173561 0 1 0 12.06389,16.385 z m -6.94113,196.5221 67.18236,-25.8289 a 10.181668,10.181668 0 1 0 -7.31264,-19.005 l -67.18235,25.8484 a 10.172563,10.172563 0 1 0 7.31263,18.9855 z m -4.34065,196.1701 71.32748,-9.7763 a 10.184145,10.184145 0 1 0 -2.77645,-20.1781 l -71.30793,9.7762 a 10.182832,10.182832 0 1 0 2.7569,20.1782 z m -1.83794,198.3209 71.95317,0.9776 a 10.178128,10.178128 0 1 0 0.29328,-20.3541 l -71.97271,-0.9776 a 10.177991,10.177991 0 1 0 -0.27374,20.3541 z m -0.23463,202.7007 71.93361,2.7764 a 10.174817,10.174817 0 1 0 0.7821,-20.3346 l -71.95316,-2.7764 a 10.174817,10.174817 0 1 0 -0.7821,20.3346 z m 1.48599,208.3513 71.65988,-6.7847 a 10.173414,10.173414 0 1 0 -1.91615,-20.2564 l -71.65987,6.7652 a 10.183136,10.183136 0 1 0 1.91614,20.2759 z m 5.59201,213.3568 66.41981,-27.7646 a 10.174835,10.174835 0 1 0 -7.8601,-18.7704 l -66.41981,27.7646 a 10.174835,10.174835 0 1 0 7.8601,18.7704 z m 12.96331,214.002 47.84494,-53.7889 a 10.17929,10.17929 0 1 0 -15.21184,-13.5304 l -47.84494,53.7694 a 10.185773,10.185773 0 1 0 15.21184,13.5499 z m 20.09996,207.1586 12.47448,-70.8973 a 10.183621,10.183621 0 1 0 -20.06085,-3.5195 l -12.47449,70.8974 a 10.183619,10.183619 0 1 0 20.06086,3.5194 z m 20.47145,194.8601 -30.01307,-65.4226 a 10.184042,10.184042 0 1 0 -18.51621,8.4858 l 30.03263,65.4422 a 10.179242,10.179242 0 1 0 18.49665,-8.5054 z M 559.7987,117.28386 492.61635,91.435463 a 10.181704,10.181704 0 1 0 -7.31263,19.005097 l 67.18235,25.8483 a 10.181667,10.181667 0 1 0 7.31263,-19.005 z m -4.22333,217.7366 -51.97052,-49.8002 a 10.171059,10.171059 0 1 0 -14.0778,14.6839 l 51.97052,49.8197 a 10.178118,10.178118 0 1 0 14.0778,-14.7034 z m -9.34609,215.01868 -28.68351,-66.02876 a 10.179743,10.179743 0 1 0 -18.67262,8.11429 l 28.6835,66.02876 a 10.179745,10.179745 0 1 0 18.67263,-8.11429 z m -11.36,209.95464 -4.30155,-71.8554 a 10.185933,10.185933 0 1 0 -20.33459,1.23181 l 4.30155,71.8554 a 10.185933,10.185933 0 1 0 20.33459,-1.23181 z m -9.95222,205.63354 15.15318,-70.38897 a 10.179907,10.179907 0 1 0 -19.90443,-4.28199 l -15.15318,70.38896 a 10.179907,10.179907 0 1 0 19.90443,4.282 z m -7.33218,203.34588 28.60529,-66.0483 a 10.175851,10.175851 0 1 0 -18.67263,-8.0947 l -28.62484,66.0483 a 10.184821,10.184821 0 1 0 18.69218,8.0947 z m -5.4747,202.4661 38.12736,-61.0625 a 10.180414,10.180414 0 1 0 -17.26485,-10.7929 l -38.12736,61.0624 a 10.180414,10.180414 0 1 0 17.26485,10.793 z m -4.63394,201.9185 45.83104,-55.5291 a 10.174122,10.174122 0 1 0 -15.70065,-12.9437 l -45.83104,55.5291 a 10.174122,10.174122 0 1 0 15.70065,12.9437 z m -4.43841,201.2929 52.83082,-48.8812 a 10.18361,10.18361 0 1 0 -13.82361,-14.9577 l -52.83082,48.8812 a 10.183612,10.183612 0 1 0 13.82361,14.9577 z m -4.3211,200.5108 59.24404,-40.9038 a 10.182854,10.182854 0 1 0 -11.57507,-16.7565 l -59.24405,40.9038 a 10.182854,10.182854 0 1 0 11.57508,16.7565 z m -3.89095,199.9046 64.48411,-32.0074 a 10.182596,10.182596 0 1 0 -9.0528,-18.2425 l -64.48411,32.0075 a 10.182596,10.182596 0 1 0 9.0528,18.2424 z m -2.93287,199.9243 67.984,-23.639 a 10.171854,10.171854 0 1 0 -6.6674,-19.2201 l -68.00356,23.6194 a 10.184301,10.184301 0 1 0 6.68696,19.2397 z m -1.68152,200.9605 69.72418,-17.8514 a 10.191109,10.191109 0 1 0 -5.04454,-19.7481 l -69.74373,17.8906 a 10.174554,10.174554 0 1 0 5.06409,19.7089 z m -0.19552,203.2677 69.9197,-17.1085 a 10.176808,10.176808 0 1 0 -4.84902,-19.7675 l -69.9197,17.0888 a 10.184019,10.184019 0 1 0 4.82946,19.7872 z m 1.79883,206.4938 68.08177,-23.4043 a 10.183948,10.183948 0 1 0 -6.6283,-19.2592 l -68.06222,23.4043 a 10.180771,10.180771 0 1 0 6.60875,19.2592 z m 5.41604,209.7982 61.29705,-37.7167 a 10.177617,10.177617 0 1 0 -10.6561,-17.3431 l -61.31661,37.7363 a 10.174399,10.174399 0 1 0 10.67566,17.3235 z m 11.45776,210.8345 43.85623,-57.0932 a 10.179666,10.179666 0 1 0 -16.15036,-12.3963 l -43.83668,57.0933 a 10.171905,10.171905 0 1 0 16.13081,12.3962 z m 18.18381,206.0246 11.43821,-71.0928 a 10.178614,10.178614 0 1 0 -20.09996,-3.2262 l -11.43821,71.0733 a 10.189816,10.189816 0 1 0 20.11951,3.2457 z m 19.74802,195.0557 -29.60247,-65.5986 a 10.186472,10.186472 0 1 0 -18.57487,8.3684 l 29.62202,65.6182 a 10.190492,10.190492 0 1 0 18.57487,-8.388 z m 12.12254,184.4386 -62.07916,-36.4458 a 10.179193,10.179193 0 1 0 -10.30416,17.5581 l 62.07916,36.4458 a 10.179193,10.179193 0 1 0 10.30416,-17.5581 z M 763.5552,114.83986 694.8282,93.390763 a 10.179219,10.179219 0 1 0 -6.06127,19.435197 l 68.70745,21.449 a 10.179207,10.179207 0 1 0 6.06127,-19.4351 z m -4.67304,220.7085 -51.12976,-50.6605 a 10.182742,10.182742 0 1 0 -14.33198,14.4688 l 51.14931,50.641 a 10.175887,10.175887 0 1 0 14.31243,-14.4689 z m -11.96613,216.622 -22.15297,-68.49237 a 10.180828,10.180828 0 1 0 -19.37652,6.2568 l 22.17253,68.49237 a 10.171524,10.171524 0 1 0 19.35696,-6.2568 z m -14.74257,209.40717 8.19249,-71.52301 a 10.183963,10.183963 0 1 0 -20.23683,-2.30719 l -8.17294,71.52301 a 10.174251,10.174251 0 1 0 20.21728,2.30719 z m -12.59181,203.52187 31.45996,-64.75785 a 10.183235,10.183235 0 1 0 -18.32068,-8.89638 l -31.45996,64.75785 a 10.183235,10.183235 0 1 0 18.32068,8.89638 z m -8.6813,200.9409 46.14387,-55.2553 a 10.189005,10.189005 0 1 0 -15.64199,-13.0611 l -46.14388,55.2554 a 10.189007,10.189007 0 1 0 15.642,13.061 z m -5.4747,200.589 54.68831,-46.8086 a 10.178616,10.178616 0 1 0 -13.23703,-15.466 l -54.68832,46.8086 a 10.171192,10.171192 0 1 0 13.23704,15.4465 z m -3.44124,201.0192 59.71331,-40.2195 a 10.176189,10.176189 0 1 0 -11.37955,-16.8738 l -59.69376,40.2195 a 10.170727,10.170727 0 1 0 11.36,16.8738 z m -2.20943,201.5862 62.74394,-35.2923 a 10.181216,10.181216 0 1 0 -9.97177,-17.7536 l -62.76349,35.2922 a 10.186008,10.186008 0 1 0 9.99132,17.7537 z m -1.40778,202.1141 64.58188,-31.7924 a 10.187135,10.187135 0 1 0 -8.99415,-18.2816 l -64.58187,31.8119 a 10.178363,10.178363 0 1 0 8.99414,18.2621 z m -0.72344,202.7788 65.48129,-29.8957 a 10.179968,10.179968 0 1 0 -8.46623,-18.5162 l -65.48129,29.9153 a 10.17108,10.17108 0 1 0 8.46623,18.4966 z m 0.0782,203.6979 65.38353,-30.1109 a 10.170354,10.170354 0 1 0 -8.50534,-18.4771 l -65.40308,30.1109 a 10.174441,10.174441 0 1 0 8.52489,18.4771 z m 1.17315,204.9492 63.89754,-33.1806 a 10.179396,10.179396 0 1 0 -9.3852,-18.0665 l -63.87798,33.161 a 10.188091,10.188091 0 1 0 9.38519,18.0861 z m 2.93287,206.3961 59.92838,-39.8871 a 10.18147,10.18147 0 1 0 -11.28178,-16.952 l -59.92839,39.8871 a 10.18147,10.18147 0 1 0 11.28179,16.952 z m 5.78754,207.6865 51.34484,-50.4649 a 10.183024,10.183024 0 1 0 -14.27332,-14.5275 l -51.34484,50.4649 a 10.183024,10.183024 0 1 0 14.27332,14.5275 z m 10.22595,207.5888 34.49059,-63.1936 a 10.171853,10.171853 0 1 0 -17.85142,-9.7567 l -34.51015,63.1936 a 10.180436,10.180436 0 1 0 17.87098,9.7567 z m 15.38781,203.8543 6.13948,-71.7186 a 10.184975,10.184975 0 1 0 -20.29548,-1.7401 l -6.11993,71.7381 a 10.174404,10.174404 0 1 0 20.27593,1.7206 z m 17.49948,195.0947 -30.73652,-65.1098 a 10.176257,10.176257 0 1 0 -18.39889,8.7009 l 30.71696,65.1098 a 10.185099,10.185099 0 1 0 18.41845,-8.7009 z m 11.57507,184.9861 -61.92273,-36.6804 a 10.182216,10.182216 0 1 0 -10.38238,17.519 l 61.94229,36.6805 a 10.177265,10.177265 0 1 0 10.36282,-17.5191 z m -0.97762,181.2516 -71.8163,5.2401 a 10.184656,10.184656 0 1 0 1.48599,20.315 l 71.79675,-5.2596 a 10.174914,10.174914 0 1 0 -1.48599,-20.2955 z M 967.13572,112.70856 897.31378,95.209163 a 10.181461,10.181461 0 1 0 -4.96634,19.747997 l 69.82195,17.519 a 10.181461,10.181461 0 1 0 4.96633,-19.748 z m -4.6926,222.8984 -51.032,-50.7582 a 10.182648,10.182648 0 1 0 -14.37108,14.4297 l 51.032,50.7583 a 10.18267,10.18267 0 1 0 14.37108,-14.4298 z m -13.88227,217.77566 -17.91008,-69.72418 a 10.174554,10.174554 0 1 0 -19.70891,5.06409 l 17.89053,69.72418 a 10.174554,10.174554 0 1 0 19.70891,-5.06409 z m -17.20619,208.64462 16.60007,-70.03702 a 10.177488,10.177488 0 1 0 -19.80668,-4.6926 l -16.61961,70.03702 a 10.177484,10.177484 0 1 0 19.80667,4.6926 z M 917.14,963.4961 958.92367,904.87773 a 10.175911,10.175911 0 1 0 -16.56096,-11.82925 l -41.80322,58.61836 A 10.183868,10.183868 0 1 0 917.14,963.4961 Z m -9.0528,198.8684 56.07654,-45.1076 a 10.180672,10.180672 0 1 0 -12.74821,-15.8766 l -56.11565,45.1271 a 10.185314,10.185314 0 1 0 12.78733,15.8571 z m -4.90768,199.4354 62.99813,-34.8035 a 10.18683,10.18683 0 1 0 -9.85446,-17.8318 l -62.99812,34.823 a 10.186829,10.186829 0 1 0 9.85445,17.8318 z m -2.26809,201.1364 65.8919,-29.0354 a 10.181432,10.181432 0 1 0 -8.21205,-18.6335 l -65.89189,29.0354 a 10.18143,10.18143 0 1 0 8.21204,18.6335 z m -0.58657,202.8767 66.57623,-27.3735 a 10.179439,10.179439 0 1 0 -7.74279,-18.8291 l -66.57623,27.3735 a 10.179439,10.179439 0 1 0 7.74279,18.8291 z m 0.64523,204.4017 65.79413,-29.1919 a 10.18039,10.18039 0 1 0 -8.25115,-18.6139 l -65.79413,29.1918 a 10.18039,10.18039 0 1 0 8.25115,18.614 z m 1.81838,205.6335 63.50649,-33.8844 a 10.181672,10.181672 0 1 0 -9.58072,-17.9688 l -63.52604,33.8845 a 10.190299,10.190299 0 1 0 9.58072,17.9883 z m 3.1284,206.533 59.22449,-40.9429 a 10.174812,10.174812 0 1 0 -11.57506,-16.7369 l -59.22449,40.9233 a 10.182854,10.182854 0 1 0 11.57507,16.7565 z m 4.84902,207.0022 52.00962,-49.761 a 10.171369,10.171369 0 1 0 -14.05824,-14.7035 l -52.00962,49.7415 a 10.178428,10.178428 0 1 0 14.05824,14.723 z m 7.11711,206.8458 40.55186,-59.4786 a 10.179387,10.179387 0 1 0 -16.81514,-11.4774 l -40.57142,59.4787 a 10.179362,10.179362 0 1 0 16.81514,11.4773 z m 10.01087,205.4967 22.99373,-68.2382 a 10.180414,10.180414 0 1 0 -19.29831,-6.4914 l -22.99373,68.2382 a 10.180414,10.180414 0 1 0 19.29831,6.4914 z m 13.10017,201.9186 -2.15077,-71.9532 a 10.171525,10.171525 0 1 0 -20.33459,0.5866 l 2.11166,71.9531 a 10.181299,10.181299 0 1 0 20.35415,-0.5865 z m 14.35153,195.1925 -33.14147,-63.8976 a 10.179396,10.179396 0 1 0 -18.0665,9.3852 l 33.14147,63.8976 a 10.179396,10.179396 0 1 0 18.0665,-9.3852 z m 10.36282,186.648 -61.1993,-37.8927 a 10.181525,10.181525 0 1 0 -10.73431,17.304 l 61.19929,37.8927 a 10.181528,10.181528 0 1 0 10.73432,-17.304 z m -0.31284,181.9751 -71.95317,2.3463 a 10.172732,10.172732 0 1 0 0.66479,20.3346 l 71.95316,-2.3463 a 10.172732,10.172732 0 1 0 -0.66478,-20.3346 z m -12.06389,185.9246 -58.8921,41.3926 a 10.181878,10.181878 0 1 0 11.71194,16.6587 l 58.8921,-41.3926 a 10.181878,10.181878 0 1 0 -11.71194,-16.6587 z M 1170.6771,111.16396 1100.1904,96.577763 a 10.182924,10.182924 0 1 0 -4.1256,19.943597 l 70.4868,14.5666 a 10.182914,10.182914 0 1 0 4.1255,-19.9436 z m -4.5948,224.443 -51.0515,-50.7582 a 10.189588,10.189588 0 1 0 -14.3711,14.4493 l 51.0515,50.7387 a 10.182677,10.182677 0 1 0 14.3711,-14.4298 z m -15.2509,218.53821 -14.9772,-70.40852 a 10.192936,10.192936 0 1 0 -19.9436,4.22334 l 14.9968,70.42807 a 10.175813,10.175813 0 1 0 19.9044,-4.24289 z m -18.8682,207.90162 22.1921,-68.47282 a 10.177571,10.177571 0 1 0 -19.357,-6.2959 l -22.2116,68.49237 a 10.171541,10.171541 0 1 0 19.357,6.2568 z m -15.0945,199.8069 48.1382,-53.53472 a 10.176184,10.176184 0 1 0 -15.1336,-13.60853 l -48.1382,53.51516 a 10.182723,10.182723 0 1 0 15.1336,13.62809 z m -8.9355,197.44101 61.473,-37.443 a 10.187316,10.187316 0 1 0 -10.5974,-17.4017 l -61.473,37.4626 a 10.187316,10.187316 0 1 0 10.5974,17.4017 z m -4.2429,198.9662 66.8891,-26.611 a 10.184431,10.184431 0 1 0 -7.5277,-18.9268 l -66.8695,26.5914 a 10.18991,10.18991 0 1 0 7.5081,18.9464 z m -1.3491,201.723 68.3946,-22.4267 a 10.183619,10.183619 0 1 0 -6.335,-19.357 l -68.3946,22.4463 a 10.183619,10.183619 0 1 0 6.335,19.357 z m 0.5866,204.4604 67.7689,-24.3037 a 10.18,10.18 0 1 0 -6.8825,-19.1615 l -67.7689,24.2842 a 10.18,10.18 0 1 0 6.8825,19.1614 z m 2.3267,206.533 64.9925,-30.9516 a 10.179996,10.179996 0 1 0 -8.7595,-18.3794 l -64.9925,30.9516 a 10.179996,10.179996 0 1 0 8.7595,18.3794 z m 4.3016,207.7843 59.2049,-40.9234 a 10.182864,10.182864 0 1 0 -11.5751,-16.7565 l -59.2049,40.9429 a 10.174819,10.174819 0 1 0 11.5751,16.737 z m 6.5109,207.9407 49.4092,-52.3616 a 10.179855,10.179855 0 1 0 -14.8012,-13.98 l -49.4092,52.3616 a 10.179855,10.179855 0 1 0 14.8012,13.98 z m 8.8378,206.8654 34.7643,-63.0177 a 10.182116,10.182116 0 1 0 -17.8319,-9.8349 l -34.7643,63.0372 a 10.17741,10.17741 0 1 0 17.8319,9.8154 z m 10.8712,204.519 15.0945,-70.3889 a 10.179939,10.179939 0 1 0 -19.9045,-4.282 l -15.0945,70.3889 a 10.179939,10.179939 0 1 0 19.9045,4.282 z m 12.2594,200.6868 -9.131,-71.4057 a 10.181014,10.181014 0 1 0 -20.1978,2.5809 l 9.131,71.4057 a 10.181014,10.181014 0 1 0 20.1978,-2.5809 z m 12.1225,195.3294 -35.9179,-62.4116 a 10.178612,10.178612 0 1 0 -17.6364,10.1673 l 35.8984,62.3724 a 10.173721,10.173721 0 1 0 17.6364,-10.1477 z m 8.8377,188.877 -60.0066,-39.7698 a 10.178799,10.178799 0 1 0 -11.2426,16.9716 l 60.0066,39.7698 a 10.178799,10.178799 0 1 0 11.2426,-16.9716 z m 0.8799,184.0671 -71.875,-4.0473 a 10.183098,10.183098 0 1 0 -1.134,20.3346 l 71.875,4.0473 a 10.183098,10.183098 0 1 0 1.134,-20.3346 z m -9.8545,185.4945 -63.0958,34.6666 a 10.172688,10.172688 0 1 0 9.7958,17.8319 l 63.0958,-34.6471 a 10.181245,10.181245 0 1 0 -9.7958,-17.8514 z m -17.1279,193.7065 -36.5827,61.9814 a 10.185651,10.185651 0 1 0 17.5385,10.3629 l 36.5827,-61.9814 a 10.185651,10.185651 0 1 0 -17.5385,-10.3629 z M 1374.199,110.24496 1303.3799,97.398963 a 10.174709,10.174709 0 1 0 -3.6368,20.021797 l 70.8387,12.8655 a 10.184302,10.184302 0 1 0 3.6368,-20.0413 z m -4.4971,225.362 -51.0711,-50.7582 a 10.182685,10.182685 0 1 0 -14.3515,14.4493 l 51.0516,50.7387 a 10.175764,10.175764 0 1 0 14.3515,-14.4298 z m -16.0721,218.94881 -13.2761,-70.76046 a 10.185352,10.185352 0 1 0 -20.0218,3.75408 l 13.2761,70.76046 a 10.185352,10.185352 0 1 0 20.0218,-3.75408 z m -19.8067,207.37371 25.3596,-67.35833 a 10.175587,10.175587 0 1 0 -19.0441,-7.17576 l -25.3596,67.35832 a 10.175587,10.175587 0 1 0 19.0441,7.17577 z m -15.4855,198.77061 51.5012,-50.289 a 10.176475,10.176475 0 1 0 -14.2146,-14.56661 l -51.5013,50.28901 a 10.176487,10.176487 0 1 0 14.2147,14.5666 z m -8.7205,196.69801 64.0344,-32.9068 a 10.178813,10.178813 0 1 0 -9.3069,-18.1056 l -64.0344,32.8873 a 10.178813,10.178813 0 1 0 9.3069,18.1056 z m -3.6954,198.9466 68.4337,-22.3485 a 10.180583,10.180583 0 1 0 -6.3154,-19.3569 l -68.4337,22.3485 a 10.180583,10.180583 0 1 0 6.3154,19.3569 z m -0.6648,202.5443 69.1376,-20.0804 a 10.181766,10.181766 0 1 0 -5.6897,-19.5525 l -69.1376,20.0999 a 10.181766,10.181766 0 1 0 5.6897,19.5525 z m 1.6033,205.9659 67.3975,-25.2814 a 10.181296,10.181296 0 1 0 -7.1562,-19.0636 l -67.3975,25.3009 a 10.181296,10.181296 0 1 0 7.1562,19.0637 z m 4.1061,208.3122 62.2551,-36.1134 a 10.179907,10.179907 0 1 0 -10.2064,-17.6168 l -62.2747,36.1134 a 10.171453,10.171453 0 1 0 10.2064,17.5973 z m 7.0584,208.9966 51.9901,-49.8002 A 10.17812,10.17812 0 1 0 1355.937,2117.66 l -51.9901,49.8002 a 10.17812,10.17812 0 1 0 14.0778,14.7035 z m 10.0891,207.6866 35.4487,-62.6462 a 10.17861,10.17861 0 1 0 -17.7146,-10.0305 l -35.4487,62.6463 a 10.178605,10.178605 0 1 0 17.7146,10.0304 z m 12.2008,204.519 13.3348,-70.7409 a 10.175722,10.175722 0 1 0 -20.0022,-3.7541 l -13.3348,70.7409 a 10.177534,10.177534 0 1 0 20.0022,3.7737 z m 12.7677,200.1198 -12.1225,-70.956 a 10.186571,10.186571 0 1 0 -20.0804,3.4412 l 12.1225,70.956 a 10.186571,10.186571 0 1 0 20.0804,-3.4412 z m 11.36,195.2511 -37.5408,-61.4143 a 10.18406,10.18406 0 1 0 -17.3821,10.617 l 37.5408,61.4143 a 10.18406,10.18406 0 1 0 17.3821,-10.617 z m 7.8601,190.539 -58.9507,-41.3144 a 10.176294,10.176294 0 1 0 -11.6924,16.6588 l 58.9507,41.3144 a 10.176294,10.176294 0 1 0 11.6924,-16.6588 z m 1.838,186.9218 -71.0929,-11.3795 a 10.178634,10.178634 0 1 0 -3.2262,20.1 l 71.0929,11.3795 a 10.178634,10.178634 0 1 0 3.2262,-20.1 z m -6.5306,186.4917 -67.9644,23.7367 a 10.178278,10.178278 0 1 0 6.7065,19.2201 l 67.9644,-23.7367 a 10.178278,10.178278 0 1 0 -6.7065,-19.2201 z m -14.2928,191.4189 -47.8841,53.7693 a 10.185764,10.185764 0 1 0 15.2118,13.5499 l 47.8841,-53.7694 a 10.179264,10.179264 0 1 0 -15.2118,-13.5303 z m -17.0498,199.8851 -18.262,69.6068 a 10.179855,10.179855 0 1 0 19.6893,5.1815 l 18.262,-69.6265 a 10.177372,10.177372 0 1 0 -19.6893,-5.1618 z M 1577.7991,110.04946 1506.9018,97.535863 a 10.183646,10.183646 0 1 0 -3.5195,20.060897 l 70.8778,12.5136 a 10.185335,10.185335 0 1 0 3.539,-20.0609 z m -4.4971,225.538 -51.0906,-50.7387 a 10.182714,10.182714 0 1 0 -14.3516,14.4493 l 51.0711,50.7387 a 10.175799,10.175799 0 1 0 14.3516,-14.4298 z m -16.2285,219.02697 -12.9242,-70.81912 a 10.18605,10.18605 0 1 0 -20.0413,3.65631 l 12.9242,70.81912 a 10.176432,10.176432 0 1 0 20.0217,-3.65631 z m -20.0022,207.25639 26.0048,-67.10415 a 10.174009,10.174009 0 1 0 -18.9659,-7.37128 l -26.0049,67.12369 a 10.174049,10.174049 0 1 0 18.966,7.37129 z m -15.5443,198.55554 52.1661,-49.60467 a 10.178762,10.178762 0 1 0 -14.0387,-14.74258 l -52.1661,49.60467 a 10.178762,10.178762 0 1 0 14.0387,14.74258 z m -8.5835,196.63944 64.3863,-32.1834 a 10.182554,10.182554 0 1 0 -9.0919,-18.223 l -64.3863,32.1834 a 10.182554,10.182554 0 1 0 9.0919,18.223 z m -3.3239,199.3571 68.3359,-22.5635 a 10.189718,10.189718 0 1 0 -6.3741,-19.357 l -68.3555,22.5831 a 10.180433,10.180433 0 1 0 6.3741,19.3374 z m -0.039,203.5806 68.375,-22.5245 a 10.180433,10.180433 0 1 0 -6.3741,-19.3374 l -68.3359,22.5636 a 10.186664,10.186664 0 1 0 6.3545,19.3569 z m 2.8937,207.3541 64.9925,-30.9516 a 10.179996,10.179996 0 1 0 -8.7595,-18.3793 l -64.9925,30.9516 a 10.179996,10.179996 0 1 0 8.7595,18.3793 z m 6.3741,209.3876 56.1939,-44.9902 a 10.176076,10.176076 0 1 0 -12.7091,-15.8962 l -56.1939,44.9707 a 10.183713,10.183713 0 1 0 12.7091,15.9157 z m 10.2846,208.762 39.8676,-59.9284 a 10.18147,10.18147 0 1 0 -16.952,-11.2818 l -39.8676,59.9479 a 10.176057,10.176057 0 1 0 16.952,11.2623 z m 13.2957,205.3598 16.17,-70.1348 a 10.173684,10.173684 0 1 0 -19.8263,-4.5753 l -16.209,70.1348 a 10.183186,10.183186 0 1 0 19.8458,4.5753 z m 13.9214,200.1784 -11.4186,-71.0733 a 10.178634,10.178634 0 1 0 -20.1,3.2262 l 11.4187,71.0733 a 10.178611,10.178611 0 1 0 20.0999,-3.2262 z m 11.8293,194.9383 -37.8536,-61.2188 a 10.179568,10.179568 0 1 0 -17.3236,10.6952 l 37.8537,61.2384 a 10.179531,10.179531 0 1 0 17.3235,-10.6952 z m 7.5863,191.067 -58.4815,-41.9597 a 10.179343,10.179343 0 1 0 -11.8683,16.5414 l 58.4815,41.9597 a 10.179343,10.179343 0 1 0 11.8683,-16.5414 z m 2.1704,188.9161 -70.1935,-15.8962 a 10.184021,10.184021 0 1 0 -4.497,19.8654 l 70.1934,15.8962 a 10.184032,10.184032 0 1 0 4.4971,-19.8654 z m -3.9692,188.7011 -70.6627,13.8041 a 10.180841,10.180841 0 1 0 3.9105,19.9826 l 70.6432,-13.8041 a 10.180841,10.180841 0 1 0 -3.9105,-19.9826 z m -10.2259,191.1256 -58.2665,42.2725 a 10.184171,10.184171 0 1 0 11.9662,16.4827 l 58.2664,-42.292 a 10.176259,10.176259 0 1 0 -11.9661,-16.4632 z m -14.3711,196.6198 -35.3118,62.744 a 10.181216,10.181216 0 1 0 17.7536,9.9717 l 35.2923,-62.7243 a 10.172698,10.172698 0 1 0 -17.7341,-9.9718 z m -14.2147,202.9549 -9.3265,71.3861 a 10.184736,10.184736 0 1 0 20.1977,2.6396 l 9.3265,-71.3666 a 10.186008,10.186008 0 1 0 -20.1977,-2.6591 z M 1781.4775,110.63606 1710.7757,97.086163 a 10.183007,10.183007 0 1 0 -3.8323,20.002197 l 70.7018,13.5303 a 10.173403,10.173403 0 1 0 3.8323,-19.9826 z m -4.5557,224.9905 -51.0516,-50.7583 a 10.182685,10.182685 0 1 0 -14.3515,14.4493 l 51.032,50.7387 a 10.182648,10.182648 0 1 0 14.3711,-14.4297 z m -15.7398,218.79234 -13.9605,-70.62359 a 10.175027,10.175027 0 1 0 -19.9631,3.9496 l 13.941,70.60404 a 10.182723,10.182723 0 1 0 19.9826,-3.93005 z m -19.4352,207.58879 24.1082,-67.84714 a 10.176057,10.176057 0 1 0 -19.1809,-6.80427 l -24.1083,67.84714 a 10.176061,10.176061 0 1 0 19.181,6.80427 z m -15.3096,199.20077 50.1522,-51.65768 a 10.17685,10.17685 0 1 0 -14.6057,-14.17556 l -50.1522,51.65768 a 10.17685,10.17685 0 1 0 14.6057,14.17556 z m -8.4858,197.34324 62.568,-35.5855 a 10.18342,10.18342 0 1 0 -10.05,-17.7145 l -62.5679,35.5855 a 10.183413,10.183413 0 1 0 10.0499,17.7145 z m -2.9719,200.2957 66.3611,-27.9209 a 10.182399,10.182399 0 1 0 -7.8992,-18.7704 l -66.3611,27.9405 a 10.182399,10.182399 0 1 0 7.8992,18.7704 z m 0.9776,204.7733 65.1684,-30.5801 a 10.176752,10.176752 0 1 0 -8.6617,-18.4185 l -65.1685,30.5801 a 10.176759,10.176759 0 1 0 8.6618,18.4185 z m 4.849,208.2927 58.6184,-41.7837 a 10.178193,10.178193 0 1 0 -11.8097,-16.5805 l -58.6184,41.7641 a 10.186159,10.186159 0 1 0 11.8097,16.6001 z m 9.3852,209.0943 44.13,-56.8587 a 10.186316,10.186316 0 1 0 -16.0917,-12.494 l -44.13,56.8782 a 10.180321,10.180321 0 1 0 16.0917,12.4745 z m 13.4521,206.3374 20.6474,-68.9616 a 10.185163,10.185163 0 1 0 -19.5133,-5.8462 l -20.6475,68.9812 a 10.182369,10.182369 0 1 0 19.5134,5.8266 z m 15.0163,200.7064 -8.6813,-71.4644 a 10.183426,10.183426 0 1 0 -20.2173,2.4636 l 8.6814,71.4644 a 10.183413,10.183413 0 1 0 20.2172,-2.4636 z m 12.8656,194.6645 -37.1889,-61.6294 a 10.18377,10.18377 0 1 0 -17.4408,10.5192 l 37.1888,61.6295 a 10.183819,10.183819 0 1 0 17.4409,-10.5193 z m 7.8992,190.6564 -58.6184,-41.7837 a 10.178193,10.178193 0 1 0 -11.8097,16.5805 l 58.6184,41.7837 a 10.178193,10.178193 0 1 0 11.8097,-16.5805 z m 2.1507,189.4636 -69.9979,-16.7369 a 10.18201,10.18201 0 1 0 -4.7317,19.8066 l 69.9979,16.7565 a 10.18201,10.18201 0 1 0 4.7317,-19.8066 z m -2.9719,190.4413 -71.3862,9.2287 a 10.182261,10.182261 0 1 0 2.6005,20.1978 l 71.3861,-9.2288 a 10.182221,10.182221 0 1 0 -2.6004,-20.1977 z m -7.254,192.5724 -63.7411,33.4739 a 10.180166,10.180166 0 1 0 9.4634,18.0274 l 63.7411,-33.4739 a 10.180166,10.180166 0 1 0 -9.4634,-18.0274 z m -10.5975,195.8182 -48.2164,53.4565 a 10.182723,10.182723 0 1 0 15.1336,13.6281 l 48.2165,-53.4565 a 10.182755,10.182755 0 1 0 -15.1337,-13.6281 z m -11.8488,200.022 -28.1164,66.2829 a 10.175813,10.175813 0 1 0 18.7312,7.9579 l 28.1165,-66.2829 a 10.172018,10.172018 0 1 0 -18.7313,-7.9384 z m -10.1086,203.7369 -9.3656,71.3666 a 10.184736,10.184736 0 1 0 20.1977,2.6396 l 9.3656,-71.3666 a 10.186008,10.186008 0 1 0 -20.1977,-2.6591 z M 1985.1558,111.86786 1914.9623,95.971663 a 10.183995,10.183995 0 1 0 -4.497,19.865297 l 70.1934,15.8962 a 10.183995,10.183995 0 1 0 4.4971,-19.8653 z m -4.634,223.7587 -51.0515,-50.7583 a 10.175764,10.175764 0 1 0 -14.3515,14.4298 l 51.032,50.7582 a 10.182648,10.182648 0 1 0 14.371,-14.4297 z m -14.6643,218.20577 -16.2677,-70.11523 a 10.17585,10.17585 0 1 0 -19.8262,4.59483 l 16.2676,70.13478 a 10.187594,10.187594 0 1 0 19.8458,-4.61438 z m -18.1056,208.25357 19.7089,-69.21582 a 10.177643,10.177643 0 1 0 -19.5721,-5.59201 l -19.7284,69.23537 a 10.18434,10.18434 0 1 0 19.5916,5.57246 z m -14.5471,200.64765 45.088,-56.11565 a 10.186796,10.186796 0 1 0 -15.8766,-12.76777 l -45.088,56.11564 a 10.186796,10.186796 0 1 0 15.8766,12.76778 z m -8.0752,198.90745 57.5821,-43.1914 a 10.175118,10.175118 0 1 0 -12.2007,-16.2872 l -57.6408,43.1914 a 10.180982,10.180982 0 1 0 12.2203,16.2872 z m -2.2876,201.7231 60.8082,-38.538 a 10.18685,10.18685 0 1 0 -10.9103,-17.2062 l -60.8082,38.538 a 10.18685,10.18685 0 1 0 10.9103,17.2062 z m 2.6005,205.7313 57.0932,-43.8367 a 10.179658,10.179658 0 1 0 -12.3962,-16.1504 l -57.0933,43.8367 a 10.179666,10.179666 0 1 0 12.3963,16.1504 z m 7.6254,207.9994 45.2836,-55.9593 a 10.183849,10.183849 0 1 0 -15.8375,-12.8068 l -45.2836,55.9592 a 10.183849,10.183849 0 1 0 15.8375,12.8069 z m 12.5527,206.572 23.5803,-68.0231 a 10.171854,10.171854 0 1 0 -19.2201,-6.6674 l -23.5998,68.0036 a 10.184295,10.184295 0 1 0 19.2396,6.6869 z m 15.2901,201.2929 -5.944,-71.7576 a 10.173582,10.173582 0 1 0 -20.2759,1.701 l 5.9244,71.7381 a 10.182519,10.182519 0 1 0 20.2955,-1.6815 z m 13.7845,194.5669 -36.1917,-62.2161 a 10.176357,10.176357 0 1 0 -17.5972,10.226 l 36.1721,62.2356 a 10.181273,10.181273 0 1 0 17.5972,-10.2455 z m 8.4467,189.8546 -59.0486,-41.1775 a 10.181066,10.181066 0 1 0 -11.6532,16.6978 l 59.0485,41.1776 a 10.181101,10.181101 0 1 0 11.6533,-16.6979 z m 1.9748,188.9162 -70.389,-14.9968 a 10.177883,10.177883 0 1 0 -4.2624,19.9045 l 70.4085,14.9967 a 10.175813,10.175813 0 1 0 4.2429,-19.9044 z m -3.1284,190.9301 -71.2689,10.1086 a 10.181245,10.181245 0 1 0 2.8743,20.1586 l 71.2688,-10.1086 a 10.179869,10.179869 0 1 0 -2.8547,-20.1586 z m -6.1591,193.9802 -64.8947,31.1667 a 10.183846,10.183846 0 1 0 8.8182,18.3598 l 64.8947,-31.1667 a 10.179607,10.179607 0 1 0 -8.7986,-18.3598 z m -7.821,196.9131 -53.8866,47.7277 a 10.180916,10.180916 0 1 0 13.4912,15.2509 l 53.8867,-47.7472 a 10.180927,10.180927 0 1 0 -13.4913,-15.2509 z m -8.6813,199.4941 -39.9653,59.8697 a 10.178792,10.178792 0 1 0 16.9325,11.3014 l 39.9653,-59.8698 a 10.178764,10.178764 0 1 0 -16.9325,-11.3013 z m -8.036,201.9577 -25.9462,67.1432 a 10.188707,10.188707 0 1 0 19.005,7.3518 l 25.9266,-67.1628 a 10.176061,10.176061 0 1 0 -18.9854,-7.3322 z m -5.3379,203.5023 -16.1308,70.1543 a 10.181001,10.181001 0 1 0 19.8458,4.5558 l 16.1308,-70.1544 a 10.180989,10.180989 0 1 0 -19.8458,-4.5557 z M 2188.8341,113.76446 2119.5009,94.348863 a 10.180489,10.180489 0 1 0 -5.4747,19.611097 l 69.3136,19.3961 a 10.180515,10.180515 0 1 0 5.4747,-19.6112 z m -4.7122,221.8816 -51.032,-50.7778 a 10.175764,10.175764 0 1 0 -14.3515,14.4298 l 51.032,50.7778 a 10.175764,10.175764 0 1 0 14.3515,-14.4298 z m -13.0611,217.2673 -19.7089,-69.23537 a 10.174934,10.174934 0 1 0 -19.572,5.57246 l 19.7089,69.21582 a 10.172262,10.172262 0 1 0 19.572,-5.55291 z m -16.033,209.01612 12.846,-70.83867 a 10.1843,10.1843 0 1 0 -20.0413,-3.63677 l -12.846,70.81912 a 10.174706,10.174706 0 1 0 20.0218,3.63677 z m -12.9633,202.56379 36.309,-62.13781 a 10.19115,10.19115 0 1 0 -17.5973,-10.28461 l -36.2894,62.17692 a 10.177758,10.177758 0 1 0 17.5777,10.26506 z m -6.9607,201.05823 47.845,-53.7693 a 10.179286,10.179286 0 1 0 -15.2119,-13.5303 l -47.8449,53.7693 a 10.179264,10.179264 0 1 0 15.2118,13.5303 z m -0.8407,203.1895 49.194,-52.5375 a 10.181125,10.181125 0 1 0 -14.8599,-13.9214 l -49.2136,52.5375 a 10.181125,10.181125 0 1 0 14.8599,13.9214 z m 4.9467,205.7313 41.1385,-59.0681 a 10.183505,10.183505 0 1 0 -16.7174,-11.6337 l -41.158,59.029 a 10.183505,10.183505 0 1 0 16.7174,11.6337 z m 10.5193,205.614 22.72,-68.2969 a 10.189652,10.189652 0 1 0 -19.3374,-6.4327 l -22.7005,68.3164 a 10.177311,10.177311 0 1 0 19.3179,6.4132 z m 14.332,201.4493 -4.9664,-71.8163 a 10.191636,10.191636 0 1 0 -20.3346,1.4078 l 5.0055,71.8163 a 10.172133,10.172133 0 1 0 20.2955,-1.4078 z m 13.98,194.7037 -35.5073,-62.6266 a 10.183432,10.183432 0 1 0 -17.7146,10.0499 l 35.5073,62.6071 a 10.178612,10.178612 0 1 0 17.7146,-10.0304 z m 8.8573,189.1899 -59.4787,-40.5714 a 10.179362,10.179362 0 1 0 -11.4773,16.8151 l 59.4787,40.5715 a 10.179375,10.179375 0 1 0 11.4773,-16.8152 z m 1.7206,187.8799 -70.9169,-12.3376 a 10.180259,10.180259 0 1 0 -3.4803,20.0608 l 70.9168,12.3181 a 10.17063,10.17063 0 1 0 3.4804,-20.0413 z m -3.8714,190.4608 -70.6041,14.0191 a 10.184651,10.184651 0 1 0 3.9497,19.9827 l 70.6235,-14.0192 a 10.186514,10.186514 0 1 0 -3.9691,-19.9826 z m -6.4914,194.5473 -63.3501,34.2168 a 10.183601,10.183601 0 1 0 9.698,17.9101 l 63.3305,-34.2168 a 10.178949,10.178949 0 1 0 -9.6784,-17.9101 z m -6.863,198.0472 -53.5542,48.0991 a 10.183455,10.183455 0 1 0 13.6085,15.1532 l 53.5543,-48.0992 a 10.183455,10.183455 0 1 0 -13.6086,-15.1531 z m -6.3545,200.3934 -43.4652,57.3866 a 10.181117,10.181117 0 1 0 16.2286,12.2985 l 43.4651,-57.3866 a 10.181108,10.181108 0 1 0 -16.2285,-12.2985 z m -5.5529,201.9186 -34.0605,63.4283 a 10.173676,10.173676 0 1 0 17.9297,9.6198 l 34.0604,-63.4087 a 10.178278,10.178278 0 1 0 -17.9296,-9.6394 z m -3.7346,202.9939 -27.4712,66.5372 a 10.174122,10.174122 0 1 0 18.8095,7.7623 l 27.4712,-66.5371 a 10.174136,10.174136 0 1 0 -18.8095,-7.7624 z m -0.3519,203.561 -26.8456,66.7913 a 10.177164,10.177164 0 1 0 18.8877,7.5864 l 26.8652,-66.7718 a 10.189893,10.189893 0 1 0 -18.9073,-7.6059 z M 2392.3559,116.30626 2324.5088,92.217563 a 10.188563,10.188563 0 1 0 -6.8238,19.200597 l 67.8471,24.0691 a 10.176066,10.176066 0 1 0 6.8043,-19.181 z m -4.7317,219.4767 -50.7973,-51.0124 a 10.182648,10.182648 0 1 0 -14.4298,14.371 l 50.7974,51.0125 a 10.182648,10.182648 0 1 0 14.4297,-14.3711 z m -11.0471,215.85949 -23.9127,-67.9058 a 10.187979,10.187979 0 1 0 -19.2201,6.76516 l 23.9322,67.9058 a 10.178782,10.178782 0 1 0 19.2006,-6.76516 z m -13.198,209.50493 3.6172,-71.89451 a 10.180489,10.180489 0 1 0 -20.3345,-1.03628 l -3.6173,71.89451 a 10.180494,10.180494 0 1 0 20.3346,1.03628 z m -10.441,204.49949 23.4043,-68.08177 a 10.183948,10.183948 0 1 0 -19.2592,-6.62829 l -23.3847,68.08177 a 10.174704,10.174704 0 1 0 19.2396,6.62829 z m -4.8881,203.01353 32.1638,-64.4059 a 10.182554,10.182554 0 1 0 -18.2229,-9.0919 l -32.1638,64.3863 a 10.178179,10.178179 0 1 0 18.2033,9.1115 z m 1.2905,203.8151 29.8762,-65.5008 a 10.171895,10.171895 0 1 0 -18.5163,-8.4271 l -29.8957,65.4813 a 10.18482,10.18482 0 1 0 18.5358,8.4466 z m 7.3321,204.0107 16.5023,-70.0761 a 10.182512,10.182512 0 1 0 -19.8262,-4.6535 l -16.4827,70.0761 a 10.172994,10.172994 0 1 0 19.8066,4.6535 z m 12.0248,201.0583 -7.1171,-71.6404 a 10.178133,10.178133 0 1 0 -20.2564,2.014 l 7.1171,71.6403 a 10.178133,10.178133 0 1 0 20.2564,-2.0139 z m 12.9829,195.0165 -35.6442,-62.5289 a 10.179743,10.179743 0 1 0 -17.695,10.0696 l 35.6442,62.5484 a 10.184581,10.184581 0 1 0 17.695,-10.0891 z m 8.8572,189.1117 -59.635,-40.3368 a 10.181658,10.181658 0 1 0 -11.3991,16.8738 l 59.635,40.3368 a 10.181658,10.181658 0 1 0 11.3991,-16.8738 z m 1.5642,187.0587 -71.2101,-10.4997 a 10.178588,10.178588 0 1 0 -2.972,20.139 l 71.2102,10.5193 a 10.178588,10.178588 0 1 0 2.9719,-20.1391 z m -4.7512,189.62 -69.7242,17.9101 a 10.174554,10.174554 0 1 0 5.0641,19.7089 l 69.7242,-17.91 a 10.177041,10.177041 0 1 0 -5.0837,-19.709 z m -7.6255,194.3518 -60.4758,39.0268 a 10.182559,10.182559 0 1 0 11.0471,17.1084 l 60.4759,-39.0268 a 10.177259,10.177259 0 1 0 -11.0276,-17.1084 z m -7.2735,198.5946 -49.6242,52.127 a 10.178769,10.178769 0 1 0 14.7426,14.0387 l 49.6437,-52.127 a 10.185839,10.185839 0 1 0 -14.7621,-14.0387 z m -5.5334,201.2343 -40.6105,59.4395 a 10.179383,10.179383 0 1 0 16.8152,11.4773 l 40.5909,-59.4395 a 10.179362,10.179362 0 1 0 -16.8151,-11.4773 z m -3.7736,202.5638 -34.1777,63.35 a 10.182913,10.182913 0 1 0 17.9296,9.659 l 34.1582,-63.3501 a 10.174306,10.174306 0 1 0 -17.9101,-9.6589 z m -2.0726,203.209 -30.5409,65.1684 a 10.181447,10.181447 0 1 0 18.438,8.6422 l 30.5409,-65.188 a 10.177301,10.177301 0 1 0 -18.438,-8.6226 z m 0.4693,203.6783 -31.3817,64.7969 a 10.187767,10.187767 0 1 0 18.3402,8.8769 l 31.3622,-64.797 a 10.187767,10.187767 0 1 0 -18.3402,-8.8768 z m 4.2429,204.6168 -38.7139,60.7105 a 10.189085,10.189085 0 1 0 17.1866,10.9494 l 38.6944,-60.7105 A 10.180848,10.180848 0 1 0 2365.7841,3946.6 Z M 2595.565,119.72796 2530.2401,89.480263 a 10.182648,10.182648 0 1 0 -8.564,18.477097 l 65.3249,30.2477 a 10.182648,10.182648 0 1 0 8.564,-18.4771 z m -4.6926,216.6416 -49.8002,-51.951 a 10.178131,10.178131 0 1 0 -14.7035,14.0778 l 49.8002,51.9705 a 10.178131,10.178131 0 1 0 14.7035,-14.0778 z m -8.8378,213.86511 -28.0773,-66.28294 a 10.181024,10.181024 0 1 0 -18.7509,7.93831 l 28.0774,66.28294 a 10.180996,10.180996 0 1 0 18.7508,-7.93831 z m -9.7762,209.2703 -6.9998,-71.65988 a 10.176217,10.176217 0 1 0 -20.2564,1.9748 l 6.9803,71.65988 a 10.176207,10.176207 0 1 0 20.2563,-1.9748 z m -7.1171,205.59443 7.2344,-71.62077 a 10.179105,10.179105 0 1 0 -20.2564,-2.03346 l -7.2344,71.62077 a 10.179105,10.179105 0 1 0 20.2564,2.03346 z m -2.1508,203.9325 11.3991,-71.0733 a 10.188264,10.188264 0 1 0 -20.1195,-3.2262 l -11.3796,71.0733 a 10.178631,10.178631 0 1 0 20.1,3.2262 z m 3.5195,203.0135 4.5557,-71.8359 a 10.187753,10.187753 0 1 0 -20.3346,-1.2904 l -4.5362,71.8554 a 10.187139,10.187139 0 1 0 20.3346,1.2709 z m 8.5639,200.6476 -12.8459,-70.8191 a 10.172963,10.172963 0 1 0 -20.0218,3.6172 l 12.8264,70.8387 a 10.1843,10.1843 0 1 0 20.0413,-3.6368 z m 10.7539,195.7009 -36.8955,-61.8054 a 10.188813,10.188813 0 1 0 -17.4995,10.441 l 36.9151,61.7859 a 10.175399,10.175399 0 1 0 17.4799,-10.4215 z m 8.2316,189.9329 -59.3222,-40.7865 a 10.179818,10.179818 0 1 0 -11.536,16.776 l 59.3222,40.7865 a 10.179814,10.179814 0 1 0 11.536,-16.776 z m 1.7011,187 -71.1711,-10.9298 a 10.185839,10.185839 0 1 0 -3.0697,20.139 l 71.1515,10.9103 a 10.187316,10.187316 0 1 0 3.0893,-20.139 z m -5.1423,188.8184 -69.3918,19.1614 a 10.18207,10.18207 0 1 0 5.416,19.6308 l 69.4114,-19.1615 a 10.184671,10.184671 0 1 0 -5.4356,-19.6307 z m -8.74,193.687 -58.4033,42.0965 a 10.188554,10.188554 0 1 0 11.927,16.5219 l 58.3838,-42.0965 a 10.18285,10.18285 0 1 0 -11.9075,-16.5219 z m -8.5053,198.536 -45.3031,55.9592 a 10.183849,10.183849 0 1 0 15.8375,12.8069 l 45.2835,-55.9397 a 10.182404,10.182404 0 1 0 -15.8179,-12.8264 z m -6.1004,201.5862 -35.0576,62.8808 a 10.183974,10.183974 0 1 0 17.7928,9.9131 l 35.0576,-62.8613 a 10.183974,10.183974 0 1 0 -17.7928,-9.9131 z m -3.3239,202.9939 -29.231,65.7746 a 10.175423,10.175423 0 1 0 18.5944,8.2707 l 29.231,-65.7746 a 10.175423,10.175423 0 1 0 -18.5944,-8.2707 z m -1.0363,203.4632 -27.3735,66.5763 a 10.170396,10.170396 0 1 0 18.8095,7.7427 l 27.393,-66.5566 a 10.183159,10.183159 0 1 0 -18.829,-7.7624 z m 1.134,203.7565 -29.4069,65.6964 a 10.178459,10.178459 0 1 0 18.5749,8.3293 l 29.4265,-65.6963 a 10.17848,10.17848 0 1 0 -18.5749,-8.3294 z m 4.1061,204.4604 -36.5632,62.001 a 10.185653,10.185653 0 1 0 17.5386,10.3628 l 36.5632,-62.0401 a 10.184169,10.184169 0 1 0 -17.5582,-10.3237 z m 7.7428,206.5916 -49.3505,52.4007 a 10.180271,10.180271 0 1 0 14.8208,13.9605 l 49.3504,-52.4007 A 10.180259,10.180259 0 1 0 2575.8952,3949.22 Z M 2798.207,124.22506 2737.0859,86.175863 a 10.17837,10.17837 0 1 0 -10.7539,17.284397 l 61.1015,38.0492 a 10.17837,10.17837 0 1 0 10.7539,-17.2844 z m -4.5949,213.6305 -47.3757,-54.1995 a 10.17801,10.17801 0 1 0 -15.3291,13.3934 l 47.3757,54.1995 a 10.17801,10.17801 0 1 0 15.3291,-13.3934 z m -6.6674,211.30372 -30.9711,-64.97292 a 10.180022,10.180022 0 1 0 -18.3794,8.75951 l 30.9712,64.97293 a 10.179996,10.179996 0 1 0 18.3793,-8.75952 z m -6.335,208.09715 -16.8933,-69.97836 a 10.188878,10.188878 0 1 0 -19.8067,4.79036 l 16.9129,69.97836 a 10.179362,10.179362 0 1 0 19.7871,-4.79036 z m -3.5585,205.37936 -9.3852,-71.36659 a 10.184736,10.184736 0 1 0 -20.1977,2.63959 l 9.3851,71.36658 a 10.184774,10.184774 0 1 0 20.1978,-2.63958 z m 0.6648,203.30681 -10.7539,-71.1711 a 10.184388,10.184388 0 1 0 -20.1391,3.0502 l 10.7539,71.1711 a 10.184388,10.184388 0 1 0 20.1391,-3.0502 z m 4.9663,200.8823 -21.41,-68.727 a 10.179219,10.179219 0 1 0 -19.4352,6.0612 l 21.41,68.727 a 10.179219,10.179219 0 1 0 19.4352,-6.0612 z m 7.7428,196.8935 -39.2614,-60.3389 a 10.182137,10.182137 0 1 0 -17.0694,11.1058 l 39.2614,60.339 a 10.182134,10.182134 0 1 0 17.0694,-11.1059 z m 6.9998,191.7318 -58.4424,-42.0183 a 10.177109,10.177109 0 1 0 -11.8879,16.5218 l 58.4619,42.0379 a 10.179356,10.179356 0 1 0 11.8684,-16.5414 z m 2.1507,188.0949 -70.5453,-14.3906 a 10.177,10.177 0 1 0 -4.067,19.9435 l 70.5259,14.3907 a 10.176991,10.176991 0 1 0 4.0669,-19.9436 z m -4.4579,188.486 -70.1935,15.9353 a 10.183998,10.183998 0 1 0 4.4971,19.8653 l 70.1934,-15.9548 a 10.17446,10.17446 0 1 0 -4.497,-19.8458 z m -9.0137,192.6703 -59.2441,40.9038 a 10.177306,10.177306 0 1 0 11.5555,16.7565 l 59.2441,-40.9039 a 10.177301,10.177301 0 1 0 -11.5555,-16.7564 z m -9.6981,197.8125 -44.3255,56.7218 a 10.175201,10.175201 0 1 0 16.0331,12.5331 l 44.3255,-56.7022 a 10.18124,10.18124 0 1 0 -16.0331,-12.5527 z m -7.4495,201.4298 -31.675,64.6601 a 10.187298,10.187298 0 1 0 18.3011,8.955 l 31.6555,-64.6601 a 10.178518,10.178518 0 1 0 -18.2816,-8.955 z m -4.1842,203.0917 -24.1864,67.808 a 10.173403,10.173403 0 1 0 19.1614,6.8434 l 24.206,-67.808 a 10.182619,10.182619 0 1 0 -19.181,-6.8434 z m -1.1731,203.5414 -22.0357,68.551 a 10.174836,10.174836 0 1 0 19.3765,6.2177 l 22.0357,-68.5314 a 10.18416,10.18416 0 1 0 -19.3961,-6.2177 z m 1.2318,203.6783 -24.3038,67.7689 a 10.176736,10.176736 0 1 0 19.1615,6.863 l 24.3037,-67.7494 a 10.179996,10.179996 0 1 0 -19.1614,-6.8825 z m 3.6563,204.0498 -30.8538,65.0316 a 10.184623,10.184623 0 1 0 18.3988,8.7399 l 30.8539,-65.0511 a 10.171624,10.171624 0 1 0 -18.3794,-8.7204 z m 6.726,205.3989 -42.3507,58.2078 a 10.18201,10.18201 0 1 0 16.4632,11.9856 l 42.3507,-58.2077 a 10.182018,10.182018 0 1 0 -16.4632,-11.9857 z m 9.7763,208.9966 -57.6408,43.1132 a 10.177099,10.177099 0 1 0 12.1812,16.3068 l 57.6603,-43.1133 a 10.182944,10.182944 0 1 0 -12.2007,-16.3067 z m 214.7254,-3822.98114 -54.395,-47.160597 a 10.180883,10.180883 0 1 0 -13.3348,15.3878 l 54.395,47.160597 a 10.180883,10.180883 0 1 0 13.3348,-15.3878 z m -4.3015,210.6585 -42.7222,-57.9535 a 10.179358,10.179358 0 1 0 -16.385,12.0834 l 42.7026,57.9536 a 10.179381,10.179381 0 1 0 16.385,-12.0835 z m -4.6926,208.6251 -31.4013,-64.7774 a 10.178975,10.178975 0 1 0 -18.3207,8.87683 l 31.3817,64.7774 a 10.178975,10.178975 0 1 0 18.3207,-8.87683 z m -3.2848,206.22011 -23.9714,-67.88624 a 10.18201,10.18201 0 1 0 -19.2005,6.78471 l 23.9713,67.8667 a 10.178784,10.178784 0 1 0 19.2006,-6.76517 z m -0.4497,203.93247 -22.9742,-68.23819 a 10.180414,10.180414 0 1 0 -19.2983,6.49143 l 22.9741,68.23819 a 10.183579,10.183579 0 1 0 19.2984,-6.51098 z m 2.796,201.46886 -29.2701,-65.7746 a 10.1794,10.1794 0 1 0 -18.5944,8.2903 l 29.27,65.7746 a 10.179438,10.179438 0 1 0 18.5945,-8.2903 z m 5.2791,198.2623 -41.8423,-58.5989 a 10.170249,10.170249 0 1 0 -16.561,11.8097 l 41.8033,58.5989 a 10.178193,10.178193 0 1 0 16.5805,-11.8097 z m 5.5138,194.1171 -57.015,-43.9345 a 10.183834,10.183834 0 1 0 -12.4354,16.1308 l 57.0151,43.9345 a 10.183831,10.183831 0 1 0 12.4353,-16.1308 z m 2.6787,190.3826 -68.9029,-20.843 a 10.184268,10.184268 0 1 0 -5.9049,19.4938 l 68.903,20.843 a 10.184262,10.184262 0 1 0 5.9048,-19.4938 z m -2.62,189.1508 -71.6208,7.293 a 10.180076,10.180076 0 1 0 2.053,20.2564 l 71.6208,-7.2931 a 10.180076,10.180076 0 1 0 -2.053,-20.2563 z m -7.6841,191.6144 -63.6825,33.5325 a 10.18472,10.18472 0 1 0 9.483,18.0274 l 63.702,-33.5521 a 10.18062,10.18062 0 1 0 -9.5025,-18.0078 z m -9.8154,196.2092 -49.37,52.4007 a 10.167295,10.167295 0 1 0 14.8012,13.9409 l 49.3896,-52.3811 a 10.180264,10.180264 0 1 0 -14.8208,-13.9605 z m -8.7204,200.374 -34.9207,62.959 a 10.16972,10.16972 0 1 0 17.7927,9.8544 l 34.9208,-62.9394 a 10.174473,10.174473 0 1 0 -17.7928,-9.874 z m -5.7484,202.7202 -24.7535,67.5929 a 10.181643,10.181643 0 1 0 19.1224,6.9998 l 24.7534,-67.5929 a 10.181611,10.181611 0 1 0 -19.1223,-6.9998 z m -2.4832,203.5023 -20.2173,69.0789 a 10.187254,10.187254 0 1 0 19.5525,5.7289 l 20.2173,-69.0789 a 10.187254,10.187254 0 1 0 -19.5525,-5.7289 z m 0.3715,203.6196 -20.8821,68.8834 a 10.174923,10.174923 0 1 0 19.4743,5.9049 l 20.8821,-68.8834 a 10.174923,10.174923 0 1 0 -19.4743,-5.9049 z m 2.796,203.7565 -25.9853,67.1433 a 10.179596,10.179596 0 1 0 18.9855,7.3517 l 25.9853,-67.1433 a 10.179596,10.179596 0 1 0 -18.9855,-7.3517 z m 5.2205,204.48 -35.1945,62.783 a 10.181241,10.181241 0 1 0 17.7537,9.9718 l 35.1945,-62.8026 a 10.176445,10.176445 0 1 0 -17.7537,-9.9522 z m 8.0752,206.5525 -48.6075,53.1045 a 10.178724,10.178724 0 1 0 15.0163,13.7454 l 48.6075,-53.085 a 10.185327,10.185327 0 1 0 -15.0163,-13.7649 z m 10.226,211.1668 -63.5847,33.7476 a 10.181123,10.181123 0 1 0 9.5416,17.9883 l 63.5847,-33.728 a 10.181123,10.181123 0 1 0 -9.5416,-17.9883 z M 3199.6978,135.85876 3155.2354,79.234763 a 10.179555,10.179555 0 1 0 -16.0135,12.5722 l 44.4624,56.623997 a 10.179555,10.179555 0 1 0 16.0135,-12.5722 z m -3.8518,208.1167 -34.9599,-62.9395 a 10.179232,10.179232 0 1 0 -17.7928,9.8936 l 34.9403,62.9199 a 10.174473,10.174473 0 1 0 17.7928,-9.874 z m -2.8938,206.181 -28.2534,-66.20473 a 10.183474,10.183474 0 1 0 -18.7312,7.99697 l 28.2533,66.20473 a 10.183481,10.183481 0 1 0 18.7313,-7.99697 z m -0.7235,204.18665 -26.5913,-66.86951 a 10.180863,10.180863 0 1 0 -18.9269,7.50815 l 26.5914,66.88907 a 10.184431,10.184431 0 1 0 18.9268,-7.52771 z m 1.9357,202.01633 -31.0298,-64.95337 a 10.184206,10.184206 0 1 0 -18.3793,8.77906 l 31.0298,64.95338 a 10.184206,10.184206 0 1 0 18.3793,-8.77907 z m 4.1452,199.33766 -40.9429,-59.205 a 10.182863,10.182863 0 1 0 -16.7565,11.5751 l 40.9429,59.205 a 10.182863,10.182863 0 1 0 16.7565,-11.5751 z m 4.8294,196.0723 -53.8475,-47.7862 a 10.187406,10.187406 0 1 0 -13.5108,15.2509 l 53.8476,47.7667 a 10.187396,10.187396 0 1 0 13.5107,-15.2509 z m 3.324,192.8658 -65.6182,-29.622 a 10.190492,10.190492 0 1 0 -8.388,18.5749 l 65.6181,29.6024 a 10.190511,10.190511 0 1 0 8.3881,-18.5748 z m -0.2738,190.9692 -71.7381,-6.0808 a 10.174404,10.174404 0 1 0 -1.7206,20.2759 l 71.7381,6.1004 a 10.184147,10.184147 0 1 0 1.7206,-20.2955 z m -4.673,191.458 -69.4505,18.8681 a 10.181178,10.181178 0 1 0 5.3379,19.6503 l 69.4504,-18.8877 a 10.171735,10.171735 0 1 0 -5.3378,-19.6307 z m -7.9188,194.2735 -59.6546,40.2977 a 10.176188,10.176188 0 1 0 11.3795,16.8738 l 59.6547,-40.2781 a 10.184309,10.184309 0 1 0 -11.3796,-16.8934 z m -8.6617,198.1449 -46.4959,54.9426 a 10.183065,10.183065 0 1 0 15.5443,13.1588 l 46.4958,-54.9425 a 10.183047,10.183047 0 1 0 -15.5442,-13.1589 z m -6.9803,201.2343 -34.8034,63.0177 a 10.173544,10.173544 0 1 0 17.8123,9.8349 l 34.8034,-63.0177 a 10.173544,10.173544 0 1 0 -17.8123,-9.8349 z m -4.2038,202.8766 -27.4126,66.5763 a 10.179445,10.179445 0 1 0 18.8291,7.7427 l 27.4126,-66.5762 a 10.179464,10.179464 0 1 0 -18.8291,-7.7428 z m -1.3686,203.4828 -24.949,67.5147 a 10.173389,10.173389 0 1 0 19.0832,7.0585 l 24.9685,-67.5148 a 10.173389,10.173389 0 1 0 -19.0832,-7.0584 z m 1.1927,203.7174 -27.0998,66.674 a 10.186442,10.186442 0 1 0 18.8682,7.6841 l 27.0997,-66.6935 a 10.182742,10.182742 0 1 0 -18.8681,-7.6646 z m 3.4999,204.1671 -33.2784,63.8193 a 10.179779,10.179779 0 1 0 18.047,9.4243 l 33.2783,-63.8389 a 10.175235,10.175235 0 1 0 -18.0469,-9.4047 z m 5.6702,205.262 -42.9373,57.7776 a 10.181098,10.181098 0 1 0 16.3459,12.1421 l 42.9373,-57.758 a 10.179124,10.179124 0 1 0 -16.3264,-12.1617 z m 8.0165,207.8234 -55.5486,45.792 a 10.187884,10.187884 0 1 0 12.9633,15.7202 l 55.5291,-45.8115 a 10.180363,10.180363 0 1 0 -12.9633,-15.7007 z m 9.1897,212.692 -67.8081,24.1669 a 10.173436,10.173436 0 1 0 6.8434,19.1615 l 67.7885,-24.1474 a 10.182619,10.182619 0 1 0 -6.8434,-19.181 z M 3397.7645,141.92006 3366.7543,76.947063 a 10.18424,10.18424 0 1 0 -18.3794,8.7791 l 31.0103,64.953397 a 10.179996,10.179996 0 1 0 18.3793,-8.7595 z m -3.3239,206.2005 -23.5217,-68.0426 a 10.177893,10.177893 0 1 0 -19.2396,6.6478 l 23.5216,68.0427 a 10.187141,10.187141 0 1 0 19.2592,-6.6479 z m -1.2514,204.46041 -20.7256,-68.94208 a 10.187979,10.187979 0 1 0 -19.5134,5.86574 l 20.7256,68.92253 a 10.187981,10.187981 0 1 0 19.5134,-5.86575 z m 1.3883,202.66156 -23.815,-67.92535 a 10.172276,10.172276 0 1 0 -19.2005,6.72605 l 23.8149,67.94491 a 10.175538,10.175538 0 1 0 19.2006,-6.74561 z m 3.8714,200.49123 -32.594,-64.19083 a 10.187151,10.187151 0 1 0 -18.1643,9.22878 l 32.594,64.19082 a 10.187149,10.187149 0 1 0 18.1643,-9.22877 z m 5.1618,197.73434 -45.2444,-55.9983 a 10.177738,10.177738 0 1 0 -15.8376,12.7873 l 45.2445,55.9983 a 10.177705,10.177705 0 1 0 15.8375,-12.7873 z m 4.5948,194.821 -58.3641,-42.1356 a 10.18064,10.18064 0 1 0 -11.9271,16.5023 l 58.3838,42.1356 a 10.180616,10.180616 0 1 0 11.927,-16.5023 z m 2.2095,192.7485 -68.1404,-23.1893 a 10.18055,10.18055 0 1 0 -6.5501,19.2788 l 68.1404,23.1892 a 10.180545,10.180545 0 1 0 6.5501,-19.2787 z m -1.1341,192.2987 -71.9531,-1.662 a 10.17978,10.17978 0 1 0 -0.4693,20.3542 l 71.9532,1.6619 a 10.170002,10.170002 0 1 0 0.4692,-20.3346 z m -4.2233,193.5696 -69.3918,19.1615 a 10.172642,10.172642 0 1 0 5.416,19.6111 l 69.3918,-19.1419 a 10.182066,10.182066 0 1 0 -5.416,-19.6307 z m -6.1395,195.9551 -62.0205,36.5436 a 10.175719,10.175719 0 1 0 10.3237,17.5386 l 62.0205,-36.5241 a 10.184145,10.184145 0 1 0 -10.3237,-17.5581 z m -6.3545,198.7315 -52.8113,48.9008 a 10.176432,10.176432 0 1 0 13.8236,14.9381 l 52.8113,-48.9008 a 10.176432,10.176432 0 1 0 -13.8236,-14.9381 z m -5.0446,201.0387 -44.8338,56.3112 a 10.185262,10.185262 0 1 0 15.9352,12.6896 l 44.8339,-56.3307 a 10.179209,10.179209 0 1 0 -15.9353,-12.6701 z m -2.972,202.5052 -39.887,59.9088 a 10.173333,10.173333 0 1 0 16.9324,11.2818 l 39.8871,-59.9088 a 10.173355,10.173355 0 1 0 -16.9325,-11.2818 z m -0.7821,203.3459 -38.577,60.7887 a 10.178592,10.178592 0 1 0 17.1866,10.9103 l 38.5771,-60.7692 a 10.178621,10.178621 0 1 0 -17.1867,-10.9103 z m 1.3492,204.0498 -40.8647,59.2831 a 10.179808,10.179808 0 1 0 16.776,11.536 l 40.8647,-59.2636 a 10.179808,10.179808 0 1 0 -16.776,-11.536 z m 3.2652,204.9101 -46.2221,55.1771 a 10.180282,10.180282 0 1 0 15.6029,13.0806 l 46.2221,-55.1967 a 10.180282,10.180282 0 1 0 -15.6029,-13.0806 z m 4.8881,206.2592 -53.9062,47.7081 a 10.173596,10.173596 0 1 0 13.4912,15.2313 l 53.9258,-47.708 a 10.180932,10.180932 0 1 0 -13.4912,-15.251 z m 6.4719,208.8597 -63.135,34.5883 a 10.176592,10.176592 0 1 0 9.7763,17.8515 l 63.1545,-34.608 a 10.167972,10.167972 0 1 0 -9.7762,-17.8318 z m 6.8825,213.2785 -70.78,13.0611 a 10.178193,10.178193 0 1 0 3.6758,20.0217 l 70.7801,-13.061 a 10.178221,10.178221 0 1 0 -3.6759,-20.0218 z M 3593.9346,147.00366 3579.3485,76.516963 a 10.180916,10.180916 0 1 0 -19.9435,4.106 l 14.6057,70.506297 a 10.182892,10.182892 0 1 0 19.9435,-4.1256 z m -2.9328,204.9688 -8.4271,-71.4839 a 10.188502,10.188502 0 1 0 -20.2369,2.3854 l 8.4467,71.4839 a 10.178769,10.178769 0 1 0 20.2173,-2.3854 z m 0.02,203.60004 -8.4858,-71.48391 a 10.179907,10.179907 0 1 0 -20.2172,2.40496 l 8.4858,71.4839 a 10.179907,10.179907 0 1 0 20.2172,-2.40495 z m 3.1675,202.11409 -15.1336,-70.38897 a 10.181967,10.181967 0 1 0 -19.9044,4.30155 l 15.1336,70.38897 a 10.181967,10.181967 0 1 0 19.9044,-4.30155 z m 5.5725,200.00242 -27.3539,-66.59578 a 10.175747,10.175747 0 1 0 -18.8291,7.72323 l 27.3539,66.59578 a 10.175747,10.175747 0 1 0 18.8291,-7.72323 z m 6.3741,197.22599 -42.4876,-58.11 a 10.171975,10.171975 0 1 0 -16.424,12.0052 l 42.468,58.11 a 10.171979,10.171979 0 1 0 16.4241,-12.0052 z m 5.1814,194.6646 -56.7609,-44.2669 a 10.169177,10.169177 0 1 0 -12.5136,16.0331 l 56.7414,44.2864 a 10.169177,10.169177 0 1 0 12.5136,-16.0331 z m 2.5418,193.3936 -66.8304,-26.6891 a 10.182596,10.182596 0 1 0 -7.5668,18.9073 l 66.8695,26.6891 a 10.178976,10.178976 0 1 0 7.5473,-18.9073 z m -0.2541,193.7848 -71.5035,-8.3685 a 10.176484,10.176484 0 1 0 -2.3463,20.2173 l 71.4839,8.3685 a 10.176487,10.176487 0 1 0 2.3463,-20.2173 z m -2.3268,195.3489 -71.523,8.1534 a 10.174249,10.174249 0 1 0 2.3072,20.2173 l 71.523,-8.1339 a 10.183964,10.183964 0 1 0 -2.3072,-20.2368 z m -3.3435,197.2651 -68.6488,21.6641 a 10.178663,10.178663 0 1 0 6.12,19.4157 l 68.6488,-21.6642 a 10.178663,10.178663 0 1 0 -6.12,-19.4156 z m -3.4999,199.0834 -64.5427,31.8706 a 10.178362,10.178362 0 1 0 8.9941,18.262 l 64.5623,-31.8705 a 10.178362,10.178362 0 1 0 -8.9941,-18.2621 z m -2.8742,200.7455 -60.7105,38.6748 a 10.175609,10.175609 0 1 0 10.9299,17.1671 l 60.7105,-38.6748 a 10.175609,10.175609 0 1 0 -10.9299,-17.1671 z m -1.7793,202.1141 -58.2077,42.3702 a 10.182018,10.182018 0 1 0 11.9857,16.4632 l 58.2077,-42.3702 a 10.182018,10.182018 0 1 0 -11.9857,-16.4632 z m -0.4888,203.2481 -57.4843,43.2892 a 10.173173,10.173173 0 1 0 12.2203,16.2677 l 57.5234,-43.2892 a 10.184927,10.184927 0 1 0 -12.2594,-16.2677 z m 0.9386,204.3235 -58.853,41.4709 a 10.187504,10.187504 0 1 0 11.7315,16.6587 l 58.8529,-41.4709 a 10.187504,10.187504 0 1 0 -11.7314,-16.6587 z m 2.1507,205.4967 -61.8445,36.8564 a 10.183813,10.183813 0 1 0 10.4215,17.4995 l 61.8445,-36.876 a 10.180409,10.180409 0 1 0 -10.441,-17.4799 z m 3.0502,206.8653 -65.7941,29.231 a 10.184369,10.184369 0 1 0 8.2707,18.614 l 65.7941,-29.231 a 10.184369,10.184369 0 1 0 -8.2707,-18.614 z m 3.7932,209.1139 -69.9393,17.0302 a 10.181716,10.181716 0 1 0 4.81,19.7872 l 69.9588,-17.0107 a 10.193496,10.193496 0 1 0 -4.8295,-19.8067 z m 3.6759,212.692 -71.9728,-1.7011 a 10.180034,10.180034 0 1 0 -0.4888,20.3542 l 71.9728,1.701 a 10.170232,10.170232 0 1 0 0.4888,-20.3345 z m 175.8746,-3822.80514 3.3239,-71.913997 a 10.178125,10.178125 0 1 0 -20.3346,-0.9386 l -3.3239,71.914097 a 10.178123,10.178123 0 1 0 20.3346,0.9385 z m -2.9915,204.1671 9.1897,-71.3861 a 10.182261,10.182261 0 1 0 -20.1978,-2.6005 l -9.1896,71.4057 a 10.180977,10.180977 0 1 0 20.1977,2.5809 z m 0.7625,203.50234 7.7233,-71.56212 a 10.187214,10.187214 0 1 0 -20.2564,-2.18988 l -7.7233,71.56212 a 10.187214,10.187214 0 1 0 20.2564,2.18988 z m 4.3407,202.58335 -0.8603,-71.97272 a 10.187643,10.187643 0 1 0 -20.3737,0.25418 l 0.8798,71.97272 a 10.177894,10.177894 0 1 0 20.3542,-0.25418 z m 6.9802,200.76496 -15.29,-70.34986 a 10.174492,10.174492 0 1 0 -19.8849,4.3211 l 15.29,70.34986 a 10.184069,10.184069 0 1 0 19.9045,-4.3211 z m 7.7624,198.08629 -32.5549,-64.1908 a 10.178308,10.178308 0 1 0 -18.1643,9.1896 l 32.5744,64.2104 a 10.169609,10.169609 0 1 0 18.1448,-9.1897 z m 6.5109,195.7204 -48.7248,-52.9872 a 10.184736,10.184736 0 1 0 -14.9967,13.7845 l 48.7248,52.9872 a 10.184736,10.184736 0 1 0 14.9967,-13.7845 z m 3.9496,194.8015 -60.6713,-38.7531 a 10.180841,10.180841 0 1 0 -10.9494,17.1671 l 60.6713,38.7335 a 10.172604,10.172604 0 1 0 10.9494,-17.1475 z m 1.486,195.564 -67.6516,-24.6362 a 10.184097,10.184097 0 1 0 -6.9607,19.1419 l 67.6516,24.6362 a 10.193284,10.193284 0 1 0 6.9607,-19.1615 z m -0.078,197.2846 -70.8191,-12.9046 a 10.184302,10.184302 0 1 0 -3.6368,20.0413 l 70.7996,12.9046 a 10.176432,10.176432 0 1 0 3.6563,-20.0217 z m -0.7234,199.0444 -71.875,-4.067 a 10.183094,10.183094 0 1 0 -1.134,20.3346 l 71.8554,4.0669 a 10.184201,10.184201 0 1 0 1.1731,-20.3345 z m -0.8994,200.2761 -71.9532,2.6005 a 10.17408,10.17408 0 1 0 0.743,20.3346 l 71.9532,-2.5809 a 10.183853,10.183853 0 1 0 -0.743,-20.3542 z m -0.8603,201.2343 -71.6013,7.4299 a 10.183087,10.183087 0 1 0 2.1117,20.2564 l 71.6012,-7.4299 a 10.183082,10.183082 0 1 0 -2.1116,-20.2564 z m -0.5866,202.2314 -71.2297,10.2846 a 10.172965,10.172965 0 1 0 2.8937,20.1391 l 71.2493,-10.2651 a 10.172972,10.172972 0 1 0 -2.8938,-20.1391 z m -0.1369,203.2677 -71.1515,11.008 a 10.190317,10.190317 0 1 0 3.1284,20.1391 l 71.132,-11.0276 a 10.190317,10.190317 0 1 0 -3.1284,-20.1391 z m 0.2933,204.3039 -71.347,9.5807 a 10.170541,10.170541 0 1 0 2.7178,20.1587 l 71.347,-9.5808 a 10.1705,10.1705 0 1 0 -2.7178,-20.1586 z m 0.7039,205.3012 -71.7381,6.0612 a 10.173617,10.173617 0 1 0 1.7011,20.276 l 71.7576,-6.0417 a 10.174437,10.174437 0 1 0 -1.7206,-20.276 z m 0.8994,206.357 -71.9727,0.5083 a 10.17733,10.17733 0 1 0 0.1369,20.3542 l 71.9727,-0.5084 a 10.177301,10.177301 0 1 0 -0.1369,-20.3541 z m 0.9776,207.9407 -71.523,-8.0361 a 10.172063,10.172063 0 1 0 -2.2681,20.2173 l 71.523,8.0556 a 10.182859,10.182859 0 1 0 2.2877,-20.2368 z m 0.5084,210.5412 -68.8248,-21.1362 a 10.174108,10.174108 0 1 0 -5.9635,19.4547 l 68.8052,21.1558 a 10.186337,10.186337 0 1 0 5.9831,-19.4743 z m 165.5314,-3831.99484 20.8234,-68.922497 a 10.172083,10.172083 0 1 0 -19.4743,-5.8853 l -20.8234,68.902997 a 10.174908,10.174908 0 1 0 19.4743,5.9048 z m -3.4804,203.3655 27.178,-66.6544 a 10.18646,10.18646 0 1 0 -18.8682,-7.6842 l -27.1779,66.674 a 10.182742,10.182742 0 1 0 18.8681,7.6646 z m 0.7821,203.69783 25.7702,-67.22146 a 10.187301,10.187301 0 1 0 -19.0246,-7.29308 l -25.7506,67.22147 a 10.17816,10.17816 0 1 0 19.005,7.29307 z m 4.7122,203.73695 17.0889,-69.93926 a 10.174499,10.174499 0 1 0 -19.7676,-4.82946 l -17.0889,69.97836 a 10.1745,10.1745 0 1 0 19.7676,4.82947 z m 7.6841,202.52469 2.3072,-71.95316 a 10.172417,10.172417 0 1 0 -20.3346,-0.64523 l -2.3463,71.95316 a 10.191957,10.191957 0 1 0 20.3737,0.64523 z m 8.7986,200.19797 -15.7984,-70.2326 a 10.179696,10.179696 0 1 0 -19.8653,4.458 l 15.818,70.2325 a 10.179696,10.179696 0 1 0 19.8653,-4.4579 z m 7.8797,197.9103 -33.3566,-63.7998 a 10.179757,10.179757 0 1 0 -18.0469,9.4243 l 33.3565,63.7998 a 10.179779,10.179779 0 1 0 18.047,-9.4243 z m 5.5138,197.0109 -47.0238,-54.4928 a 10.175489,10.175489 0 1 0 -15.4073,13.2957 l 47.0237,54.5123 a 10.175505,10.175505 0 1 0 15.4074,-13.2957 z m 3.1284,197.8712 -55.8224,-45.4791 a 10.179569,10.179569 0 1 0 -12.8655,15.7788 l 55.8223,45.4791 a 10.187166,10.187166 0 1 0 12.8656,-15.7984 z m 1.4469,199.6309 -60.5932,-38.8899 a 10.183136,10.183136 0 1 0 -10.9885,17.1475 l 60.5932,38.8704 a 10.174906,10.174906 0 1 0 10.9885,-17.128 z m 0.6061,201.332 -62.9004,-34.999 a 10.179207,10.179207 0 1 0 -9.8935,17.7928 l 62.9003,34.999 a 10.179219,10.179219 0 1 0 9.8936,-17.7928 z m 0.2933,202.3096 -64.1322,-32.7309 a 10.182854,10.182854 0 1 0 -9.2483,18.1447 l 64.1322,32.7114 a 10.174145,10.174145 0 1 0 9.2483,-18.1252 z m 0.176,202.6616 -64.9143,-31.0885 a 10.188446,10.188446 0 1 0 -8.7986,18.3794 l 64.9142,31.0884 a 10.188423,10.188423 0 1 0 8.7987,-18.3793 z m 0.098,203.0526 -65.3835,-30.1108 a 10.192198,10.192198 0 1 0 -8.5249,18.5162 l 65.3835,30.1108 a 10.192198,10.192198 0 1 0 8.5249,-18.5162 z m 0,203.4632 -65.5008,-29.8371 a 10.180765,10.180765 0 1 0 -8.4271,18.5358 l 65.5008,29.8371 a 10.184825,10.184825 0 1 0 8.4467,-18.5358 z m -0.02,203.8934 -65.2858,-30.3455 a 10.177911,10.177911 0 1 0 -8.5835,18.4576 l 65.2857,30.365 a 10.186773,10.186773 0 1 0 8.5836,-18.4771 z m -0.1174,204.3039 -64.7187,-31.5577 a 10.178742,10.178742 0 1 0 -8.9159,18.3012 l 64.7187,31.5577 a 10.178742,10.178742 0 1 0 8.9159,-18.3012 z m -0.1955,204.6755 -63.7606,-33.4347 a 10.188823,10.188823 0 1 0 -9.4635,18.0469 l 63.7412,33.4348 a 10.188844,10.188844 0 1 0 9.4634,-18.047 z m -0.4497,205.4576 -61.9814,-36.6218 a 10.185651,10.185651 0 1 0 -10.3628,17.5385 l 61.9814,36.6023 a 10.177235,10.177235 0 1 0 10.3628,-17.519 z m -1.1145,207.1195 -58.0709,-42.5267 a 10.183526,10.183526 0 1 0 -12.0443,16.4241 l 58.0709,42.5267 a 10.183526,10.183526 0 1 0 12.0443,-16.4241 z"
     id="path6" />
</svg>
