<?xml version="1.0" encoding="utf-8" ?>	<!-- Generator: Assembly 2.4 - http://assemblyapp.co -->	<svg version="1.1" xmlns="http://www.w3.org/2000/svg" xmlns:xlink="http://www.w3.org/1999/xlink" width="4096.00" height="4096.00" viewBox="0 0 4096.0 4096.0">		<rect x="0" y="0" width="4096.00" height="4096.00" fill="#ffffff" />		<g id="document" transform="scale(1.0 1.0) translate(2048.0 2048.0)">			<path d="M-657.096,-383.629 C-657.073,-493.804 -656.917,-657.827 -657.096,-767.965 C-657.113,-794.573 -666.968,-817.724 -686.655,-837.411 C-757.995,-908.877 -2129.11,-2154.63 -2129.11,-2154.63 L-2129.11,-2105.76 C-2129.11,-2105.76 -761.539,-855.597 -707.654,-801.753 C-700.382,-794.476 -696.752,-783.458 -696.775,-768.701 C-696.913,-659.351 -697.115,-495.542 -696.919,-385.036 L-678.589,-401.428 C-677.548,-402.347 -676.536,-402.329 -675.54,-401.369 L-657.096,-383.629 Z " fill="#99c1f1" fill-opacity="1.00" />			<path d="M-2295.23,2321.17 L2292.14,2321.17 L2292.14,-2266.2 L-2295.23,-2266.2 L-2295.23,2321.17 Z " fill="#f0f6ff" fill-opacity="1.00" />			<path d="M-310.711,195.912 C-364.451,195.912 -416.014,217.271 -454.014,255.271 L-1967.66,1768.91 C-1996.54,1797.8 -2035.69,1814.02 -2076.54,1814.02 L-2292.59,1814.02 L-2292.59,1862.68 L-2076.54,1862.68 C-2022.8,1862.68 -1971.24,1841.33 -1933.24,1803.33 L-419.6,289.685 C-390.714,260.8 -351.562,244.582 -310.711,244.582 L49.6816,244.582 L49.6816,195.912 L-310.711,195.912 Z " fill="#ffa348" fill-opacity="1.00" />			<path d="M-1661.64,793.255 C-1711.85,793.255 -1760.02,773.299 -1795.52,737.797 L-2314.42,218.902 L-2280,184.488 L-1761.11,703.382 C-1734.72,729.771 -1698.96,744.585 -1661.64,744.585 L-933.25,744.587 L-933.248,793.255 L-1661.64,793.255 Z " fill="#f66151" fill-opacity="1.00" />			<g>				<path d="M-938.099,830.024 C-902.556,830.024 -873.791,801.254 -873.791,765.715 C-873.791,730.175 -902.556,701.406 -938.099,701.406 C-973.637,701.406 -1002.41,730.175 -1002.41,765.715 C-1002.41,801.254 -973.637,830.024 -938.099,830.024 Z " fill="#f6f5f4" fill-opacity="1.00" />				<path d="M-938.1,689.239 C-980.204,689.239 -1014.58,723.609 -1014.58,765.715 C-1014.58,807.821 -980.204,842.191 -938.1,842.191 C-895.991,842.191 -861.623,807.82 -861.623,765.715 C-861.623,723.61 -895.991,689.239 -938.1,689.239 Z M-938.1,713.573 C-909.123,713.573 -885.958,736.741 -885.958,765.715 C-885.958,794.689 -909.123,817.857 -938.1,817.857 C-967.07,817.857 -990.241,794.687 -990.241,765.715 C-990.241,736.743 -967.07,713.573 -938.1,713.573 Z " fill="#241f31" fill-opacity="1.00" />			</g>			<path d="M-730.934,-785.627 C-680.56,-735.253 -652.249,-666.905 -652.249,-595.665 L-652.249,-385.086 L-700.918,-385.086 L-700.918,-595.665 C-700.918,-654.016 -724.088,-709.952 -765.349,-751.213 L-2073.47,-2059.34 L-2039.06,-2093.75 L-730.934,-785.627 Z " fill="#99c1f1" fill-opacity="1.00" />			<path d="M2292.14,-158.174 L2292.14,-206.843 L-443.977,-206.844 C-481.296,-206.844 -517.061,-221.658 -543.45,-248.047 L-656.77,-361.367 L-691.184,-326.953 L-577.864,-213.632 C-542.361,-178.13 -494.185,-158.174 -443.977,-158.174 L2292.14,-158.174 Z " fill="#3484e4" fill-opacity="1.00" />			<g>				<path d="M-674.476,-283.52 C-638.933,-283.52 -610.167,-312.29 -610.167,-347.83 C-610.167,-383.369 -638.933,-412.138 -674.476,-412.138 C-710.013,-412.138 -738.785,-383.369 -738.785,-347.83 C-738.785,-312.29 -710.013,-283.52 -674.476,-283.52 Z " fill="#f6f5f4" fill-opacity="1.00" />				<path d="M-674.476,-424.305 C-716.58,-424.305 -750.952,-389.936 -750.952,-347.83 C-750.952,-305.724 -716.58,-271.353 -674.476,-271.353 C-632.367,-271.353 -597.999,-305.725 -597.999,-347.83 C-597.999,-389.934 -632.367,-424.305 -674.476,-424.305 Z M-674.476,-399.971 C-645.499,-399.971 -622.335,-376.803 -622.335,-347.83 C-622.335,-318.856 -645.499,-295.687 -674.476,-295.687 C-703.446,-295.687 -726.617,-318.857 -726.617,-347.83 C-726.617,-376.802 -703.446,-399.971 -674.476,-399.971 Z " fill="#241f31" fill-opacity="1.00" />			</g>			<path d="M290.615,201.948 L290.615,250.618 L483.75,250.618 C521.069,250.618 556.834,265.432 583.223,291.821 L2116.06,1824.65 L2150.47,1790.24 L617.637,257.406 C582.134,221.904 533.958,201.948 483.75,201.948 L290.615,201.948 Z " fill="#5ed694" fill-opacity="1.00" />			<path d="M266.608,-182.509 L266.608,2076.54 L315.276,2076.54 L315.276,-182.509 L266.608,-182.509 Z " fill="#2ec27e" fill-opacity="1.00" />			<path d="M-2295.23,-47.89 L-2295.23,0.779366 L-250.489,0.779469 C-213.17,0.779471 -177.405,15.5937 -151.016,41.9824 L43.4194,236.418 L77.8336,202.004 L-116.602,7.56823 C-152.104,-27.9345 -200.281,-47.89 -250.489,-47.89 L-2295.23,-47.89 Z " fill="#f6d32d" fill-opacity="1.00" />			<path d="M25.3476,220.247 L25.3476,2076.54 L74.0157,2076.54 L74.0169,220.247 L25.3476,220.247 Z " fill="#2db1f6" fill-opacity="1.00" />			<g>				<path d="M52.6357,154.507 C17.0984,154.507 -11.6741,183.277 -11.6741,218.816 C-11.6741,254.355 17.0984,283.126 52.6357,283.126 C78.7024,283.126 101.107,267.643 111.21,245.373 L231.245,245.373 C241.349,267.642 263.755,283.126 289.818,283.126 C325.361,283.126 354.126,254.355 354.126,218.816 C354.126,183.277 325.361,154.507 289.818,154.507 C262.822,154.507 239.746,171.117 230.205,194.676 L112.25,194.676 C102.711,171.116 79.6356,154.507 52.6357,154.507 Z " fill="#f6f5f4" fill-opacity="1.00" />				<path d="M52.6358,142.339 C10.5317,142.339 -23.8419,176.711 -23.8419,218.817 C-23.8419,260.923 10.5316,295.294 52.6358,295.294 C80.6516,295.294 105.223,280.133 118.527,257.541 L223.929,257.541 C237.235,280.132 261.805,295.294 289.818,295.294 C331.927,295.294 366.293,260.921 366.293,218.817 C366.293,176.712 331.926,142.339 289.818,142.339 C260.818,142.339 235.51,158.583 222.566,182.509 L119.889,182.509 C106.946,158.583 81.6389,142.339 52.6358,142.339 Z M52.6358,166.673 C74.6458,166.673 93.2481,180.166 100.972,199.243 C102.833,203.836 107.293,206.843 112.25,206.843 L230.205,206.843 C235.161,206.843 239.623,203.837 241.483,199.243 C249.209,180.166 267.813,166.673 289.818,166.673 C318.795,166.673 341.958,189.843 341.958,218.817 C341.958,247.79 318.795,270.96 289.818,270.959 C268.574,270.959 250.51,258.384 242.325,240.345 C240.352,235.998 236.019,233.206 231.246,233.206 L111.21,233.206 C106.436,233.206 102.102,235.998 100.13,240.346 C91.9463,258.385 73.8843,270.96 52.6358,270.959 C23.6657,270.959 0.493302,247.789 0.493302,218.817 C0.493302,189.845 23.6655,166.673 52.6358,166.673 L52.6358,166.673 Z " fill="#241f31" fill-opacity="1.00" />			</g>			<path d="M2292.14,-1216.95 L2292.14,-1168.29 L1353.61,-1168.29 C1316.29,-1168.29 1280.53,-1153.47 1254.14,-1127.08 L309.391,-182.333 L274.976,-216.747 L1219.73,-1161.5 C1255.23,-1197 1303.4,-1216.95 1353.61,-1216.95 L2292.14,-1216.95 Z " fill="#2ec27e" fill-opacity="1.00" />			<g>				<path d="M289.817,-122.45 C325.36,-122.45 354.126,-151.219 354.126,-186.758 C354.126,-222.298 325.36,-251.068 289.817,-251.068 C254.28,-251.068 225.509,-222.298 225.509,-186.758 C225.509,-151.219 254.28,-122.45 289.817,-122.45 Z " fill="#f6f5f4" fill-opacity="1.00" />				<path d="M289.818,-263.235 C247.714,-263.235 213.341,-228.865 213.341,-186.758 C213.341,-144.652 247.714,-110.283 289.818,-110.283 C331.926,-110.283 366.293,-144.654 366.293,-186.758 C366.293,-228.863 331.926,-263.235 289.818,-263.235 Z M289.818,-238.901 C318.795,-238.901 341.959,-215.732 341.959,-186.758 C341.959,-157.785 318.795,-134.617 289.818,-134.617 C260.847,-134.617 237.676,-157.786 237.676,-186.758 C237.676,-215.731 260.847,-238.901 289.818,-238.901 Z " fill="#241f31" fill-opacity="1.00" />			</g>			<path d="M963.375,91.0995 C913.167,91.0995 864.991,71.144 829.488,35.6413 L635.053,-158.794 L669.467,-193.208 L863.902,1.22711 C890.291,27.6158 926.056,42.4301 963.375,42.4301 L2292.14,42.4301 L2292.14,91.0995 L963.375,91.0995 Z " fill="#1a5fb4" fill-opacity="1.00" />			<g>				<path d="M654.835,-122.45 C690.378,-122.45 719.144,-151.219 719.144,-186.758 C719.144,-222.298 690.378,-251.068 654.835,-251.068 C619.298,-251.068 590.526,-222.298 590.526,-186.758 C590.526,-151.219 619.298,-122.45 654.835,-122.45 Z " fill="#f6f5f4" fill-opacity="1.00" />				<path d="M654.835,-263.235 C612.731,-263.235 578.359,-228.865 578.359,-186.758 C578.359,-144.652 612.731,-110.283 654.835,-110.283 C696.944,-110.283 731.311,-144.654 731.311,-186.758 C731.311,-228.863 696.944,-263.235 654.835,-263.235 Z M654.835,-238.901 C683.813,-238.901 706.977,-215.732 706.977,-186.758 C706.977,-157.785 683.813,-134.617 654.835,-134.617 C625.865,-134.617 602.693,-157.786 602.693,-186.758 C602.693,-215.731 625.865,-238.901 654.835,-238.901 Z " fill="#241f31" fill-opacity="1.00" />			</g>		</g>	</svg>