<?xml version="1.0" encoding="utf-8" ?>	<!-- Generator: Assembly 2.4 - http://assemblyapp.co -->	<svg version="1.1" xmlns="http://www.w3.org/2000/svg" xmlns:xlink="http://www.w3.org/1999/xlink" width="4096.00" height="4096.00" viewBox="0 0 4096.0 4096.0">		<rect x="0" y="0" width="4096.00" height="4096.00" fill="#262f3d" />		<g id="document" transform="scale(1.0 1.0) translate(2048.0 2048.0)">			<path d="M85.6012,242.56 C-3.52303,153.296 -130.673,22.2159 -219.727,-66.3492 C-252.114,-98.5261 -290.806,-114.615 -335.805,-114.615 C-1646.78,-114.895 -2074.46,-114.615 -2074.46,-114.615 L-2074.46,-44.6027 C-2074.46,-44.6027 -1646.34,-44.654 -340.993,-44.5486 C-309.76,-44.5486 -289.269,-34.8536 -265.792,-11.4807 C-178.344,75.7569 -52.8016,205.37 34.7154,293.026 L85.6012,242.56 Z " fill="#ebbb64" fill-opacity="1.00" />			<path d="M83.7114,289.245 C-113.158,289.21 -406.264,288.931 -603.064,289.245 C-650.613,289.28 -691.979,306.888 -727.16,342.07 C-854.855,469.555 -1121.5,738.7 -1177.61,796.346 L-1120.02,782.249 C-1118.71,781.926 -1117.32,782.312 -1116.37,783.266 C-1115.42,784.22 -1115.03,785.603 -1115.35,786.913 L-1130.71,847.546 C-1031.91,749.583 -759.652,475.878 -663.435,379.592 C-650.439,366.596 -630.752,360.115 -604.374,360.15 C-408.972,360.394 -116.268,360.761 81.1958,360.412 L51.9013,327.658 C50.2593,325.807 50.2941,323.99 52.0061,322.208 L83.7114,289.245 Z M-1130.71,745.67 L-1411.13,1025.78 L-1461.65,1076.3 C-1632.94,1248.08 -1803.09,1418.12 -1972.08,1586.41 C-1978.65,1592.98 -1988.88,1597.94 -2002.79,1601.29 C-2011.03,1603.25 -2036.12,1604.23 -2036.12,1604.23 L-2066.33,1604.23 L-2066.33,1675.97 C-2066.33,1675.97 -1995.82,1673.25 -1979.36,1667.9 C-1952.08,1659.06 -1926.99,1643.2 -1904.11,1620.32 C-1739.48,1455.27 -1575.02,1290.77 -1410.71,1126.81 L-1360.51,1076.71 L-1080.03,796.346 L-1130.71,745.67 Z " fill="#ff9f74" fill-opacity="1.00" />			<path d="M128.175,353.832 L56.5364,354.409 C56.3962,1053.29 56.5364,2096.54 56.5364,2096.54 L128.174,2096.54 C128.174,2096.54 128.349,1052.4 128.175,353.832 Z " fill="#f57fa2" fill-opacity="1.00" />			<path d="M-1204.16,1012.13 L-1204.74,940.489 C-1903.62,940.349 -803.952,940.454 -1501.82,940.489 C-1532.58,940.541 -1551.92,927.073 -1575.19,903.91 C-1638.46,841.128 -1702.69,776.967 -1767.88,711.425 L-2068.05,410.824 L-2118.05,460.924 L-1836.37,743.34 C-1768.56,811.152 -1699.88,879.768 -1630.32,949.188 C-1607.43,972.072 -1588.23,987.357 -1572.72,995.043 C-1549.42,1006.61 -1524.91,1012.39 -1499.2,1012.39 C-802.38,1012.49 -1902.73,1012.3 -1204.16,1012.13 Z " fill="#ff817e" fill-opacity="1.00" />			<path d="M-1265.34,-903.054 C-1176.22,-813.79 -995.599,-614.23 -906.545,-525.665 C-874.159,-493.488 -835.466,-477.4 -790.467,-477.4 C520.507,-477.12 2074.35,-477.454 2074.35,-477.454 L2074.35,-547.466 C2074.35,-547.466 520.07,-547.36 -785.279,-547.466 C-816.513,-547.466 -837.003,-557.161 -860.481,-580.534 C-947.928,-667.771 -1126.94,-865.864 -1214.46,-953.52 L-1265.34,-903.054 Z " fill="#6091e4" fill-opacity="1.00" />			<path d="M2060.26,-18.1872 C2060.26,-18.1872 1842.52,-18.1377 1609.96,-18.1872 C1589.65,-18.1872 1566.21,-23.1033 1539.63,-32.9355 C1533.1,-37.4809 1526.01,-42.2981 1518.36,-47.387 C1511.09,-52.1798 1504.52,-57.5408 1498.64,-63.4698 C1180.7,-381.264 1424.77,-137.169 1106.93,-455.112 L1142.87,-519.219 C1466.89,-194.903 1228.68,-433.143 1552.15,-110.012 C1566.13,-96.079 1586.64,-89.1371 1613.67,-89.1866 C1831.06,-89.2855 2060.26,-89.7796 2060.26,-89.7796 L2060.26,-18.1872 Z " fill="#89c0f1" fill-opacity="1.00" />			<path d="M-1231.21,-988.719 C-1231.17,-1175.72 -1230.91,-1454.12 -1231.21,-1641.05 C-1231.24,-1686.22 -1247.97,-1725.51 -1281.38,-1758.93 C-1402.47,-1880.22 -1773.65,-2148.49 -1773.65,-2148.49 L-1773.65,-2065.54 C-1773.65,-2065.54 -1408.48,-1789.79 -1317.02,-1698.4 C-1304.68,-1686.05 -1298.52,-1667.35 -1298.56,-1642.3 C-1298.79,-1456.7 -1299.14,-1178.67 -1298.8,-991.108 L-1267.69,-1018.93 C-1265.93,-1020.49 -1264.21,-1020.46 -1262.52,-1018.83 L-1231.21,-988.719 Z " fill="#81b6ff" fill-opacity="1.00" />			<path d="M526.036,293.318 L526.613,364.956 C1225.49,365.097 125.826,364.991 823.692,364.956 C854.454,364.904 873.791,378.372 897.059,401.535 C960.33,464.317 1024.56,528.479 1089.75,594.02 L2084.24,1516.89 L2134.23,1466.79 L1158.25,562.106 C1090.44,494.293 1021.75,425.677 952.19,356.257 C929.306,333.373 910.109,318.089 894.597,310.402 C871.293,298.838 846.785,293.056 821.071,293.056 C124.254,292.951 1224.6,293.144 526.036,293.318 Z " fill="#83ba93" fill-opacity="1.00" />			<path d="M537.301,2121.27 L537.467,-531.718 L458.026,-531.801 L458.026,2121.35 C484.479,2114.82 510.904,2114.8 537.301,2121.27 Z " fill="#bfd68f" fill-opacity="1.00" />			<g>				<path d="M-1182.25,927.296 C-1197.87,887.293 -1224.96,863.624 -1263.53,856.287 C-1321.07,845.352 -1363,868.899 -1389.3,926.929 C-1396.01,949.638 -1396.06,973.448 -1389.46,998.358 C-1378.7,1026.87 -1360.43,1047.55 -1334.65,1060.41 C-1275.74,1089.75 -1206.46,1061.24 -1182.56,998.568 C-1175.65,976.907 -1175.54,953.15 -1182.25,927.296 Z " fill="#1e1e1e" fill-opacity="1.00" />				<path d="M196.161,289.206 C180.544,249.203 153.451,225.534 114.88,218.197 C57.3391,207.262 15.4146,230.809 -10.893,288.839 C-17.6007,311.548 -17.6532,335.358 -11.0501,360.268 C-0.289619,388.776 17.9824,409.459 43.7659,422.316 C102.67,451.663 171.95,423.155 195.846,360.478 C202.764,338.817 202.869,315.06 196.161,289.206 Z " fill="#1e1e1e" fill-opacity="1.00" />				<path d="M1008.77,-564.737 C991.523,-525.408 993.944,-489.513 1016.03,-457.052 C1048.98,-408.632 1095.28,-395.637 1154.92,-418.069 C1175.72,-429.383 1192.59,-446.182 1205.54,-468.465 C1218.08,-496.232 1219.79,-523.778 1210.65,-551.1 C1189.75,-613.503 1120.6,-642.333 1059.39,-614.911 C1039.18,-604.486 1022.3,-587.761 1008.77,-564.737 Z " fill="#1e1e1e" fill-opacity="1.00" />				<path d="M-1354.75,-954.959 C-1339.92,-916.962 -1314.19,-894.48 -1277.55,-887.511 C-1222.89,-877.124 -1183.07,-899.491 -1158.08,-954.611 C-1151.71,-976.181 -1151.66,-998.797 -1157.94,-1022.46 C-1168.16,-1049.54 -1185.51,-1069.18 -1210,-1081.39 C-1265.95,-1109.27 -1331.76,-1082.19 -1354.46,-1022.66 C-1361.03,-1002.08 -1361.13,-979.516 -1354.75,-954.959 Z " fill="#1e1e1e" fill-opacity="1.00" />				<path d="M597.502,289.207 C581.886,249.204 554.792,225.534 516.222,218.197 C458.681,207.262 416.756,230.809 390.449,288.84 C383.741,311.549 383.688,335.358 390.291,360.268 C401.052,388.777 419.324,409.459 445.107,422.316 C504.011,451.663 573.291,423.155 597.188,360.478 C604.105,338.817 604.21,315.06 597.502,289.207 Z " fill="#1e1e1e" fill-opacity="1.00" />				<path d="M601.332,-551.682 C585.715,-591.685 558.622,-615.355 520.052,-622.691 C462.51,-633.627 420.586,-610.079 394.278,-552.049 C387.571,-529.34 387.518,-505.53 394.121,-480.62 C404.882,-452.112 423.154,-431.429 448.937,-418.572 C507.841,-389.225 577.121,-417.734 601.018,-480.411 C607.935,-502.072 608.04,-525.829 601.332,-551.682 Z " fill="#1e1e1e" fill-opacity="1.00" />			</g>		</g>	</svg>