<svg xmlns="http://www.w3.org/2000/svg" width="4080" height="4080"><path d="M0 0h4080v4080H0z" style="font-variation-settings:normal;opacity:1;vector-effect:none;fill:#c01c28;fill-opacity:1;stroke-width:2;stroke-linecap:round;stroke-linejoin:round;stroke-miterlimit:4;stroke-dasharray:none;stroke-dashoffset:0;stroke-opacity:1;-inkscape-stroke:none;stop-color:#000;stop-opacity:1"/><path d="M0 3876h1020v204H0Zm0-408h1020v204H0Zm0-408h1020v204H0Zm0-408h1020v204H0Zm0-408h1020v204H0Zm0-408h1020v204H0Zm0-408h1020v204H0Zm0-408h1020v204H0Zm0-408h1020v204H0Zm0-408h1020v204H0ZM3876 0h204v4084.096h-204ZM2040 3876h2040v204H2040Zm0-3876h2040v204H2040Zm1428 412.097h204V3672h-204ZM2040 408h1632v204H2040Zm0 3060h1632v204H2040ZM3060 820.097h204V3264h-204ZM2040 816h1224v204H2040Zm0 2244h1224v204H2040Zm0-408h816v204h-816zm612-1423.903h204V2856h-204ZM2040 1224h816v204h-816zm0 1020h408v204h-408zm0-612h408v204h-408zm204 0h204v816h-204ZM1632 0h204v4080h-204zm-408 0h204v4080h-204z" style="opacity:.468664;mix-blend-mode:color-dodge;fill:#e01b24;stroke-width:1.99998;stroke-linecap:round;stroke-linejoin:round"/></svg>