<svg width="4096" height="4096" xmlns="http://www.w3.org/2000/svg"><path style="fill:#ddeaf6;stroke-width:1" d="M2429.427 2048V0h47.678v4096h-47.678zm594.895 0V0h23.839v4096h-23.84zm95.356 0V0h47.679v4096h-47.679zm71.518 0V0h23.839v4096h-23.84zm47.678 0V0h23.84v4096h-23.84z"/><path style="fill:#fddfd1;stroke-width:1" d="M2238.713 2048V0h47.679v4096h-47.679zm833.287 0V0h47.678v4096H3072Zm95.357 0V0h23.839v4096h-23.84zm119.195 0V0h47.679v4096h-47.679zm95.357 0V0h47.678v4096h-47.678z"/><path style="fill:#c5daee;stroke-width:1" d="M642.574 2048V0h47.678v4096h-47.678Zm1500.783 0V0h95.356v4096h-95.356zm262.23 0V0h23.84v4096h-23.84zm143.035 0V0h46.595v4096h-46.595zm284.987 0V0h23.839v4096h-23.84zm71.517 0V0h47.678v4096h-47.679zm143.035 0V0H3072v4096h-23.84zm166.874 0V0h23.84v4096h-23.84z"/><path style="fill:#fbbaa0;stroke-width:1" d="M3262.713 2048V0h23.84v4096h-23.84zm71.518 0V0h47.678v4096h-47.678zm95.356 0V0h23.84v4096h-23.84zm47.679 0V0h23.839v4096h-23.84zm71.517 0V0h46.595v4096h-46.595z"/><path style="fill:#9dc9e0;stroke-width:1" d="M2071.84 2048V0h23.839v4096h-23.84zm47.677 0V0h23.84v4096h-23.84zm166.875 0V0h23.839v4096h-23.84zm308.825 0V0h119.196v4096h-119.196zm166.874 0V0h23.84v4096h-23.84zm95.357 0V0h23.839v4096h-23.84z"/><path style="fill:#fb9171;stroke-width:1" d="M3453.427 2048V0h23.839v4096h-23.84zm284.986 0V0h47.678v4096h-47.678zm95.356 0V0h23.84v4096h-23.84z"/><path style="fill:#6aadd5;stroke-width:1" d="M47.678 2048V0h23.84v4096h-23.84Zm690.252 0V0h23.84v4096h-23.84zm190.713 0V0h23.84v4096h-23.84zm166.874 0V0h23.84v4096h-23.84zm714.091 0V0h23.84v4096h-23.84zm95.357 0V0h47.678v4096h-47.678zm143.035 0V0h23.84v4096H2048Zm47.678 0V0h23.84v4096h-23.84zm214.553 0V0h95.356v4096h-95.356zm166.874 0V0h47.679v4096h-47.68zm308.825 0V0h47.679v4096h-47.679zm166.874 0V0h71.518v4096h-71.518z"/><path style="fill:#fa6949;stroke-width:1" d="M3501.105 2048V0h23.839v4096h-23.84zm94.273 0V0h143.035v4096h-143.035zm262.23 0V0h23.84v4096h-23.84z"/><path style="fill:#4191c5;stroke-width:1" d="M23.84 2048V0h23.839v4096h-23.84Zm47.677 0V0h71.518v4096H71.517Zm166.875 0V0h23.839v4096h-23.84zm119.195 0V0h95.357v4096h-95.357Zm119.196 0V0h70.434v4096h-70.434Zm118.112 0V0h23.84v4096h-23.84zm95.357 0V0h47.679v4096h-47.68zm71.517 0V0h47.679v4096h-47.679zm143.035 0V0h23.84v4096h-23.84zm214.553 0V0h23.839v4096h-23.84zm71.517 0V0h23.84v4096h-23.84zm356.504 0V0h23.839v4096h-23.84zm143.035 0V0h23.839v4096h-23.84zm95.356 0V0h23.84v4096h-23.84zm47.679 0V0h47.678v4096h-47.678zm119.195 0V0H2048v4096h-95.357zm572.14 0V0h23.84v4096h-23.84zm189.63 0V0h47.678v4096h-47.678zm166.874 0V0h23.839v4096h-23.84z"/><path style="fill:#ee3a2b;stroke-width:1" d="M3524.944 2048V0h23.84v4096h-23.84zm261.147 0V0h47.678v4096h-47.678zm95.357 0V0h23.839v4096h-23.84z"/><path style="fill:#2070b4;stroke-width:1" d="M0 2048V0h23.84v4096H0Zm143.035 0V0h23.84v4096h-23.84Zm71.517 0V0h23.84v4096h-23.84zm95.357 0V0h23.84v4096h-23.84zm143.035 0V0h23.84v4096h-23.84zm94.273 0V0h23.84v4096h-23.84zm71.517 0V0h23.84v4096h-23.84zm214.553 0V0h23.839v4096h-23.84zm143.035 0V0h23.839v4096h-23.84zm190.713 0V0h23.84v4096h-23.84zm357.587 0V0h22.756v4096h-22.756Zm141.952 0V0h23.839v4096h-23.84zm47.678 0V0h71.517v4096h-71.518zm166.874 0V0h23.84v4096h-23.84z"/><path style="fill:#ca171c;stroke-width:1" d="M3905.287 2048V0h23.839v4096h-23.84zm95.356 0V0h23.84v4096h-23.84z"/><path style="fill:#07509b;stroke-width:1" d="M166.874 2048V0h47.678v4096h-47.678zm95.357 0V0h47.678v4096h-47.678zm71.517 0V0h23.84v4096h-23.84zm237.308 0V0h23.84v4096h-23.84zm238.392 0V0h23.839v4096h-23.84Zm47.678 0V0h47.678v4096h-47.679zm143.035 0V0h47.679v4096h-47.68Zm71.517 0V0h23.84v4096h-23.84zm143.035 0V0h23.84v4096h-23.84zm119.196 0V0h23.84v4096h-23.84zm237.308 0V0h23.84v4096h-23.84zm47.678 0V0h47.679v4096h-47.679z"/><path style="fill:#a40e14;stroke-width:1" d="M3929.126 2048V0h23.84v4096h-23.84zm47.678 0V0h23.84v4096h-23.84zm95.357 0V0H4096v4096h-23.84z"/><path style="fill:#072f6a;stroke-width:1" d="M952.483 2048V0h23.839v4096h-23.84zm95.356 0V0h23.84v4096h-23.84zm95.357 0V0h23.839v4096h-23.84zm95.356 0V0h95.357v4096h-95.357zm119.196 0V0h166.874v4096h-166.874zm237.308 0V0h23.84v4096h-23.84z"/><path style="fill:#66000c;stroke-width:1" d="M3952.965 2048V0h23.84v4096h-23.84zm71.517 0V0h47.679v4096h-47.678z"/></svg>