<?xml version="1.0" encoding="UTF-8" standalone="no"?>
<!-- Created with Inkscape (http://www.inkscape.org/) -->

<svg
   version="1.1"
   id="svg577"
   width="4096"
   height="4096"
   viewBox="0 0 4096 4096"
   sodipodi:docname="oceans.svg"
   inkscape:version="1.2 (dc2aedaf03, 2022-05-15)"
   xmlns:inkscape="http://www.inkscape.org/namespaces/inkscape"
   xmlns:sodipodi="http://sodipodi.sourceforge.net/DTD/sodipodi-0.dtd"
   xmlns="http://www.w3.org/2000/svg"
   xmlns:svg="http://www.w3.org/2000/svg">
  <defs
     id="defs581" />
  <sodipodi:namedview
     id="namedview579"
     pagecolor="#505050"
     bordercolor="#ffffff"
     borderopacity="1"
     inkscape:showpageshadow="0"
     inkscape:pageopacity="0"
     inkscape:pagecheckerboard="1"
     inkscape:deskcolor="#505050"
     showgrid="false"
     inkscape:current-layer="g583" />
  <g
     inkscape:groupmode="layer"
     inkscape:label="Image"
     id="g583">
    <g
       id="g763">
      <path
         style="fill:#ddeaf6;stroke-width:1"
         d="M 2429.4265,2048 V 0 h 23.8391 23.8392 v 2048 2048 h -23.8392 -23.8391 z m 594.8952,0 V 0 h 11.9196 11.9195 v 2048 2048 h -11.9195 -11.9196 z m 95.3566,0 V 0 h 23.8392 23.8391 v 2048 2048 h -23.8391 -23.8392 z m 71.5175,0 V 0 h 11.9195 11.9196 v 2048 2048 h -11.9196 -11.9195 z m 47.6783,0 V 0 h 11.9196 11.9195 v 2048 2048 h -11.9195 -11.9196 z"
         id="path795" />
      <path
         style="fill:#fddfd1;stroke-width:1"
         d="M 2238.7132,2048 V 0 h 23.8392 23.8391 v 2048 2048 h -23.8391 -23.8392 z M 3072,2048 V 0 h 23.8392 23.8391 V 2048 4096 H 3095.8392 3072 Z m 95.3566,0 V 0 h 11.9196 11.9196 v 2048 2048 h -11.9196 -11.9196 z m 119.1958,0 V 0 h 23.8391 23.8392 v 2048 2048 h -23.8392 -23.8391 z m 95.3566,0 V 0 h 23.8391 23.8392 v 2048 2048 h -23.8392 -23.8391 z"
         id="path793" />
      <path
         style="fill:#c5daee;stroke-width:1"
         d="M 642.57354,2048 V 0 h 23.83916 23.83915 V 2048 4096 H 666.4127 642.57354 Z m 1500.78306,0 V 0 h 47.6783 47.6783 v 2048 2048 h -47.6783 -47.6783 z m 262.2307,0 V 0 h 11.9196 11.9196 v 2048 2048 h -11.9196 -11.9196 z m 143.0349,0 V 0 h 23.2974 23.2973 v 2048 2048 h -23.2973 -23.2974 z m 284.9863,0 V 0 h 11.9195 11.9196 v 2048 2048 h -11.9196 -11.9195 z m 71.5174,0 V 0 h 23.8392 23.8391 v 2048 2048 h -23.8391 -23.8392 z m 143.0349,0 V 0 H 3060.0804 3072 v 2048 2048 h -11.9196 -11.9196 z m 166.8741,0 V 0 h 11.9196 11.9196 v 2048 2048 h -11.9196 -11.9196 z"
         id="path791" />
      <path
         style="fill:#fbbaa0;stroke-width:1"
         d="M 3262.7132,2048 V 0 h 11.9196 11.9196 v 2048 2048 h -11.9196 -11.9196 z m 71.5175,0 V 0 h 23.8391 23.8392 v 2048 2048 h -23.8392 -23.8391 z m 95.3566,0 V 0 h 11.9196 11.9196 v 2048 2048 h -11.9196 -11.9196 z m 47.6783,0 V 0 h 11.9196 11.9196 v 2048 2048 h -11.9196 -11.9196 z m 71.5175,0 V 0 h 23.2973 23.2974 v 2048 2048 h -23.2974 -23.2973 z"
         id="path789" />
      <path
         style="fill:#9dc9e0;stroke-width:1"
         d="M 2071.8392,2048 V 0 h 11.9195 11.9196 v 2048 2048 h -11.9196 -11.9195 z m 47.6783,0 V 0 h 11.9195 11.9196 v 2048 2048 h -11.9196 -11.9195 z m 166.874,0 V 0 h 11.9196 11.9196 v 2048 2048 h -11.9196 -11.9196 z m 308.8254,0 V 0 h 59.5979 59.5979 v 2048 2048 h -59.5979 -59.5979 z m 166.8741,0 V 0 h 11.9196 11.9196 v 2048 2048 h -11.9196 -11.9196 z m 95.3566,0 V 0 h 11.9196 11.9196 v 2048 2048 h -11.9196 -11.9196 z"
         id="path787" />
      <path
         style="fill:#fb9171;stroke-width:1"
         d="M 3453.4265,2048 V 0 h 11.9195 11.9196 v 2048 2048 h -11.9196 -11.9195 z m 284.9862,0 V 0 h 23.8392 23.8391 v 2048 2048 h -23.8391 -23.8392 z m 95.3566,0 V 0 h 11.9196 11.9196 v 2048 2048 h -11.9196 -11.9196 z"
         id="path785" />
      <path
         style="fill:#6aadd5;stroke-width:1"
         d="M 47.678307,2048 V 0 H 59.597884 71.51746 V 2048 4096 H 59.597884 47.678307 Z m 690.251853,0 V 0 h 11.91958 11.91957 v 2048 2048 h -11.91957 -11.91958 z m 190.71323,0 V 0 h 11.91957 11.91958 v 2048 2048 h -11.91958 -11.91957 z m 166.87411,0 V 0 h 11.9195 11.9196 v 2048 2048 h -11.9196 -11.9195 z m 714.091,0 V 0 h 11.9195 11.9196 v 2048 2048 h -11.9196 -11.9195 z m 95.3566,0 V 0 h 23.8391 23.8392 v 2048 2048 h -23.8392 -23.8391 z M 2048,2048 V 0 h 11.9196 11.9196 V 2048 4096 H 2059.9196 2048 Z m 47.6783,0 V 0 h 11.9196 11.9196 v 2048 2048 h -11.9196 -11.9196 z m 214.5524,0 V 0 h 47.6783 47.6783 v 2048 2048 h -47.6783 -47.6783 z m 166.8741,0 V 0 h 23.8391 23.8392 v 2048 2048 h -23.8392 -23.8391 z m 308.8254,0 V 0 h 23.8391 23.8392 v 2048 2048 h -23.8392 -23.8391 z m 166.874,0 V 0 h 35.7588 35.7587 v 2048 2048 h -35.7587 -35.7588 z"
         id="path783" />
      <path
         style="fill:#fa6949;stroke-width:1"
         d="M 3501.1048,2048 V 0 h 11.9195 11.9196 v 2048 2048 h -11.9196 -11.9195 z m 94.273,0 V 0 h 71.5174 71.5175 v 2048 2048 h -71.5175 -71.5174 z m 262.2307,0 V 0 h 11.9195 11.9196 v 2048 2048 h -11.9196 -11.9195 z"
         id="path781" />
      <path
         style="fill:#4191c5;stroke-width:1"
         d="M 23.839153,2048 V 0 H 35.75873 47.678307 V 2048 4096 H 35.75873 23.839153 Z m 47.678307,0 V 0 h 35.75873 35.75873 V 2048 4096 H 107.27619 71.51746 Z m 166.87407,0 V 0 h 11.91958 11.91958 v 2048 2048 h -11.91958 -11.91958 z m 119.19577,0 V 0 h 47.67831 47.67831 V 2048 4096 H 405.26561 357.5873 Z m 119.19577,0 V 0 H 512 547.21693 V 2048 4096 H 512 476.78307 Z m 118.11217,0 V 0 h 11.91957 11.91958 v 2048 2048 h -11.91958 -11.91957 z m 95.35661,0 V 0 h 23.83916 23.83915 v 2048 2048 h -23.83915 -23.83916 z m 71.51746,0 V 0 h 23.83916 23.83915 v 2048 2048 h -23.83915 -23.83916 z m 143.03492,0 V 0 h 11.91958 11.91958 v 2048 2048 h -11.91958 -11.91958 z m 214.55237,0 V 0 h 11.9196 11.9196 v 2048 2048 h -11.9196 -11.9196 z m 71.5175,0 V 0 h 11.9196 11.9195 v 2048 2048 h -11.9195 -11.9196 z m 356.5037,0 V 0 h 11.9196 11.9195 v 2048 2048 h -11.9195 -11.9196 z m 143.0349,0 V 0 h 11.9196 11.9196 v 2048 2048 h -11.9196 -11.9196 z m 95.3566,0 V 0 h 11.9196 11.9196 v 2048 2048 h -11.9196 -11.9196 z m 47.6783,0 V 0 h 23.8392 23.8391 v 2048 2048 h -23.8391 -23.8392 z m 119.1958,0 V 0 H 2000.3217 2048 v 2048 2048 h -47.6783 -47.6783 z m 572.1397,0 V 0 h 11.9195 11.9196 v 2048 2048 h -11.9196 -11.9195 z m 189.6296,0 V 0 h 23.8392 23.8391 v 2048 2048 h -23.8391 -23.8392 z m 166.8741,0 V 0 h 11.9195 11.9196 v 2048 2048 h -11.9196 -11.9195 z"
         id="path779" />
      <path
         style="fill:#ee3a2b;stroke-width:1"
         d="M 3524.9439,2048 V 0 h 11.9196 11.9196 v 2048 2048 h -11.9196 -11.9196 z m 261.1471,0 V 0 h 23.8392 23.8391 v 2048 2048 h -23.8391 -23.8392 z m 95.3566,0 V 0 h 11.9196 11.9196 v 2048 2048 h -11.9196 -11.9196 z"
         id="path777" />
      <path
         style="fill:#2070b4;stroke-width:1"
         d="M 0,2048 V 0 H 11.919577 23.839153 V 2048 4096 H 11.919577 0 Z m 143.03492,0 V 0 h 11.91958 11.91957 V 2048 4096 H 154.9545 143.03492 Z m 71.51746,0 V 0 h 11.91958 11.91957 v 2048 2048 h -11.91957 -11.91958 z m 95.35661,0 V 0 h 11.91958 11.91958 v 2048 2048 h -11.91958 -11.91958 z m 143.03493,0 V 0 h 11.91957 11.91958 v 2048 2048 h -11.91958 -11.91957 z m 94.27301,0 V 0 h 11.91958 11.91957 v 2048 2048 h -11.91957 -11.91958 z m 71.51746,0 V 0 h 11.91958 11.91957 v 2048 2048 h -11.91957 -11.91958 z m 214.55238,0 V 0 h 11.91958 11.91958 v 2048 2048 h -11.91958 -11.91958 z m 143.03492,0 V 0 h 11.91958 11.91953 v 2048 2048 h -11.91953 -11.91958 z m 190.71321,0 V 0 h 11.9196 11.9196 v 2048 2048 h -11.9196 -11.9196 z m 357.5873,0 V 0 H 1536 1547.3778 V 2048 4096 H 1536 1524.6222 Z m 141.9513,0 V 0 h 11.9196 11.9196 v 2048 2048 h -11.9196 -11.9196 z m 47.6784,0 V 0 h 35.7587 35.7587 v 2048 2048 h -35.7587 -35.7587 z m 166.874,0 V 0 h 11.9196 11.9196 v 2048 2048 h -11.9196 -11.9196 z"
         id="path775" />
      <path
         style="fill:#ca171c;stroke-width:1"
         d="M 3905.2868,2048 V 0 h 11.9195 11.9196 v 2048 2048 h -11.9196 -11.9195 z m 95.3566,0 V 0 h 11.9196 11.9195 v 2048 2048 h -11.9195 -11.9196 z"
         id="path773" />
      <path
         style="fill:#07509b;stroke-width:1"
         d="M 166.87407,2048 V 0 h 23.83916 23.83915 v 2048 2048 h -23.83915 -23.83916 z m 95.35662,0 V 0 h 23.83915 23.83915 v 2048 2048 h -23.83915 -23.83915 z m 71.51746,0 V 0 h 11.91957 11.91958 v 2048 2048 h -11.91958 -11.91957 z m 237.30793,0 V 0 h 11.91958 11.91958 v 2048 2048 h -11.91958 -11.91958 z m 238.39154,0 V 0 h 11.91958 11.91957 V 2048 4096 H 821.3672 809.44762 Z m 47.67831,0 V 0 h 23.83915 23.83915 v 2048 2048 h -23.83915 -23.83915 z m 143.03487,0 V 0 H 1024 1047.8392 V 2048 4096 H 1024 1000.1608 Z m 71.5175,0 V 0 h 11.9196 11.9196 v 2048 2048 h -11.9196 -11.9196 z m 143.0349,0 V 0 h 11.9196 11.9196 v 2048 2048 h -11.9196 -11.9196 z m 119.1958,0 V 0 h 11.9196 11.9195 v 2048 2048 h -11.9195 -11.9196 z m 237.3079,0 V 0 h 11.9196 11.9196 v 2048 2048 h -11.9196 -11.9196 z m 47.6783,0 V 0 h 23.8392 23.8391 v 2048 2048 h -23.8391 -23.8392 z"
         id="path771" />
      <path
         style="fill:#a40e14;stroke-width:1"
         d="M 3929.1259,2048 V 0 h 11.9196 11.9196 v 2048 2048 h -11.9196 -11.9196 z m 47.6783,0 V 0 h 11.9196 11.9196 v 2048 2048 h -11.9196 -11.9196 z m 95.3566,0 V 0 H 4084.0804 4096 v 2048 2048 h -11.9196 -11.9196 z"
         id="path769" />
      <path
         style="fill:#072f6a;stroke-width:1"
         d="M 952.48254,2048 V 0 h 11.91958 11.91957 v 2048 2048 h -11.91957 -11.91958 z m 95.35666,0 V 0 h 11.9195 11.9196 v 2048 2048 h -11.9196 -11.9195 z m 95.3566,0 V 0 h 11.9195 11.9196 v 2048 2048 h -11.9196 -11.9195 z m 95.3566,0 V 0 h 47.6783 47.6783 v 2048 2048 h -47.6783 -47.6783 z m 119.1957,0 V 0 h 83.4371 83.437 v 2048 2048 h -83.437 -83.4371 z m 237.308,0 V 0 h 11.9196 11.9195 v 2048 2048 h -11.9195 -11.9196 z"
         id="path767" />
      <path
         style="fill:#66000c;stroke-width:1"
         d="M 3952.9651,2048 V 0 h 11.9196 11.9195 v 2048 2048 h -11.9195 -11.9196 z m 71.5174,0 V 0 h 23.8392 23.8391 v 2048 2048 h -23.8391 -23.8392 z"
         id="path765" />
    </g>
  </g>
</svg>
