<?xml version="1.0" encoding="UTF-8" standalone="no"?>
<!-- Created with Inkscape (http://www.inkscape.org/) -->
<svg
   xmlns:dc="http://purl.org/dc/elements/1.1/"
   xmlns:cc="http://web.resource.org/cc/"
   xmlns:rdf="http://www.w3.org/1999/02/22-rdf-syntax-ns#"
   xmlns:svg="http://www.w3.org/2000/svg"
   xmlns="http://www.w3.org/2000/svg"
   xmlns:sodipodi="http://inkscape.sourceforge.net/DTD/sodipodi-0.dtd"
   xmlns:inkscape="http://www.inkscape.org/namespaces/inkscape"
   width="128.00000px"
   height="128.00000px"
   id="svg2"
   sodipodi:version="0.32"
   inkscape:version="0.43"
   sodipodi:docbase="/home/lapo/Grafica"
   sodipodi:docname="pattern-clouds-white.svg">
  <defs
     id="defs4">
    <linearGradient
       id="linearGradient3230">
      <stop
         style="stop-color:#000000;stop-opacity:0.10309278;"
         offset="0.0000000"
         id="stop3232" />
      <stop
         style="stop-color:#000000;stop-opacity:0.078431375;"
         offset="1.0000000"
         id="stop3234" />
    </linearGradient>
  </defs>
  <sodipodi:namedview
     id="base"
     pagecolor="#8e8e8e"
     bordercolor="#666666"
     borderopacity="1.0"
     inkscape:pageopacity="1"
     inkscape:pageshadow="2"
     inkscape:zoom="0.98994949"
     inkscape:cx="70.58464"
     inkscape:cy="90.30407"
     inkscape:document-units="px"
     inkscape:current-layer="layer1"
     showgrid="true"
     inkscape:window-width="1270"
     inkscape:window-height="885"
     inkscape:window-x="0"
     inkscape:window-y="25" />
  <metadata
     id="metadata7">
    <rdf:RDF>
      <cc:Work
         rdf:about="">
        <dc:format>image/svg+xml</dc:format>
        <dc:type
           rdf:resource="http://purl.org/dc/dcmitype/StillImage" />
        <dc:title>clouds pattern</dc:title>
        <dc:date>2005-08-18</dc:date>
        <dc:creator>
          <cc:Agent>
            <dc:title>Andreas Nilsson</dc:title>
          </cc:Agent>
        </dc:creator>
        <cc:license
           rdf:resource="http://creativecommons.org/licenses/GPL/2.0/" />
        <dc:subject>
          <rdf:Bag />
        </dc:subject>
        <dc:contributor>
          <cc:Agent>
            <dc:title>Lapo Calamandrei</dc:title>
          </cc:Agent>
        </dc:contributor>
      </cc:Work>
      <cc:License
         rdf:about="http://creativecommons.org/licenses/GPL/2.0/">
        <cc:permits
           rdf:resource="http://web.resource.org/cc/Reproduction" />
        <cc:permits
           rdf:resource="http://web.resource.org/cc/Distribution" />
        <cc:requires
           rdf:resource="http://web.resource.org/cc/Notice" />
        <cc:permits
           rdf:resource="http://web.resource.org/cc/DerivativeWorks" />
        <cc:requires
           rdf:resource="http://web.resource.org/cc/ShareAlike" />
        <cc:requires
           rdf:resource="http://web.resource.org/cc/SourceCode" />
      </cc:License>
    </rdf:RDF>
  </metadata>
  <g
     inkscape:label="Layer 1"
     inkscape:groupmode="layer"
     id="layer1">
    <path
       id="use1388"
       d="M 57.552153,53.000003 C 55.404403,53.000003 53.636209,54.081631 52.968009,55.559112 C 52.447900,55.470013 51.965139,55.314328 51.410290,55.314328 C 47.321564,55.314328 44.000000,57.866494 44.000000,61.011128 C 44.000000,64.155763 47.321564,66.707928 51.410290,66.707928 C 52.305067,66.707928 53.130606,66.553538 53.924893,66.329625 C 55.243779,67.902055 57.432261,69.000000 60.044503,69.000000 C 62.730372,69.000000 64.976599,67.843198 66.275379,66.196106 C 67.039279,66.500483 67.870799,66.707928 68.789979,66.707928 C 71.856529,66.707928 74.331009,64.793803 74.331009,62.435328 C 74.331009,60.076853 71.856529,58.162728 68.789979,58.162728 C 68.379049,58.162728 68.018399,58.275545 67.632819,58.340753 C 67.940579,57.879403 68.166889,57.381403 68.166889,56.827541 C 68.166889,54.963924 66.206149,53.445066 63.783028,53.445066 C 62.763164,53.445066 61.858182,53.752392 61.112653,54.201672 C 60.216194,53.469841 58.961637,53.000002 57.552153,53.000003 z "
       style="opacity:1.0000000;fill:#ffffff;fill-opacity:0.17578125;fill-rule:nonzero;stroke:none;stroke-width:1.0000000;stroke-linecap:round;stroke-linejoin:round;stroke-miterlimit:4.0000000;stroke-dasharray:none;stroke-dashoffset:0.0000000;stroke-opacity:1.0000000" />
    <path
       id="use1392"
       d="M 32.031250,3.0000000 C 29.015171,3.0000000 26.532101,4.5189270 25.593750,6.5937500 C 24.863362,6.4686280 24.185422,6.2500000 23.406250,6.2500000 C 17.664464,6.2500000 13.000000,9.8339990 13.000000,14.250000 C 13.000000,18.666002 17.664463,22.250000 23.406250,22.250000 C 24.662782,22.250000 25.822085,22.033190 26.937500,21.718750 C 28.789608,23.926909 31.862887,25.468750 35.531250,25.468750 C 39.303009,25.468750 42.457378,23.844256 44.281250,21.531250 C 45.353990,21.958685 46.521690,22.250000 47.812500,22.250000 C 52.118839,22.250000 55.593750,19.561999 55.593750,16.250000 C 55.593750,12.938000 52.118839,10.250000 47.812500,10.250000 C 47.235431,10.250000 46.728973,10.408429 46.187500,10.500000 C 46.619692,9.8521280 46.937500,9.1527880 46.937500,8.3750000 C 46.937500,5.7579280 44.184026,3.6250000 40.781250,3.6250000 C 39.349058,3.6250000 38.078194,4.0565770 37.031250,4.6875000 C 35.772355,3.6597920 34.010585,2.9999990 32.031250,3.0000000 z "
       style="opacity:1.0000000;fill:#ffffff;fill-opacity:0.17578125;fill-rule:nonzero;stroke:none;stroke-width:1.0000000;stroke-linecap:round;stroke-linejoin:round;stroke-miterlimit:4.0000000;stroke-dasharray:none;stroke-dashoffset:0.0000000;stroke-opacity:1.0000000" />
    <path
       id="use1408"
       d="M 93.031250,71.000000 C 90.015171,71.000000 87.532101,72.518927 86.593750,74.593750 C 85.863362,74.468628 85.185422,74.250000 84.406250,74.250000 C 78.664464,74.250000 74.000000,77.833999 74.000000,82.250000 C 74.000000,86.666000 78.664463,90.250000 84.406250,90.250000 C 85.662782,90.250000 86.822085,90.033190 87.937500,89.718750 C 89.789608,91.926910 92.862887,93.468750 96.531250,93.468750 C 100.30301,93.468750 103.45738,91.844260 105.28125,89.531250 C 106.35399,89.958690 107.52169,90.250000 108.81250,90.250000 C 113.11884,90.250000 116.59375,87.562000 116.59375,84.250000 C 116.59375,80.938000 113.11884,78.250000 108.81250,78.250000 C 108.23543,78.250000 107.72897,78.408429 107.18750,78.500000 C 107.61969,77.852128 107.93750,77.152788 107.93750,76.375000 C 107.93750,73.757928 105.18403,71.625000 101.78125,71.625000 C 100.34906,71.625000 99.078194,72.056577 98.031250,72.687500 C 96.772355,71.659792 95.010585,70.999999 93.031250,71.000000 z "
       style="opacity:1.0000000;fill:#ffffff;fill-opacity:0.17578125;fill-rule:nonzero;stroke:none;stroke-width:1.0000000;stroke-linecap:round;stroke-linejoin:round;stroke-miterlimit:4.0000000;stroke-dasharray:none;stroke-dashoffset:0.0000000;stroke-opacity:1.0000000" />
    <path
       id="use1410"
       d="M 96.145417,17.000000 C 92.323930,17.000000 89.177786,18.924538 87.988860,21.553418 C 87.063431,21.394883 86.204455,21.117873 85.217214,21.117873 C 77.942153,21.117873 72.032100,25.658936 72.032100,31.254177 C 72.032100,36.849420 77.942152,41.390481 85.217214,41.390481 C 86.809288,41.390481 88.278169,41.115775 89.691442,40.717368 C 92.038134,43.515189 95.932095,45.468760 100.58005,45.468760 C 105.35901,45.468760 109.35572,43.410464 111.66663,40.479798 C 113.02584,41.021374 114.50535,41.390481 116.14086,41.390481 C 121.59716,41.390481 126.00000,37.984682 126.00000,33.788253 C 126.00000,29.591824 121.59716,26.186025 116.14086,26.186025 C 115.40969,26.186025 114.76799,26.386761 114.08192,26.502785 C 114.62953,25.681906 115.03220,24.795816 115.03220,23.810329 C 115.03220,20.494400 111.54345,17.791899 107.23200,17.791899 C 105.41736,17.791899 103.80712,18.338723 102.48061,19.138127 C 100.88554,17.835981 98.653310,16.999999 96.145417,17.000000 z "
       style="opacity:1.0000000;fill:#ffffff;fill-opacity:0.17578125;fill-rule:nonzero;stroke:none;stroke-width:1.0000000;stroke-linecap:round;stroke-linejoin:round;stroke-miterlimit:4.0000000;stroke-dasharray:none;stroke-dashoffset:0.0000000;stroke-opacity:1.0000000" />
    <path
       id="use1418"
       d="M 28.552153,96.535714 C 26.404403,96.535714 24.636209,97.617344 23.968009,99.094824 C 23.447900,99.005724 22.965139,98.850044 22.410290,98.850044 C 18.321564,98.850044 15.000000,101.40220 15.000000,104.54684 C 15.000000,107.69147 18.321564,110.24364 22.410290,110.24364 C 23.305067,110.24364 24.130606,110.08925 24.924893,109.86533 C 26.243779,111.43777 28.432261,112.53571 31.044503,112.53571 C 33.730370,112.53571 35.976600,111.37891 37.275380,109.73182 C 38.039280,110.03619 38.870790,110.24364 39.789980,110.24364 C 42.856530,110.24364 45.331010,108.32951 45.331010,105.97104 C 45.331010,103.61256 42.856530,101.69844 39.789980,101.69844 C 39.379050,101.69844 39.018400,101.81126 38.632820,101.87646 C 38.940580,101.41511 39.166890,100.91711 39.166890,100.36325 C 39.166890,98.499634 37.206140,96.980784 34.783030,96.980784 C 33.763160,96.980784 32.858180,97.288104 32.112650,97.737384 C 31.216194,97.005554 29.961637,96.535714 28.552153,96.535714 z "
       style="opacity:1.0000000;fill:#ffffff;fill-opacity:0.17578125;fill-rule:nonzero;stroke:none;stroke-width:1.0000000;stroke-linecap:round;stroke-linejoin:round;stroke-miterlimit:4.0000000;stroke-dasharray:none;stroke-dashoffset:0.0000000;stroke-opacity:1.0000000" />
  </g>
</svg>
